<svg width="191" height="56" viewBox="0 0 191 56" fill="none" xmlns="http://www.w3.org/2000/svg">
<path d="M11.5091 22.7173L12.8706 21.7571C15.8373 19.6432 15.5363 16.1068 12.2114 14.5662C11.1482 14.0573 9.97763 13.8133 8.79965 13.8551C7.62167 13.8969 6.47133 14.2232 5.44689 14.8063C5.13876 14.9711 4.84497 15.1645 4.52967 15.3401C4.38545 15.0145 4.31685 14.6605 4.32903 14.3046C4.29487 13.9303 4.17862 13.568 3.98855 13.2437C3.79848 12.9193 3.53926 12.6408 3.22933 12.4281C2.9194 12.2153 2.56638 12.0734 2.1954 12.0126C1.82441 11.9518 1.44458 11.9734 1.08293 12.0761C0.541912 12.2158 0.412928 12.137 0.416511 11.5745C0.438008 7.99158 0.438008 4.40869 0.416511 0.825797C0.416511 0.291946 0.520414 0.0913086 1.11159 0.0913086C19.2888 0.110417 37.4636 0.110417 55.6361 0.0913086C56.3312 0.0913086 56.3168 0.406603 56.3168 0.89746C56.3168 17.073 56.3168 33.2474 56.3168 49.4206C56.3168 51.341 56.2882 53.2579 56.3168 55.1783C56.3168 55.8089 56.1377 55.9486 55.525 55.9486C40.1424 55.9295 24.7635 55.9295 9.38808 55.9486C6.64 55.9486 3.8955 55.9486 1.14742 55.9486C0.541912 55.9486 0.405762 55.7659 0.405762 55.189C0.422482 46.9675 0.422482 38.7436 0.405762 30.5172C0.405762 29.9977 0.445173 29.7183 1.09009 29.8938C1.90699 30.116 2.60924 29.7684 3.23983 29.2561C3.61674 28.9652 3.92908 28.5992 4.15705 28.1812C4.45801 27.5828 4.69449 27.4646 5.13876 28.1024C5.40597 28.4991 5.76824 28.8227 6.19254 29.0437C6.61684 29.2646 7.08968 29.3758 7.56797 29.3671C8.68941 29.3671 9.42749 28.9085 9.76428 27.8301C9.95059 27.2281 10.1512 27.2102 10.6134 27.5578C11.555 28.2757 12.7299 28.6179 13.9097 28.518C14.9846 28.4392 15.9627 28.0809 16.364 26.9917C16.7653 25.9025 16.2207 25.0103 15.4432 24.2615C14.6562 23.5591 13.6811 23.102 12.6378 22.9466C12.3189 22.8928 12.0036 22.8212 11.5091 22.7173ZM51.7092 47.6972C50.986 47.2848 50.2255 46.9417 49.4377 46.6725C49.2698 46.514 49.0571 46.4114 48.8286 46.3787C47.7019 45.7406 46.6165 45.0322 45.5789 44.2576L45.0056 43.6485L44.264 42.4268L44.0992 41.6744C44.1565 40.9148 44.0991 40.1445 44.4324 39.4243L44.8587 38.7077C45.4668 38.1541 45.9012 37.436 46.1092 36.6404C46.1831 36.5513 46.2366 36.447 46.2657 36.3349C46.2948 36.2228 46.2988 36.1057 46.2775 35.9919C46.4619 35.4257 46.5049 34.823 46.403 34.2363C46.485 34.024 46.5037 33.7925 46.4567 33.5699C46.7577 32.9859 46.4567 32.2191 47.0335 31.7175C47.2507 31.6087 47.423 31.4275 47.5208 31.2052C48.0704 30.5433 48.4406 29.7512 48.5957 28.9049L48.7605 28.2493C48.8286 27.9626 48.9146 27.676 48.9611 27.3858C49.0328 26.8985 49.1224 26.4077 48.6638 26.0171C48.0009 25.451 48.0582 25.2181 48.8895 24.8814C49.7207 24.5446 50.534 24.3296 51.2148 23.7671C51.5963 23.6418 51.9352 23.4122 52.1929 23.1042C52.4473 23.0075 52.6515 22.8355 52.6049 22.5596C52.5584 22.2837 52.2932 22.2515 52.0783 22.2013C50.9154 21.9103 49.7188 21.7766 48.5204 21.8036C47.8469 21.8036 47.6713 21.5206 47.6534 20.9043C47.6806 19.7088 47.6411 18.5126 47.5351 17.3214C47.547 16.6158 47.4627 15.9119 47.2843 15.229C47.2399 14.0976 46.8442 13.0081 46.1521 12.1119C46.021 11.7439 45.7991 11.4149 45.5072 11.1553C44.3838 9.63975 42.7121 8.62385 40.8495 8.3248C40.7639 8.25923 40.6652 8.21281 40.5601 8.18871C40.455 8.1646 40.346 8.16335 40.2404 8.18506C39.4772 7.91635 38.6746 7.95575 37.8864 7.86618C37.2343 7.79452 36.9943 7.97367 36.9979 8.69742C37.0337 13.6669 36.9979 18.6399 37.0193 23.6094C37.0193 23.8817 37.0588 24.154 37.0803 24.4227C36.9943 24.7285 36.9943 25.0521 37.0803 25.3579C36.9728 27.4931 36.9728 29.6324 37.0803 31.7677C37.0109 31.9843 37.0172 32.218 37.0982 32.4305C36.974 33.2519 36.968 34.0868 37.0803 34.9099C37.0033 35.1155 37.0033 35.342 37.0803 35.5476C36.9369 37.1528 37.0229 38.7722 37.0265 40.3738C37.0265 42.1652 36.9369 43.9889 37.0767 45.7947C37.0136 46.0002 37.0136 46.2198 37.0767 46.4253C36.9298 48.6897 37.0373 50.9541 37.0158 53.2328C36.9979 55.3825 37.0158 55.3825 39.2049 55.2392H52.4401C53.0062 55.2392 53.5723 55.2643 54.1384 55.2679C55.74 55.2679 55.74 55.2679 55.6361 53.6699V52.7383C55.6361 51.7495 55.6361 50.7606 55.6719 49.7717C55.6898 49.6487 55.6637 49.5234 55.5981 49.4178C55.5326 49.3123 55.4318 49.2333 55.3136 49.1949C54.3104 48.7864 53.3072 48.3636 52.304 47.9444C52.138 47.7994 51.9291 47.7125 51.7092 47.6972ZM28.4204 0.761308C19.5563 0.761308 10.6922 0.761308 1.82817 0.761308C1.40181 0.761308 1.09009 0.721901 1.11159 1.34891C1.14742 4.46603 1.13309 7.57956 1.11159 10.6967C1.11159 11.0836 1.14742 11.2413 1.63469 11.2234C2.35025 11.1694 3.06301 11.3593 3.65696 11.7619C4.25091 12.1646 4.69109 12.7565 4.90588 13.4412C5.07427 14.0037 5.2355 14.0395 5.75144 13.7995C8.18781 12.7461 10.617 12.7855 12.9566 14.0753C16.1597 15.8417 16.5969 19.4139 13.9276 21.904C13.512 22.2909 13.6123 22.3948 14.0709 22.5596C14.7043 22.7499 15.2905 23.0716 15.7912 23.5038C16.2919 23.936 16.6958 24.4688 16.9766 25.0677C17.1427 25.3981 17.2408 25.7586 17.2651 26.1276C17.2894 26.4967 17.2395 26.8669 17.1182 27.2163C16.9969 27.5657 16.8068 27.8873 16.5591 28.1619C16.3114 28.4366 16.0111 28.6588 15.6761 28.8154C15.0062 29.1625 14.2628 29.3436 13.5084 29.3436C12.754 29.3436 12.0106 29.1625 11.3408 28.8154C10.6493 28.4857 10.2659 28.4571 9.88251 29.1736C9.60594 29.5716 9.18839 29.8496 8.71449 29.9511C8.11997 30.1538 7.48262 30.1965 6.86636 30.0752C6.25009 29.9538 5.67656 29.6726 5.20326 29.2596C4.79122 28.9193 4.61566 28.8655 4.24662 29.3205C3.95141 29.7273 3.56637 30.0604 3.12144 30.294C2.6765 30.5277 2.18368 30.6556 1.68127 30.6677C1.19758 30.6677 1.10443 30.8397 1.10443 31.2768C1.10443 39.078 1.10443 46.8791 1.10443 54.6803C1.10443 55.1496 1.24058 55.2571 1.69202 55.2535C4.01373 55.232 6.34978 55.1926 8.65717 55.2535C9.73203 55.2894 10.574 55.1998 10.9395 53.9924C11.1263 53.5851 11.3931 53.2195 11.7241 52.9175C12.8318 51.7285 14.142 50.7458 15.5936 50.0153C18.1948 48.6323 20.968 47.6005 23.6337 46.3823C25.1089 45.768 26.4909 44.9503 27.7397 43.9531C29.5634 42.4017 29.7604 40.6962 28.3201 38.7758C27.5713 37.7798 26.9765 36.7264 26.9586 35.4473C26.9361 34.5759 26.8667 33.7064 26.7508 32.8425C26.7475 32.5921 26.6533 32.3514 26.4856 32.1654C25.0274 30.7645 24.6333 28.9193 24.3646 27.0311C24.3253 26.8337 24.3263 26.6303 24.3675 26.4333C24.4088 26.2363 24.4894 26.0496 24.6046 25.8846C24.9307 25.4654 24.6834 25.3579 24.3395 25.2217C23.2532 24.8479 22.2345 24.3011 21.3227 23.6023C20.9644 23.2977 20.5524 22.9645 20.6814 22.4199C20.8103 21.8753 21.2976 21.732 21.7562 21.6066C22.7972 21.3405 23.8715 21.2282 24.945 21.2734C25.5541 21.2913 25.6974 21.0799 25.7046 20.5174C25.7332 18.5755 25.7046 16.6264 26.1166 14.7131C26.8833 11.1481 29.008 8.8049 32.53 7.83394C35.2679 7.09185 38.1484 7.04996 40.9068 7.71212C44.7262 8.59351 47.055 11.0227 47.8182 14.8958C48.1146 16.7156 48.2346 18.5598 48.1765 20.4027C48.1765 21.0082 48.2876 21.302 48.9934 21.277C50.0422 21.2282 51.0922 21.3406 52.1069 21.6102C52.5655 21.7392 53.06 21.9004 53.1818 22.4414C53.3036 22.9824 52.9095 23.269 52.5727 23.57C51.7939 24.1949 50.9191 24.6898 49.9823 25.0354C49.4484 25.2647 48.7426 25.3686 49.4484 26.1748C49.539 26.3253 49.5756 26.5022 49.5523 26.6764C49.4269 28.5753 49.0041 30.3847 47.7322 31.8644C47.3649 32.2308 47.1487 32.7219 47.1267 33.2402C47.0873 35.519 46.6824 37.6365 45.1418 39.496C44.2245 40.5995 44.5255 42.176 45.5001 43.2867C46.0022 43.8396 46.5771 44.3218 47.2091 44.7198C49.6096 46.2784 52.3147 47.2028 54.898 48.378C55.6612 48.7363 55.6719 48.7004 55.6719 47.8871C55.6719 32.4377 55.6779 16.9858 55.6898 1.53163C55.6898 0.847295 55.4928 0.729063 54.8586 0.729063C46.0447 0.762504 37.2319 0.773251 28.4204 0.761308Z" fill="black"/>
<path d="M118.319 28.3352C119.243 28.3352 120.168 28.3675 121.089 28.3352C121.683 28.3066 121.734 28.5502 121.655 29.0518C121.117 32.3194 117.685 34.3796 114.378 33.4122C113.225 33.0823 112.213 32.3844 111.494 31.425C110.775 30.4656 110.39 29.2975 110.397 28.0988C110.378 26.9424 110.728 25.8101 111.397 24.8667C112.066 23.9232 113.019 23.2179 114.116 22.8534C116.452 22.0652 119.211 22.8713 120.565 24.7488C120.669 24.8885 120.759 25.039 120.849 25.1859C121.031 25.4797 120.917 25.5693 120.605 25.5764C120.34 25.6128 120.07 25.5824 119.82 25.4879C119.569 25.3934 119.347 25.2379 119.172 25.0354C118.54 24.3518 117.704 23.8905 116.788 23.7201C115.873 23.5497 114.927 23.6793 114.091 24.0895C113.247 24.5074 112.56 25.1861 112.131 26.0249C111.703 26.8638 111.556 27.8184 111.712 28.7473C111.826 29.6454 112.221 30.4846 112.84 31.1453C113.458 31.8061 114.27 32.2546 115.159 32.4269C116.073 32.6011 117.019 32.488 117.867 32.1031C118.714 31.7182 119.422 31.0804 119.892 30.2772C120.354 29.4531 120.297 29.3528 119.329 29.3528C118.083 29.3528 116.821 29.3528 115.589 29.3528C115.184 29.3528 114.944 29.3313 114.944 28.8118C114.944 28.2923 115.259 28.303 115.621 28.3066C116.52 28.3388 117.42 28.3352 118.319 28.3352Z" fill="black"/>
<path d="M149.64 43.5663C150.515 43.5663 151.392 43.6093 152.26 43.5484C152.94 43.5018 153.012 43.8135 152.908 44.3438C152.467 46.5688 151.117 47.9553 148.967 48.5895C147.811 48.9653 146.564 48.9527 145.416 48.5535C144.268 48.1544 143.283 47.3906 142.61 46.3788C141.936 45.367 141.613 44.1627 141.688 42.9497C141.763 41.7368 142.233 40.5817 143.026 39.6609C145.223 37.0669 149.676 37.178 151.779 39.8902C151.969 40.1303 152.374 40.528 152.163 40.6713C151.963 40.7959 151.731 40.8586 151.496 40.8516C151.261 40.8446 151.033 40.7681 150.841 40.6319C150.618 40.4332 150.408 40.2214 150.21 39.9977C149.772 39.6061 149.259 39.3066 148.703 39.117C148.147 38.9274 147.558 38.8516 146.972 38.894C146.385 38.9365 145.814 39.0963 145.29 39.3641C144.767 39.6319 144.303 40.0021 143.926 40.4528C143.182 41.3904 142.836 42.5827 142.963 43.7729C143.089 44.9631 143.678 46.0559 144.603 46.816C145.076 47.1742 145.615 47.4353 146.19 47.5844C146.764 47.7335 147.363 47.7675 147.95 47.6846C148.538 47.6017 149.103 47.4035 149.614 47.1013C150.125 46.7991 150.571 46.399 150.927 45.9238C151.094 45.677 151.242 45.417 151.367 45.1463C151.575 44.7379 151.453 44.5802 150.98 44.591C149.608 44.6125 148.232 44.591 146.86 44.591C146.502 44.591 146.244 44.591 146.24 44.1037C146.237 43.6164 146.455 43.5376 146.874 43.5484C147.795 43.5663 148.734 43.5663 149.64 43.5663Z" fill="black"/>
<path d="M71.5335 24.9351V27.2138C71.5335 29.059 71.5335 30.9007 71.5335 32.7423C71.5335 33.1722 71.5012 33.4337 70.9423 33.4302C70.3834 33.4266 70.2866 33.2224 70.2902 32.7136C70.3117 29.6538 70.2902 26.5904 70.3117 23.5271C70.3117 23.2655 70.1039 22.8284 70.5195 22.7675C70.9351 22.7066 71.4869 22.5489 71.8667 23.0935C73.2999 25.168 74.733 27.2174 76.1948 29.274C76.6499 29.9189 77.1121 30.5603 77.5957 31.2374C77.8931 30.958 77.7964 30.6713 77.7928 30.4205C77.7928 28.0845 77.7749 25.7449 77.7355 23.4052C77.7355 22.9072 77.8358 22.7066 78.384 22.7066C78.9322 22.7066 78.9823 22.9359 78.9787 23.3802C78.9787 26.4184 78.9787 29.4711 78.9608 32.495C78.9608 32.7924 79.2009 33.2654 78.6957 33.3693C78.4612 33.4517 78.2057 33.4524 77.9708 33.371C77.736 33.2897 77.5355 33.1312 77.4023 32.9214C75.9691 30.8397 74.518 28.8011 73.067 26.7445L71.7341 24.8635L71.5335 24.9351Z" fill="black"/>
<path d="M137.985 31.1837C138.178 30.9437 138.092 30.6857 138.092 30.4672C138.092 28.1741 138.092 25.8811 138.092 23.588C138.092 23.1616 137.946 22.7102 138.712 22.7174C139.479 22.7245 139.286 23.1473 139.286 23.545C139.286 26.5582 139.286 29.575 139.286 32.5918C139.286 32.8641 139.526 33.3084 139.035 33.3908C138.544 33.4732 138.132 33.5234 137.781 33.0039C136.813 31.5528 135.778 30.1375 134.771 28.7044C134.055 27.6868 133.338 26.6585 132.621 25.6482C132.446 25.4045 132.328 24.9316 131.991 25.0391C131.708 25.1215 131.858 25.5694 131.858 25.8524C131.858 28.1168 131.87 30.386 131.894 32.6599C131.894 33.0719 131.955 33.4266 131.31 33.4266C130.665 33.4266 130.654 33.1293 130.658 32.6492C130.658 29.6574 130.658 26.6693 130.676 23.6919C130.676 23.3874 130.429 22.9001 130.894 22.7854C131.414 22.66 131.926 22.6672 132.328 23.2656C133.367 24.8492 134.477 26.3791 135.577 27.9233C136.265 28.905 136.954 29.8844 137.645 30.8613C137.706 30.9795 137.784 31.1372 137.985 31.1837Z" fill="black"/>
<path d="M173.473 43.3439C173.473 46.4968 171.102 48.8257 167.913 48.8149C167.176 48.8337 166.443 48.7048 165.757 48.4359C165.071 48.1669 164.446 47.7634 163.918 47.249C163.39 46.7346 162.971 46.1198 162.685 45.4408C162.398 44.7618 162.251 44.0324 162.251 43.2955C162.251 42.5586 162.398 41.8292 162.685 41.1502C162.971 40.4712 163.39 39.8564 163.918 39.342C164.446 38.8276 165.071 38.424 165.757 38.1551C166.443 37.8862 167.176 37.7573 167.913 37.776C168.65 37.7531 169.384 37.8815 170.069 38.1533C170.755 38.4251 171.377 38.8345 171.898 39.3563C172.419 39.8781 172.828 40.5011 173.099 41.1869C173.37 41.8728 173.497 42.6068 173.473 43.3439ZM167.981 38.9082C167.399 38.9004 166.822 39.0097 166.284 39.2294C165.745 39.4492 165.256 39.775 164.846 40.1874C164.436 40.5999 164.113 41.0906 163.896 41.6304C163.68 42.1701 163.574 42.748 163.585 43.3295C163.585 44.4901 164.041 45.6041 164.856 46.4307C165.67 47.2574 166.777 47.7303 167.938 47.7472C169.089 47.7206 170.184 47.2461 170.99 46.4247C171.797 45.6033 172.251 44.4998 172.257 43.3486C172.262 42.1975 171.819 41.0896 171.02 40.2604C170.222 39.4312 169.131 38.9461 167.981 38.9082Z" fill="black"/>
<path d="M115.345 48.5819C114.453 48.8435 113.933 48.5819 113.503 47.8295C112.786 46.5576 111.927 45.3537 111.124 44.1105C111.482 43.8561 111.841 43.9456 112.177 43.9277C113.639 43.8489 114.503 42.9926 114.542 41.5702C114.566 41.2646 114.528 40.9573 114.43 40.6668C114.332 40.3764 114.176 40.1087 113.972 39.8801C113.767 39.6515 113.519 39.4665 113.242 39.3364C112.964 39.2063 112.663 39.1337 112.357 39.1231C111.687 39.0586 111.009 39.1052 110.339 39.0514C109.831 39.0156 109.709 39.2126 109.712 39.6928C109.734 42.4301 109.712 45.171 109.73 47.9119C109.73 48.392 109.73 48.693 109.082 48.6858C108.433 48.6787 108.465 48.3884 108.469 47.9477C108.469 44.8593 108.491 41.7708 108.469 38.6788C108.469 38.0984 108.645 37.9622 109.186 37.9909C110.357 38.0375 111.532 37.9909 112.7 38.0482C114.026 38.1234 115.037 38.7218 115.502 40.0367C115.968 41.3516 115.861 42.6343 114.922 43.7522C114.53 44.2167 113.975 44.512 113.37 44.5762C112.876 44.6407 112.84 44.7733 113.113 45.1638C113.808 46.1635 114.474 47.1882 115.148 48.2057C115.205 48.2989 115.255 48.4063 115.345 48.5819Z" fill="black"/>
<path d="M158.655 44.6947C159.522 46.0132 160.339 47.2529 161.217 48.5929C160.461 48.6932 159.902 48.7757 159.465 48.0125C158.773 46.8051 157.971 45.655 157.197 44.4977C156.921 44.0856 156.996 43.928 157.48 43.9316C157.655 43.9316 157.838 43.9316 158.003 43.9316C159.475 43.8635 160.335 43.0072 160.375 41.5812C160.414 40.1552 159.558 39.2559 158.118 39.1233C157.498 39.0696 156.867 39.1233 156.247 39.0624C155.706 39.0194 155.57 39.238 155.574 39.7503C155.595 42.4662 155.552 45.182 155.602 47.8978C155.602 48.6359 155.323 48.7255 154.728 48.6789C154.402 48.6538 154.302 48.5284 154.302 48.2203C154.302 44.9551 154.302 41.6899 154.302 38.4247C154.302 38.0879 154.449 38.0019 154.753 38.0055C155.928 38.0234 157.104 37.984 158.275 38.0413C160.303 38.138 161.471 39.2702 161.597 41.1728C161.722 43.0753 160.74 44.2612 158.655 44.6947Z" fill="black"/>
<path d="M73.708 48.582C73.389 48.7173 73.0295 48.7209 72.708 48.592C72.3864 48.4631 72.1289 48.2122 71.9917 47.8941C71.3182 46.7333 70.5586 45.619 69.8062 44.5047C69.4873 44.0389 69.627 43.9135 70.1215 43.9243C70.3185 43.9243 70.5192 43.9243 70.7198 43.9243C71.3237 43.8928 71.8937 43.6352 72.3164 43.2027C72.739 42.7702 72.9835 42.1944 73.0011 41.5899C73.0187 40.9855 72.8082 40.3965 72.4114 39.9401C72.0146 39.4837 71.4606 39.1934 70.8596 39.1268C68.1473 38.7685 68.1473 38.7685 68.1473 41.4127C68.1473 43.6269 68.1473 45.8447 68.1473 48.0589C68.1473 48.557 67.9932 48.6824 67.5131 48.6824C67.033 48.6824 66.8861 48.5068 66.8897 48.0303C66.9088 44.8964 66.9088 41.7602 66.8897 38.6216C66.8897 38.1236 67.0294 37.9767 67.5203 37.9946C68.7421 38.0376 69.9674 37.9946 71.1856 38.0555C71.8037 38.0561 72.4055 38.2537 72.9035 38.6197C73.4016 38.9856 73.77 39.5009 73.9552 40.0906C74.4317 41.4628 74.2669 42.7419 73.2565 43.849C72.8583 44.2723 72.3195 44.536 71.7409 44.5907C71.2537 44.648 71.2931 44.8093 71.5188 45.1425C72.153 46.0633 72.7692 47.002 73.3855 47.9371C73.5252 48.127 73.733 48.299 73.708 48.582Z" fill="black"/>
<path d="M135.997 43.3117C135.997 44.881 135.997 46.4503 135.997 48.0196C135.997 48.4675 135.929 48.6789 135.398 48.6753C134.868 48.6717 134.718 48.4997 134.732 47.9874C134.764 46.7907 134.732 45.5976 134.75 44.4045C134.75 43.9315 134.628 43.7416 134.123 43.756C132.876 43.7882 131.615 43.7918 130.382 43.756C129.834 43.756 129.633 43.8814 129.666 44.4725C129.709 45.6657 129.666 46.8623 129.687 48.0554C129.687 48.5535 129.533 48.6824 129.046 48.6932C128.559 48.7039 128.43 48.5033 128.433 48.0411C128.433 44.881 128.451 41.7173 128.433 38.5572C128.433 38.052 128.63 37.9875 129.049 38.0018C129.469 38.0162 129.716 38.0018 129.698 38.5357C129.659 39.7288 129.698 40.9255 129.676 42.1186C129.676 42.5772 129.834 42.7241 130.286 42.7169C131.583 42.6954 132.88 42.6919 134.177 42.7169C134.649 42.7169 134.775 42.545 134.768 42.1043C134.746 40.9327 134.793 39.761 134.746 38.593C134.725 38.0484 134.968 38.009 135.405 37.9911C135.904 37.9696 136.025 38.1344 136.018 38.6181C135.975 40.1767 135.997 41.746 135.997 43.3117Z" fill="black"/>
<path d="M122.435 48.8225C119.433 48.8225 117.201 47.0597 116.667 44.5051C116.376 43.2623 116.524 41.957 117.088 40.8115C117.651 39.666 118.594 38.7513 119.756 38.2231C120.918 37.6949 122.227 37.5859 123.461 37.9147C124.694 38.2436 125.775 38.9899 126.52 40.0264C126.703 40.2737 127.168 40.6678 126.842 40.8648C126.634 41.0058 126.38 41.061 126.132 41.0189C125.885 40.9769 125.663 40.8408 125.513 40.6391C125.126 40.0837 124.607 39.6332 124.003 39.328C123.399 39.0228 122.729 38.8725 122.052 38.8907C121.084 38.8954 120.147 39.2298 119.395 39.8388C118.642 40.4478 118.12 41.295 117.914 42.2407C117.671 43.2155 117.765 44.2439 118.18 45.1586C118.596 46.0732 119.309 46.8203 120.203 47.2782C121.061 47.7025 122.036 47.8272 122.972 47.6323C123.909 47.4375 124.753 46.9344 125.37 46.2033C125.513 46.0385 125.585 45.7591 125.832 45.7519C126.19 45.734 126.674 45.5549 126.907 45.8415C127.14 46.1281 126.728 46.4076 126.549 46.6548C126.076 47.3083 125.459 47.844 124.746 48.22C124.032 48.596 123.242 48.8021 122.435 48.8225Z" fill="black"/>
<path d="M83.9513 18.0739C83.0233 18.357 82.5002 18.0739 82.0775 17.3394C81.4755 16.2646 80.7661 15.2829 80.1033 14.2582C79.6411 13.5416 79.6411 13.5416 80.4616 13.4807C80.6837 13.4807 80.9094 13.4484 81.1316 13.4198C82.3999 13.2585 83.1273 12.4022 83.1273 11.0586C83.1273 9.71504 82.3784 8.8444 81.1316 8.67959C78.3369 8.3213 78.3369 8.3213 78.3369 11.0622C78.3369 13.2119 78.3369 15.3939 78.3369 17.558C78.3369 18.0453 78.2044 18.1886 77.7135 18.1886C77.2226 18.1886 77.0829 18.0238 77.0865 17.5437C77.1032 14.405 77.1032 11.2676 77.0865 8.13141C77.0865 7.64413 77.2262 7.47932 77.7171 7.5044C79.0607 7.57248 80.4114 7.39691 81.7478 7.64771C83.3171 7.94509 84.3096 9.15969 84.349 10.8222C84.3884 12.567 83.5464 13.7494 81.9413 14.1077C81.4433 14.2187 81.4755 14.3692 81.7156 14.7239C82.4501 15.8095 83.1667 16.9095 83.9513 18.0739Z" fill="black"/>
<path d="M76.0191 18.0984C74.8189 18.2776 74.8189 18.2776 74.3782 17.2135C73.5469 15.1999 73.5469 15.1999 71.3864 15.1999C70.6699 15.1999 69.9855 15.2285 69.2904 15.1999C69.0955 15.1612 68.8931 15.1997 68.726 15.3073C68.5589 15.4149 68.4401 15.5832 68.3947 15.7767C68.1654 16.4324 67.8788 17.0701 67.6065 17.7115C67.4749 17.9267 67.2718 18.0888 67.0327 18.1694C66.7936 18.25 66.5338 18.2439 66.2987 18.1522C66.0157 17.9694 66.2522 17.7545 66.3238 17.5753C66.9257 16.1027 67.5384 14.6338 68.1511 13.1612C68.8677 11.4414 69.5842 9.72162 70.3008 7.99108C70.4441 7.63279 70.634 7.46798 71.0174 7.51456C71.3434 7.55397 71.6874 7.4214 71.8773 7.87285C73.2424 11.2121 74.6325 14.5442 76.0084 17.8799C76.0254 17.9514 76.0291 18.0255 76.0191 18.0984ZM71.0747 8.96562C70.4119 10.6496 69.8315 12.1257 69.2403 13.5983C69.0898 13.9745 69.1292 14.1537 69.5986 14.1465C70.6161 14.1465 71.6372 14.1465 72.6584 14.1465C72.9557 14.1465 73.1564 14.1142 73.0167 13.7273C72.3682 12.2153 71.7698 10.6962 71.0747 8.96562Z" fill="black"/>
<path d="M119.035 18.0879L120.988 13.4015C121.704 11.653 122.453 9.91172 123.166 8.15968C123.342 7.72615 123.525 7.48252 124.073 7.48968C124.267 7.47644 124.459 7.53313 124.615 7.64947C124.771 7.76581 124.879 7.9341 124.922 8.12385C126.197 11.2338 127.494 14.3366 128.766 17.4394C128.852 17.6472 129.171 18.0341 128.816 18.1058C128.462 18.1775 127.853 18.4641 127.577 17.8371C127.269 17.1205 126.957 16.4218 126.685 15.6873C126.638 15.522 126.533 15.3789 126.39 15.2842C126.247 15.1895 126.074 15.1495 125.904 15.1714C124.657 15.1965 123.396 15.2001 122.159 15.1714C121.976 15.1439 121.788 15.1865 121.634 15.2907C121.48 15.3949 121.371 15.5531 121.328 15.7339C121.16 16.2284 120.938 16.7013 120.741 17.185C120.307 18.2849 120.307 18.2849 119.035 18.0879ZM124.012 8.973C123.327 10.6928 122.729 12.1976 122.124 13.7132C121.977 14.0715 122.149 14.1467 122.464 14.1467C123.482 14.1467 124.503 14.1467 125.524 14.1467C125.954 14.1467 126.04 14.007 125.882 13.6093C125.273 12.1474 124.693 10.6713 124.012 8.973Z" fill="black"/>
<path d="M146.409 22.5628C147.287 22.5435 148.157 22.7441 148.939 23.1464C149.72 23.5488 150.389 24.1401 150.884 24.8666C151.049 25.0887 151.403 25.4757 151.181 25.6083C150.99 25.7239 150.767 25.7787 150.544 25.7653C150.321 25.7518 150.107 25.6708 149.931 25.533C149.776 25.3712 149.631 25.2001 149.497 25.0207C148.864 24.3391 148.026 23.8837 147.109 23.7239C146.193 23.564 145.25 23.7087 144.424 24.1357C143.56 24.5983 142.875 25.3355 142.476 26.2308C142.078 27.1262 141.989 28.1287 142.224 29.0801C142.408 30.0045 142.896 30.8408 143.61 31.4557C144.324 32.0706 145.224 32.4288 146.165 32.4731C146.852 32.5216 147.54 32.3968 148.166 32.1101C148.792 31.8233 149.336 31.3839 149.748 30.8321C150.149 30.3126 150.662 30.4738 151.106 30.5491C151.439 30.61 151.156 30.9253 151.063 31.0758C150.66 31.7413 150.113 32.3077 149.462 32.7331C148.811 33.1586 148.072 33.4322 147.301 33.5336C143.944 34.0818 141.12 31.7816 140.852 28.299C140.608 25.1891 143.152 22.5628 146.409 22.5628Z" fill="black"/>
<path d="M110.447 7.3465C111.312 7.32732 112.167 7.52361 112.937 7.91765C113.707 8.3117 114.367 8.89112 114.857 9.60371C115.033 9.84377 115.427 10.2666 115.18 10.392C114.978 10.5168 114.741 10.5715 114.505 10.5475C114.269 10.5235 114.048 10.4222 113.876 10.2594C113.79 10.1662 113.725 10.0587 113.643 9.962C113.27 9.51582 112.809 9.15082 112.289 8.88947C111.769 8.62811 111.202 8.47596 110.621 8.44239C110.04 8.40882 109.459 8.49455 108.913 8.69428C108.366 8.89401 107.867 9.20351 107.444 9.60371C106.596 10.4607 106.118 11.616 106.112 12.8217C106.106 14.0274 106.573 15.1875 107.412 16.0529C107.832 16.4562 108.329 16.7701 108.874 16.9754C109.419 17.1808 110 17.2734 110.581 17.2476C111.163 17.2218 111.733 17.0781 112.257 16.8254C112.782 16.5726 113.25 16.2159 113.632 15.777C113.793 15.5943 113.879 15.2934 114.144 15.2647C114.503 15.2217 114.983 15.0641 115.219 15.3435C115.456 15.623 115.047 15.9168 114.861 16.1676C113.406 18.2134 110.515 18.9336 108.082 17.8659C105.703 16.8232 104.442 14.283 104.986 11.628C105.506 9.0627 107.692 7.35008 110.447 7.3465Z" fill="black"/>
<path d="M106.771 48.6426C106.319 48.7501 106.097 48.5243 105.947 48.1159C105.696 47.4387 105.391 46.7831 105.14 46.1059C105.102 45.9623 105.013 45.8374 104.89 45.7538C104.767 45.6703 104.618 45.6338 104.47 45.6509C103.148 45.6509 101.826 45.6688 100.504 45.6509C100.358 45.6318 100.209 45.6677 100.087 45.7518C99.9655 45.8358 99.8792 45.962 99.845 46.1059C99.5834 46.8225 99.286 47.4925 98.9922 48.1804C98.8623 48.3976 98.6599 48.5619 98.4206 48.6445C98.1814 48.7271 97.9207 48.7226 97.6845 48.6318C97.3728 48.4455 97.6379 48.2306 97.7096 48.0586C98.505 46.1274 99.3183 44.2034 100.124 42.2722C100.655 41.011 101.199 39.7642 101.694 38.4779C101.737 38.3119 101.842 38.1685 101.987 38.0767C102.132 37.9849 102.306 37.9516 102.475 37.9835C102.862 38.005 103.156 37.9835 103.342 38.4636C104.627 41.6476 105.941 44.822 107.283 47.9869C107.53 48.6175 107.355 48.7357 106.771 48.6426ZM102.471 39.431C101.755 41.1937 101.138 42.7523 100.522 44.3109C100.433 44.5402 100.576 44.619 100.787 44.619H104.155C104.435 44.619 104.513 44.5008 104.41 44.2607C103.797 42.7129 103.181 41.1758 102.478 39.431H102.471Z" fill="black"/>
<path d="M180.858 41.9713C180.858 40.8498 180.883 39.7284 180.858 38.6105C180.858 38.1089 181.005 37.962 181.489 37.9799C181.911 37.9799 182.166 38.005 182.155 38.5675C182.116 40.7818 182.155 42.9996 182.155 45.2138C182.13 48.5638 179.034 49.327 177.139 48.5459C176.57 48.3448 176.073 47.98 175.711 47.4975C175.349 47.0149 175.138 46.436 175.104 45.8336C174.907 43.3722 175.068 40.9072 175.011 38.4421C175.011 37.8295 175.419 38.0337 175.727 37.9943C176.147 37.937 176.283 38.1018 176.279 38.5317C176.258 40.5453 176.279 42.5625 176.279 44.5796C176.271 45.0277 176.308 45.4755 176.39 45.9161C176.491 46.4615 176.794 46.949 177.238 47.2811C177.682 47.6131 178.235 47.7654 178.787 47.7075C179.342 47.6811 179.865 47.4438 180.251 47.0443C180.636 46.6447 180.855 46.113 180.862 45.5578C180.908 44.3647 180.862 43.168 180.862 41.9749L180.858 41.9713Z" fill="black"/>
<path d="M75.5747 43.2973C75.5747 41.728 75.5926 40.1551 75.5747 38.5858C75.5747 38.1451 75.6607 37.9731 76.1444 37.9839C77.7674 38.0125 79.3869 38.0054 81.01 37.9839C81.4327 37.9839 81.5689 38.1021 81.5689 38.5321C81.5689 38.962 81.3754 39.0659 80.9813 39.0623C79.8061 39.0408 78.6345 39.0623 77.4629 39.0444C76.9685 39.0444 76.8001 39.1913 76.8216 39.6822C76.8538 40.4811 76.8574 41.2801 76.8216 42.0755C76.8001 42.5771 76.99 42.7563 77.4701 42.6989C77.6204 42.69 77.7712 42.69 77.9215 42.6989C81.5044 42.6989 81.5044 42.699 81.5044 43.2758C81.5044 43.8526 81.5044 43.8096 77.9645 43.8096C77.7902 43.8186 77.6156 43.8186 77.4414 43.8096C76.9935 43.7631 76.8108 43.935 76.8251 44.4008C76.8538 45.2464 76.8646 46.0955 76.8251 46.9411C76.8001 47.4714 77.0258 47.5645 77.4844 47.5538C78.6345 47.5287 79.781 47.5538 80.9311 47.5538C81.3253 47.5538 81.5904 47.5717 81.5796 48.0948C81.5796 48.5498 81.4363 48.6931 80.9741 48.686C79.3797 48.6609 77.7818 48.6537 76.1838 48.686C75.6428 48.686 75.5783 48.4674 75.5819 48.0231C75.5855 46.4323 75.5747 44.8666 75.5747 43.2973Z" fill="black"/>
<path d="M90.6479 43.2692C90.6479 41.725 90.6479 40.1807 90.6479 38.6401C90.6479 38.1958 90.7053 37.9701 91.2427 37.9808C92.8371 38.0167 94.4351 38.0059 96.033 37.9808C96.4236 37.9808 96.617 38.0382 96.6027 38.4968C96.5884 38.9554 96.4809 39.0629 96.0509 39.0557C94.8793 39.0306 93.7077 39.0557 92.5361 39.0378C92.0417 39.0378 91.8196 39.1453 91.8375 39.697C91.8787 40.468 91.8787 41.2406 91.8375 42.0116C91.8124 42.5275 91.9772 42.7282 92.5075 42.6995C93.654 42.6673 94.8005 42.6995 95.9506 42.6816C96.4092 42.6816 96.6063 42.7676 96.6063 43.2943C96.6063 43.8209 96.291 43.803 95.9327 43.7995C94.7862 43.7995 93.6397 43.7995 92.4931 43.7995C92.0202 43.7995 91.816 43.9213 91.8375 44.4265C91.8733 45.272 91.8733 46.1212 91.8375 46.9667C91.816 47.4576 92.0309 47.5507 92.4537 47.5436C93.6038 47.5436 94.7504 47.5436 95.8969 47.5436C96.2767 47.5436 96.6135 47.4683 96.6135 48.0846C96.6135 48.6328 96.3698 48.6758 95.9363 48.6686C94.4172 48.6507 92.8944 48.6292 91.3753 48.6686C90.7375 48.6901 90.6372 48.45 90.6587 47.8983C90.6659 46.3576 90.6479 44.8134 90.6479 43.2692Z" fill="black"/>
<path d="M87.4882 28.07C87.4882 26.5006 87.5061 24.9313 87.4882 23.362C87.4882 22.8783 87.6136 22.7099 88.1152 22.7207C89.6845 22.7494 91.2574 22.7422 92.8303 22.7207C93.2459 22.7207 93.4681 22.7744 93.4573 23.2796C93.4466 23.7848 93.2746 23.8744 92.8339 23.8636C91.6623 23.8421 90.4871 23.8636 89.3155 23.8636C88.8175 23.8636 88.6634 24.0249 88.6813 24.5086C88.7136 25.304 88.71 26.1029 88.6813 26.9019C88.6634 27.357 88.8318 27.511 89.2832 27.5039C90.4584 27.4824 91.63 27.5039 92.8017 27.5039C93.1922 27.5039 93.4537 27.5039 93.4537 28.0449C93.4537 28.5859 93.1922 28.5895 92.8017 28.5859C91.63 28.5859 90.4584 28.5859 89.2832 28.5859C88.8318 28.5859 88.6634 28.7292 88.6777 29.1878C88.7064 30.0585 88.7064 30.9327 88.6777 31.8033C88.6777 32.244 88.8497 32.3515 89.2546 32.3479C90.4513 32.3479 91.6515 32.3479 92.8375 32.3479C93.2997 32.3479 93.4358 32.4948 93.4358 32.9499C93.4358 33.4049 93.1993 33.4622 92.8303 33.4586C91.2574 33.4586 89.6845 33.4335 88.1116 33.4586C87.6136 33.4586 87.4667 33.3117 87.4739 32.8244C87.5025 31.2086 87.4882 29.6393 87.4882 28.07Z" fill="black"/>
<path d="M85.736 48.815C84.1345 48.815 82.8984 47.9444 82.5365 46.5184C82.4648 46.2317 82.1782 45.7695 82.6583 45.6334C83.1384 45.4972 83.5791 45.4435 83.7726 46.1923C83.8553 46.5543 84.0353 46.8868 84.2931 47.154C84.551 47.4211 84.8769 47.6128 85.2357 47.7083C85.5945 47.8038 85.9725 47.7995 86.3291 47.6959C86.6856 47.5923 87.0071 47.3932 87.2588 47.1203C87.4751 46.9292 87.6421 46.6886 87.7454 46.4191C87.8488 46.1496 87.8855 45.8591 87.8524 45.5724C87.8194 45.2856 87.7175 45.0111 87.5555 44.7722C87.3935 44.5333 87.1761 44.3371 86.922 44.2002C86.2546 43.8627 85.5532 43.5973 84.8296 43.4084C83.2316 42.8638 82.5186 41.8893 82.6225 40.4489C82.7264 39.0086 83.7619 38.0162 85.3992 37.8048C86.9076 37.6113 88.2476 38.3709 88.6597 39.7001C88.7421 39.9617 89.0717 40.388 88.6095 40.5242C88.219 40.6424 87.6995 40.7786 87.4666 40.0871C87.1405 39.1233 86.5243 38.7793 85.5856 38.8474C85.1825 38.8603 84.7955 39.0087 84.4873 39.2688C84.1791 39.5289 83.9677 39.8854 83.8873 40.2805C83.7225 41.1189 84.027 41.7316 84.8976 42.1401C85.5533 42.4446 86.2448 42.6632 86.9148 42.9355C88.6274 43.6234 89.3118 44.7269 89.0108 46.3285C88.7242 47.8405 87.4343 48.8222 85.736 48.815Z" fill="black"/>
<path d="M184.112 43.3477C184.112 41.7533 184.112 40.1589 184.112 38.5645C184.112 38.1847 184.151 37.9697 184.62 37.9841C185.742 38.0199 186.867 37.9841 187.988 38.0199C189.819 38.1059 190.976 39.3456 190.991 41.1693C191.005 42.993 189.859 44.2792 188.067 44.4225C187.42 44.4763 186.77 44.487 186.122 44.4548C185.555 44.4225 185.319 44.5658 185.355 45.1714C185.409 46.1172 185.355 47.0667 185.38 48.0126C185.38 48.4855 185.265 48.6683 184.753 48.6575C184.241 48.6468 184.097 48.5536 184.108 48.0377C184.133 46.4863 184.112 44.917 184.112 43.3477ZM185.355 41.1979C185.355 41.7461 185.355 42.2907 185.355 42.8389C185.355 43.1972 185.437 43.3978 185.849 43.3727C186.519 43.3369 187.196 43.3727 187.863 43.3047C189.088 43.1757 189.78 42.4089 189.79 41.2481C189.801 40.0872 189.156 39.3491 187.981 39.1521C187.613 39.0941 187.24 39.0666 186.867 39.0697C185.362 39.0697 185.362 39.0697 185.362 40.5279L185.355 41.1979Z" fill="black"/>
<path d="M123.094 28.0556C123.094 26.515 123.112 24.9708 123.094 23.4265C123.094 22.9321 123.188 22.71 123.743 22.71C125.312 22.7458 126.885 22.7315 128.458 22.71C128.841 22.71 129.053 22.7673 129.049 23.2331C129.046 23.6988 128.866 23.8314 128.426 23.8207C127.279 23.7992 126.129 23.8207 124.983 23.8207C124.524 23.8207 124.298 23.9066 124.323 24.4333C124.366 25.2538 124.359 26.0779 124.323 26.8984C124.302 27.3785 124.499 27.486 124.936 27.4788C126.108 27.4573 127.279 27.4788 128.454 27.4788C128.841 27.4788 129.049 27.554 129.046 28.0091C129.042 28.4641 128.891 28.5752 128.476 28.568C127.304 28.5465 126.129 28.568 124.957 28.5501C124.463 28.5501 124.302 28.6934 124.323 29.1842C124.356 29.9796 124.363 30.7786 124.323 31.574C124.291 32.1437 124.438 32.3694 125.04 32.3408C126.161 32.2906 127.283 32.3408 128.404 32.3193C128.838 32.3193 129.038 32.4124 129.031 32.8961C129.024 33.3798 128.795 33.4121 128.419 33.4085C126.846 33.4085 125.276 33.387 123.703 33.4085C123.202 33.4085 123.069 33.2365 123.076 32.76C123.109 31.1942 123.094 29.6249 123.094 28.0556Z" fill="black"/>
<path d="M152.754 28.0521C152.754 26.5079 152.783 24.9636 152.754 23.4194C152.736 22.839 152.926 22.7028 153.471 22.7279C154.993 22.7637 156.516 22.7458 158.039 22.7279C158.44 22.7279 158.755 22.7028 158.755 23.2904C158.755 23.878 158.397 23.8314 158.014 23.8314C156.914 23.8314 155.814 23.8565 154.718 23.8314C154.144 23.8099 153.979 24.0178 154.001 24.548C154.039 25.294 154.039 26.0414 154.001 26.7873C153.976 27.2997 154.141 27.5039 154.675 27.4788C155.8 27.443 156.921 27.4788 158.046 27.4788C158.437 27.4788 158.698 27.4788 158.698 28.0163C158.698 28.5537 158.451 28.568 158.053 28.5609C156.903 28.5609 155.757 28.5609 154.606 28.5609C154.151 28.5609 153.99 28.7113 154.001 29.1664C154.027 30.0358 154.027 30.9076 154.001 31.7819C154.001 32.2082 154.159 32.3444 154.571 32.3408C155.771 32.3229 156.968 32.3408 158.154 32.3408C158.573 32.3408 158.727 32.4626 158.73 32.889C158.734 33.3154 158.569 33.4372 158.154 33.4336C156.534 33.4336 154.911 33.4121 153.288 33.4336C152.833 33.4336 152.754 33.258 152.758 32.8603C152.765 31.2409 152.754 29.6465 152.754 28.0521Z" fill="black"/>
<path d="M95.4098 12.7964C95.4098 11.2271 95.4277 9.6578 95.4098 8.09208C95.4098 7.62988 95.5352 7.49374 95.9974 7.50449C97.4306 7.53076 98.8769 7.53076 100.336 7.50449C100.788 7.50449 100.877 7.6693 100.867 8.07058C100.856 8.47186 100.798 8.67251 100.333 8.65818C99.3116 8.62952 98.2869 8.65817 97.2658 8.64026C96.8036 8.64026 96.6567 8.79075 96.671 9.24219C96.7032 10.0627 96.7104 10.8867 96.671 11.7072C96.6459 12.2303 96.8752 12.3271 97.3338 12.3163C98.3299 12.2912 99.3295 12.3163 100.326 12.3163C100.781 12.3163 100.867 12.4955 100.867 12.8896C100.867 13.2837 100.741 13.4198 100.343 13.4091C99.3223 13.3876 98.3012 13.4091 97.2765 13.4091C96.8251 13.4091 96.6638 13.5417 96.671 14.0039C96.6961 15.197 96.671 16.3936 96.6925 17.5867C96.6925 18.0812 96.5492 18.2317 96.0583 18.2209C95.5675 18.2102 95.3955 18.1385 95.4062 17.6118C95.4313 15.978 95.4098 14.3908 95.4098 12.7964Z" fill="black"/>
<path d="M82.608 28.629C82.608 27.2353 82.608 25.8415 82.608 24.4478C82.608 24.0035 82.4861 23.8029 82.0168 23.8315C81.5474 23.8602 81.0673 23.8315 80.5836 23.8315C80.1859 23.8495 79.9387 23.8029 79.9351 23.2869C79.9315 22.771 80.0999 22.7065 80.5406 22.7101C82.3368 22.7316 84.1283 22.7316 85.915 22.7101C86.3449 22.7101 86.4739 22.8462 86.4667 23.2654C86.4596 23.6846 86.3377 23.8566 85.9078 23.8315C85.4779 23.8065 84.9583 23.853 84.4746 23.8315C83.9408 23.7885 83.7975 24.0107 83.8011 24.523C83.819 27.2353 83.8011 29.9475 83.819 32.6634C83.819 33.1686 83.7545 33.4158 83.1418 33.4265C82.5291 33.4373 82.5685 33.0682 82.5685 32.6634L82.608 28.629Z" fill="black"/>
<path d="M87.1941 13.3551C87.1941 12.0617 87.1439 10.7647 87.212 9.47483C87.2478 8.75826 86.9791 8.5612 86.327 8.63644C85.9687 8.67943 85.6319 8.63644 85.2808 8.63644C84.858 8.66152 84.5965 8.61852 84.5857 8.05959C84.575 7.50066 84.8831 7.49707 85.3023 7.49707C87.0472 7.49707 88.792 7.49707 90.5369 7.49707C90.9239 7.49707 91.1353 7.5544 91.1209 8.01659C91.1066 8.47879 91.0313 8.67584 90.5405 8.64001C90.0496 8.60419 89.6412 8.67584 89.1969 8.64001C88.5735 8.56836 88.4552 8.84424 88.4588 9.40676C88.4839 12.119 88.4588 14.8313 88.4839 17.5435C88.4839 18.0953 88.294 18.1884 87.7996 18.1992C87.3051 18.2099 87.1941 17.9914 87.2012 17.5399C87.2084 16.1426 87.1941 14.7488 87.1941 13.3551Z" fill="black"/>
<path d="M101.332 28.0452C101.332 26.4759 101.354 24.903 101.332 23.3337C101.332 22.8285 101.486 22.7139 101.966 22.7139C102.446 22.7139 102.6 22.8679 102.597 23.3588C102.572 26.0746 102.597 28.7905 102.572 31.5063C102.572 32.1082 102.704 32.3554 103.356 32.3196C104.274 32.2659 105.202 32.3196 106.122 32.2981C106.585 32.2981 106.649 32.5059 106.653 32.8929C106.656 33.2798 106.516 33.4124 106.13 33.4088C104.696 33.4088 103.285 33.3837 101.862 33.4088C101.393 33.4088 101.336 33.2046 101.339 32.8248C101.339 31.234 101.332 29.6396 101.332 28.0452Z" fill="black"/>
<path d="M130.07 12.8464C130.07 11.3273 130.07 9.80815 130.07 8.28542C130.07 7.85547 129.992 7.47926 130.68 7.48643C131.367 7.49359 131.335 7.77665 131.332 8.25676C131.332 10.9224 131.332 13.5917 131.314 16.2574C131.314 16.8736 131.471 17.0958 132.106 17.0599C133.026 17.0098 133.951 17.0599 134.875 17.0599C135.348 17.0599 135.391 17.2928 135.395 17.6654C135.398 18.0381 135.302 18.2029 134.893 18.1957C133.446 18.1742 131.998 18.1742 130.551 18.1957C130.117 18.1957 130.067 18.0022 130.067 17.6511C130.074 16.0388 130.07 14.4444 130.07 12.8464Z" fill="black"/>
<path d="M95.0618 28.0592C95.0618 26.4899 95.0798 24.9206 95.0618 23.3513C95.0618 22.8569 95.2123 22.7315 95.696 22.7243C96.1797 22.7171 96.3087 22.925 96.3051 23.3836C96.3051 26.0994 96.3051 28.8116 96.2836 31.5275C96.2836 32.1294 96.4162 32.373 97.0647 32.3372C97.9568 32.2835 98.8561 32.3372 99.7554 32.3157C100.185 32.3157 100.382 32.3945 100.375 32.8818C100.368 33.3691 100.193 33.4121 99.7948 33.4085C98.4226 33.4085 97.0503 33.3798 95.6781 33.4085C95.1657 33.4085 95.0547 33.2329 95.0618 32.76C95.0798 31.1943 95.0618 29.6285 95.0618 28.0592Z" fill="black"/>
<path d="M107.591 28.0162C107.591 26.4433 107.616 24.874 107.591 23.3047C107.591 22.735 107.856 22.7314 108.276 22.7207C108.695 22.7099 108.895 22.7816 108.892 23.2832C108.866 26.4481 108.866 29.6118 108.892 32.7743C108.892 33.2616 108.759 33.43 108.261 33.4156C107.763 33.4013 107.588 33.3225 107.598 32.7994C107.609 31.205 107.591 29.6106 107.591 28.0162Z" fill="black"/>
<path d="M68.2476 28.0769C68.2476 29.6211 68.2476 31.1617 68.2476 32.706C68.2476 33.1789 68.1831 33.4225 67.6063 33.4225C67.0294 33.4225 67.0079 33.1861 67.0115 32.7454C67.0115 29.6103 67.0115 26.4753 67.0115 23.3439C67.0115 22.8387 67.1727 22.724 67.6493 22.7133C68.1258 22.7025 68.2619 22.9211 68.2548 23.3761C68.2333 24.9347 68.2476 26.5111 68.2476 28.0769Z" fill="black"/>
<path d="M103.317 12.9107C103.317 14.4549 103.299 15.9992 103.317 17.5434C103.317 18.0092 103.224 18.2134 102.705 18.1847C102.278 18.1597 102.031 18.1346 102.038 17.5864C102.062 14.4215 102.062 11.259 102.038 8.09889C102.038 7.55429 102.264 7.51845 102.701 7.49695C103.206 7.47187 103.328 7.64744 103.321 8.13113C103.299 9.72194 103.317 11.3199 103.317 12.9107Z" fill="black"/>
<path d="M118.014 12.8429C118.014 14.4122 117.996 15.9851 118.014 17.5544C118.014 18.0489 117.86 18.1814 117.373 18.1886C116.886 18.1958 116.76 18.013 116.764 17.5437C116.78 14.4051 116.78 11.2652 116.764 8.12423C116.764 7.64054 116.893 7.49365 117.387 7.49365C117.882 7.49365 118.025 7.65129 118.018 8.13498C117.996 9.70429 118.014 11.2736 118.014 12.8429Z" fill="black"/>
<path d="M92.0921 12.7529C92.0921 11.2087 92.1136 9.66445 92.0921 8.12023C92.0921 7.62937 92.2354 7.49321 92.7262 7.48605C93.2171 7.47888 93.3389 7.65803 93.3353 8.13097C93.3162 11.2672 93.3162 14.4046 93.3353 17.5432C93.3353 18.0269 93.2064 18.1774 92.7119 18.181C92.2175 18.1846 92.0849 18.009 92.0921 17.5361C92.1243 15.9488 92.0921 14.3545 92.0921 12.7529Z" fill="black"/>
<path d="M47.5244 17.3144C47.6304 18.5056 47.6699 19.7018 47.6426 20.8973C47.6606 21.5136 47.8361 21.793 48.5097 21.7966C49.7081 21.7695 50.9047 21.9033 52.0675 22.1943C52.2825 22.2552 52.5512 22.3233 52.5942 22.5526C52.6372 22.7819 52.4366 23.0005 52.1822 23.0972C51.0106 23.0972 49.839 23.0578 48.6674 23.0793C48.4758 23.1151 48.2777 23.0789 48.1111 22.9778C47.9446 22.8766 47.8211 22.7176 47.7645 22.5311C47.6447 22.2255 47.4387 21.9611 47.1716 21.7703C46.9044 21.5795 46.5876 21.4704 46.2596 21.4562C45.7967 21.4104 45.3328 21.5335 44.9536 21.8028C44.5743 22.0721 44.3052 22.4695 44.1959 22.9217C44.087 23.3758 44.1479 23.8542 44.3673 24.2665C44.5866 24.6788 44.9493 24.9967 45.3868 25.1602C45.8243 25.3236 46.3065 25.3214 46.7425 25.1539C47.1785 24.9864 47.5382 24.6652 47.7537 24.2509C47.9114 23.9499 48.0153 23.6884 48.4416 23.7099C49.3624 23.7493 50.2832 23.7421 51.204 23.7565C50.5233 24.319 49.6741 24.5483 48.8787 24.8707C48.0833 25.1932 47.9902 25.4404 48.653 26.0065C49.1116 26.3971 49.0113 26.8879 48.9504 27.3752C48.9038 27.6654 48.8178 27.952 48.7498 28.2387C48.5062 28.1094 48.2374 28.0348 47.962 28.0199C47.6867 28.0051 47.4114 28.0504 47.1554 28.1527C46.7505 28.3497 46.5176 28.1706 46.2561 27.9055C45.1525 26.7876 44.1242 25.5694 42.9025 24.5984C41.2508 23.2835 40.5019 21.7321 40.8674 19.6397C40.8979 19.3922 40.8979 19.142 40.8674 18.8945C40.8387 18.5362 40.9749 18.3893 41.326 18.2639C41.7485 18.1356 42.111 17.8601 42.3476 17.4873C42.5843 17.1146 42.6795 16.6693 42.6158 16.2324C42.5602 15.7966 42.3563 15.3933 42.0383 15.0902C41.7204 14.787 41.3078 14.6025 40.8699 14.5676C40.432 14.5327 39.9954 14.6496 39.6335 14.8986C39.2716 15.1476 39.0064 15.5136 38.8825 15.935C38.7392 16.353 38.7554 16.8091 38.928 17.2159C39.1006 17.6226 39.4174 17.9512 39.8176 18.1385C39.974 18.2058 40.1034 18.3235 40.1852 18.4728C40.267 18.6221 40.2965 18.7945 40.2691 18.9625C40.2511 20.0374 40.287 21.1123 40.2691 22.1872C40.2568 22.3955 40.2925 22.604 40.3732 22.7965C40.4539 22.989 40.5776 23.1605 40.7348 23.2979C42.426 24.9567 44.0956 26.6371 45.7688 28.3139C45.9873 28.5325 46.2417 28.7009 46.1271 29.1272C45.733 30.4063 45.9694 30.9975 47.0586 31.7141C46.4854 32.2157 46.7827 32.9824 46.4818 33.5664C44.1708 33.5664 41.8599 33.5664 39.5489 33.5664C39.0974 33.5664 38.8646 33.484 38.7141 32.9788C38.6213 32.6252 38.4129 32.3128 38.122 32.0914C37.8311 31.87 37.4745 31.7523 37.1089 31.7571C37.0014 29.6218 37.0014 27.4825 37.1089 25.3473C38.1372 26.3576 39.1548 27.3788 40.1974 28.3748C40.3443 28.4809 40.4481 28.6364 40.4895 28.8128C40.531 28.9892 40.5074 29.1746 40.4231 29.335C40.2753 29.7349 40.2706 30.1737 40.4097 30.5767C40.5489 30.9797 40.8233 31.3221 41.1863 31.5457C41.5551 31.7581 41.9813 31.8496 42.4049 31.8072C42.8284 31.7648 43.228 31.5906 43.5474 31.3092C43.8483 31.0091 44.0435 30.6193 44.1036 30.1986C44.1637 29.7779 44.0855 29.3491 43.8806 28.9767C43.6855 28.5983 43.3619 28.3018 42.968 28.1403C42.5741 27.9788 42.1355 27.9628 41.7309 28.0954C41.1719 28.3032 40.8781 28.1383 40.5127 27.7657C39.402 26.6299 38.2519 25.53 37.1197 24.4121C37.0982 24.1434 37.0588 23.8711 37.0588 23.5988C37.0588 18.6293 37.0588 13.6563 37.0373 8.68681C37.0373 7.97023 37.2737 7.78392 37.9258 7.85558C38.7141 7.94515 39.5166 7.90574 40.2798 8.17446C40.2798 8.83371 40.4339 9.47863 39.4665 9.78318C38.7177 10.0232 38.4489 11.1124 38.6962 11.9078C38.823 12.2921 39.0674 12.6268 39.3947 12.8648C39.7221 13.1027 40.1159 13.2317 40.5206 13.2337C40.9252 13.2357 41.3203 13.1105 41.65 12.8758C41.9797 12.6411 42.2273 12.3088 42.3579 11.9258C42.5979 11.1089 42.3364 10.0841 41.5983 9.77601C40.8065 9.45355 40.8495 8.92328 40.8817 8.30344C42.7444 8.60249 44.4161 9.6184 45.5395 11.1339C45.5395 12.0762 45.5001 13.0221 45.518 13.9608C45.5394 14.1269 45.5021 14.2951 45.4125 14.4365C45.3228 14.5779 45.1865 14.6834 45.0271 14.7347C44.7232 14.8647 44.4586 15.0721 44.2598 15.3361C44.0609 15.6002 43.9347 15.9117 43.8937 16.2398C43.8528 16.5678 43.8985 16.9008 44.0263 17.2057C44.1541 17.5105 44.3596 17.7765 44.6223 17.9773C45.5466 18.7082 46.6753 18.4466 47.5244 17.3144Z" fill="black"/>
<path d="M39.212 55.2172C37.0193 55.3534 37.0049 55.3534 37.0229 53.2108C37.0444 50.9464 36.9369 48.682 37.0838 46.4033H43.9701C45.6899 46.4033 45.672 46.4033 45.6935 48.1052C45.7221 48.3081 45.68 48.5146 45.5743 48.6901C45.4686 48.8656 45.3057 48.9994 45.113 49.069C44.7403 49.2557 44.4427 49.5645 44.2699 49.9439C44.0972 50.3233 44.0596 50.7505 44.1636 51.1542C44.2506 51.5331 44.45 51.8768 44.7359 52.1402C45.0217 52.4036 45.3805 52.5745 45.7651 52.6304C46.1652 52.6936 46.5749 52.6224 46.9302 52.4279C47.2855 52.2334 47.5663 51.9266 47.7285 51.5555C47.7861 51.3818 47.9023 51.2335 48.0572 51.1361C48.2122 51.0387 48.3962 50.9982 48.5777 51.0217C49.8245 51.0467 51.0857 51.0467 52.3218 51.0217C52.5184 51.0152 52.7141 51.0509 52.8958 51.1263C53.0775 51.2017 53.2409 51.315 53.3752 51.4588C54.1276 52.1754 54.7797 53.0138 55.6431 53.6085C55.7471 55.2065 55.7471 55.2101 54.1455 55.2065C53.5794 55.2065 53.0133 55.1886 52.4472 55.1778C52.6478 54.1746 52.3935 53.4365 51.6518 52.9708C51.3397 52.7595 50.9702 52.6493 50.5934 52.655C50.2165 52.6608 49.8506 52.7823 49.5451 53.003C48.7425 53.5225 48.6565 54.3179 48.7927 55.1778H39.8139C39.8139 53.9596 39.8139 52.7379 39.8139 51.5197C39.7847 51.339 39.8196 51.1538 39.9125 50.9961C40.0054 50.8385 40.1505 50.7182 40.3227 50.6562C40.722 50.4781 41.0457 50.1649 41.2371 49.7718C41.4284 49.3786 41.4751 48.9306 41.3689 48.5065C41.2645 48.0787 41.0157 47.7001 40.6645 47.4344C40.3134 47.1688 39.8813 47.0324 39.4413 47.0482C39.0158 47.0643 38.6074 47.2195 38.2786 47.4901C37.9499 47.7606 37.7189 48.1315 37.6212 48.5459C37.5133 48.9766 37.5653 49.4319 37.7676 49.8273C37.9698 50.2226 38.3087 50.5311 38.7211 50.6956C38.8943 50.7511 39.0411 50.8682 39.1335 51.0247C39.226 51.1813 39.2578 51.3663 39.2228 51.5448C39.2013 52.7773 39.212 53.999 39.212 55.2172Z" fill="black"/>
<path d="M45.5787 44.2577C46.6163 45.0323 47.7017 45.7407 48.8284 46.3788C48.6313 47.6865 48.9538 48.4318 49.8782 48.8116C50.8025 49.1913 51.6696 48.876 52.3181 47.9445C53.3213 48.3637 54.3245 48.7865 55.3277 49.1949C55.4459 49.2334 55.5467 49.3123 55.6123 49.4179C55.6778 49.5235 55.704 49.6488 55.686 49.7718C55.6645 50.7607 55.6609 51.7495 55.6502 52.7384C55.0375 52.158 54.4033 51.5955 53.8193 50.9828C53.6698 50.8036 53.4806 50.6617 53.2666 50.5684C53.0527 50.4751 52.8199 50.433 52.5868 50.4454C51.3149 50.4812 50.0394 50.4453 48.771 50.4704C48.2372 50.4704 47.8717 50.4024 47.6962 49.8255C47.6562 49.6941 47.5889 49.5725 47.4988 49.4688C47.4086 49.3651 47.2976 49.2816 47.1731 49.2236C46.2164 48.9441 46.2308 48.2419 46.2953 47.4751C46.3239 47.1168 46.2666 46.7586 46.2953 46.4325C46.3562 45.8843 46.1125 45.7697 45.6109 45.7733C42.7661 45.7948 39.9213 45.7733 37.0765 45.7733C36.9367 43.9818 37.0263 42.1581 37.0263 40.3523C37.0263 38.7436 36.9367 37.1277 37.0801 35.5262C37.3713 35.5215 37.6564 35.4414 37.9075 35.2939C38.1586 35.1463 38.3673 34.9363 38.5132 34.6842C38.5902 34.5189 38.7189 34.383 38.8798 34.2971C39.0407 34.2111 39.2251 34.1798 39.4054 34.2077C41.745 34.2077 44.081 34.2077 46.4171 34.2077C46.5191 34.7944 46.476 35.3971 46.2917 35.9633C44.597 35.9633 42.8987 35.9418 41.204 35.9633C40.5662 35.9633 39.7493 35.6767 39.3373 36.1138C38.9253 36.5509 39.219 37.3069 39.237 37.9231C39.271 38.1378 39.2277 38.3575 39.1149 38.5432C39.002 38.7289 38.8269 38.8685 38.6207 38.9371C38.2332 39.1239 37.9258 39.4439 37.7548 39.8386C37.5838 40.2333 37.5605 40.6764 37.6892 41.0868C37.9471 41.9826 38.764 42.6633 39.6454 42.4627C40.4587 42.2764 40.8851 42.6167 41.3401 43.1327C41.6017 43.4301 41.9098 43.6916 42.1821 43.9818C42.2596 44.0778 42.358 44.1548 42.4697 44.2069C42.5815 44.2591 42.7037 44.285 42.827 44.2828C43.755 44.2828 44.6579 44.2828 45.5787 44.2577Z" fill="black"/>
<path d="M46.109 36.637C45.901 37.4325 45.4667 38.1507 44.8586 38.7043C43.7622 38.7294 42.9597 39.3671 42.8343 40.3058C42.6945 41.3449 43.2176 42.1188 44.2674 42.4269L45.0091 43.6487C43.5222 43.9138 42.2825 43.5699 41.3653 42.2764C41.2549 42.1716 41.1826 42.0329 41.1599 41.8823C41.1372 41.7318 41.1653 41.578 41.2399 41.4452C41.3635 41.2203 41.4382 40.9719 41.459 40.7161C41.4799 40.4603 41.4464 40.2031 41.3608 39.9612C41.2752 39.7192 41.1394 39.4982 40.9624 39.3124C40.7853 39.1267 40.571 38.9805 40.3334 38.8834C40.1843 38.838 40.0562 38.741 39.9721 38.6096C39.8881 38.4783 39.8536 38.3213 39.8748 38.1668C39.8999 37.8688 39.8999 37.5692 39.8748 37.2711C39.8282 36.7839 40.0253 36.6298 40.5126 36.637C42.3757 36.6477 44.2424 36.637 46.109 36.637Z" fill="black"/>
<path d="M49.4662 55.218C49.2692 54.2792 49.5164 53.6702 50.1828 53.4265C50.477 53.3248 50.798 53.3325 51.0869 53.4484C51.3758 53.5642 51.6133 53.7803 51.7557 54.0571C51.8379 54.237 51.8804 54.4326 51.8804 54.6304C51.8804 54.8282 51.8379 55.0237 51.7557 55.2036L49.4662 55.218Z" fill="black"/>
<path d="M47.5207 31.2014C46.6536 30.75 46.3455 30.0943 46.6787 29.41C47.0119 28.7256 47.6747 28.5286 48.5848 28.8976C48.4334 29.7441 48.067 30.5374 47.5207 31.2014Z" fill="black"/>
<path d="M51.7091 47.6971C51.3006 48.2596 50.7739 48.5104 50.1147 48.1951C49.9694 48.1407 49.8363 48.058 49.7234 47.9516C49.6104 47.8453 49.5198 47.7175 49.4567 47.5757C49.3937 47.434 49.3595 47.2811 49.3562 47.126C49.3529 46.9709 49.3806 46.8167 49.4375 46.6724C50.2253 46.9415 50.9859 47.2846 51.7091 47.6971Z" fill="black"/>
<path d="M37.1014 32.4229C37.4014 32.4404 37.6825 32.5755 37.8836 32.7988C38.0848 33.0221 38.1899 33.3157 38.1762 33.616C38.1942 34.3325 37.7678 34.7302 37.1014 34.9022C36.9831 34.08 36.9831 33.2451 37.1014 32.4229Z" fill="black"/>
<path d="M47.2736 15.2216C46.0697 14.7917 45.9623 13.8386 46.0984 12.7637C46.1271 12.5452 46.1271 12.323 46.1414 12.1045C46.8335 13.0007 47.2292 14.0902 47.2736 15.2216Z" fill="black"/>
<path d="M44.1131 41.6739C43.8852 41.5672 43.7007 41.3856 43.5905 41.1593C43.4804 40.933 43.4511 40.6759 43.5076 40.4306C43.5216 40.1795 43.6231 39.9412 43.7947 39.7572C43.9662 39.5733 44.1968 39.4553 44.4463 39.4238C44.1131 40.144 44.1561 40.9143 44.1131 41.6739Z" fill="black"/>
<path d="M40.7134 17.733C40.5444 17.7325 40.3772 17.6983 40.2216 17.6324C40.066 17.5664 39.9251 17.47 39.8073 17.3489C39.6895 17.2277 39.597 17.0842 39.5355 16.9268C39.4739 16.7694 39.4444 16.6013 39.4487 16.4324C39.4704 16.1066 39.6149 15.8013 39.8529 15.5778C40.091 15.3544 40.4049 15.2296 40.7313 15.2285C41.0572 15.2407 41.3673 15.3723 41.6025 15.5983C41.8377 15.8242 41.9816 16.1287 42.0068 16.4539C41.9994 16.7932 41.8603 17.1164 41.619 17.3551C41.3776 17.5938 41.0529 17.7293 40.7134 17.733Z" fill="black"/>
<path d="M46.0194 49.4924C46.1878 49.489 46.3552 49.5197 46.5115 49.5826C46.6678 49.6455 46.8098 49.7393 46.9289 49.8584C47.048 49.9776 47.1418 50.1195 47.2047 50.2758C47.2676 50.4321 47.2983 50.5995 47.2949 50.768C47.2935 50.9298 47.2602 51.0898 47.197 51.2388C47.1337 51.3878 47.0417 51.5229 46.9263 51.6363C46.8108 51.7498 46.6742 51.8394 46.5241 51.9C46.374 51.9607 46.2135 51.9911 46.0516 51.9897C45.8832 51.995 45.7155 51.9663 45.5585 51.9051C45.4015 51.844 45.2584 51.7518 45.138 51.634C45.0175 51.5162 44.9221 51.3753 44.8574 51.2197C44.7928 51.0641 44.7602 50.897 44.7618 50.7285C44.7762 50.4016 44.9139 50.0923 45.1473 49.863C45.3806 49.6336 45.6923 49.5012 46.0194 49.4924Z" fill="black"/>
<path d="M40.7886 40.5958C40.7929 40.7581 40.7651 40.9197 40.7069 41.0714C40.6487 41.223 40.5613 41.3616 40.4495 41.4794C40.3377 41.5972 40.2037 41.6918 40.0554 41.7578C39.907 41.8238 39.7471 41.86 39.5847 41.8641C39.3344 41.8748 39.0867 41.8105 38.8732 41.6795C38.6597 41.5485 38.4902 41.3566 38.3864 41.1286C38.2826 40.9006 38.2493 40.6468 38.2907 40.3997C38.3322 40.1527 38.4464 39.9236 38.6189 39.7419C38.7914 39.5602 39.0141 39.4342 39.2587 39.3799C39.5033 39.3257 39.7585 39.3457 39.9916 39.4375C40.2247 39.5292 40.4251 39.6885 40.5671 39.8948C40.7091 40.1012 40.7862 40.3453 40.7886 40.5958Z" fill="black"/>
<path d="M43.4646 29.9508C43.4451 30.2779 43.3009 30.585 43.0617 30.8088C42.8224 31.0327 42.5064 31.1562 42.1788 31.1539C41.8512 31.1516 41.537 31.0236 41.3009 30.7965C41.0648 30.5693 40.9249 30.2602 40.91 29.9329C40.9021 29.7595 40.9296 29.5862 40.9908 29.4238C41.0521 29.2613 41.1457 29.113 41.2661 28.9879C41.3865 28.8628 41.5311 28.7635 41.6911 28.6961C41.8511 28.6287 42.0231 28.5945 42.1968 28.5957C42.3704 28.597 42.5419 28.6335 42.701 28.7032C42.86 28.7728 43.0032 28.8741 43.1218 29.0009C43.2404 29.1277 43.332 29.2773 43.3909 29.4406C43.4499 29.6039 43.4749 29.7775 43.4646 29.9508Z" fill="black"/>
<path d="M40.7453 48.9764C40.7453 49.309 40.6132 49.6279 40.378 49.8631C40.1429 50.0983 39.8239 50.2304 39.4913 50.2304C39.1587 50.2304 38.8398 50.0983 38.6046 49.8631C38.3694 49.6279 38.2373 49.309 38.2373 48.9764C38.237 48.6497 38.3627 48.3355 38.5883 48.0992C38.8139 47.8629 39.122 47.7228 39.4483 47.708C39.6181 47.7012 39.7874 47.7291 39.946 47.79C40.1045 47.851 40.249 47.9437 40.3704 48.0624C40.4919 48.1812 40.5878 48.3235 40.6523 48.4807C40.7167 48.6379 40.7484 48.8066 40.7453 48.9764Z" fill="black"/>
<path d="M47.3381 23.3873C47.3389 23.5558 47.3052 23.7227 47.239 23.8777C47.1729 24.0328 47.0758 24.1726 46.9537 24.2887C46.8315 24.4048 46.6869 24.4947 46.5288 24.5529C46.3706 24.6111 46.2022 24.6363 46.034 24.627C45.7076 24.6104 45.4003 24.4685 45.176 24.2309C44.9518 23.9932 44.8278 23.6782 44.8301 23.3515C44.8357 23.0251 44.9683 22.7138 45.1998 22.4836C45.4313 22.2535 45.7434 22.1227 46.0698 22.119C46.2374 22.1151 46.4041 22.1452 46.5598 22.2075C46.7154 22.2699 46.8568 22.3632 46.9754 22.4817C47.0939 22.6003 47.1872 22.7417 47.2496 22.8973C47.3119 23.053 47.3421 23.2197 47.3381 23.3873Z" fill="black"/>
<path d="M47.03 16.4651C47.03 16.6324 46.997 16.7981 46.9328 16.9526C46.8687 17.1072 46.7747 17.2476 46.6562 17.3657C46.5377 17.4839 46.3971 17.5775 46.2423 17.6412C46.0876 17.7049 45.9218 17.7375 45.7545 17.737C45.5051 17.7349 45.2619 17.6591 45.0555 17.5191C44.8491 17.3792 44.6887 17.1814 44.5944 16.9505C44.5001 16.7196 44.4762 16.466 44.5256 16.2216C44.575 15.9772 44.6956 15.7528 44.8722 15.5767C45.0488 15.4006 45.2735 15.2807 45.518 15.2319C45.7626 15.1832 46.0161 15.2078 46.2467 15.3028C46.4773 15.3977 46.6747 15.5587 46.8141 15.7655C46.9535 15.9723 47.0286 16.2157 47.03 16.4651Z" fill="black"/>
<path d="M41.7489 11.3201C41.7499 11.4872 41.7176 11.6529 41.654 11.8074C41.5904 11.962 41.4966 12.1024 41.3783 12.2204C41.2599 12.3384 41.1193 12.4317 40.9646 12.4949C40.8099 12.5581 40.6441 12.5899 40.477 12.5885C40.1399 12.5791 39.8196 12.4389 39.5842 12.1974C39.3488 11.956 39.2166 11.6323 39.2158 11.295C39.2385 10.9722 39.3772 10.6684 39.6064 10.4399C39.8356 10.2113 40.1397 10.0735 40.4627 10.0518C40.8002 10.0536 41.1236 10.1872 41.3639 10.4242C41.6042 10.6612 41.7424 10.9827 41.7489 11.3201Z" fill="black"/>
</svg>
