<svg width="201" height="59" viewBox="0 0 201 59" fill="none" xmlns="http://www.w3.org/2000/svg">
<path d="M38.8041 44.1427L40.5597 46.1814C40.6421 46.4859 40.721 46.7869 40.8034 47.0879C39.5422 47.2419 38.4064 46.7296 37.2205 46.4215C36.9733 46.3605 36.7117 46.0632 36.5039 46.3283C36.2961 46.5934 36.529 46.8836 36.658 47.1344C37.4064 48.5035 38.6107 49.5671 40.0617 50.1405C41.6131 50.8177 43.1896 51.4375 44.7553 52.0753C44.8669 52.0925 44.9805 52.0925 45.0921 52.0753C44.8915 51.4984 44.3397 51.3121 44.0423 50.9108C43.942 50.7711 43.7414 50.6672 43.8417 50.463C43.942 50.2587 44.2 50.2838 44.3934 50.3161C44.9165 50.3913 45.3107 50.9072 45.9377 50.7424C45.8553 50.205 45.4074 50.0796 45.024 49.8933C44.8377 49.8001 44.5833 49.7535 44.6657 49.4741C44.7481 49.1946 45.0025 49.2412 45.2569 49.2949C45.4493 49.3189 45.634 49.3853 45.7976 49.4894C45.9612 49.5935 46.0996 49.7327 46.2028 49.8969C46.7474 50.8284 47.6754 50.9538 48.5962 50.9896C48.8603 50.9699 49.125 51.0197 49.3639 51.1341C49.6028 51.2485 49.8075 51.4235 49.9577 51.6417C50.3518 52.2257 50.8283 52.4479 51.5556 52.1111C52.4155 51.717 53.064 52.4479 53.7663 52.7381C54.4685 53.0283 55.0203 53.5192 55.7727 53.6696C56.0773 53.7306 56.3711 53.9061 56.1489 54.2895C56.0307 54.4937 55.6366 54.5976 56.0128 54.9057C56.2707 55.1136 56.5215 55.3787 56.8798 55.2139C57.3169 55.0132 57.729 54.9774 57.9547 55.4575C58.04 55.6658 58.0554 55.8961 57.9985 56.1138C57.9416 56.3316 57.8156 56.525 57.6394 56.6649C57.2811 57.0232 56.9228 57.3994 56.3567 57.2705C56.0808 57.206 56.0522 56.9373 56.1167 56.6793C56.1503 56.5175 56.1398 56.3496 56.0862 56.1932C56.0326 56.0369 55.938 55.8979 55.8121 55.7907C55.2276 55.2173 54.7151 54.5748 54.2858 53.8775C54.1676 53.6696 53.9275 53.4332 53.7125 53.5801C53.4044 53.8058 53.7555 53.9384 53.8917 54.0996C54.0687 54.3031 54.1576 54.5686 54.1389 54.8377L53.9884 54.9702C53.4367 54.9702 53.3507 54.4041 53.0067 54.1462C52.8562 54.0315 52.7308 53.7377 52.5159 53.9455C52.3009 54.1533 52.5159 54.3289 52.6448 54.4901C52.7761 54.6877 52.9327 54.8672 53.1106 55.024C53.9992 55.5757 53.992 56.5001 54.1317 57.3636C54.1855 57.7004 53.9705 57.8616 53.6731 57.9082C53.2934 57.9785 52.909 58.0204 52.523 58.0336C35.5162 58.0551 18.5082 58.0778 1.49903 58.1017C0.714379 58.1017 0.424164 57.7828 0.40625 57.0555C0.40625 55.1159 0.40625 53.1776 0.40625 51.2404C0.40625 50.8822 0.495822 50.5024 0.879192 50.5239C1.26256 50.5454 1.18016 50.9681 1.18016 51.2404C1.18016 52.9387 1.21598 54.6406 1.16224 56.3389C1.14074 57.1271 1.39871 57.3529 2.18695 57.3529C14.6076 57.3314 27.02 57.3314 39.424 57.3529C40.4667 57.3146 41.5109 57.3518 42.5482 57.4639C43.0457 57.4985 43.5449 57.4985 44.0423 57.4639C43.8703 56.9444 43.53 56.9193 43.229 56.862C38.9052 55.9775 34.7661 54.3546 30.9934 52.0645C27.0881 49.7679 23.3081 47.2491 19.2308 45.257C14.3043 42.8636 9.61787 40.0332 4.74872 37.5395C3.8753 37.0924 3.02942 36.5935 2.21561 36.0454C0.452827 34.8595 -0.116852 32.0433 1.21957 30.3307C2.43733 28.6829 3.83359 27.1749 5.38289 25.8342C5.68385 25.5833 6.0099 25.3397 6.42193 25.6371C6.31018 25.7601 6.24166 25.9163 6.22678 26.0819C6.21191 26.2474 6.25149 26.4133 6.33952 26.5543C6.82321 27.2709 7.33915 27.9552 7.85509 28.6431C8.05931 28.9154 8.2922 29.0408 8.57166 28.6897C8.76519 28.4705 8.97094 28.2623 9.18792 28.0663L9.50322 28.2813C9.4762 28.6674 9.32255 29.0339 9.0661 29.3239C8.63616 29.9258 9.24167 30.2268 9.55338 30.5707C9.59491 30.6254 9.64975 30.6685 9.71268 30.6959C9.77561 30.7233 9.84451 30.7341 9.91281 30.7272C9.9811 30.7204 10.0465 30.6962 10.1028 30.6569C10.159 30.6175 10.2042 30.5644 10.2341 30.5027C10.9005 29.3561 11.5538 28.2 12.194 27.0344C12.2534 26.9479 12.2936 26.8497 12.3121 26.7464C12.3305 26.6431 12.3268 26.5371 12.301 26.4354C12.2752 26.3337 12.2281 26.2386 12.1627 26.1566C12.0972 26.0745 12.0151 26.0073 11.9217 25.9595C11.8315 25.9036 11.7305 25.8674 11.6253 25.8534C11.5201 25.8395 11.4132 25.848 11.3116 25.8785C11.2099 25.909 11.1159 25.9607 11.0358 26.0303C10.9557 26.0999 10.8913 26.1857 10.8468 26.282C10.553 26.755 10.2986 27.2566 10.0299 27.7438C10.0299 26.6152 9.13418 25.87 8.81172 24.8775C8.60137 24.3237 8.33231 23.794 8.00915 23.2975C7.65086 22.6597 6.98803 22.4376 6.31086 22.2907L5.55129 21.5741C5.42987 21.4859 5.32826 21.3733 5.25299 21.2435C5.17773 21.1137 5.13047 20.9696 5.11427 20.8204C5.09807 20.6712 5.11329 20.5203 5.15893 20.3774C5.20458 20.2344 5.27965 20.1026 5.37931 19.9904C5.80567 19.4243 6.35027 19.1091 7.03819 19.6608C7.45193 19.994 7.93011 20.2379 8.44268 20.3774C9.12701 20.8754 9.87584 21.2731 10.2341 22.1294C10.682 23.2043 11.2481 24.2039 11.7067 25.2573C11.9682 25.8521 12.2191 25.8377 12.5773 25.3791C12.8177 25.0334 13.0811 24.7042 13.3656 24.3938C13.9102 23.8743 14.0822 23.4121 13.5662 22.7242C13.2079 22.2118 13.018 21.5454 12.7457 20.9507C11.7748 18.8332 11.9611 17.0095 13.86 15.4043C15.1355 14.3295 16.3179 13.1722 18.009 12.7888C17.7292 13.8868 17.2782 14.9339 16.6726 15.8916C16.5437 15.8176 16.411 15.7506 16.2749 15.691C15.9911 15.5526 15.6654 15.5271 15.3634 15.6195C15.0615 15.7119 14.8059 15.9155 14.6483 16.189C14.4912 16.4078 14.4179 16.6756 14.4416 16.9438C14.4653 17.2121 14.5844 17.4629 14.7772 17.6508C15.2287 18.1739 15.6765 18.4641 16.3215 17.984C16.6009 18.4534 16.4433 18.9729 16.4934 19.4673C16.5364 19.8937 16.8231 20.0406 17.0667 19.7038C17.9448 18.5591 19.1547 17.7133 20.5314 17.2818C20.3236 16.9235 19.9689 17.0095 19.7252 16.8662C19.2057 16.558 18.4712 16.2714 18.8152 15.4939C19.3383 14.3044 19.7145 13.0396 20.4848 11.9648C21.8499 12.0364 23.2329 11.7175 24.5765 12.1761C24.5794 12.5642 24.4533 12.9423 24.2182 13.251C23.5697 12.7566 22.9176 12.6455 22.3192 13.3048C21.6026 14.1073 21.8212 14.7737 23.0358 15.433C22.788 15.8732 22.4438 16.2517 22.029 16.5401C21.857 16.6584 21.6098 16.7408 21.6707 16.988C21.7531 17.3104 22.0577 17.1635 22.2727 17.1958C23.4944 17.3821 24.7341 17.5003 25.7086 18.3925C25.8305 18.5035 25.9559 18.6863 26.1601 18.6039C26.3643 18.5215 26.3679 18.2707 26.3679 18.0664C26.3285 17.3265 26.3285 16.585 26.3679 15.845C26.4754 14.8311 26.5184 13.7741 27.2242 12.925C27.5288 13.4087 28.0841 13.5412 28.5391 13.7705C30.7892 14.892 31.9859 16.9342 33.1969 18.9765C33.4728 19.4458 33.0142 19.7468 32.7598 20.0514C30.7009 22.4314 29.6249 25.5058 29.7502 28.6503C29.7966 29.6007 29.9701 30.5406 30.2661 31.445C30.241 31.5446 30.239 31.6487 30.2601 31.7492C30.2812 31.8498 30.3249 31.9442 30.3879 32.0254C30.6102 32.3464 30.729 32.7277 30.7283 33.1182C30.7581 33.4477 30.6942 33.7789 30.544 34.0737C30.3937 34.3684 30.1633 34.6147 29.8791 34.7842C29.0587 35.3073 28.2955 35.0637 27.5538 34.5764C27.3568 34.4474 27.1741 34.0497 26.9089 34.3758C26.6438 34.7018 27.0845 34.8057 27.2099 35.0135C27.9265 36.2604 29.3059 36.8444 30.3342 37.758C31.4184 38.748 32.2742 39.962 32.8422 41.3158C33.2506 42.2116 33.4549 43.2004 33.8024 44.1284C34.2001 45.2033 35.1173 45.669 36.1349 45.8554C37.0378 46.0237 37.7328 45.4971 38.2667 44.7984C38.4458 44.5798 38.496 44.261 38.8041 44.1427ZM47.378 54.4221C47.378 53.254 47.1379 52.8778 46.0917 52.713C46.7208 53.1008 47.187 53.7046 47.4031 54.4113C47.4962 54.9022 47.5285 55.436 48.0802 55.6582C48.2665 55.7334 48.3669 55.5292 48.3239 55.3859C48.177 54.9129 48.0086 54.4471 47.3816 54.4221H47.378ZM26.8946 39.5817C26.8002 39.6518 26.698 39.7107 26.59 39.7573C26.3106 39.854 25.8735 39.6713 25.834 40.1729C25.7982 40.6028 26.1207 40.8035 26.4324 40.9826C26.9698 41.2908 27.5073 41.5845 28.0662 41.8748C29.399 42.5913 30.7283 43.29 32.0683 43.9815C32.2331 44.0711 32.4266 44.2395 32.6344 44.0567C32.7705 43.9242 32.792 43.6519 32.6344 43.573C31.8461 43.1395 31.9178 42.0181 31.0507 41.6562C31.0507 41.5989 31.1188 41.5201 31.0973 41.4914C30.3306 40.395 29.5961 39.27 28.8258 38.1844C28.4424 37.6434 28.1701 36.9949 27.6577 36.4897C27.2995 36.1314 26.6724 35.6298 26.7799 35.0565C26.9447 34.168 26.4216 33.7308 25.9308 33.24C24.8559 32.1866 23.5517 31.4772 22.2691 30.732C21.4987 30.2877 20.7213 29.8542 19.933 29.4385C19.6715 29.2988 19.3239 29.1949 19.1054 29.46C18.8868 29.7252 19.1376 29.9867 19.3562 30.2017C20.1086 30.9362 20.7105 31.8355 21.814 32.1687C22.1508 32.2726 22.7778 32.527 22.6489 32.9677C22.484 33.5302 22.8567 33.9924 22.8101 34.365C22.6274 35.8161 23.885 35.8842 24.5765 36.5148C24.6138 36.5529 24.6584 36.5832 24.7076 36.6039C24.7568 36.6245 24.8097 36.6352 24.8631 36.6352C24.9165 36.6352 24.9693 36.6245 25.0185 36.6039C25.0678 36.5832 25.1124 36.5529 25.1497 36.5148C25.5546 36.0812 25.9093 36.1565 26.2819 36.5363C26.6545 36.916 26.8767 37.1848 26.5005 37.6792C26.4611 37.7277 26.4328 37.7842 26.4175 37.8448C26.4022 37.9053 26.4003 37.9685 26.4119 38.0299C26.4235 38.0913 26.4483 38.1494 26.4846 38.2002C26.521 38.251 26.5679 38.2933 26.6223 38.3241C27.217 38.6502 26.9483 39.1303 26.8946 39.5817ZM20.0047 33.0035C20.5421 32.7384 20.5959 32.3765 20.2017 31.9466C19.9044 31.6169 19.5819 31.3016 19.2809 30.972C18.2061 29.8076 18.2061 29.8076 16.8947 30.3378C17.0094 29.3561 17.9159 29.675 18.4533 29.3884C18.6718 29.2701 19.0767 29.4959 19.1125 29.1053C19.1412 28.8079 18.8116 28.6718 18.6002 28.5321C17.6811 27.974 16.9344 27.1726 16.4424 26.2165C15.9505 25.2605 15.7325 24.1869 15.8127 23.1147C15.8127 22.8173 15.9094 22.4841 15.655 22.2011C14.3079 23.7417 13.9747 24.5622 13.4408 26.5686C13.0517 28.0658 12.8911 29.6132 12.9643 31.1583C12.972 32.0302 13.3086 32.867 13.9066 33.5015C14.3294 33.9422 14.6232 33.8598 14.7199 33.24C15.028 33.4765 15.4795 33.326 15.7948 33.6341C16.0133 33.8562 16.3788 34.0211 16.5758 33.7523C16.8553 33.394 16.4182 33.2006 16.1781 33.0143C15.6515 32.6022 15.2 32.1795 15.6264 31.3841C15.7994 31.6436 16.0208 31.8675 16.2785 32.0433C17.1384 32.5055 17.966 33.0286 18.7865 33.5338C19.607 34.039 19.7431 33.9924 20.0047 33.0035ZM22.0577 29.0372C22.3551 29.0193 22.656 29.0373 22.9498 28.9799C23.2436 28.9226 23.6664 28.9799 23.5374 28.5285C23.5166 28.449 23.4797 28.3746 23.429 28.31C23.3784 28.2453 23.315 28.1916 23.2429 28.1524C23.1707 28.1131 23.0913 28.089 23.0094 28.0816C22.9276 28.0742 22.8451 28.0836 22.7671 28.1093C20.4848 28.4676 19.2344 27.8728 17.9803 25.827C16.0563 22.6812 18.5178 19.0195 21.789 18.8009C24.5872 18.6289 28.3528 21.9933 26.1888 25.8162C26.0204 26.1172 25.8305 26.4576 26.1888 26.669C26.547 26.8804 26.7369 26.5221 26.9053 26.2318C28.1307 24.2935 27.8942 21.4308 26.2891 19.7826C24.3077 17.7296 21.8069 17.246 19.392 18.5215C17.3068 19.625 15.7124 22.0184 16.7586 25.2824C17.3569 27.081 19.5353 29.1913 22.0577 29.0372ZM19.9438 37.3532C21.0979 38.1838 22.3205 38.9149 23.5983 39.5387C23.636 39.5646 23.6797 39.5806 23.7252 39.5852C23.7707 39.5898 23.8167 39.5829 23.8588 39.565C23.901 39.5472 23.9379 39.519 23.9663 39.4831C23.9946 39.4472 24.0135 39.4047 24.0211 39.3596C24.1035 39.0371 24.0462 38.7003 23.7237 38.6036C23.0824 38.4101 22.6023 37.9085 21.9753 37.7365C21.3483 37.5645 20.8897 36.6724 19.9438 37.3532ZM25.1569 21.2946C24.7054 21.506 24.3866 21.8679 24.5406 22.348C24.7128 22.9184 24.7435 23.5222 24.6302 24.1072C24.5263 24.7629 25.3862 24.8238 25.4328 25.3899C25.5894 25.3351 25.7222 25.2276 25.8085 25.0858C25.8948 24.944 25.9291 24.7767 25.9057 24.6124C25.9057 24.0033 26.3392 23.2294 25.6692 22.8209C25.1139 22.4913 25.0243 22.6167 25.4793 22.0004C25.5343 21.9318 25.5642 21.8465 25.5642 21.7586C25.5642 21.6707 25.5343 21.5854 25.4793 21.5168C25.4113 21.3914 25.3468 21.2516 25.1569 21.2946ZM28.772 34.2898C28.934 34.3115 29.0988 34.296 29.2539 34.2445C29.409 34.193 29.5503 34.1067 29.667 33.9924C29.7838 33.8781 29.8729 33.7386 29.9277 33.5846C29.9824 33.4307 30.0014 33.2662 29.983 33.1038C29.95 32.7819 29.8042 32.482 29.5715 32.2571C29.3387 32.0323 29.034 31.8969 28.7111 31.8749C28.059 31.8749 27.389 32.4768 27.4034 33.0537C27.4364 33.3932 27.5951 33.7082 27.8482 33.9369C28.1014 34.1655 28.4309 34.2914 28.772 34.2898ZM31.5022 18.1667C31.5221 17.9118 31.4564 17.6575 31.3156 17.444C31.1748 17.2305 30.9669 17.0701 30.7247 16.988C30.5041 16.8908 30.2589 16.8645 30.0227 16.9126C29.7865 16.9607 29.5711 17.081 29.4062 17.2567C29.2557 17.4215 29.0157 17.615 29.245 17.8622C29.4743 18.1094 29.6033 17.916 29.7716 17.7583C30.1299 17.4 30.4237 17.4358 30.739 17.8228C30.7835 17.8601 30.8192 17.9067 30.8437 17.9593C30.8683 18.012 30.881 18.0693 30.881 18.1273C30.881 18.1854 30.8683 18.2427 30.8437 18.2953C30.8192 18.3479 30.7835 18.3946 30.739 18.4319C30.6928 18.5179 30.6253 18.5906 30.5429 18.643C30.4606 18.6954 30.3661 18.7258 30.2686 18.7312C30.1711 18.7366 30.0739 18.7168 29.9863 18.6738C29.8986 18.6308 29.8235 18.566 29.7681 18.4856C29.6104 18.328 29.4098 18.199 29.2414 18.414C29.073 18.6289 29.2414 18.8977 29.399 19.0338C29.5774 19.1944 29.7978 19.3008 30.0344 19.3408C30.2711 19.3808 30.5142 19.3526 30.7354 19.2595C30.9616 19.1822 31.1573 19.035 31.2945 18.8393C31.4317 18.6435 31.5031 18.4093 31.4986 18.1703L31.5022 18.1667ZM50.23 53.9957C50.7961 55.0096 51.9784 55.6474 51.2296 57.0447C52.6448 56.3783 52.1791 55.0455 50.2264 54.0136L50.23 53.9957ZM20.9362 20.578C20.7893 20.3487 21.0509 19.7647 20.5457 19.8615C20.0161 19.9388 19.5345 20.211 19.1949 20.6246C19.1487 20.7289 19.1248 20.8417 19.1247 20.9558C19.1247 21.0699 19.1486 21.1827 19.1949 21.287C19.2411 21.3913 19.3087 21.4848 19.3932 21.5614C19.4778 21.638 19.5775 21.696 19.6858 21.7317C19.933 21.7819 20.9434 20.8503 20.9362 20.578ZM20.3092 26.8589C20.3289 26.9115 20.3516 26.9629 20.3773 27.0129C20.5672 27.3712 22.2225 27.6829 22.5521 27.4214C22.6596 27.3354 22.7062 27.2243 22.6202 27.124C22.2977 26.7657 22.1258 26.2247 21.5453 26.1244C21.1512 26.0706 20.3021 26.5543 20.3092 26.8589ZM20.3845 25.6622C19.9832 25.2609 19.8255 24.6195 19.1949 24.6697C18.9764 24.6876 18.3924 24.5336 18.4784 25.1606C18.5464 25.7302 19.2594 26.6511 19.6285 26.5615C20.0548 26.4683 20.0692 25.9667 20.3845 25.6765V25.6622ZM18.3028 24.4297C18.6611 23.8528 19.4063 23.6128 19.4278 22.8209C19.4278 22.2441 19.1412 22.1223 18.7113 22.0219C18.181 21.9037 18.1953 22.2799 18.1667 22.5988C18.0525 23.2153 18.0994 23.8509 18.3028 24.444V24.4297ZM20.7786 35.877C20.7608 35.7598 20.706 35.6514 20.6222 35.5676C20.5384 35.4838 20.43 35.429 20.3128 35.4112C20.0047 35.3682 19.9079 35.6405 19.8793 35.8591C19.8674 35.9171 19.8701 35.9772 19.8872 36.0339C19.9042 36.0907 19.9351 36.1423 19.977 36.1842C20.0188 36.2261 20.0705 36.2569 20.1272 36.274C20.1839 36.291 20.244 36.2937 20.3021 36.2819C20.5564 36.2819 20.7607 36.1923 20.7786 35.8913V35.877ZM28.4137 16.4685C28.643 16.4685 28.772 16.3001 28.772 16.0206C28.772 15.7411 28.5929 15.6121 28.3134 15.6408C28.0339 15.6695 27.8763 15.7411 27.905 16.0672C27.9336 16.3932 28.1128 16.4685 28.4137 16.4685ZM6.97728 20.6927C6.86262 20.4096 6.80172 20.0478 6.37893 20.0693C5.95615 20.0908 5.87733 20.4276 5.8415 20.7536C5.80209 21.1441 6.05647 21.2588 6.39327 21.223C6.73006 21.1871 6.96653 21.0868 6.97728 20.6927ZM20.5314 14.5588C20.7714 14.5588 20.8395 14.3653 20.861 14.1503C20.8861 13.878 20.7105 13.792 20.474 13.8171C20.2376 13.8422 20.0584 13.8852 20.1157 14.1754C20.1239 14.28 20.1712 14.3776 20.2483 14.4487C20.3254 14.5198 20.4265 14.5591 20.5314 14.5588ZM22.1007 19.5748C21.771 19.5748 21.5059 19.6751 21.5274 20.0693C21.5274 20.3487 21.6241 20.6282 21.9717 20.621C22.1361 20.6099 22.2911 20.5408 22.4092 20.4259C22.5274 20.3111 22.6009 20.158 22.6166 19.994C22.6811 19.6286 22.3694 19.582 22.0863 19.5712L22.1007 19.5748Z" fill="black"/>
<path d="M36.8373 3.35532C36.762 4.18297 36.1207 4.681 35.6585 5.24351C35.0104 6.01355 34.5099 6.89659 34.1823 7.84827C33.8025 8.92314 33.4658 9.04495 32.4661 8.51468C31.4665 7.98442 31.3662 8.04533 30.8502 9.00196C30.5529 9.56089 30.4382 10.3097 29.4171 10.1091C29.0803 10.0446 28.8868 10.7289 28.7005 11.1266C28.4067 11.707 28.3422 12.5813 27.3569 12.463C27.385 12.1366 27.4802 11.8195 27.6364 11.5315C28.396 9.98726 28.6145 8.43228 27.6794 6.87372C27.2673 6.17864 26.5149 5.83468 25.9918 5.26142C26.2426 5.01778 26.755 5.35099 26.7478 4.90313C26.7407 4.45527 26.2247 4.83147 26.1101 4.66666C25.8629 4.30837 24.7342 4.4911 25.415 3.55955C25.5726 3.34099 25.4365 3.14393 25.2108 3.07585C24.985 3.00778 24.6268 2.93612 24.6124 3.22992C24.5838 3.74227 24.2004 3.83543 23.7525 3.99666C24.3724 4.32629 24.917 4.51618 25.3469 4.97121C24.945 5.05844 24.5299 5.06575 24.1251 4.9927C22.9786 4.95688 21.9754 5.265 21.2588 6.24672C20.7342 7.02225 20.2787 7.84229 19.8973 8.69742C19.3312 9.86544 19.0733 11.1804 18.242 12.223C17.8838 11.9292 18.0056 11.5924 18.1525 11.252C18.8117 9.73287 19.4351 8.19581 20.1517 6.70174C20.3524 6.28254 20.3488 6.03891 20.0048 5.80602C19.4781 5.44773 19.4817 5.08944 19.8938 4.63442C20.057 4.38737 20.178 4.11495 20.252 3.82826C20.338 3.61687 20.3631 3.36607 20.0729 3.34457C19.1664 3.28008 18.5108 2.499 17.3857 2.80355C16.4828 3.04719 15.7268 3.12602 15.2862 4.04324C15.0736 4.35862 14.8339 4.65474 14.5696 4.92821C13.8888 5.85977 13.2009 6.7734 12.9322 7.95575C12.6339 9.12604 12.2751 10.2801 11.8573 11.4133C11.8 11.5817 11.7713 11.9937 11.4238 11.836C11.1658 11.7178 11.3127 11.4097 11.3593 11.1875C11.4044 11.0158 11.4744 10.8516 11.5671 10.7003C11.8502 10.1807 11.7427 9.52506 12.169 9.04137C12.2251 8.95127 12.2459 8.84361 12.2274 8.7391C12.2089 8.63458 12.1524 8.54061 12.0687 8.47528C11.972 8.40362 11.8537 8.47528 11.7785 8.58635C11.1837 9.56448 10.374 10.3957 9.89031 11.4527L9.02684 11.6748C9.70042 10.3097 10.6965 9.16678 11.6388 8.00592C12.4807 7.00921 13.135 5.86812 13.5699 4.638C13.8996 3.62404 13.9856 2.53126 14.5911 1.58896C14.7845 1.28441 14.5624 1.00495 14.2328 0.933291C13.9955 0.899456 13.7553 0.891046 13.5162 0.908208C9.48664 0.908208 5.45708 0.908208 1.42752 0.908208C1.22031 0.915131 1.0131 0.894646 0.81126 0.847294C0.724483 0.819513 0.649487 0.763523 0.598199 0.688213C0.54691 0.612904 0.522275 0.522599 0.528212 0.431677C0.528212 0.209538 0.714523 0.141461 0.886501 0.116381C1.06381 0.097887 1.2422 0.0919051 1.42035 0.0984704C5.57293 0.0984704 9.72192 0.0984704 13.8709 0.0984704C15.4868 0.0984704 17.117 0.370775 18.7221 0.248957C21.6422 0.0304003 24.5551 0.15222 27.4716 0.137888C37.3353 0.0948932 47.1775 0.102057 57.0591 0.0913086C58.4636 0.0913086 58.5138 0.14863 58.5174 1.55312C58.5174 3.37323 58.5174 5.19334 58.5174 7.01345C58.5174 7.32516 58.589 7.75153 58.1125 7.7587C57.636 7.76586 57.6825 7.35025 57.6825 7.04212C57.6825 5.28292 57.6825 3.52014 57.704 1.76094C57.704 1.1196 57.5034 0.843711 56.8298 0.847294C51.2142 0.861625 45.601 0.861625 39.9902 0.847294C39.7042 0.832883 39.4197 0.896646 39.1672 1.03173C38.9147 1.16682 38.7038 1.36812 38.557 1.61404C38.1665 0.804304 36.3357 0.514084 36.049 1.22708C35.8054 1.85767 35.9917 2.68173 36.1063 3.39831C36.1422 3.61687 36.5757 3.19409 36.8229 3.39831L36.8373 3.35532ZM32.7671 0.847294H31.9609C31.6409 0.843977 31.3237 0.908443 31.0304 1.03645C30.737 1.16447 30.4741 1.35312 30.2588 1.59002C30.0436 1.82691 29.8809 2.1067 29.7816 2.41095C29.6822 2.71521 29.6483 3.03704 29.6822 3.35532C29.713 3.83151 29.8553 4.2938 30.0976 4.70491C30.3398 5.11602 30.6753 5.46446 31.0769 5.72211C31.4786 5.97976 31.9352 6.13943 32.4098 6.18823C32.8845 6.23704 33.364 6.17362 33.8097 6.00308C35.0458 5.53731 35.8985 3.90709 35.6442 2.50618C35.422 1.28799 34.7377 0.858046 33.0358 0.861629L32.7671 0.847294ZM13.9891 4.28687L14.2185 4.39436C14.7504 3.90925 15.1994 3.34043 15.5477 2.7104C15.8272 2.25179 15.3471 2.03682 15.2324 1.71077C15.1751 1.53879 14.9494 1.61403 14.8741 1.76451C14.5803 2.60649 14.2865 3.44848 13.9891 4.28687ZM21.1119 5.50506C21.2835 5.47993 21.4401 5.39348 21.5527 5.26172C21.6654 5.12996 21.7264 4.96182 21.7246 4.78848C21.7246 4.31553 21.3663 4.13281 20.9292 4.17581C20.5458 4.21522 20.2915 4.39078 20.3846 4.8064C20.4598 5.17902 20.5673 5.54089 21.1119 5.50864V5.50506ZM29.7109 7.96293C29.627 7.96289 29.544 7.97968 29.4667 8.0123C29.3895 8.04493 29.3195 8.09272 29.2611 8.15285C29.2026 8.21299 29.1568 8.28424 29.1264 8.36239C29.0959 8.44055 29.0815 8.52401 29.0839 8.60784C29.0445 8.96613 29.2093 9.24201 29.6356 9.23126C30.062 9.22051 30.3737 9.02346 30.3952 8.63293C30.4167 8.24239 30.0369 8.07399 29.7037 7.9665L29.7109 7.96293ZM21.721 3.06152C22.002 3.24005 22.2981 3.39351 22.606 3.52013C22.8855 3.6097 23.1721 3.84618 23.5304 3.63837C23.0395 3.1296 22.5343 2.72831 21.721 3.06152Z" fill="black"/>
<path d="M18.2349 12.2016C19.0661 11.1626 19.3098 9.84765 19.8902 8.67962C20.2715 7.8245 20.7271 7.00446 21.2517 6.22893C21.9683 5.24721 22.9751 4.93908 24.118 4.97491C24.5227 5.04795 24.9379 5.04064 25.3398 4.95341C24.9098 4.49838 24.3652 4.3085 23.7454 3.97887C24.1932 3.81764 24.5766 3.72448 24.6053 3.21213C24.6053 2.91833 24.9851 2.98999 25.2036 3.05806C25.4222 3.12614 25.5619 3.3232 25.4078 3.54176C24.7271 4.47331 25.8557 4.29775 26.1029 4.64887C26.2176 4.81368 26.7335 4.47689 26.7407 4.88534C26.7478 5.29379 26.2355 5.01074 25.9847 5.24363C26.5078 5.81689 27.2602 6.16085 27.6722 6.85593C28.6074 8.42166 28.3888 9.97663 27.6292 11.5137C27.473 11.8017 27.3779 12.1188 27.3498 12.4452C27.2874 12.5005 27.2413 12.5718 27.2167 12.6514C27.1921 12.731 27.1898 12.8159 27.21 12.8967C26.4935 13.7458 26.4612 14.8028 26.3537 15.8167C26.3143 16.5567 26.3143 17.2982 26.3537 18.0381C26.3537 18.2424 26.3931 18.4753 26.1459 18.5756C25.8987 18.6759 25.8163 18.4753 25.6945 18.3642C24.7199 17.472 23.4802 17.3538 22.2585 17.1675C22.0435 17.1353 21.739 17.2821 21.6565 16.9597C21.5921 16.7125 21.8393 16.6301 22.0148 16.5118C22.4341 16.2306 22.7844 15.8583 23.0395 15.4226C23.1864 15.1933 23.491 15.0822 23.5447 14.7741L23.8779 13.9393C23.9908 13.8616 24.0827 13.7571 24.1452 13.6352C24.2077 13.5132 24.239 13.3777 24.2362 13.2406C24.4714 12.9319 24.5974 12.5539 24.5945 12.1658C24.7597 12.0315 24.8673 11.8393 24.8955 11.6283C25.8879 10.2489 25.7876 9.78315 24.3366 9.12031C23.9317 8.93042 23.5053 8.78353 23.1112 8.57572C22.4627 8.23534 21.9898 8.48615 21.678 9.03791C21.2202 9.77801 20.9043 10.5969 20.7465 11.4528C20.6712 11.518 20.6103 11.5982 20.5677 11.6883C20.5252 11.7783 20.5019 11.8763 20.4993 11.9759C19.729 13.0507 19.3527 14.3155 18.8296 15.505C18.4714 16.2825 19.2202 16.5799 19.7397 16.8773C19.9833 17.0206 20.338 16.9382 20.5459 17.2929C19.1642 17.7146 17.9466 18.5531 17.0597 19.6934C16.8161 20.0302 16.5294 19.8833 16.4864 19.457C16.4363 18.9625 16.5939 18.443 16.3145 17.9737C16.5833 17.3102 16.7055 16.5964 16.6727 15.8812C17.2783 14.9235 17.7293 13.8765 18.0092 12.7785C18.0808 12.5921 18.1596 12.3987 18.2349 12.2016Z" fill="black"/>
<path d="M99.1401 25.9667C98.4236 26.9914 98.1262 28.1165 97.6425 29.1484C96.908 30.6997 96.3061 32.312 95.5931 33.8742C95.4318 34.2325 95.3387 34.8129 94.726 34.752C94.1778 34.6982 94.0811 34.1787 93.9091 33.7918C92.8342 31.359 91.7594 28.9155 90.6845 26.4755C90.6151 26.3493 90.5348 26.2294 90.4445 26.1172C90.0038 26.3286 90.1614 26.7048 90.1614 26.9986C90.1614 29.177 90.1865 31.3518 90.2044 33.5302C90.2044 33.7094 90.2223 33.8885 90.2044 34.0677C90.1793 34.5191 89.9751 34.7842 89.4878 34.7842C89.0005 34.7842 88.8644 34.4904 88.8644 34.0677V24.229C88.8516 24.1474 88.8564 24.0641 88.8785 23.9845C88.9005 23.9049 88.9392 23.8309 88.9921 23.7675C89.0451 23.704 89.1109 23.6526 89.1852 23.6167C89.2596 23.5808 89.3408 23.5611 89.4233 23.559C90.0683 23.4874 90.6988 23.4945 91.0213 24.204C91.3796 24.985 91.7379 25.7697 92.0532 26.5687C92.8092 28.4318 93.7801 30.2053 94.4215 32.1186C94.4716 32.269 94.5361 32.3944 94.7224 32.3909C94.8124 32.3937 94.9008 32.3674 94.9745 32.3157C95.0481 32.264 95.103 32.1898 95.1309 32.1042C95.8116 30.2053 96.7109 28.4031 97.5028 26.5543C97.8395 25.7661 98.1728 24.9743 98.5096 24.1825C98.8463 23.3906 99.4877 23.5053 100.108 23.5626C100.824 23.6271 100.677 24.1896 100.677 24.6554C100.677 27.6961 100.677 30.738 100.677 33.781C100.677 34.1608 100.763 34.5836 100.254 34.7412C99.6417 34.9347 99.3444 34.6517 99.3444 33.8348C99.3444 31.5704 99.3444 29.3024 99.3444 27.0273C99.4172 26.6607 99.3439 26.2801 99.1401 25.9667Z" fill="black"/>
<path d="M176.09 45.0348C176.09 46.5539 176.09 48.0766 176.09 49.5958C176.09 49.9827 176.165 50.427 175.674 50.5668C175.473 50.6207 175.261 50.6091 175.067 50.5337C174.873 50.4583 174.708 50.3231 174.596 50.1476C173.847 49.1157 173.102 48.0838 172.371 47.0376C171.267 45.4575 170.178 43.8703 169.085 42.2867C168.956 42.1004 168.799 41.9642 168.566 42.0574C168.265 42.1756 168.358 42.4479 168.362 42.6736C168.393 44.938 168.429 47.2072 168.469 49.4811C168.469 50.015 168.469 50.5918 167.788 50.6026C167.108 50.6133 167.05 50.0795 167.072 49.5277C167.072 46.4858 167.072 43.4368 167.072 40.4057C167.072 39.9829 167.007 39.5171 167.563 39.3989C167.792 39.3285 168.038 39.3368 168.262 39.4225C168.486 39.5082 168.675 39.6664 168.799 39.8718C170.59 42.4336 172.382 44.9739 174.173 47.5213C174.299 47.7004 174.313 48.0659 174.635 47.9476C174.958 47.8294 174.779 47.5356 174.779 47.3099C174.779 44.9846 174.779 42.6521 174.761 40.334C174.761 39.8897 174.761 39.4777 175.327 39.3845C175.893 39.2914 176.137 39.5637 176.133 40.1369C176.133 41.7779 176.133 43.4153 176.133 45.0563L176.09 45.0348Z" fill="black"/>
<path d="M113.117 29.1447V24.5872C113.117 24.2039 113.009 23.7596 113.475 23.5948C113.701 23.5072 113.95 23.5024 114.179 23.5811C114.408 23.6598 114.602 23.8169 114.726 24.0247C115.417 24.9885 116.119 25.9487 116.797 26.9197C117.914 28.5284 119.018 30.1443 120.125 31.7566C120.261 31.9537 120.426 32.1866 120.68 32.1149C120.935 32.0432 120.878 31.7279 120.874 31.5022C120.855 29.2092 120.836 26.9149 120.817 24.6195C120.817 24.1537 120.716 23.5697 121.419 23.5446C122.121 23.5195 122.16 24.0391 122.16 24.598C122.16 27.6363 122.16 30.6889 122.16 33.7165C122.16 34.1249 122.271 34.5978 121.705 34.7412C121.472 34.8045 121.224 34.7873 121.002 34.6924C120.779 34.5974 120.595 34.4303 120.48 34.2181L115.367 26.9412C115.316 26.8338 115.246 26.7357 115.163 26.651C114.973 26.5077 114.959 26.0634 114.593 26.2318C114.328 26.3536 114.443 26.6546 114.443 26.8767C114.443 29.1745 114.449 31.47 114.461 33.763C114.461 34.261 114.504 34.7483 113.791 34.7662C113.078 34.7842 113.103 34.2754 113.103 33.7881V29.1303L113.117 29.1447Z" fill="black"/>
<path d="M77.8577 13.366C77.8577 11.8146 77.8864 10.2632 77.8577 8.70827C77.8398 7.99169 78.1372 7.75522 78.8143 7.77672C79.9465 7.81255 81.0787 7.8018 82.2109 7.81614C84.2532 7.8448 85.3495 9.30662 85.6003 10.7792C85.9192 12.6566 84.9912 14.1041 83.189 14.7204C82.519 14.9497 82.8308 15.2793 83.0457 15.591C83.6512 16.5046 84.2567 17.4183 84.8909 18.314C85.2492 18.8085 85.0701 18.8944 84.5505 18.9446C83.5688 19.0413 83.3144 18.228 82.906 17.6691C82.2539 16.7555 81.6699 15.7917 81.0644 14.8422C80.9247 14.6236 80.6774 14.3943 80.7957 14.1256C80.9426 13.7673 81.3116 13.8927 81.5875 13.9106C83.4828 14.0289 84.4538 12.6387 84.2352 11.1375C84.2057 10.7334 84.0606 10.3464 83.8173 10.0224C83.574 9.69848 83.2428 9.45125 82.863 9.3102C81.8275 8.95191 80.7348 9.1024 79.6671 9.14897C79.255 9.16689 79.3088 9.50726 79.3088 9.82613C79.3303 12.5384 79.3374 15.2506 79.3553 17.9629C79.3553 18.4609 79.4019 18.9339 78.6603 18.9231C77.9186 18.9124 77.8577 18.5254 77.8684 17.9342C77.8577 16.4079 77.8577 14.8852 77.8577 13.366Z" fill="black"/>
<path d="M115.912 13.3799C115.994 16.5507 113.289 19.1985 110.05 19.177C109.288 19.1756 108.533 19.024 107.83 18.731C107.126 18.4381 106.487 18.0093 105.949 17.4694C104.862 16.3788 104.254 14.9013 104.256 13.3619C104.259 11.8226 104.873 10.3474 105.964 9.26085C107.055 8.17435 108.532 7.56556 110.071 7.56841C113.436 7.55408 116.015 10.3487 115.912 13.3799ZM110.039 17.9015C110.636 17.9097 111.229 17.798 111.782 17.5731C112.335 17.3481 112.838 17.0145 113.26 16.5918C113.682 16.1692 114.015 15.6663 114.239 15.1127C114.463 14.5591 114.574 13.9662 114.564 13.3691C114.578 12.169 114.117 11.0122 113.281 10.1505C112.446 9.2889 111.304 8.79224 110.104 8.76869C107.674 8.72927 105.621 10.8432 105.625 13.3799C105.612 14.5646 106.069 15.7061 106.897 16.5539C107.724 17.4017 108.854 17.8864 110.039 17.9015Z" fill="black"/>
<path d="M142.683 23.3878C143.44 23.3953 144.187 23.5518 144.883 23.8483C145.579 24.1448 146.21 24.5755 146.74 25.1158C147.27 25.6561 147.688 26.2954 147.97 26.9973C148.253 27.6992 148.394 28.4498 148.387 29.2064C148.379 29.963 148.223 30.7107 147.926 31.4068C147.63 32.1029 147.199 32.7338 146.659 33.2635C146.119 33.7931 145.479 34.2112 144.777 34.4938C144.076 34.7763 143.325 34.9179 142.568 34.9104C141.807 34.9237 141.051 34.7853 140.344 34.5031C139.637 34.221 138.993 33.8009 138.45 33.2672C137.907 32.7336 137.475 32.0971 137.181 31.3949C136.887 30.6928 136.735 29.9391 136.735 29.1777C136.728 25.9066 139.333 23.3699 142.683 23.3878ZM147.076 29.1634C147.076 27.968 146.601 26.8216 145.755 25.9763C144.91 25.131 143.764 24.6561 142.568 24.6561C141.373 24.6561 140.226 25.131 139.381 25.9763C138.536 26.8216 138.061 27.968 138.061 29.1634C138.061 31.6714 140.15 33.7961 142.572 33.7782C143.776 33.7483 144.921 33.249 145.762 32.3869C146.604 31.5248 147.075 30.368 147.076 29.1634Z" fill="black"/>
<path d="M163.847 23.3869C165.375 23.4078 166.832 24.0348 167.898 25.13C168.964 26.2253 169.551 27.699 169.53 29.227C169.509 30.755 168.882 32.2121 167.786 33.2777C166.691 34.3434 165.218 34.9303 163.69 34.9094C162.931 34.9189 162.178 34.7777 161.474 34.4938C160.77 34.21 160.13 33.7892 159.59 33.2559C159.05 32.7227 158.621 32.0875 158.328 31.3873C158.036 30.6871 157.885 29.9357 157.885 29.1768C157.882 25.8841 160.479 23.3654 163.847 23.3869ZM168.215 29.1804C168.232 28.5843 168.129 27.9908 167.912 27.4355C167.694 26.8801 167.367 26.3744 166.949 25.9485C166.532 25.5227 166.033 25.1854 165.482 24.9571C164.931 24.7287 164.34 24.6138 163.743 24.6194C163.146 24.6108 162.552 24.7216 161.998 24.9454C161.444 25.1692 160.94 25.5014 160.516 25.9226C160.091 26.3437 159.756 26.8453 159.528 27.398C159.3 27.9507 159.185 28.5433 159.189 29.141C159.189 31.6275 161.268 33.7737 163.682 33.7701C164.886 33.7467 166.033 33.2535 166.878 32.3959C167.723 31.5383 168.199 30.3843 168.204 29.1804H168.215Z" fill="black"/>
<path d="M69.3911 13.3807C69.3911 11.8329 69.4162 10.2815 69.3911 8.7229C69.3911 8.04932 69.5738 7.73044 70.3048 7.76985C71.2256 7.82001 72.1535 7.75193 73.0779 7.80926C73.604 7.81255 74.1184 7.96427 74.5621 8.24695C75.0058 8.52964 75.3607 8.93182 75.5859 9.40724C76.1592 10.5681 75.9442 11.5928 75.07 12.51C74.7583 12.8361 74.5863 13.0367 75.1632 13.352C76.238 13.9324 76.7145 15.3083 76.4387 16.53C76.1986 17.6049 75.0485 18.7335 73.9486 18.8087C72.6408 18.9019 71.3259 18.8697 70.0074 18.8912C69.4592 18.8912 69.4054 18.5329 69.409 18.1137C69.3983 16.5408 69.3947 14.9607 69.3911 13.3807ZM70.7884 15.7597C71.1252 16.2828 70.165 17.3003 71.2184 17.673C71.9135 17.9202 72.7447 17.802 73.5079 17.6515C73.6528 17.6153 73.7952 17.5698 73.9342 17.5153C74.2621 17.417 74.55 17.2167 74.7562 16.9435C74.9624 16.6703 75.0761 16.3384 75.0808 15.9962C75.1151 15.7174 75.0893 15.4345 75.005 15.1666C74.9207 14.8986 74.7799 14.6519 74.5921 14.443C74.4043 14.2342 74.1738 14.068 73.9163 13.9559C73.6588 13.8437 73.3803 13.788 73.0994 13.7927C70.7884 13.678 70.7884 13.678 70.7884 15.7525V15.7597ZM70.7168 10.7867C70.7168 12.7214 70.8529 12.8361 72.802 12.5351C72.9489 12.5136 73.0994 12.4993 73.2427 12.467C73.4785 12.4056 73.6988 12.2954 73.8894 12.1436C74.0801 11.9919 74.2368 11.8019 74.3495 11.5859C74.4623 11.3698 74.5285 11.1326 74.544 10.8894C74.5595 10.6463 74.5238 10.4025 74.4394 10.174C74.0596 9.24242 72.5441 8.62616 71.29 8.96654C70.2904 9.23526 70.8637 10.1023 70.7168 10.6971C70.713 10.7268 70.713 10.7569 70.7168 10.7867Z" fill="black"/>
<path d="M96.2487 13.3158C96.2487 11.7931 96.2881 10.2703 96.2487 8.7512C96.22 7.97371 96.5353 7.75157 97.2411 7.78023C98.1655 7.81606 99.0935 7.78024 100.018 7.81607C101.193 7.85906 102.143 8.43949 102.526 9.50719C102.884 10.5104 102.945 11.6283 101.996 12.4846C101.637 12.8178 101.612 13.0471 102.085 13.3731C103.182 14.1291 103.68 15.3724 103.393 16.372C102.967 17.8553 101.867 18.8012 100.398 18.88C99.2941 18.9302 98.1906 18.898 97.0871 18.9194C96.4887 18.9194 96.2164 18.7045 96.2487 18.0703C96.2881 17.2677 96.2487 16.4616 96.2487 15.6554V13.3158ZM97.5958 15.6339C97.5958 16.1069 97.5958 16.5834 97.5958 17.0671C97.5958 17.4433 97.7212 17.7299 98.1368 17.7264C99.0254 17.7264 99.9283 17.8661 100.788 17.558C101.116 17.4543 101.408 17.2617 101.633 17.0017C101.857 16.7417 102.005 16.4245 102.06 16.0854C102.128 15.7331 102.094 15.3689 101.964 15.0348C101.833 14.7007 101.611 14.4103 101.322 14.1972C100.803 13.7529 100.183 13.7458 99.5593 13.735C97.6102 13.6992 97.6102 13.6992 97.5958 15.6339ZM98.9645 12.5562C99.3479 12.5276 99.7384 12.5276 100.118 12.4667C100.946 12.3377 101.347 11.7501 101.444 10.9941C101.502 10.6519 101.449 10.3001 101.293 9.98999C101.137 9.67992 100.886 9.42788 100.577 9.27072C100.091 9.03779 99.5566 8.92475 99.0182 8.94109C97.6317 8.94109 97.5851 8.9411 97.6102 10.2918V11.184C97.6066 12.5276 97.6066 12.5276 98.9645 12.5562Z" fill="black"/>
<path d="M112.375 44.9952C112.375 43.4438 112.4 41.8888 112.375 40.3374C112.357 39.5922 112.644 39.302 113.379 39.3485C114.944 39.4453 116.542 39.1479 118.069 39.7534C119.333 40.255 120.096 41.6237 120.039 43.3363C120.029 43.9954 119.806 44.6336 119.404 45.1559C119.002 45.6782 118.442 46.0566 117.807 46.2349C117.115 46.4176 117.187 46.7365 117.492 47.1915C118.069 48.055 118.638 48.9256 119.233 49.7784C119.391 50.0077 119.609 50.2083 119.394 50.4949C119.179 50.7816 118.907 50.6132 118.649 50.5594C118.474 50.5195 118.308 50.4435 118.164 50.3361C118.02 50.2288 117.899 50.0925 117.811 49.936C117.044 48.7716 116.284 47.6071 115.521 46.4391C115.127 45.8407 115.231 45.6616 116.005 45.615C117.961 45.4968 118.817 44.5724 118.681 42.7487C118.663 42.313 118.508 41.8942 118.238 41.5519C117.967 41.2097 117.596 40.9614 117.176 40.8426C116.238 40.5309 115.227 40.6635 114.246 40.7208C113.83 40.7459 113.758 41.0576 113.762 41.4374C113.762 44.1496 113.762 46.8655 113.798 49.5813C113.798 50.1151 113.798 50.6096 113.164 50.6311C112.529 50.6526 112.365 50.2083 112.379 49.5992C112.418 48.0765 112.379 46.5538 112.379 45.0346L112.375 44.9952Z" fill="black"/>
<path d="M128.351 29.1374C128.351 27.586 128.369 26.0346 128.351 24.4796C128.351 23.892 128.52 23.523 129.132 23.5481C130.591 23.6018 132.056 23.4298 133.503 23.7738C134.196 23.9604 134.815 24.3559 135.275 24.9066C135.736 25.4573 136.015 26.1364 136.076 26.8515C136.149 27.5655 135.997 28.2845 135.642 28.9082C135.287 29.5318 134.746 30.0291 134.095 30.3305C133.066 30.7533 133.066 30.7819 133.69 31.6741C134.181 32.3907 134.668 33.0893 135.123 33.8238C135.284 34.071 135.657 34.4007 135.374 34.6443C135.207 34.7762 134.998 34.8425 134.786 34.8306C134.574 34.8188 134.374 34.7295 134.224 34.5798C133.722 34.1391 133.46 33.5264 133.091 32.9926C132.568 32.2366 132.049 31.4734 131.547 30.7031C131.407 30.4881 131.189 30.2338 131.3 29.9865C131.411 29.7393 131.766 29.7966 132.017 29.7895C133.665 29.7393 134.664 28.8543 134.707 27.414C134.73 26.7949 134.524 26.1892 134.127 25.7135C133.73 25.2379 133.171 24.926 132.558 24.8379C130.021 24.365 129.709 24.6194 129.709 27.1632C129.709 29.3703 129.709 31.5773 129.709 33.788C129.709 34.2573 129.802 34.8055 129.046 34.784C128.387 34.784 128.305 34.3433 128.308 33.8023C128.326 32.2509 128.308 30.6995 128.308 29.1446L128.351 29.1374Z" fill="black"/>
<path d="M152.74 50.7714C149.107 50.8287 146.194 47.3497 147.007 43.8313C147.527 41.5526 148.856 40.0119 151.031 39.41C153.586 38.6934 155.775 39.5032 157.412 41.6565C157.606 41.9109 157.806 42.2118 157.552 42.4411C157.398 42.5602 157.209 42.6249 157.014 42.6249C156.82 42.6249 156.631 42.5602 156.477 42.4411C156.201 42.2143 155.947 41.9624 155.717 41.6887C155.084 41.0485 154.266 40.6231 153.378 40.4727C152.491 40.3223 151.578 40.4544 150.769 40.8503C148.924 41.8249 148.136 43.6092 148.322 45.5726C148.397 46.1779 148.596 46.7614 148.906 47.2868C149.215 47.8121 149.63 48.2681 150.124 48.6264C150.617 48.9846 151.18 49.2374 151.775 49.3691C152.371 49.5008 152.987 49.5086 153.586 49.392C154.514 49.1671 155.357 48.6794 156.015 47.9875C156.201 47.8083 156.305 47.5288 156.613 47.4859C156.921 47.4429 157.348 47.2494 157.62 47.5862C157.892 47.923 157.509 48.1809 157.337 48.421C156.81 49.147 156.119 49.7384 155.32 50.1468C154.521 50.5552 153.637 50.7692 152.74 50.7714Z" fill="black"/>
<path d="M192.614 44.9201C192.614 43.3687 192.614 41.8173 192.614 40.2624C192.614 39.6819 192.779 39.3308 193.41 39.3451C194.66 39.3738 195.918 39.3451 197.165 39.4455C198.72 39.5494 199.866 40.6207 200.253 42.2186C200.4 42.9214 200.334 43.6522 200.063 44.3172C199.793 44.9823 199.33 45.5515 198.734 45.952C198.662 46.0063 198.587 46.0554 198.508 46.0989C197.433 46.6328 197.408 46.6363 198.071 47.6682C198.519 48.3669 198.999 49.044 199.465 49.7284C199.612 49.9469 199.862 50.1726 199.619 50.4449C199.511 50.5505 199.37 50.6164 199.22 50.632C199.07 50.6476 198.919 50.612 198.791 50.5309C198.498 50.396 198.249 50.1796 198.075 49.9075C197.358 48.7574 196.581 47.6288 195.85 46.4787C195.717 46.2709 195.412 46.0774 195.592 45.7621C195.771 45.4468 196.075 45.5973 196.333 45.583C198.623 45.4576 199.698 43.5658 198.548 41.6704C198.399 41.3946 198.183 41.1606 197.92 40.9903C197.657 40.8199 197.355 40.7187 197.043 40.6959C196.301 40.6493 195.552 40.6744 194.811 40.6314C194.18 40.5956 194.001 40.8464 194.008 41.4698C194.044 44.1534 194.008 46.8441 194.03 49.5206C194.03 49.9863 194.148 50.5345 193.381 50.5202C192.614 50.5059 192.632 50.0293 192.639 49.4704C192.661 47.9513 192.639 46.4285 192.639 44.9094L192.614 44.9201Z" fill="black"/>
<path d="M141.898 19.188C140.164 19.188 138.641 18.1131 138.358 16.7409C138.283 16.3826 137.964 15.863 138.595 15.6946C138.719 15.6408 138.854 15.6166 138.99 15.6239C139.125 15.6313 139.257 15.6701 139.375 15.7371C139.492 15.8042 139.593 15.8978 139.669 16.0104C139.744 16.123 139.792 16.2517 139.809 16.3861C140.1 17.461 140.838 17.9232 141.93 17.8695C142.372 17.8214 142.79 17.6451 143.132 17.3624C143.475 17.0798 143.727 16.703 143.858 16.2787C144.019 15.5621 143.579 14.7846 142.783 14.3045C142.067 13.8638 141.225 13.7563 140.465 13.4231C138.849 12.7065 137.957 11.2124 138.441 9.8402C138.764 9.00641 139.387 8.32355 140.188 7.92578C140.989 7.52801 141.909 7.44407 142.769 7.69046C143.211 7.81843 143.619 8.04113 143.967 8.34308C144.314 8.64503 144.591 9.01898 144.779 9.43892C144.926 9.75421 145.223 10.306 144.732 10.5389C144.241 10.7718 143.657 10.7216 143.428 10.0301C143.33 9.68306 143.122 9.3769 142.836 9.15687C142.551 8.93685 142.201 8.81464 141.841 8.80832C141.48 8.77718 141.117 8.85296 140.799 9.02624C140.48 9.19952 140.22 9.46265 140.049 9.78287C139.541 10.5854 139.806 11.474 140.644 11.9684C141.619 12.5417 142.758 12.7101 143.725 13.3084C144.858 14.025 145.427 14.9602 145.23 16.2822C145.172 16.846 144.959 17.3828 144.616 17.834C144.273 18.2851 143.812 18.6333 143.285 18.8404C142.823 19.0232 142.35 19.3134 141.898 19.188Z" fill="black"/>
<path d="M132.318 19.1987C129.319 19.0661 127.112 17.4072 126.517 14.8813C125.779 11.7677 127.147 9.27405 129.813 8.01287C132.178 6.89142 135.281 7.83373 136.886 10.0695C136.977 10.167 137.038 10.289 137.062 10.4206C137.085 10.5523 137.07 10.6879 137.018 10.8111C136.868 11.1192 136.549 11.0082 136.302 10.9903C135.757 10.9473 135.549 10.4385 135.202 10.1339C133.769 8.86202 132.196 8.39982 130.368 9.22389C129.59 9.5334 128.922 10.0714 128.455 10.7672C127.987 11.4629 127.742 12.2839 127.749 13.1221C127.671 15.0604 128.645 16.7659 130.182 17.4216C132.221 18.2922 133.955 17.9518 135.471 16.3789C135.574 16.2714 135.639 16.0887 135.757 16.0457C136.148 15.9024 136.56 15.4223 136.961 15.8845C137.319 16.2822 136.961 16.6333 136.692 16.9594C136.165 17.6233 135.502 18.1667 134.748 18.5529C133.993 18.9392 133.164 19.1594 132.318 19.1987Z" fill="black"/>
<path d="M185.867 23.3795C187.881 23.444 189.422 24.3756 190.575 26.0022C190.701 26.1778 190.848 26.3318 190.697 26.5576C190.639 26.6258 190.566 26.6785 190.483 26.7111C190.399 26.7436 190.309 26.7549 190.221 26.7439C189.998 26.7491 189.778 26.6984 189.58 26.5963C189.382 26.4943 189.213 26.3442 189.088 26.1599C187.114 23.8166 183.241 24.2932 181.851 26.9732C180.934 28.7646 181.396 31.484 182.987 32.7416C183.828 33.3941 184.873 33.7269 185.937 33.681C187 33.6351 188.013 33.2133 188.795 32.4908C189.185 32.1325 189.436 31.5163 190.142 31.6023C190.342 31.6238 190.583 31.5557 190.697 31.7886C190.747 31.8968 190.764 32.0177 190.744 32.1354C190.724 32.2531 190.669 32.362 190.586 32.4478C189.25 34.1569 187.541 35.049 185.334 34.8949C184.133 34.8465 182.981 34.4063 182.054 33.6415C181.127 32.8768 180.475 31.8296 180.199 30.66C179.533 27.7936 180.636 25.3035 183.101 24.0137C183.941 23.5344 184.903 23.3138 185.867 23.3795Z" fill="black"/>
<path d="M38.8042 44.1428C38.4925 44.261 38.428 44.5799 38.2489 44.8092C37.715 45.5043 37.02 46.0345 36.1171 45.8662C35.0995 45.6798 34.1823 45.1997 33.7846 44.1392C33.4263 43.2112 33.2328 42.2224 32.8244 41.3266C32.2564 39.9728 31.4006 38.7588 30.3164 37.7688C29.2881 36.8552 27.9266 36.2712 27.1921 35.0243C27.0667 34.8165 26.6439 34.666 26.8911 34.3866C27.1383 34.1071 27.339 34.4582 27.536 34.5872C28.2777 35.0745 29.0409 35.3038 29.8613 34.795C30.1455 34.6255 30.376 34.3792 30.5262 34.0845C30.6764 33.7897 30.7403 33.4585 30.7105 33.129C30.7112 32.7385 30.5924 32.3572 30.3701 32.0362C30.3071 31.955 30.2634 31.8606 30.2423 31.76C30.2212 31.6595 30.2232 31.5554 30.2483 31.4558L30.6997 31.3984C31.3368 31.9752 31.7598 32.7505 31.9 33.5983C32.5628 36.7549 34.4546 39.0085 37.0235 40.7462C38.1486 41.5058 38.9189 42.337 38.8723 43.7522L38.8042 44.1428ZM37.8906 43.4513C37.8854 42.9909 37.7031 42.5501 37.3815 42.2206C37.0599 41.891 36.6238 41.6979 36.1637 41.6813C35.7151 41.706 35.2896 41.888 34.9619 42.1953C34.6343 42.5026 34.4255 42.9156 34.3722 43.3617C34.3722 44.1535 35.3432 45.1532 36.1637 45.1926C36.9841 45.232 37.8727 44.3004 37.8942 43.4513H37.8906Z" fill="black"/>
<path d="M127.413 50.7387C124.091 50.7387 121.838 49.216 121.089 46.8369C120.397 44.6478 120.777 42.2902 122.834 40.5203C123.734 39.8058 124.82 39.3648 125.963 39.2498C127.106 39.1349 128.259 39.3507 129.283 39.8718C130.004 40.2913 130.636 40.8489 131.142 41.5128C131.372 41.7958 131.723 42.0932 131.4 42.4192C131.078 42.7453 130.659 42.5984 130.325 42.4192C130.125 42.3117 129.992 42.0824 129.827 41.914C128.308 40.3519 126.402 39.9649 124.618 40.8392C123.776 41.2646 123.089 41.942 122.651 42.777C122.213 43.6119 122.046 44.5628 122.174 45.4969C122.228 46.3535 122.542 47.1733 123.074 47.8469C123.606 48.5204 124.331 49.0155 125.152 49.2661C126.821 49.843 128.376 49.4489 129.688 48.1913C129.999 47.8939 130.207 47.4353 130.745 47.4496C131.003 47.4496 131.304 47.335 131.479 47.6216C131.655 47.9082 131.433 48.1196 131.268 48.3382C130.078 49.9218 128.498 50.7244 127.413 50.7387Z" fill="black"/>
<path d="M94.2742 12.1693C94.2742 13.3302 94.3029 14.4946 94.2742 15.6555C94.2133 17.7371 92.5795 19.07 90.7164 19.1882C89.7871 19.2687 88.8639 18.9769 88.1498 18.3769C87.4356 17.7769 86.9888 16.9179 86.9078 15.9887C86.6498 13.4807 86.854 10.9726 86.7931 8.48252C86.7931 7.99166 87.0296 7.76594 87.5097 7.78744C88.0722 7.78744 88.2944 8.06332 88.2908 8.62583C88.2908 10.9225 88.2908 13.2155 88.2908 15.5122C88.2908 16.3577 88.5165 17.0671 89.3334 17.5186C90.9815 18.4358 92.7658 17.5186 92.8841 15.6304C93.0238 13.3696 92.9593 11.1016 92.9163 8.8229C92.9163 8.46461 92.8052 8.08124 93.1814 7.84835C93.2922 7.77607 93.4209 7.73587 93.5531 7.73221C93.6853 7.72854 93.816 7.76156 93.9306 7.82759C94.0453 7.89362 94.1394 7.99009 94.2026 8.10632C94.2657 8.22255 94.2955 8.354 94.2885 8.48611C94.3065 9.70787 94.2885 10.9296 94.2885 12.155L94.2742 12.1693Z" fill="black"/>
<path d="M111.358 50.0261C111.336 50.3055 111.25 50.585 110.999 50.5886C110.595 50.5886 110.132 50.5886 109.925 50.1264C109.597 49.4613 109.308 48.7783 109.058 48.0805C109.012 47.892 108.899 47.7265 108.74 47.6151C108.581 47.5037 108.387 47.4539 108.194 47.475C106.883 47.475 105.568 47.475 104.253 47.475C104.075 47.4564 103.897 47.5049 103.753 47.611C103.609 47.717 103.51 47.873 103.475 48.0483C103.246 48.6861 102.92 49.2916 102.68 49.9293C102.647 50.0526 102.589 50.1676 102.509 50.267C102.429 50.3665 102.329 50.4481 102.216 50.5068C102.102 50.5655 101.978 50.5999 101.851 50.6078C101.723 50.6157 101.596 50.5969 101.476 50.5527C100.899 50.3199 101.258 49.8362 101.433 49.4134C102.447 47.0451 103.443 44.6625 104.439 42.2834C104.758 41.5203 105.07 40.7499 105.385 39.9832C105.447 39.7943 105.567 39.6297 105.728 39.513C105.888 39.3963 106.082 39.3335 106.281 39.3335C106.48 39.3335 106.673 39.3963 106.834 39.513C106.995 39.6297 107.115 39.7943 107.176 39.9832C107.961 41.8714 108.735 43.7632 109.52 45.6478C110.089 47.0128 110.67 48.3743 111.25 49.7358C111.265 49.829 111.315 49.9365 111.358 50.0261ZM106.263 46.3142C106.739 46.3142 107.216 46.3142 107.696 46.3142C108.176 46.3142 108.312 46.1028 108.13 45.6263C107.617 44.3006 106.979 43.0215 106.592 41.6457C106.575 41.5568 106.529 41.4762 106.461 41.4165C106.393 41.3569 106.307 41.3215 106.216 41.316C105.926 41.2945 105.919 41.5382 105.858 41.7281C105.442 42.8029 105.034 43.8778 104.593 44.9527C104.038 46.2891 104.049 46.3178 105.475 46.3178L106.263 46.3142Z" fill="black"/>
<path d="M106.879 31.6096H106.252C103.744 31.5881 104.518 31.5201 103.544 33.591C103.286 34.1463 103.185 34.8199 102.336 34.7805C101.777 34.7518 101.655 34.4652 101.845 34.0174C102.945 31.4305 104.063 28.8544 105.174 26.2711C105.489 25.5366 105.74 24.7699 106.123 24.0748C106.567 23.2723 107.359 23.3045 107.732 24.1536C108.66 26.264 109.523 28.4065 110.419 30.5348C110.867 31.6096 111.351 32.6523 111.759 33.7307C111.87 34.0209 112.332 34.4473 111.759 34.7053C111.638 34.7683 111.505 34.8045 111.368 34.8114C111.232 34.8182 111.095 34.7955 110.968 34.7448C110.842 34.6941 110.727 34.6167 110.633 34.5177C110.539 34.4187 110.467 34.3006 110.423 34.1714C110.168 33.6053 109.946 33.0249 109.728 32.4409C109.509 31.8569 109.108 31.495 108.384 31.5953C107.883 31.6352 107.381 31.64 106.879 31.6096ZM106.976 25.4686C106.901 25.508 106.79 25.5295 106.754 25.594C105.987 26.9985 105.557 28.5463 104.919 30.0117C104.783 30.327 104.987 30.567 105.389 30.5634C106.399 30.5634 107.409 30.5634 108.42 30.5634C108.918 30.5634 108.961 30.2661 108.818 29.9113C108.212 28.4209 107.596 26.9519 106.972 25.4686H106.976Z" fill="black"/>
<path d="M93.8875 44.9636C93.8875 43.4122 93.9126 41.8644 93.8875 40.3059C93.8875 39.5893 94.124 39.3564 94.819 39.3707C96.3382 39.3994 97.8609 39.3707 99.3801 39.3707C99.8279 39.3707 100.197 39.514 100.218 39.9727C100.244 40.4886 99.8423 40.6642 99.3765 40.6642C98.3016 40.6642 97.2267 40.6821 96.1519 40.6462C95.5177 40.6247 95.2597 40.8146 95.249 41.499C95.2024 44.3294 95.1809 44.3295 98.0078 44.3295C98.4879 44.3295 98.9644 44.3295 99.441 44.3295C99.8351 44.3295 100.158 44.4441 100.158 44.9242C100.158 45.4043 99.7993 45.5154 99.441 45.519C98.3661 45.519 97.2912 45.5512 96.2164 45.4975C95.5213 45.4616 95.2239 45.691 95.2562 46.4004C95.2884 47.1098 95.2777 47.8909 95.2562 48.6361C95.2562 49.1699 95.4711 49.3742 96.005 49.3527C97.1085 49.324 98.2121 49.3527 99.3156 49.3527C99.7563 49.3527 100.226 49.3849 100.211 49.9582C100.197 50.5314 99.724 50.5494 99.2869 50.5494C97.7964 50.5494 96.3059 50.5243 94.8155 50.5494C94.1383 50.5494 93.8302 50.3595 93.8839 49.6286C93.9377 48.8976 93.8839 48.0807 93.8839 47.3068C93.8839 46.5329 93.8839 45.7554 93.8839 44.9815L93.8875 44.9636Z" fill="black"/>
<path d="M78.2807 44.9418C78.2807 43.4226 78.3201 41.8999 78.2628 40.3843C78.2341 39.5925 78.5064 39.3274 79.2803 39.3489C80.7385 39.3918 82.2004 39.3739 83.6622 39.3489C84.1244 39.3489 84.5543 39.4098 84.5651 39.9544C84.5758 40.499 84.1387 40.6494 83.6335 40.6423C82.5909 40.6244 81.5447 40.6423 80.5021 40.6244C79.8643 40.6029 79.5598 40.7999 79.6207 41.4914C79.6709 42.1459 79.678 42.803 79.6422 43.4584C79.6064 44.132 79.893 44.3434 80.5379 44.3183C81.5805 44.2753 82.6267 44.3183 83.6694 44.2968C84.085 44.2968 84.5006 44.3291 84.5221 44.8486C84.5507 45.4219 84.1208 45.4935 83.6658 45.4899C82.6232 45.4899 81.5769 45.515 80.5343 45.4684C79.8177 45.4326 79.5813 45.7551 79.6171 46.4251C79.6637 47.0486 79.6708 47.6745 79.6386 48.2989C79.5849 49.0585 79.8285 49.3738 80.6382 49.3344C81.6486 49.2699 82.6661 49.3344 83.6801 49.3129C84.1136 49.3129 84.5758 49.3129 84.5615 49.9184C84.5472 50.5239 84.0778 50.506 83.6514 50.506C82.1323 50.506 80.6131 50.506 79.0904 50.506C78.4742 50.506 78.2556 50.2803 78.2699 49.6604C78.3022 48.1019 78.2807 46.5218 78.2807 44.9418Z" fill="black"/>
<path d="M184.8 44.9812C184.8 43.4012 184.8 41.8211 184.8 40.2446C184.8 39.6535 185.026 39.3704 185.645 39.3776C187.197 39.3991 188.748 39.3776 190.303 39.3776C190.755 39.3776 191.192 39.4313 191.156 40.0225C191.12 40.6137 190.704 40.6531 190.249 40.6495C189.146 40.6495 188.042 40.6495 186.939 40.6495C186.362 40.6495 186.136 40.8358 186.176 41.4306C186.219 42.1472 186.194 42.8637 186.176 43.5803C186.176 44.1142 186.401 44.3399 186.924 44.3327C188.028 44.3327 189.132 44.3327 190.239 44.3327C190.672 44.3327 191.138 44.3327 191.131 44.9346C191.124 45.5366 190.644 45.5186 190.217 45.5186C189.203 45.5186 188.189 45.5366 187.175 45.5186C186.459 45.4936 186.1 45.7085 186.179 46.4896C186.237 47.1129 186.237 47.7402 186.179 48.3635C186.1 49.1804 186.459 49.4133 187.215 49.381C188.257 49.338 189.304 49.3595 190.346 49.381C190.744 49.381 191.156 49.381 191.163 49.9614C191.17 50.5419 190.755 50.506 190.36 50.506C188.777 50.506 187.197 50.506 185.617 50.506C185.004 50.506 184.796 50.223 184.811 49.6103C184.846 48.0625 184.811 46.5111 184.811 44.9526L184.8 44.9812Z" fill="black"/>
<path d="M149.978 29.0587C149.978 27.536 150.003 26.0169 149.978 24.4977C149.978 23.9209 150.16 23.6522 150.727 23.6593C151.741 23.6593 152.754 23.6593 153.765 23.7166C154.307 23.7204 154.833 23.8958 155.269 24.2177C155.705 24.5396 156.028 24.9913 156.19 25.5081C156.38 25.9846 156.418 26.5075 156.301 27.0065C156.184 27.5056 155.916 27.9567 155.535 28.2992C155.177 28.618 155.151 28.8258 155.556 29.1304C156.835 30.0978 157.219 31.2228 156.789 32.6201C156.431 33.738 155.169 34.623 153.718 34.6875C152.765 34.734 151.809 34.6875 150.852 34.7161C150.2 34.7161 149.96 34.4259 149.971 33.781C149.999 32.2009 149.971 30.6209 149.971 29.0444L149.978 29.0587ZM151.264 31.3805C151.264 33.5302 151.264 33.5302 153.36 33.4979C153.627 33.5017 153.895 33.4837 154.159 33.4442C154.41 33.4073 154.649 33.316 154.861 33.1767C155.073 33.0375 155.251 32.8536 155.384 32.6381C155.563 32.3893 155.68 32.1012 155.725 31.7979C155.769 31.4946 155.74 31.1851 155.64 30.8954C155.54 30.6057 155.372 30.3442 155.15 30.1331C154.927 29.922 154.658 29.7673 154.363 29.6822C153.414 29.3561 152.353 29.2558 151.497 29.6392C150.92 29.8936 151.386 30.8502 151.264 31.3805ZM152.532 28.3959H152.891C154.127 28.378 154.793 27.9982 154.987 27.1383C155.144 26.4504 155.126 25.7732 154.514 25.268C153.611 24.5228 152.514 24.6088 151.536 24.8488C150.924 25.0029 151.328 25.8449 151.246 26.3716C151.228 26.6101 151.228 26.8496 151.246 27.0882C151.235 28.4031 151.235 28.4031 152.532 28.3959Z" fill="black"/>
<path d="M140.988 45.0028C140.988 46.5255 140.988 48.0446 140.988 49.5638C140.988 50.069 140.938 50.481 140.315 50.4774C139.691 50.4738 139.716 50.0332 139.724 49.5925C139.724 48.4925 139.724 47.389 139.745 46.2854C139.763 45.6799 139.548 45.4184 138.917 45.4327C137.696 45.4614 136.474 45.4578 135.252 45.4327C134.607 45.4327 134.335 45.662 134.356 46.3284C134.396 47.4284 134.356 48.5319 134.385 49.6354C134.385 50.0976 134.338 50.4989 133.74 50.4738C133.203 50.4523 133.17 50.0726 133.17 49.6498C133.17 46.5219 133.17 43.394 133.17 40.2626C133.17 39.8183 133.217 39.3848 133.801 39.3884C134.385 39.392 134.381 39.8721 134.381 40.2877C134.381 41.3303 134.41 42.3765 134.356 43.4155C134.317 44.1321 134.611 44.3614 135.291 44.3435C136.485 44.3113 137.678 44.3077 138.874 44.3435C139.534 44.3614 139.784 44.1393 139.756 43.4657C139.709 42.3908 139.734 41.316 139.727 40.2411C139.727 39.7968 139.756 39.3669 140.354 39.3812C140.952 39.3955 141.003 39.7897 141.003 40.2518C141.003 41.8319 141.003 43.412 141.003 44.9884L140.988 45.0028Z" fill="black"/>
<path d="M69.3663 44.9278C69.3663 43.4374 69.395 41.9469 69.3663 40.4564C69.3413 39.7076 69.5347 39.3493 70.366 39.4173C71.7561 39.532 73.1678 39.2705 74.5436 39.6717C75.9195 40.073 76.8653 41.3736 76.8689 42.9967C76.8725 44.6197 76.0269 45.863 74.5759 46.2213C73.888 46.3933 73.9166 46.6691 74.2391 47.1349C74.798 47.9411 75.3677 48.7365 75.8944 49.5605C76.0449 49.7934 76.5357 50.0442 76.1201 50.3631C76.0378 50.4302 75.9426 50.4796 75.8402 50.508C75.7379 50.5364 75.6308 50.5432 75.5257 50.528C75.4207 50.5129 75.3199 50.4761 75.2297 50.4199C75.1396 50.3638 75.0622 50.2895 75.0022 50.2019C74.54 49.582 74.1244 48.9335 73.6981 48.2886C73.3398 47.744 72.9815 47.1886 72.6232 46.6405C72.4655 46.4004 72.1323 46.2069 72.29 45.8737C72.4476 45.5405 72.8059 45.6588 73.0926 45.6408C74.9557 45.519 76.0019 44.0894 75.5038 42.3052C75.409 41.9117 75.205 41.553 74.9154 41.2703C74.6257 40.9876 74.2621 40.7924 73.8665 40.7072C73.0166 40.5371 72.1471 40.4865 71.2832 40.5567C70.7278 40.5746 70.5666 40.8469 70.5666 41.4202C70.6024 44.1324 70.5881 46.8447 70.5917 49.5605C70.5917 50.0191 70.6383 50.5136 69.9575 50.4849C69.3628 50.4598 69.3699 50.0299 69.3699 49.5856C69.3735 48.027 69.3699 46.4792 69.3663 44.9278Z" fill="black"/>
<path d="M159.265 44.9027C159.265 43.3549 159.265 41.8035 159.265 40.2449C159.265 39.6574 159.458 39.3636 160.092 39.3707C161.611 39.3958 163.134 39.3707 164.653 39.3707C165.073 39.3707 165.467 39.4424 165.474 39.9691C165.481 40.4958 165.073 40.5782 164.66 40.5817C163.557 40.5817 162.453 40.5817 161.353 40.5817C160.694 40.5817 160.44 40.8075 160.501 41.4846C160.553 42.1082 160.553 42.7349 160.501 43.3585C160.447 44.0751 160.694 44.3939 161.457 44.3581C162.5 44.3115 163.543 44.3366 164.589 44.3402C164.976 44.3402 165.424 44.308 165.445 44.8705C165.467 45.5082 164.969 45.4545 164.557 45.4545C163.482 45.4545 162.407 45.4545 161.332 45.4545C160.723 45.4545 160.465 45.7053 160.49 46.318C160.528 47.034 160.528 47.7516 160.49 48.4677C160.447 49.1843 160.766 49.41 161.443 49.3849C162.486 49.3491 163.528 49.3849 164.574 49.3849C164.99 49.3849 165.474 49.3419 165.456 49.9761C165.438 50.5494 164.983 50.5028 164.603 50.5028C163.109 50.5028 161.619 50.5028 160.128 50.5028C159.523 50.5028 159.272 50.2914 159.286 49.6608C159.315 48.0807 159.286 46.5007 159.286 44.9206L159.265 44.9027Z" fill="black"/>
<path d="M181.146 45.5401C181.146 46.941 181.146 48.3419 181.146 49.7428C181.146 50.1764 181.088 50.5239 180.54 50.5203C179.992 50.5168 179.73 50.3054 179.737 49.7142C179.759 47.0306 179.737 44.3398 179.766 41.667C179.766 40.8931 179.558 40.5491 178.759 40.6423C178.402 40.6748 178.042 40.6748 177.684 40.6423C177.594 40.6471 177.503 40.6326 177.419 40.5997C177.335 40.5669 177.258 40.5164 177.195 40.4516C177.131 40.3869 177.082 40.3093 177.051 40.2242C177.02 40.1391 177.008 40.0483 177.014 39.958C177.012 39.8745 177.028 39.7916 177.061 39.7147C177.093 39.6378 177.142 39.5688 177.203 39.5122C177.265 39.4556 177.338 39.4127 177.417 39.3864C177.496 39.3601 177.58 39.351 177.663 39.3596C179.54 39.3596 181.421 39.3596 183.299 39.3596C183.722 39.3596 183.886 39.6176 183.883 39.9902C183.879 40.3628 183.729 40.628 183.302 40.6351H183.034C181.131 40.6889 181.131 40.6889 181.131 42.5699V45.5222L181.146 45.5401Z" fill="black"/>
<path d="M69.4772 29.1483C69.4772 27.6005 69.4772 26.0491 69.4772 24.4905C69.4772 24.0785 69.4772 23.6664 70.0253 23.6593C70.5735 23.6521 70.6882 24.0176 70.6738 24.5048C70.6488 25.5797 70.6738 26.6546 70.6452 27.7294C70.6273 28.2561 70.7992 28.5213 71.3403 28.5213C72.6838 28.5213 74.0274 28.5213 75.3674 28.5213C75.9049 28.5213 76.0159 28.2418 76.0088 27.7832C75.9909 26.6832 76.0088 25.5761 75.9873 24.4762C75.9873 23.9782 76.0948 23.6342 76.6537 23.6629C77.1338 23.6844 77.2843 23.9674 77.2843 24.4439C77.2843 27.5754 77.2843 30.7068 77.2843 33.8383C77.2843 34.322 77.1302 34.6767 76.5928 34.6695C76.0554 34.6623 75.9837 34.2933 75.9873 33.8598C75.9873 32.6953 75.9873 31.5345 76.0088 30.37C76.0088 29.8398 75.8296 29.6212 75.2922 29.632C74.0095 29.6606 72.7268 29.632 71.4442 29.632C70.8996 29.632 70.6344 29.8254 70.6595 30.431C70.7061 31.5309 70.6595 32.638 70.6882 33.7415C70.6882 34.1894 70.6523 34.6265 70.097 34.6588C69.4843 34.6946 69.4951 34.2181 69.4915 33.7881C69.4795 32.2475 69.4748 30.7009 69.4772 29.1483Z" fill="black"/>
<path d="M172.006 29.686C172.006 28.3747 171.973 27.0598 172.006 25.7448C172.031 25.0283 171.794 24.67 171.038 24.7631C170.712 24.7989 170.382 24.7631 170.053 24.7631C169.609 24.781 169.229 24.6341 169.247 24.154C169.265 23.6739 169.63 23.5234 170.071 23.5234C170.755 23.5234 171.443 23.5234 172.127 23.5234C173.17 23.5234 174.216 23.5234 175.259 23.5234C175.728 23.5234 176.101 23.5808 176.101 24.1648C176.101 24.7488 175.742 24.7488 175.316 24.7595C173.367 24.8133 173.367 24.8204 173.367 26.791C173.367 29.1175 173.367 31.4428 173.367 33.7669C173.367 34.2435 173.435 34.7666 172.686 34.7522C171.991 34.7522 171.97 34.29 171.97 33.7705C171.97 32.4019 171.97 31.0296 171.97 29.6609L172.006 29.686Z" fill="black"/>
<path d="M85.5359 27.8515C85.5359 26.748 85.5359 25.648 85.5359 24.5445C85.5359 24.1074 85.5144 23.6631 86.1307 23.6631C86.7469 23.6631 86.772 24.0214 86.7648 24.5087C86.7434 26.773 86.7863 29.041 86.7326 31.3162C86.6932 33.1076 85.6828 34.4118 84.1673 34.7701C82.3507 35.2 80.742 34.5408 79.8678 33.018C79.5447 32.3496 79.3991 31.6093 79.445 30.8683C79.4163 28.7544 79.445 26.6369 79.4199 24.523C79.4199 24.0285 79.5417 23.6846 80.0899 23.6882C80.6381 23.6918 80.6668 24.0644 80.6668 24.4943C80.6668 26.6679 80.6668 28.8428 80.6668 31.0188C80.6668 31.9861 80.9606 32.8568 81.824 33.3942C82.1786 33.6337 82.5914 33.7727 83.0186 33.7965C83.4458 33.8202 83.8714 33.7277 84.2503 33.5289C84.6291 33.3301 84.9471 33.0324 85.1703 32.6674C85.3935 32.3024 85.5137 31.8837 85.518 31.4559C85.5753 30.2664 85.518 29.0733 85.518 27.873L85.5359 27.8515Z" fill="black"/>
<path d="M9.02312 11.6499L9.8866 11.4277C9.96275 11.6638 10.1114 11.8699 10.3115 12.0166C10.5116 12.1632 10.7528 12.243 11.0009 12.2446C11.3592 12.2661 11.4344 12.4309 11.3592 12.6638C11.1621 13.4413 11.1585 14.2582 10.5924 14.939C9.29542 16.5047 8.33521 18.2352 8.44269 20.3671C7.93012 20.2276 7.45194 19.9836 7.0382 19.6505C6.35028 19.0987 5.80568 19.414 5.37932 19.9801C5.27966 20.0923 5.20459 20.2241 5.15895 20.367C5.1133 20.51 5.09809 20.6609 5.11429 20.81C5.13049 20.9592 5.17774 21.1033 5.25301 21.2332C5.32827 21.363 5.42988 21.4756 5.5513 21.5637L6.31087 22.2803C5.07119 22.3556 4.31162 21.0836 4.90996 19.8726C5.32226 18.9881 5.86316 18.1695 6.5151 17.4434C6.94541 16.9586 7.18814 16.3359 7.19943 15.6878C7.33916 14.1543 7.59713 12.628 9.02312 11.6499ZM9.53548 12.4883C9.21302 12.3987 9.01596 12.4883 8.98013 12.8466C8.88917 12.8491 8.80056 12.876 8.72353 12.9244C8.6465 12.9728 8.58387 13.041 8.54215 13.1219C8.50044 13.2028 8.48118 13.2933 8.48637 13.3842C8.49156 13.475 8.52102 13.5628 8.57168 13.6384C8.76515 14.0433 8.97296 14.5269 9.51756 14.5771C10.0622 14.6273 10.9507 13.7745 10.8182 13.2335C10.7916 13.0987 10.737 12.971 10.658 12.8587C10.579 12.7463 10.4772 12.6518 10.3594 12.5812C10.2415 12.5106 10.1101 12.4656 9.97378 12.4489C9.83742 12.4323 9.69908 12.4445 9.56772 12.4847L9.53548 12.4883Z" fill="black"/>
<path d="M89.2476 39.2703C89.7988 39.2856 90.3336 39.4616 90.7861 39.7767C91.2387 40.0918 91.5893 40.5322 91.795 41.0438C91.9527 41.4021 92.1999 41.8213 91.727 42.047C91.254 42.2727 90.8993 42.09 90.6521 41.5705C89.9355 40.0728 88.2945 39.8543 87.2591 41.0904C87.1176 41.2617 87.0116 41.4594 86.9472 41.6721C86.8829 41.8847 86.8614 42.108 86.8841 42.3291C86.9067 42.5501 86.9731 42.7644 87.0793 42.9595C87.1855 43.1547 87.3294 43.3268 87.5027 43.4658C88.3161 44.1179 89.3515 44.2612 90.2651 44.6948C91.9742 45.5081 92.5689 46.6224 92.139 48.335C91.7807 49.7896 90.2616 50.8108 88.6528 50.6889C87.1122 50.5743 85.8689 49.6141 85.5429 48.2848C85.4497 47.905 85.3924 47.5467 85.851 47.407C86.0254 47.354 86.2136 47.3717 86.3751 47.4561C86.5366 47.5405 86.6585 47.685 86.7145 47.8584C86.8429 48.1913 87.0062 48.5096 87.2018 48.8079C87.482 49.1361 87.8526 49.3746 88.2674 49.4937C88.6822 49.6129 89.1229 49.6073 89.5346 49.4779C89.9463 49.3484 90.3108 49.1007 90.5828 48.7656C90.8547 48.4305 91.0221 48.0228 91.0641 47.5933C91.0964 46.6152 90.5231 46.0598 89.7026 45.7087C89.072 45.4436 88.42 45.2322 87.7822 44.9921C86.1054 44.3436 85.3566 43.1541 85.6683 41.635C85.9513 40.2341 87.3164 39.2523 89.2476 39.2703Z" fill="black"/>
<path d="M195.351 34.8495C193.8 34.8495 192.485 33.9789 192.105 32.6639C192.001 32.3057 191.79 31.8578 192.274 31.6428C192.757 31.4278 193.076 31.7467 193.295 32.2089C194.04 33.7925 195.276 34.2404 196.584 33.4307C197.892 32.6209 197.931 30.9943 196.645 30.1344C195.993 29.6973 195.229 29.5289 194.495 29.2781C193.37 28.8911 192.424 28.2749 192.188 27.0209C192.068 26.4771 192.113 25.9098 192.318 25.392C192.523 24.8741 192.878 24.4295 193.338 24.1152C193.721 23.8169 194.165 23.6075 194.639 23.5021C195.113 23.3966 195.605 23.3978 196.078 23.5054C196.552 23.6131 196.995 23.8245 197.377 24.1245C197.759 24.4246 198.069 24.8056 198.286 25.2402C198.461 25.5985 198.734 25.9926 198.218 26.2147C197.773 26.4118 197.376 26.2613 197.143 25.7454C196.483 24.3445 195.018 24.0614 193.943 25.0969C193.735 25.2786 193.576 25.5088 193.478 25.767C193.38 26.0252 193.348 26.3035 193.383 26.5773C193.418 26.8511 193.521 27.112 193.681 27.3368C193.841 27.5616 194.054 27.7436 194.301 27.8664C194.998 28.2077 195.716 28.5034 196.451 28.7514C198.243 29.4178 199.045 30.6217 198.734 32.2734C198.418 33.8642 197.118 34.8602 195.351 34.8495Z" fill="black"/>
<path d="M124.84 13.391C124.84 14.9424 124.84 16.4938 124.84 18.0488C124.84 18.5683 124.751 18.9588 124.124 18.9445C123.497 18.9302 123.314 18.6399 123.317 18.0308C123.343 14.9281 123.335 11.8253 123.317 8.71533C123.317 8.15281 123.439 7.7802 124.088 7.77303C124.736 7.76587 124.804 8.21015 124.804 8.73325C124.833 10.2882 124.84 11.8396 124.84 13.391Z" fill="black"/>
<path d="M38.8904 43.7525C38.9369 42.3373 38.1738 41.5061 37.0416 40.7465C34.4726 39.0088 32.5809 36.7551 31.918 33.5986C31.7778 32.7508 31.3548 31.9754 30.7178 31.3987C31.2982 30.8613 31.5096 30.9903 31.8858 31.5313C32.262 32.0723 32.3552 32.8964 33.0538 33.4051C33.3727 33.6344 33.6737 34.2758 33.989 34.7308C34.4189 35.3542 34.8739 35.9884 35.2573 36.619C35.7947 37.4932 36.6152 38.2098 36.9269 39.17C37.1312 39.8042 37.9695 39.8866 37.9337 40.639C37.9337 40.7787 38.2419 40.6892 38.4138 40.639C38.508 40.6123 38.6066 40.6052 38.7036 40.6181C38.8007 40.631 38.894 40.6636 38.978 40.7139C39.0619 40.7643 39.1346 40.8313 39.1916 40.9109C39.2487 40.9904 39.2888 41.0808 39.3096 41.1764C39.5102 41.8213 39.22 42.5236 39.5998 43.19C39.7288 43.4265 39.1627 43.6056 38.8904 43.7525Z" fill="black"/>
<path d="M178.43 29.2522C178.43 30.8001 178.43 32.3479 178.43 33.91C178.43 34.3256 178.465 34.7842 177.831 34.7878C177.197 34.7914 177.032 34.4295 177.032 33.8634C177.032 30.7391 177.054 27.6149 177.032 24.4906C177.032 23.903 177.208 23.5554 177.817 23.5626C178.426 23.5698 178.426 24.0069 178.426 24.444C178.426 26.0527 178.426 27.6686 178.426 29.2666L178.43 29.2522Z" fill="black"/>
<path d="M119.684 13.9285V18.0452C119.684 18.4465 119.702 18.855 119.125 18.8621C118.549 18.8693 118.463 18.5039 118.466 18.0273C118.466 15.3402 118.441 12.653 118.495 9.97298C118.495 9.17041 118.24 8.87304 117.47 8.93753C117.112 8.96619 116.753 8.93753 116.395 8.93753C116.037 8.93753 115.761 8.76913 115.772 8.34993C115.783 7.93073 116.001 7.82324 116.352 7.82324H121.813C122.153 7.82324 122.407 7.95222 122.425 8.32485C122.443 8.69747 122.192 8.90886 121.813 8.93036C121.694 8.93036 121.572 8.93036 121.454 8.93036C119.663 8.95544 119.663 8.95544 119.663 10.6931V13.9177L119.684 13.9285Z" fill="black"/>
<path d="M10.0333 27.7406C10.302 27.2534 10.5564 26.7518 10.8502 26.2788C10.8947 26.1825 10.9591 26.0967 11.0392 26.0271C11.1193 25.9576 11.2133 25.9058 11.315 25.8753C11.4166 25.8448 11.5236 25.8363 11.6287 25.8503C11.7339 25.8642 11.8349 25.9004 11.9251 25.9564C12.0185 26.0042 12.1007 26.0713 12.1661 26.1534C12.2315 26.2354 12.2786 26.3305 12.3044 26.4322C12.3302 26.5339 12.334 26.64 12.3155 26.7433C12.297 26.8466 12.2568 26.9447 12.1974 27.0312C11.5572 28.1969 10.904 29.353 10.2375 30.4995C10.2077 30.5613 10.1624 30.6144 10.1062 30.6537C10.0499 30.693 9.98451 30.7172 9.91622 30.7241C9.84793 30.7309 9.77902 30.7201 9.71609 30.6927C9.65316 30.6653 9.59832 30.6222 9.55679 30.5676C9.24508 30.2093 8.63957 29.9226 9.06952 29.3207C9.31531 29.0317 9.46109 28.671 9.48513 28.2924C9.78251 28.2172 9.83984 27.909 10.0333 27.7406Z" fill="black"/>
<path d="M9.17026 28.0669C8.95327 28.2629 8.74752 28.4711 8.554 28.6903C8.27453 29.0486 8.04164 28.916 7.83742 28.6437C7.32148 27.9558 6.80555 27.2643 6.32186 26.5549C6.23383 26.4139 6.19424 26.248 6.20912 26.0825C6.22399 25.9169 6.29251 25.7607 6.40426 25.6377C7.45626 26.2862 8.39137 27.1074 9.17026 28.0669Z" fill="black"/>
<path d="M40.8071 47.0883C40.7247 46.7873 40.6459 46.4864 40.5635 46.1818C40.7082 46.1805 40.8529 46.1865 40.997 46.1997C41.3553 46.2571 41.6527 46.4505 41.581 46.8411C41.495 47.3176 41.1152 47.16 40.8071 47.0883Z" fill="black"/>
<path d="M55.3497 56.6291C55.3497 57.0626 55.3497 57.4209 54.952 57.6143C54.7621 57.7075 54.5579 57.8078 54.3752 57.6323C54.1925 57.4567 54.3143 57.274 54.4827 57.1235C54.5999 57.0335 54.6887 56.9116 54.7382 56.7724C54.7878 56.6332 54.7961 56.4827 54.7621 56.3388C54.7299 56.1525 54.5472 55.8981 54.8625 55.8337C55.1778 55.7692 55.2888 55.9877 55.3211 56.26C55.339 56.4069 55.3461 56.5538 55.3497 56.6291Z" fill="black"/>
<path d="M37.568 2.49551C37.568 2.41311 37.4892 2.29845 37.5214 2.25545C37.7256 1.99749 37.8045 1.59979 38.238 1.57471C38.2774 1.57471 38.3742 1.71086 38.3598 1.75744C38.238 2.15156 38.0947 2.53493 37.5644 2.47402L37.568 2.49551Z" fill="black"/>
<path d="M36.8516 3.3728C36.9268 2.94285 36.9447 2.4699 37.5681 2.48065C37.6147 3.00733 37.4356 3.3513 36.8516 3.3728Z" fill="black"/>
<path d="M54.1352 54.8418C54.2786 54.9242 54.3574 55.0389 54.2714 55.2001C54.2529 55.22 54.2299 55.2353 54.2044 55.2446C54.1789 55.254 54.1515 55.2571 54.1245 55.2538C53.9704 55.2216 53.9848 55.0926 53.9883 54.9744L54.1352 54.8418Z" fill="black"/>
<path d="M14.7196 33.2508C14.6192 33.8635 14.329 33.9674 13.9062 33.5124C13.3057 32.8752 12.969 32.034 12.9639 31.1584C12.8896 29.6097 13.0503 28.0586 13.4405 26.558C13.9743 24.5516 14.3075 23.7311 15.6547 22.1904C15.9091 22.4735 15.8231 22.8067 15.8123 23.1041C15.7322 24.1763 15.9501 25.2498 16.4421 26.2059C16.934 27.1619 17.6808 27.9633 18.5998 28.5214C18.8112 28.6611 19.1408 28.7973 19.1122 29.0947C19.0764 29.4852 18.6715 29.2595 18.4529 29.3777C17.9155 29.6643 17.0198 29.3455 16.8944 30.3272C16.683 30.3487 16.5361 30.4275 16.5361 30.6855L16.5038 30.7285L16.3964 30.9148C16.9625 31.6564 17.851 31.9466 18.5962 32.4303C19.0047 32.6991 19.3952 33.1684 20.0043 32.9964C19.7428 33.9853 19.6066 34.0426 18.7718 33.541C17.937 33.0394 17.1093 32.5127 16.2638 32.0505C16.0061 31.8747 15.7847 31.6509 15.6117 31.3913C15.1853 32.1867 15.6368 32.6095 16.1635 33.0215C16.4035 33.2078 16.8406 33.3798 16.5612 33.7596C16.3641 34.0283 15.9987 33.8635 15.7801 33.6414C15.4827 33.3332 15.0313 33.4837 14.7052 33.2472C14.6407 33.0609 14.8199 33.0036 14.888 32.8889C15.0778 32.5629 15.0922 32.2369 14.7124 32.0685C14.6539 32.0342 14.5883 32.0137 14.5207 32.0086C14.453 32.0036 14.3852 32.0141 14.3222 32.0393C14.2593 32.0646 14.2029 32.1039 14.1575 32.1543C14.1121 32.2047 14.0789 32.2648 14.0603 32.33C13.9492 32.6883 14.0137 32.9821 14.4688 33.0466C14.5276 33.0469 14.5845 33.0674 14.6301 33.1045C14.6758 33.1417 14.7073 33.1933 14.7196 33.2508Z" fill="black"/>
<path d="M22.0578 29.0371C19.5498 29.1911 17.3571 27.0808 16.7802 25.2715C15.734 22.0075 17.3284 19.6141 19.4136 18.5105C21.8285 17.235 24.3294 17.7187 26.3107 19.7717C27.9158 21.4306 28.1523 24.2933 26.927 26.2209C26.7442 26.5111 26.5687 26.8766 26.2104 26.658C25.8521 26.4395 26.0348 26.1063 26.2104 25.8053C28.3601 21.9824 24.6088 18.618 21.8106 18.79C18.5394 18.9978 16.078 22.6703 18.002 25.8161C19.256 27.8619 20.51 28.471 22.7887 28.0984C22.8668 28.0727 22.9492 28.0633 23.0311 28.0707C23.1129 28.0781 23.1923 28.1022 23.2645 28.1415C23.3367 28.1807 23.4 28.2344 23.4507 28.299C23.5013 28.3637 23.5382 28.4381 23.559 28.5176C23.6701 28.969 23.2438 28.926 22.9715 28.969C22.6992 29.012 22.3552 29.0084 22.0578 29.0371Z" fill="black"/>
<path d="M26.8947 39.582C28.1272 40.0156 29.1913 40.7787 30.3378 41.3735C30.5623 41.5009 30.8035 41.5962 31.0544 41.6565C31.9107 42.0148 31.8498 43.1398 32.638 43.5734C32.7778 43.6522 32.7563 43.9317 32.638 44.0571C32.4481 44.2398 32.2367 44.0571 32.0719 43.9818C30.7319 43.2903 29.4027 42.5809 28.0698 41.8751C27.5217 41.5849 26.9735 41.2911 26.436 40.9829C26.1243 40.8038 25.8019 40.6032 25.8377 40.1732C25.8807 39.6716 26.3142 39.8543 26.5937 39.7576C26.7004 39.7107 26.8014 39.6518 26.8947 39.582Z" fill="black"/>
<path d="M19.9434 37.3532C20.9 36.6725 21.3479 37.561 21.9749 37.7366C22.6019 37.9121 23.082 38.4102 23.7233 38.6036C24.0458 38.7004 24.1031 39.0372 24.0207 39.3596C24.0131 39.4048 23.9942 39.4473 23.9659 39.4832C23.9375 39.5191 23.9006 39.5473 23.8584 39.5651C23.8163 39.583 23.7703 39.5899 23.7248 39.5853C23.6793 39.5807 23.6356 39.5647 23.5979 39.5388C22.3201 38.915 21.0975 38.1838 19.9434 37.3532Z" fill="black"/>
<path d="M21.7207 3.06147C22.534 2.72826 23.0356 3.12955 23.5301 3.63832C23.1718 3.84613 22.8851 3.60966 22.6057 3.52008C22.2978 3.39346 22.0017 3.24 21.7207 3.06147Z" fill="black"/>
<path d="M24.8915 11.6387C23.5316 11.3317 22.128 11.2686 20.7461 11.4524C20.9082 10.6023 21.2265 9.78957 21.6848 9.05543C21.9858 8.50367 22.4587 8.25286 23.118 8.59324C23.5121 8.80105 23.9385 8.95153 24.3433 9.13785C25.7836 9.79351 25.884 10.2593 24.8915 11.6387Z" fill="black"/>
<path d="M23.534 14.7742C23.2008 14.7026 22.8175 14.7312 22.7422 14.2511C22.7108 14.1536 22.7123 14.0485 22.7467 13.952C22.781 13.8555 22.8462 13.773 22.9321 13.7173C23.0878 13.6318 23.2697 13.6073 23.4425 13.6483C23.6152 13.6893 23.7666 13.7931 23.8673 13.9394L23.534 14.7742Z" fill="black"/>
<path d="M37.8944 43.4516C37.8729 44.3007 36.97 45.218 36.1782 45.1929C35.3863 45.1678 34.3867 44.1538 34.3867 43.362C34.44 42.916 34.6488 42.5029 34.9765 42.1956C35.3041 41.8883 35.7296 41.7063 36.1782 41.6816C36.6364 41.7009 37.0699 41.8952 37.3892 42.2244C37.7084 42.5537 37.8893 42.9929 37.8944 43.4516ZM36.97 43.3728C36.9667 43.2612 36.9398 43.1517 36.891 43.0513C36.8422 42.951 36.7726 42.8622 36.6869 42.7907C36.6013 42.7192 36.5014 42.6668 36.3939 42.6368C36.2864 42.6068 36.1738 42.6 36.0635 42.6168C35.8568 42.6356 35.665 42.7327 35.5276 42.8883C35.3901 43.0439 35.3174 43.2462 35.3243 43.4537C35.3311 43.6612 35.4171 43.8582 35.5645 44.0043C35.712 44.1505 35.9097 44.2348 36.1173 44.2398C36.2323 44.2468 36.3475 44.2291 36.4551 44.1878C36.5627 44.1465 36.6602 44.0826 36.741 44.0004C36.8218 43.9183 36.8841 43.8197 36.9236 43.7114C36.9631 43.6032 36.9789 43.4877 36.97 43.3728Z" fill="black"/>
<path d="M9.54995 12.4987C9.68107 12.4585 9.81915 12.4462 9.95531 12.4626C10.0915 12.479 10.2227 12.5238 10.3405 12.594C10.4583 12.6642 10.5601 12.7583 10.6393 12.8703C10.7185 12.9822 10.7734 13.1095 10.8004 13.244C10.9437 13.785 10.0516 14.6341 9.49979 14.5876C8.94803 14.541 8.74739 14.0537 8.55391 13.6489C8.50325 13.5733 8.4738 13.4855 8.4686 13.3946C8.46341 13.3038 8.48267 13.2132 8.52439 13.1324C8.5661 13.0515 8.62873 12.9833 8.70577 12.9349C8.7828 12.8865 8.87141 12.8596 8.96236 12.857C8.76172 13.3371 8.81546 13.7384 9.32065 13.9677C9.47335 14.0361 9.64682 14.0418 9.80366 13.9835C9.96049 13.9252 10.0881 13.8076 10.159 13.656C10.5317 13.0111 9.92258 12.8033 9.54995 12.4987Z" fill="black"/>
<path d="M9.53533 12.488L8.97998 12.8463C9.01581 12.4988 9.21287 12.3984 9.53533 12.488Z" fill="black"/>
<path d="M16.8914 30.3379C16.8814 30.4295 16.8404 30.5149 16.7752 30.58C16.7101 30.6452 16.6247 30.6861 16.5331 30.6962C16.5188 30.4418 16.68 30.3594 16.8914 30.3379Z" fill="black"/>
<path d="M16.3968 16.8267C16.3703 16.9941 16.282 17.1455 16.1494 17.251C16.0167 17.3565 15.8493 17.4083 15.6802 17.3964C15.322 17.3964 15.1786 17.0775 15.1858 16.7873C15.193 16.4971 15.39 16.2355 15.6802 16.2749C15.844 16.2744 16.0032 16.3283 16.1329 16.4282C16.2627 16.5281 16.3555 16.6683 16.3968 16.8267Z" fill="black"/>
<path d="M29.5923 33.011C29.3917 33.5019 29.2161 33.8601 28.7862 33.8924C28.6815 33.9017 28.5759 33.8897 28.476 33.857C28.3761 33.8244 28.2838 33.7718 28.2047 33.7025C28.1257 33.6331 28.0615 33.5485 28.0161 33.4537C27.9707 33.3588 27.9451 33.2558 27.9406 33.1507C27.894 32.6133 28.3777 32.4521 28.8113 32.3768C29.3809 32.2837 29.1767 32.9716 29.5923 33.011Z" fill="black"/>
<path d="M33.9602 3.21202C33.9389 3.52555 33.8151 3.82339 33.6079 4.05969C33.4008 4.29599 33.1217 4.45765 32.8136 4.51977C32.2726 4.56635 31.5023 3.87127 31.4629 3.30159C31.4866 2.95969 31.6306 2.63722 31.8693 2.39129C32.108 2.14537 32.426 1.99188 32.7671 1.95801C33.0755 2.00838 33.3589 2.15817 33.5743 2.38455C33.7897 2.61093 33.9252 2.90151 33.9602 3.21202ZM33.2651 3.22993C33.2651 2.87164 33.0214 2.78565 32.7277 2.79282C32.4339 2.79998 32.2475 2.92181 32.2619 3.21561C32.2762 3.5094 32.4052 3.73871 32.7527 3.72796C32.8199 3.73366 32.8876 3.72492 32.9511 3.70234C33.0146 3.67976 33.0726 3.64385 33.1211 3.59702C33.1697 3.5502 33.2076 3.49354 33.2324 3.43085C33.2573 3.36815 33.2684 3.30087 33.2651 3.23352V3.22993Z" fill="black"/>
<path d="M36.9694 43.3724C36.9783 43.4873 36.9625 43.6028 36.923 43.7111C36.8835 43.8193 36.8212 43.9179 36.7404 44C36.6596 44.0822 36.5621 44.1461 36.4545 44.1874C36.3469 44.2287 36.2317 44.2464 36.1167 44.2394C35.9091 44.2344 35.7114 44.1501 35.5639 44.0039C35.4165 43.8578 35.3306 43.6608 35.3237 43.4533C35.3168 43.2458 35.3896 43.0435 35.527 42.8879C35.6644 42.7323 35.8562 42.6352 36.0629 42.6164C36.1732 42.5996 36.2858 42.6064 36.3933 42.6364C36.5008 42.6664 36.6007 42.7188 36.6864 42.7903C36.772 42.8618 36.8416 42.9506 36.8904 43.051C36.9392 43.1513 36.9661 43.2609 36.9694 43.3724Z" fill="black"/>
<path d="M33.2613 3.23352C33.2656 3.30099 33.2554 3.3686 33.2312 3.43174C33.207 3.49487 33.1695 3.55204 33.1212 3.59933C33.0729 3.64663 33.0149 3.68293 32.9513 3.70575C32.8877 3.72856 32.8198 3.73737 32.7525 3.73155C32.3942 3.73155 32.2724 3.51298 32.2616 3.21919C32.2509 2.92539 32.4587 2.80357 32.7274 2.79641C32.9961 2.78924 33.2648 2.85374 33.2613 3.23352Z" fill="black"/>
</svg>
