<svg width="176" height="57" viewBox="0 0 176 57" fill="none" xmlns="http://www.w3.org/2000/svg">
<path d="M56.9247 27.4311C56.8523 30.1877 56.4921 32.9292 55.8499 35.6109C53.2344 45.8759 46.5343 52.1388 36.7745 55.521C35.5205 55.9545 34.8111 55.4744 34.6248 54.1595C34.3958 52.3634 34.6738 50.539 35.4274 48.8927C36.7565 45.6767 38.8822 42.8519 41.6043 40.6842C42.7723 39.7527 44.0156 38.8928 44.9829 37.7463C45.2101 37.4904 45.378 37.1875 45.4746 36.8593C45.5712 36.531 45.5942 36.1855 45.5419 35.8473C45.1836 32.5188 44.2162 29.3014 43.7182 25.998C43.3026 23.2427 43.0661 20.5018 44.1302 17.8218C44.6618 16.3314 45.5542 14.9958 46.7278 13.9344C49.3935 11.6664 51.2423 12.4116 53.0158 14.4825C54.7893 16.5535 55.6277 19.1403 56.2404 21.7845C56.7011 23.6312 56.931 25.5279 56.9247 27.4311ZM49.7769 20.0647C49.8071 19.6349 49.7479 19.2035 49.6029 18.7977C49.458 18.3919 49.2305 18.0206 48.9349 17.7072C48.2183 16.9906 47.3477 17.1554 46.9213 18.0654C46.5874 18.836 46.5604 19.7049 46.8461 20.4946C47.1757 21.5695 47.9639 22.2861 48.6375 22.1678C49.3111 22.0496 49.7769 21.1897 49.7769 20.0647ZM47.4301 28.2516C47.3647 29.0142 47.5702 29.7753 48.0105 30.4013C48.5336 31.143 49.2717 31.1179 49.7482 30.3655C50.3609 29.391 50.257 27.3845 49.5476 26.4888C49.0065 25.8045 48.2326 25.8439 47.7884 26.6035C47.4968 27.0995 47.3713 27.6757 47.4301 28.248V28.2516ZM53.5676 24.8299C53.582 24.061 53.3796 23.3036 52.9836 22.6444C52.7077 22.2323 52.3709 21.9278 51.8299 21.9887C51.6099 22.0278 51.4066 22.1315 51.2458 22.2865C51.085 22.4416 50.974 22.641 50.927 22.8593C50.7573 23.373 50.6951 23.9162 50.7445 24.4549C50.7938 24.9936 50.9535 25.5165 51.2136 25.9908C51.3121 26.2401 51.4911 26.4493 51.7223 26.585C51.9535 26.7207 52.2234 26.7752 52.4891 26.7396C53.0731 26.6393 53.2451 26.1341 53.4099 25.6648C53.4872 25.3905 53.5399 25.1099 53.5676 24.8264V24.8299ZM53.4887 32.3898C53.4885 31.9337 53.4172 31.4804 53.2773 31.0463C53.1376 30.7059 52.9979 30.3691 52.5608 30.3297C52.1237 30.2903 51.9087 30.5912 51.7367 30.9137C51.4215 31.4859 51.2228 32.1148 51.1521 32.7642C51.0813 33.4136 51.14 34.0706 51.3247 34.6972C51.425 35.0555 51.5862 35.464 52.0663 35.4926C52.5464 35.5213 52.7363 35.163 52.9334 34.8262C53.3231 34.0732 53.5166 33.234 53.4959 32.3863L53.4887 32.3898Z" fill="black"/>
<path d="M40.1392 12.3003C37.3356 12.2747 34.5632 11.7091 31.9738 10.6343C30.5979 10.0969 29.2436 9.4197 27.6958 9.53793C27.4508 9.51348 27.2052 9.57838 27.0043 9.72066C25.4636 11.0535 23.8872 12.3433 22.3967 13.7407C20.6339 15.396 18.8675 17.0584 16.8575 18.4307C14.2492 20.2221 11.3757 21.0354 8.27651 20.4693C5.51051 19.9606 3.89104 18.6349 4.19201 15.8904C4.37473 14.2387 5.1988 12.7554 6.19126 11.419C11.2646 4.58279 18.2441 0.989146 26.5457 0.154331C34.385 -0.633905 41.3323 1.94578 47.3838 6.94033C47.5486 7.07648 47.6525 7.29862 47.8066 7.43477C49.0068 8.62788 48.9638 9.40895 47.5808 10.3799C46.0081 11.4328 44.1849 12.0509 42.2961 12.1714C41.5795 12.2502 40.8593 12.2609 40.1392 12.3003ZM10.5409 17.9434C11.777 17.9434 13.1421 16.847 13.5111 15.5464C13.7798 14.6077 13.3499 14.0022 12.4004 13.9843C11.1213 13.9592 9.56993 15.2526 9.36212 16.5138C9.22239 17.3773 9.68817 17.9398 10.5409 17.9434ZM19.731 9.21547C18.5451 9.21547 17.0367 10.2545 16.6139 11.3473C16.2556 12.2215 16.6856 12.8342 17.6135 12.8378C18.7242 12.8378 20.3473 11.7199 20.7414 10.688C21.0854 9.77798 20.6912 9.21189 19.731 9.21547ZM12.4327 12.046C13.5434 12.0675 15.1628 10.86 15.453 9.7959C15.711 8.84643 15.3061 8.32691 14.3423 8.36274C13.6834 8.44374 13.0605 8.70842 12.5448 9.12657C12.029 9.54471 11.6413 10.0995 11.4259 10.7275C11.2181 11.5229 11.6158 12.0352 12.4327 12.046ZM21.8521 4.16359C20.6163 4.27278 19.4661 4.84023 18.6275 5.7544C18.3552 6.05536 18.1438 6.4029 18.3516 6.80777C18.4499 6.96138 18.593 7.08116 18.7614 7.15099C18.9299 7.22082 19.1157 7.23733 19.2939 7.1983C20.5521 7.14134 21.7429 6.61311 22.6296 5.71856C22.9234 5.43193 23.2423 5.07723 23.0595 4.6222C22.8589 4.11343 22.3501 4.20659 21.8521 4.17076V4.16359Z" fill="black"/>
<path d="M12.6258 38.8101C13.0056 39.258 13.5574 39.3798 14.059 39.5912C16.4344 40.5765 18.9066 41.268 21.3537 42.0419C23.2673 42.6034 25.1102 43.3824 26.8463 44.3636C29.6517 46.0404 31.7513 48.3729 32.3138 51.7659C32.6936 54.0374 31.6546 55.6712 29.4152 56.2875C27.0255 56.9467 24.6464 56.6243 22.2781 56.1048C12.5828 53.9801 2.6367 45.3095 0.780757 33.6078C0.196746 29.9317 0.0641769 26.2843 0.82375 22.6298C0.858759 22.4967 0.903058 22.3662 0.956318 22.2393C1.24603 24.0103 1.7031 25.7498 2.3214 27.4345C3.8083 31.2574 5.80039 34.7041 9.31521 37.0294C10.3578 37.7209 11.3682 38.502 12.6258 38.8101ZM25.7535 48.0397C25.1194 48.1113 24.4135 48.1543 24.1735 48.8709C23.9334 49.5875 24.3383 50.15 24.8901 50.5871C25.2725 50.9062 25.7188 51.1397 26.199 51.2719C26.6792 51.4042 27.1821 51.4321 27.674 51.3538C28.1684 51.2786 28.6163 51.0816 28.7488 50.5871C28.8241 50.3478 28.8325 50.0924 28.7732 49.8487C28.7138 49.6049 28.5889 49.382 28.412 49.2041C27.7143 48.4803 26.7587 48.0617 25.7535 48.0397ZM17.4448 45.1447C16.9109 45.0945 16.4165 45.1877 16.1764 45.7072C15.9364 46.2267 16.1764 46.6818 16.5347 47.0723C16.8976 47.4933 17.3461 47.8322 17.8502 48.0663C18.3543 48.3005 18.9026 48.4245 19.4584 48.4302C19.8991 48.4302 20.4043 48.355 20.5834 47.882C20.6688 47.6613 20.6906 47.4211 20.6462 47.1887C20.6019 46.9562 20.4932 46.7409 20.3326 46.5671C19.977 46.1418 19.5364 45.7956 19.0391 45.5507C18.5417 45.3057 17.9987 45.1674 17.4448 45.1447ZM22.228 53.3459C22.7976 53.3459 23.4318 53.3459 23.6969 52.6903C23.9621 52.0346 23.525 51.5294 23.052 51.1281C22.6735 50.7808 22.2227 50.5216 21.732 50.3692C21.2414 50.2168 20.7231 50.175 20.2144 50.2467C19.1897 50.3936 18.8672 51.1496 19.4978 51.9773C19.8199 52.3971 20.2328 52.7387 20.7056 52.9763C21.1784 53.214 21.6988 53.3415 22.228 53.3495V53.3459ZM12.4753 46.5169C11.7946 46.5169 11.5151 46.8967 11.7337 47.5309C12.1242 48.6774 14.0446 50.0819 15.2556 50.107C15.9722 50.107 16.2696 49.7165 16.0296 49.05C15.6175 47.9214 13.6613 46.5241 12.4753 46.5205V46.5169ZM12.0454 44.2131C12.8623 44.249 13.1668 43.8549 12.8981 43.1705C12.4861 42.0956 10.5477 40.7055 9.39403 40.6625C8.67746 40.6625 8.38724 41.0602 8.63446 41.7374C9.04291 42.8624 10.8594 44.1702 12.0454 44.2167V44.2131Z" fill="black"/>
<path d="M28.6233 19.5698C33.7612 19.233 37.3297 23.6758 37.817 27.2121C38.7772 34.1522 33.0732 38.0217 28.763 38.0109C23.8043 38.0109 19.6195 33.9372 19.4475 29.1075C19.2791 23.4572 24.2844 19.1578 28.6233 19.5698ZM25.8 29.3439C28.007 29.6019 30.0564 27.3124 29.9705 25.3454C29.8665 22.9664 28.2292 21.3111 25.9289 21.1606C23.7792 21.0209 21.7513 23.2888 21.737 25.2093C21.7191 27.402 23.8294 29.5589 25.8 29.3439Z" fill="black"/>
<path d="M12.626 38.8104C11.3684 38.5023 10.3581 37.7355 9.31544 37.019C5.80062 34.6937 3.80853 31.2469 2.32162 27.424C1.70333 25.7393 1.24625 23.9998 0.956543 22.2288C1.14644 20.9174 1.89526 20.4732 3.22452 20.964C5.01596 21.6269 6.38104 22.9059 7.52399 24.4C9.77013 27.3756 11.1936 30.8898 11.6515 34.5898C11.8306 36.0301 11.9704 37.4847 12.626 38.8104Z" fill="black"/>
<path d="M116.093 47.3948L119.737 39.0825C119.924 38.7625 120.218 38.5177 120.566 38.3902C120.914 38.2628 121.296 38.2605 121.646 38.3839C121.886 38.4985 121.833 38.6992 121.833 38.8783C121.833 42.1531 121.833 45.4243 121.833 48.699C121.833 49.1648 121.65 49.2508 121.241 49.2508C120.833 49.2508 120.582 49.2006 120.586 48.6739C120.611 45.8076 120.586 42.9736 120.586 40.075C120.281 40.1717 120.281 40.4942 120.181 40.7128C119.031 43.3211 117.899 45.933 116.752 48.5414C116.616 48.8495 116.587 49.2293 116.071 49.258C115.555 49.2866 115.473 48.8602 115.326 48.5235C114.223 46.0178 113.121 43.5098 112.023 40.9994C111.904 40.7307 111.775 40.4655 111.543 39.9675C111.514 40.4297 111.489 40.6554 111.489 40.8812C111.489 43.4322 111.489 45.9868 111.489 48.5378C111.489 48.9713 111.489 49.2544 110.898 49.2544C110.306 49.2544 110.314 48.957 110.314 48.5378C110.314 45.4314 110.314 42.3251 110.314 39.2223C110.314 38.9321 110.045 38.3695 110.643 38.3946C111.242 38.4197 111.908 38.0005 112.284 38.8891C113.255 41.1821 114.283 43.4465 115.29 45.7252C115.57 46.2447 115.81 46.7678 116.093 47.3948Z" fill="black"/>
<path d="M170.657 27.7677L172.842 29.7992C173.192 29.203 173.509 28.5882 173.792 27.9576C174.085 27.2124 174.537 26.915 175.415 27.1837C174.888 28.1905 174.394 29.1937 173.842 30.1682C173.774 30.2462 173.724 30.3377 173.695 30.4367C173.666 30.5357 173.659 30.6398 173.674 30.7418C173.689 30.8439 173.726 30.9415 173.782 31.028C173.838 31.1145 173.912 31.1879 173.999 31.2431C174.576 31.7555 175.074 32.3395 175.648 32.8841C175.909 33.142 175.966 33.3427 175.648 33.6007C175.329 33.8586 175.167 34.0199 174.841 33.6436C174.483 33.203 173.992 32.8411 173.627 32.3932C173.19 31.8558 172.957 31.6981 172.502 32.4506C172.251 32.8575 171.916 33.2062 171.519 33.4732C171.122 33.7402 170.673 33.9194 170.202 33.9987C169.73 34.0781 169.247 34.0559 168.785 33.9334C168.323 33.811 167.892 33.5913 167.522 33.2889C165.945 31.9704 165.988 29.8422 167.625 28.4771C167.902 28.2482 168.204 28.0511 168.525 27.8895C168.883 27.7175 168.926 27.5814 168.643 27.2876C168.393 27.0294 168.175 26.7419 167.994 26.4313C167.71 25.9661 167.593 25.4177 167.663 24.8769C167.732 24.3361 167.985 23.8354 168.378 23.4575C168.792 23.0623 169.324 22.8134 169.892 22.7487C170.461 22.6841 171.035 22.8071 171.527 23.0992C171.998 23.373 172.365 23.7949 172.571 24.2991C172.777 24.8033 172.811 25.3615 172.667 25.8867C172.38 26.8899 171.502 27.2948 170.657 27.7677ZM169.446 32.902C169.94 32.9364 170.434 32.8233 170.864 32.5772C171.295 32.331 171.643 31.9628 171.864 31.519C172.097 31.1392 172.151 30.8705 171.782 30.5337C171.242 30.0588 170.742 29.5399 170.288 28.9823C169.815 28.3911 169.374 28.3911 168.854 28.8497C168.613 29.0335 168.383 29.2322 168.166 29.4445C167.91 29.7264 167.735 30.0736 167.663 30.448C167.591 30.8225 167.623 31.2096 167.756 31.5669C167.889 31.9242 168.119 32.2379 168.419 32.4734C168.719 32.7089 169.078 32.8572 169.456 32.902H169.446ZM171.663 25.2203C171.672 24.8309 171.526 24.454 171.258 24.1719C170.989 23.8899 170.62 23.7258 170.23 23.7155C170.036 23.7086 169.843 23.7413 169.662 23.8114C169.481 23.8815 169.316 23.9876 169.178 24.1233C169.039 24.2589 168.929 24.4214 168.855 24.6007C168.781 24.78 168.744 24.9725 168.747 25.1665C168.747 25.8079 169.635 27.0332 170.069 26.9974C170.76 26.9365 171.663 25.9333 171.66 25.2203H171.663Z" fill="black"/>
<path d="M129.83 25.0806C129.83 27.7141 129.83 30.3475 129.83 32.963C129.83 33.4216 129.909 33.8122 129.188 33.8086C128.468 33.805 128.601 33.4037 128.601 32.9988C128.601 29.9211 128.601 26.8434 128.601 23.7657C128.601 23.4791 128.371 23.0026 128.859 22.9309C129.346 22.8593 129.815 22.7625 130.192 23.3107C131.772 25.6181 133.391 27.9004 135 30.1899C135.358 30.6771 135.691 31.1608 136.171 31.8344V28.3303C136.171 26.7216 136.171 25.1057 136.171 23.5042C136.171 23.0384 136.293 22.8843 136.77 22.8879C137.246 22.8915 137.386 23.0205 137.382 23.5006C137.365 26.6607 137.382 29.8208 137.365 32.9845C137.365 33.2496 137.558 33.676 137.139 33.7513C136.72 33.8265 136.24 33.8982 135.892 33.393C134.953 31.9885 133.961 30.6198 132.99 29.2404L129.987 24.9982L129.83 25.0806Z" fill="black"/>
<path d="M121.36 34.0057C120.246 34.007 119.157 33.6791 118.23 33.0632C117.302 32.4473 116.577 31.5709 116.147 30.5443C115.716 29.5176 115.598 28.3865 115.808 27.2931C116.018 26.1997 116.547 25.1928 117.328 24.3991C118.109 23.6054 119.107 23.0602 120.197 22.8321C121.286 22.6041 122.419 22.7033 123.453 23.1173C124.486 23.5313 125.375 24.2416 126.006 25.159C126.637 26.0763 126.982 27.1598 126.999 28.2731C127.018 29.0233 126.886 29.7697 126.611 30.4678C126.336 31.1659 125.922 31.8014 125.396 32.3364C124.87 32.8713 124.241 33.2948 123.548 33.5816C122.854 33.8685 122.11 34.0127 121.36 34.0057ZM125.72 28.4522C125.745 25.8618 123.868 23.8697 121.388 23.8553C120.193 23.8425 119.041 24.3051 118.187 25.1413C117.333 25.9775 116.846 27.1188 116.833 28.3143C116.82 29.5097 117.282 30.6612 118.119 31.5155C118.955 32.3699 120.096 32.8571 121.292 32.8699C121.875 32.8806 122.455 32.7737 122.996 32.5555C123.538 32.3374 124.03 32.0126 124.443 31.6004C124.856 31.1882 125.182 30.697 125.402 30.1561C125.621 29.6153 125.729 29.0358 125.72 28.4522Z" fill="black"/>
<path d="M99.9126 43.8694C99.9048 44.9884 99.5656 46.0799 98.9377 47.0062C98.3098 47.9325 97.4215 48.6519 96.385 49.0736C95.3485 49.4953 94.2102 49.6003 93.1141 49.3754C92.0179 49.1505 91.0129 48.6057 90.2262 47.81C89.4394 47.0142 88.9062 46.0032 88.6937 44.9045C88.4813 43.8058 88.5993 42.6688 89.0327 41.6372C89.4662 40.6055 90.1957 39.7255 91.129 39.1082C92.0624 38.4909 93.1577 38.1641 94.2767 38.169C97.5157 38.1726 99.9198 40.6054 99.9126 43.8694ZM94.3412 39.3048C93.7578 39.286 93.1766 39.385 92.6323 39.5959C92.088 39.8069 91.5919 40.1254 91.1735 40.5324C90.7551 40.9394 90.423 41.4266 90.1972 41.9649C89.9713 42.5032 89.8563 43.0814 89.859 43.6652C89.816 46.2699 91.6684 48.2835 94.1406 48.3229C95.3234 48.3288 96.4612 47.8698 97.3089 47.0448C98.1566 46.2199 98.6463 45.095 98.6726 43.9124C98.6989 42.7299 98.2597 41.5843 97.4495 40.7225C96.6394 39.8607 95.5231 39.3516 94.3412 39.3048Z" fill="black"/>
<path d="M90.3643 12.9383C90.3643 9.66711 92.7469 7.36331 96.0969 7.37406C97.1969 7.40228 98.2641 7.75456 99.1647 8.38672C100.065 9.01889 100.759 9.90283 101.16 10.9277C101.56 11.9527 101.649 13.073 101.415 14.1482C101.182 15.2235 100.636 16.2059 99.8465 16.9723C99.0569 17.7386 98.0587 18.2549 96.9769 18.4564C95.8952 18.6578 94.778 18.5355 93.7655 18.1048C92.753 17.674 91.8901 16.954 91.2851 16.0349C90.68 15.1158 90.3597 14.0386 90.3643 12.9383ZM100.396 12.9777C100.385 12.11 100.117 11.2651 99.6272 10.5491C99.1369 9.83317 98.4459 9.27817 97.641 8.95393C96.8361 8.6297 95.9533 8.5507 95.1037 8.72689C94.254 8.90307 93.4754 9.32657 92.8658 9.94412C92.2562 10.5617 91.8428 11.3457 91.6776 12.1976C91.5125 13.0494 91.6029 13.9311 91.9375 14.7317C92.2721 15.5324 92.836 16.2162 93.5583 16.6971C94.2805 17.1781 95.1289 17.4348 95.9966 17.4348C96.5775 17.4311 97.1519 17.3127 97.687 17.0865C98.2221 16.8603 98.7072 16.5307 99.1146 16.1167C99.522 15.7026 99.8437 15.2122 100.061 14.6735C100.279 14.1349 100.388 13.5586 100.382 12.9777H100.396Z" fill="black"/>
<path d="M78.7089 47.0825V42.7831C78.7089 41.5326 78.7089 40.275 78.7089 39.0389C78.7089 38.6018 78.7089 38.3223 79.3001 38.3223C79.8913 38.3223 79.9163 38.5517 79.9128 39.0103C79.9128 42.1453 79.9128 45.2803 79.8948 48.4154C79.8948 48.6805 80.0991 49.1319 79.6835 49.1857C79.2678 49.2394 78.7627 49.3863 78.4115 48.8704C77.4119 47.405 76.3764 45.9647 75.3553 44.5172C74.3844 43.1378 73.4098 41.7583 72.274 40.4076C72.274 40.8053 72.274 41.203 72.274 41.5971C72.2919 43.8723 72.3063 46.1474 72.3385 48.4046C72.3385 48.8883 72.3636 49.2287 71.6757 49.2359C70.9878 49.243 71.0809 48.8596 71.0809 48.444C71.0809 45.3663 71.0809 42.285 71.0809 39.2073C71.0809 38.9207 70.8588 38.4442 71.3031 38.3653C71.7473 38.2865 72.2991 38.179 72.6932 38.7666C74.1049 40.8555 75.5595 42.9049 77.025 44.9686C77.5266 45.6852 78.0294 46.4018 78.5333 47.1184L78.7089 47.0825Z" fill="black"/>
<path d="M111.858 29.8388L114.434 33.7191C113.524 33.9735 113.001 33.7477 112.539 32.9738C111.786 31.6589 110.912 30.4121 110.005 29.0112C110.496 29.0112 110.869 29.0112 111.238 29.0112C112.671 28.9395 113.556 28.0438 113.617 26.6393C113.673 26.0232 113.483 25.4099 113.09 24.9328C112.696 24.4558 112.129 24.1535 111.514 24.0918C110.718 23.9915 109.905 24.0524 109.103 24.0166C108.569 23.9915 108.716 24.3749 108.712 24.6364C108.712 27.4096 108.712 30.184 108.712 32.9595C108.712 33.4253 108.82 33.8588 108.042 33.8409C107.325 33.8409 107.401 33.4504 107.401 32.9953C107.401 29.889 107.419 26.7826 107.401 23.6798C107.401 23.1137 107.526 22.8952 108.117 22.9274C109.307 22.9883 110.503 22.9274 111.7 23.0134C113.606 23.1531 114.753 24.3677 114.846 26.238C114.925 27.7536 114.129 29.5558 112.048 29.7242C111.998 29.717 111.962 29.7671 111.858 29.8388Z" fill="black"/>
<path d="M108.501 49.1432C107.598 49.4155 107.067 49.1862 106.634 48.4266C105.878 47.1189 105.007 45.8792 104.151 44.5535C104.792 44.4818 105.337 44.4532 105.867 44.3493C106.401 44.2418 106.879 43.9483 107.216 43.5211C107.553 43.0939 107.728 42.5608 107.709 42.0168C107.737 41.4727 107.577 40.9354 107.256 40.4951C106.935 40.0548 106.473 39.7382 105.946 39.5984C105.022 39.3834 104.072 39.4837 103.133 39.4694C102.553 39.4694 102.75 39.9101 102.75 40.186C102.75 42.9555 102.718 45.7287 102.75 48.4983C102.75 49.1898 102.485 49.2758 101.926 49.2363C101.589 49.2113 101.507 49.0751 101.507 48.7741C101.507 45.4492 101.507 42.1231 101.507 38.7958C101.507 38.4088 101.679 38.33 102.012 38.3443C103.341 38.3981 104.671 38.2583 106 38.4554C107.755 38.717 108.809 39.8635 108.891 41.6442C108.977 43.5252 108.074 44.7326 106.29 45.1268L105.892 45.2128L108.501 49.1432Z" fill="black"/>
<path d="M84.7856 13.6619C85.3875 13.6153 85.8605 13.5938 86.3119 13.5401C87.5014 13.3932 88.2503 12.5297 88.3004 11.2649C88.3506 10.0002 87.6483 8.9217 86.4803 8.75689C85.5966 8.67614 84.7087 8.65101 83.8218 8.68165C83.2485 8.68165 83.4348 9.12235 83.4348 9.39823C83.4348 12.1463 83.399 14.8908 83.4348 17.6389C83.4348 18.3555 83.141 18.3877 82.6036 18.3555C82.2668 18.3555 82.188 18.2086 82.188 17.904C82.188 14.6054 82.188 11.3043 82.188 8.00089C82.188 7.73218 82.188 7.51004 82.5714 7.52437C84.0368 7.57812 85.5129 7.39539 86.9712 7.68202C88.5154 7.98657 89.4792 9.22983 89.5222 10.9066C89.5508 12.6587 88.7017 13.8195 87.1073 14.2101C86.9497 14.2459 86.8028 14.3104 86.5735 14.3892L89.1245 18.2731C88.261 18.5059 87.7164 18.3519 87.2793 17.5816C86.534 16.2666 85.6634 15.027 84.7856 13.6619Z" fill="black"/>
<path d="M152.986 25.9047C152.344 25.9441 151.821 26.0265 151.305 25.3995C150.932 24.9416 150.467 24.5664 149.94 24.2978C149.414 24.0292 148.837 23.8731 148.247 23.8394C147.657 23.8057 147.067 23.8952 146.513 24.1021C145.959 24.309 145.455 24.6288 145.032 25.0412C144.155 25.9054 143.657 27.0811 143.645 28.3116C143.633 29.5422 144.108 30.7275 144.967 31.6087C145.373 32.027 145.862 32.3573 146.401 32.5788C146.941 32.8003 147.52 32.9084 148.103 32.8963C148.686 32.8842 149.261 32.7522 149.791 32.5085C150.321 32.2648 150.795 31.9145 151.183 31.4797C151.391 31.216 151.672 31.0197 151.991 30.9158C152.309 30.8118 152.652 30.8048 152.975 30.8957C152.33 32.9057 149.711 34.3102 147.289 33.959C145.968 33.7951 144.747 33.1691 143.843 32.1917C142.939 31.2143 142.41 29.9487 142.35 28.6187C142.289 27.2888 142.701 25.9803 143.513 24.9249C144.324 23.8695 145.483 23.1353 146.784 22.8521C149.478 22.3361 152.101 23.6045 152.986 25.9047Z" fill="black"/>
<path d="M122.896 49.1612C124.018 46.4561 125.129 43.7869 126.239 41.1105C126.537 40.3939 126.884 39.6988 127.139 38.9607C127.183 38.7666 127.298 38.5957 127.46 38.4807C127.623 38.3657 127.822 38.3146 128.02 38.3373C128.511 38.3373 128.686 38.5487 128.851 38.9536C130.148 42.1244 131.47 45.2845 132.764 48.459C132.853 48.6811 133.251 49.0716 132.818 49.1755C132.384 49.2795 131.814 49.5016 131.542 48.8173C131.27 48.1329 130.954 47.445 130.696 46.7463C130.661 46.5591 130.555 46.3926 130.4 46.2818C130.246 46.171 130.054 46.1243 129.865 46.1516C128.59 46.1922 127.314 46.1922 126.039 46.1516C125.85 46.1233 125.657 46.1695 125.501 46.2804C125.345 46.3913 125.239 46.5584 125.204 46.7463C125.035 47.2444 124.76 47.7101 124.638 48.2117C124.437 49.1505 123.882 49.4443 122.896 49.1612ZM125.87 45.1448H130.08C129.364 43.3892 128.704 41.6945 127.966 39.8457C127.217 41.698 126.551 43.3892 125.87 45.1448Z" fill="black"/>
<path d="M99.6437 25.8943C99.305 25.9811 98.9483 25.9655 98.6185 25.8494C98.2888 25.7333 98.0009 25.522 97.7913 25.2422C97.4126 24.817 96.9518 24.4728 96.4365 24.2303C95.9213 23.9879 95.3623 23.8522 94.7933 23.8314C94.2242 23.8107 93.6568 23.9053 93.1253 24.1096C92.5938 24.3138 92.1091 24.6235 91.7004 25.0201C90.8151 25.8751 90.3041 27.0459 90.2793 28.2765C90.2544 29.507 90.7177 30.6974 91.5678 31.5875C91.9735 31.9962 92.456 32.3206 92.9876 32.542C93.5192 32.7634 94.0894 32.8774 94.6652 32.8774C95.2411 32.8774 95.8113 32.7634 96.3429 32.542C96.8745 32.3206 97.357 31.9962 97.7627 31.5875C98.5401 30.8136 98.5401 30.8136 99.5899 30.8709C99.1815 32.6624 96.7236 34.1457 94.341 33.9952C93.0114 33.9363 91.7471 33.4017 90.7785 32.489C89.8098 31.5762 89.2012 30.346 89.0634 29.0222C88.7947 26.0699 90.536 23.5224 93.259 22.8775C95.9282 22.2577 98.6405 23.5188 99.6437 25.8943Z" fill="black"/>
<path d="M148.779 38.169C149.614 38.2058 150.428 38.4388 151.156 38.8491C151.883 39.2593 152.504 39.8352 152.968 40.5301C153.125 40.7522 153.519 41.1105 153.251 41.2753C153.059 41.3763 152.844 41.423 152.628 41.4104C152.412 41.3977 152.204 41.3263 152.025 41.2037C151.918 41.1284 151.861 40.9815 151.771 40.8776C151.402 40.427 150.945 40.0553 150.429 39.7849C149.913 39.5145 149.347 39.3508 148.767 39.3037C148.186 39.2565 147.601 39.3269 147.048 39.5105C146.495 39.6941 145.985 39.9873 145.548 40.3724C145.09 40.7863 144.719 41.2877 144.458 41.847C144.197 42.4063 144.051 43.0123 144.028 43.6291C144.005 44.2459 144.105 44.8611 144.324 45.4383C144.543 46.0156 144.874 46.5432 145.3 46.99C145.709 47.4157 146.2 47.7536 146.743 47.9831C147.286 48.2126 147.871 48.3289 148.461 48.3248C149.051 48.3208 149.633 48.1966 150.174 47.9597C150.714 47.7228 151.2 47.3782 151.603 46.9471C151.735 46.8037 151.843 46.6389 151.979 46.5028C152.151 46.3427 152.372 46.2438 152.606 46.2211C152.84 46.1985 153.076 46.2534 153.276 46.3774C153.552 46.535 153.147 46.9435 152.971 47.1943C151.517 49.2652 148.557 50.0283 146.121 48.9678C144.934 48.4397 143.965 47.5185 143.377 46.3594C142.79 45.2004 142.62 43.8743 142.896 42.6046C143.398 40.0142 145.719 38.1618 148.779 38.169Z" fill="black"/>
<path d="M157.963 49.4441C156.261 49.4441 154.942 48.5304 154.577 47.0686C154.505 46.7856 154.183 46.3055 154.763 46.1944C155.175 46.1156 155.641 46.0081 155.838 46.7175C155.908 47.0511 156.058 47.3623 156.277 47.6235C156.496 47.8848 156.776 48.0881 157.092 48.2153C157.408 48.3425 157.751 48.3898 158.089 48.3529C158.428 48.316 158.753 48.1961 159.034 48.0038C159.338 47.8342 159.589 47.5842 159.761 47.2812C159.932 46.9782 160.017 46.6338 160.005 46.2859C159.994 45.938 159.887 45.6 159.696 45.3089C159.505 45.0178 159.237 44.785 158.923 44.6358C158.206 44.2453 157.414 44.102 156.669 43.8082C155.161 43.2098 154.48 42.1278 154.688 40.6588C154.878 39.326 156.01 38.3335 157.525 38.1723C159.041 38.0111 160.392 38.7706 160.822 40.107C160.908 40.3758 161.245 40.8236 160.822 40.9347C160.463 41.0314 159.865 41.293 159.629 40.4976C159.317 39.4585 158.468 39.0644 157.396 39.3009C157.025 39.3595 156.683 39.5391 156.424 39.8119C156.165 40.0846 156.003 40.4352 155.963 40.8093C155.884 41.1668 155.935 41.5408 156.107 41.8639C156.279 42.1871 156.561 42.4382 156.902 42.5721C157.78 42.9734 158.719 43.2457 159.582 43.6684C159.991 43.8574 160.35 44.1379 160.633 44.4881C160.916 44.8384 161.114 45.249 161.213 45.6882C161.312 46.1274 161.308 46.5834 161.202 47.021C161.097 47.4585 160.892 47.8659 160.603 48.2116C160.283 48.6006 159.879 48.9132 159.422 49.1264C158.965 49.3397 158.467 49.4482 157.963 49.4441Z" fill="black"/>
<path d="M157.457 34.0054C155.709 34.0054 154.351 32.8983 154.147 31.3397C154.118 31.1104 153.957 30.7736 154.365 30.7808C154.698 30.7808 155.153 30.5121 155.354 31.0459C155.437 31.3082 155.535 31.5654 155.648 31.8163C155.851 32.2147 156.181 32.5346 156.586 32.7258C156.99 32.917 157.447 32.9689 157.884 32.8732C158.326 32.7977 158.733 32.5834 159.045 32.2613C159.357 31.9392 159.559 31.5261 159.621 31.0818C159.743 30.2326 159.285 29.4766 158.331 29.0789C157.644 28.7887 156.898 28.606 156.225 28.3229C154.681 27.6923 154.054 26.5745 154.344 25.0446C154.591 23.7297 155.856 22.7623 157.404 22.7014C158.951 22.6405 160.134 23.4717 160.492 24.8511C160.546 25.0589 160.875 25.4495 160.41 25.5068C160.051 25.5498 159.553 25.8292 159.295 25.1951C158.822 24.0271 158.253 23.7046 157.146 23.8443C156.756 23.8883 156.392 24.0573 156.107 24.3261C155.822 24.5949 155.632 24.9488 155.566 25.3348C155.476 25.6925 155.518 26.0705 155.685 26.3995C155.851 26.7285 156.131 26.9865 156.472 27.1263C157.189 27.4845 157.962 27.7138 158.704 28.0148C160.449 28.7314 161.126 29.8493 160.818 31.4902C160.528 32.9843 159.152 34.0377 157.457 34.0054Z" fill="black"/>
<path d="M67.7202 28.3624C67.7202 26.7537 67.7202 25.1378 67.7202 23.5398C67.7202 23.0669 67.8528 22.9164 68.3293 22.9236C69.938 22.9522 71.5539 22.9451 73.159 22.9236C73.5997 22.9236 73.7932 23.006 73.7968 23.5112C73.8004 24.0164 73.5603 24.0235 73.1913 24.0199C71.9982 24.0199 70.8051 24.0199 69.6084 24.0199C69.1355 24.0199 68.8918 24.088 68.9348 24.6434C68.9818 25.4787 68.9818 26.316 68.9348 27.1514C68.9097 27.6888 69.1247 27.8035 69.612 27.7927C70.8051 27.7641 71.9982 27.7927 73.1949 27.7748C73.6248 27.7748 73.7717 27.8895 73.7681 28.3337C73.7645 28.778 73.675 28.9178 73.2164 28.907C71.9982 28.8748 70.7764 28.907 69.5547 28.8855C69.0853 28.8855 68.9241 29.0217 68.942 29.4982C68.9754 30.3844 68.9754 31.2717 68.942 32.1603C68.9241 32.6225 69.1104 32.712 69.5224 32.7049C70.7406 32.6834 71.9624 32.7049 73.1841 32.7049C73.5424 32.7049 73.8219 32.7049 73.7932 33.2065C73.7717 33.6221 73.7466 33.8693 73.2199 33.8586C71.5826 33.8227 69.9452 33.8263 68.3078 33.8586C67.799 33.8586 67.7166 33.6615 67.7238 33.2208C67.731 31.5834 67.7202 29.9711 67.7202 28.3624Z" fill="black"/>
<path d="M81.8724 28.3339C81.8724 26.7539 81.8903 25.1738 81.8724 23.5902C81.8724 23.0958 81.9798 22.913 82.5137 22.9238C84.1224 22.956 85.7383 22.9453 87.3434 22.9238C87.7626 22.9238 87.9203 23.0241 87.9203 23.4755C87.9203 23.927 87.7877 24.0345 87.3578 24.0273C86.136 23.9986 84.9142 24.0488 83.6961 24.0022C83.155 23.9807 83.044 24.167 83.0655 24.6615C83.1049 25.4891 83.1013 26.3239 83.0655 27.1695C83.044 27.6317 83.1765 27.7965 83.6602 27.7822C84.8533 27.7499 86.0464 27.7822 87.2431 27.7822C87.6695 27.7822 87.8916 27.8395 87.8988 28.359C87.9059 28.8785 87.6122 28.9072 87.2216 28.9036C86.0285 28.9036 84.8354 28.9036 83.6387 28.9036C83.2159 28.9036 83.0475 29.0004 83.0655 29.4554C83.0989 30.3392 83.0989 31.2265 83.0655 32.1175C83.0475 32.5797 83.1765 32.7373 83.6602 32.723C84.8784 32.6907 86.1002 32.723 87.3219 32.723C87.6802 32.723 87.9489 32.723 87.9203 33.2354C87.8988 33.6546 87.8665 33.8874 87.3434 33.8767C85.7335 33.8409 84.1248 33.8409 82.5173 33.8767C81.987 33.8767 81.8652 33.7083 81.8724 33.2139C81.8903 31.555 81.8724 29.9427 81.8724 28.3339Z" fill="black"/>
<path d="M67.7202 12.8662C67.7202 11.2862 67.7202 9.70969 67.7202 8.12963C67.7202 7.65311 67.8635 7.52412 68.3293 7.53128C69.9631 7.55756 71.5981 7.55756 73.2343 7.53128C73.7072 7.53128 73.761 7.72477 73.7646 8.11888C73.7681 8.513 73.6571 8.7029 73.2056 8.69215C71.9874 8.66707 70.7693 8.69214 69.5511 8.67423C69.071 8.67423 68.9241 8.82471 68.942 9.29407C68.9742 10.1217 68.9778 10.9565 68.942 11.7842C68.9205 12.275 69.1104 12.4291 69.5654 12.3718C69.7313 12.3628 69.8975 12.3628 70.0634 12.3718C73.7251 12.3718 73.7251 12.3718 73.7251 12.8913C73.7251 13.4108 73.7251 13.461 70.0921 13.4646C69.9263 13.4753 69.7599 13.4753 69.5941 13.4646C69.0781 13.4001 68.9205 13.6294 68.942 14.1274C68.9778 14.9586 68.9778 15.7946 68.942 16.6354C68.9241 17.1048 69.0745 17.2624 69.5511 17.2517C70.7406 17.223 71.9337 17.2517 73.134 17.2517C73.5639 17.2517 73.7825 17.3126 73.7789 17.8249C73.7753 18.3373 73.6033 18.4161 73.1555 18.409C71.5467 18.3875 69.9309 18.3839 68.3329 18.409C67.8671 18.409 67.7202 18.2836 67.7274 17.8106C67.7345 16.1231 67.7202 14.5 67.7202 12.8662Z" fill="black"/>
<path d="M82.041 43.7835C82.041 42.2035 82.0661 40.6198 82.041 39.0398C82.041 38.4808 82.2094 38.3232 82.7576 38.3518C84.1908 38.3877 85.5881 38.3769 87.0033 38.3518C87.4548 38.3518 87.6411 38.4522 87.6339 38.943C87.6267 39.4339 87.4261 39.484 87.0284 39.4769C86.0037 39.4554 84.9754 39.4769 83.9471 39.459C83.4634 39.459 83.2305 39.5521 83.2771 40.0931C83.3237 40.953 83.3094 41.8129 83.2771 42.6728C83.2771 43.1135 83.4204 43.2532 83.8504 43.2461C84.8787 43.2246 85.907 43.2461 86.9317 43.2461C87.3222 43.2461 87.5945 43.2282 87.6088 43.7871C87.6232 44.346 87.3222 44.3747 86.8922 44.3675C85.9499 44.3675 85.0041 44.3998 84.0653 44.3496C83.4598 44.3174 83.2305 44.4678 83.2628 45.1199C83.3165 46.2808 83.2628 47.4488 83.2914 48.6133C83.3094 49.1399 83.1302 49.2653 82.6286 49.2653C82.127 49.2653 82.0446 49.0504 82.0518 48.6168C82.0518 47.001 82.041 45.3922 82.041 43.7835Z" fill="black"/>
<path d="M78.5439 13.5293C78.5439 14.941 78.526 16.3562 78.5439 17.7679C78.5439 18.2444 78.4006 18.3842 77.9313 18.377C77.4619 18.3698 77.2147 18.334 77.2398 17.7607C77.2684 14.9912 77.2398 12.218 77.2684 9.44842C77.2684 8.82858 77.1215 8.5957 76.4909 8.67094C76.0538 8.72468 75.6024 8.64944 75.1617 8.68885C74.6422 8.73543 74.5884 8.47388 74.5741 8.04393C74.5562 7.54233 74.8249 7.53516 75.1939 7.53516C76.9973 7.53516 78.7995 7.53516 80.6005 7.53516C80.9767 7.53516 81.2275 7.55665 81.2132 8.05109C81.2132 8.48821 81.1272 8.76768 80.6184 8.68169H80.536C79.9054 8.68169 79.0706 8.48104 78.6908 8.8035C78.2358 9.18329 78.5654 10.0468 78.5439 10.7024C78.5224 11.6447 78.5439 12.587 78.5439 13.5293Z" fill="black"/>
<path d="M75.4341 28.3516C75.4341 26.7465 75.4341 25.127 75.4341 23.5326C75.4341 23.0489 75.5918 22.9199 76.0504 22.9199C76.509 22.9199 76.7418 22.9952 76.7347 23.5505C76.706 26.3201 76.7347 29.0897 76.7096 31.8592C76.7096 32.4755 76.8135 32.7406 77.505 32.6941C78.4402 32.626 79.386 32.6941 80.3283 32.6654C80.7404 32.6654 80.855 32.8087 80.8407 33.1957C80.8264 33.5826 80.8407 33.8334 80.3283 33.8227C78.9167 33.794 77.5014 33.7904 76.0898 33.8227C75.581 33.8227 75.4234 33.6865 75.4341 33.1706C75.4556 31.5654 75.4341 29.9567 75.4341 28.3516Z" fill="black"/>
<path d="M136.211 44.3562C136.211 45.7427 136.211 47.1257 136.211 48.5123C136.211 48.9889 136.186 49.2719 135.566 49.2647C134.946 49.2576 134.978 48.9638 134.978 48.5482C134.978 45.8037 134.957 43.0592 135.003 40.3075C135.003 39.5909 134.788 39.3867 134.118 39.4655C133.706 39.5157 133.284 39.4476 132.872 39.4834C132.399 39.5229 132.245 39.358 132.245 38.8815C132.245 38.405 132.485 38.3584 132.868 38.362C134.669 38.362 136.471 38.362 138.275 38.362C138.665 38.362 138.884 38.4086 138.884 38.8923C138.884 39.3759 138.719 39.4942 138.26 39.4906C137.605 39.4906 136.738 39.1896 136.34 39.6124C135.942 40.0352 136.229 40.9345 136.211 41.6188C136.193 42.5253 136.211 43.4389 136.211 44.3562Z" fill="black"/>
<path d="M102.521 28.9036C102.521 27.4704 102.521 26.0372 102.521 24.5826C102.521 24.1526 102.413 23.9842 101.965 24.0129C101.413 24.0451 100.854 24.0129 100.303 24.0129C99.9444 24.0308 99.8083 23.8911 99.8405 23.5364C99.8692 23.2426 99.7653 22.9129 100.263 22.9165C102.174 22.9309 104.085 22.9309 105.996 22.9165C106.462 22.9165 106.447 23.1853 106.455 23.5113C106.462 23.8373 106.408 24.038 106.007 24.0165C105.484 23.9878 104.932 24.0523 104.43 23.9986C103.818 23.9341 103.714 24.1885 103.714 24.7474C103.742 27.517 103.714 30.2866 103.732 33.0561C103.732 33.4897 103.775 33.83 103.112 33.83C102.449 33.83 102.503 33.4717 102.506 33.0454C102.524 31.6731 102.521 30.2866 102.521 28.9036Z" fill="black"/>
<path d="M139.543 28.3408C139.543 26.7357 139.543 25.1162 139.543 23.529C139.543 23.0417 139.704 22.9199 140.163 22.9199C140.621 22.9199 140.847 22.9987 140.844 23.5541C140.815 26.7596 140.815 29.9675 140.844 33.1777C140.844 33.7009 140.679 33.8227 140.184 33.8298C139.69 33.837 139.539 33.6435 139.547 33.1563C139.557 31.5511 139.543 29.946 139.543 28.3408Z" fill="black"/>
<path d="M139.926 43.8298C139.926 42.2211 139.948 40.6052 139.926 39.0036C139.926 38.4913 140.077 38.3552 140.585 38.3408C141.151 38.3408 141.202 38.5701 141.198 39.0287C141.184 42.2175 141.184 45.4075 141.198 48.5986C141.198 49.1038 141.076 49.2579 140.557 49.2615C140.037 49.2651 139.919 49.0501 139.926 48.57C139.944 46.9899 139.926 45.4099 139.926 43.8298Z" fill="black"/>
<path d="M67.7199 43.7578C67.7199 42.1563 67.7379 40.5511 67.7199 38.9496C67.7199 38.4623 67.8812 38.3477 68.3398 38.3477C68.7984 38.3477 68.9632 38.4587 68.9596 38.946C68.9405 42.1826 68.9405 45.4167 68.9596 48.6485C68.9596 49.1357 68.7984 49.2504 68.3434 49.2468C67.8883 49.2432 67.7128 49.1429 67.7199 48.6521C67.7379 47.0218 67.7199 45.3916 67.7199 43.7578Z" fill="black"/>
</svg>
