<svg width="88" height="63" viewBox="0 0 88 63" fill="none" xmlns="http://www.w3.org/2000/svg">
<path d="M73.8017 11.3583C73.8017 9.77993 73.7811 8.20155 73.8017 6.62318C73.8164 5.7414 73.4637 5.31816 72.5437 5.32403C71.6884 5.32403 71.1917 5.61796 71.1946 6.54382C71.2064 9.70449 71.2064 12.8622 71.1946 16.017C71.1946 17.0075 71.7619 17.1574 72.5849 17.1633C73.4078 17.1692 73.8135 16.84 73.7988 15.9876C73.7723 14.4386 73.8017 12.8985 73.8017 11.3583Z" fill="black"/>
<path d="M73.8017 34.2346C73.8017 32.618 73.8017 31.0015 73.8017 29.379C73.8017 28.5413 73.4578 28.1533 72.6025 28.1533C71.7471 28.1533 71.2034 28.3502 71.2063 29.329C71.2063 32.5269 71.2063 35.7248 71.2063 38.9227C71.2063 39.8486 71.7706 39.9897 72.5378 39.9985C73.352 39.9985 73.8193 39.7663 73.8046 38.8639C73.7693 37.315 73.8017 35.7748 73.8017 34.2346Z" fill="black"/>
<path d="M73.5517 56.3465C73.5517 54.727 73.5517 53.1133 73.5517 51.4908C73.5517 50.6532 73.2048 50.2652 72.3495 50.2622C71.4942 50.2593 70.9534 50.4621 70.9563 51.4379C70.9563 54.6358 70.9563 57.8328 70.9563 61.0287C70.9563 61.9575 71.5148 62.0986 72.2848 62.1074C73.0549 62.1162 73.5664 61.8752 73.5517 60.9729C73.534 59.4239 73.5517 57.8867 73.5517 56.3465Z" fill="black"/>
<path d="M72.4614 0.635986C71.6443 0.683014 71.077 1.08863 71.0623 1.99392C71.0476 2.89921 71.5796 3.36067 72.4614 3.38124C73.3432 3.40182 73.9104 2.92272 73.9134 2.04682C73.9163 1.17093 73.4225 0.668318 72.4614 0.635986Z" fill="black"/>
<path d="M72.5231 26.2195C73.4048 26.1636 73.9515 25.6875 73.9104 24.8086C73.8692 23.9298 73.3607 23.436 72.4408 23.4742C71.5208 23.5124 71.0387 23.9857 71.0564 24.8821C71.074 25.7786 71.6589 26.1842 72.5231 26.2195Z" fill="black"/>
<path d="M72.2761 48.3256C73.1578 48.2845 73.7016 47.823 73.6722 46.9383C73.6428 46.0536 73.152 45.5598 72.2349 45.5833C71.3179 45.6068 70.8123 46.0595 70.8329 46.9589C70.8535 47.8583 71.3913 48.2904 72.2761 48.3256Z" fill="black"/>
<path d="M58.3588 5.03026C57.3273 3.98758 56.352 2.89066 55.4372 1.74418C54.7994 0.930007 54.2027 0.783051 53.2122 1.13576C41.9843 5.1449 30.7475 9.12561 19.502 13.0779C14.0879 14.9914 8.68552 16.9401 3.26261 18.8271C2.32205 19.1563 1.84295 19.6618 1.7195 20.6641C1.53433 22.1661 1.2022 23.6357 0.975875 25.1053C0.455628 28.7676 -0.0146505 27.5155 2.79527 30.0609C3.19207 30.4224 3.94745 30.7046 3.80931 31.2513C3.67117 31.798 2.8423 31.5629 2.33969 31.7715C2.30735 31.7862 2.28678 31.8274 2.23975 31.8774C4.91741 31.9038 4.92035 31.9009 6.56633 33.3117C7.15418 33.8026 7.71263 34.2905 8.27403 34.7813C8.50035 34.9871 8.86188 35.1634 8.79721 35.5132C8.71198 35.9188 8.28579 35.8071 7.9948 35.8542C6.16071 36.1687 4.32368 36.4685 2.48959 36.7712C4.25314 36.877 6.01669 37.0034 7.72733 36.8447C9.87298 36.6448 11.6071 37.218 12.9827 38.8728C13.2267 39.1667 13.7675 39.3166 13.644 39.7545C13.5206 40.1925 12.9768 40.0867 12.6094 40.1484C9.3155 40.7127 6.00297 41.2575 2.67182 41.7826C6.52518 41.9002 10.3697 42.0266 14.2025 41.8473C16.1424 41.7562 17.4357 42.5733 18.6819 43.7931C18.8494 43.9577 19.1022 44.1164 19.0434 44.3662C18.9553 44.7336 18.5937 44.6425 18.3439 44.6307C16.6656 44.5484 15.0314 44.86 13.3883 45.1216C9.90629 45.6761 6.42132 46.2258 2.93342 46.7705C8.69434 46.9155 14.4425 46.9547 20.178 46.8881C21.6153 46.8734 22.8233 47.1262 23.805 48.2225C24.1401 48.5987 24.8984 48.878 24.7514 49.3335C24.5516 49.9537 23.7727 49.6539 23.2818 49.6275C16.4451 49.2013 9.83771 50.8237 3.16561 51.9407H5.02322C11.9981 51.9407 18.97 51.9759 25.9418 51.9171C27.4115 51.9171 28.6753 52.1729 29.6718 53.2957C30.0274 53.6925 30.868 53.9158 30.674 54.4714C30.48 55.0269 29.6864 54.7653 29.1574 54.7653C22.5558 54.8593 15.9308 54.3861 9.38801 55.8028C7.05718 56.3084 4.68521 56.5788 2.31323 56.955C12.0804 57.0843 21.8269 57.1314 31.5705 57.0432C33.3752 57.0256 34.8037 57.4224 36 58.748C36.2292 59.0007 36.7113 59.1683 36.5878 59.5592C36.4644 59.9501 35.9647 59.8002 35.6296 59.8031C31.6704 59.8031 27.6936 59.9736 23.7492 59.7767C16.4687 59.4181 9.40858 60.8819 2.29266 62.084C17.0065 61.7636 31.7439 62.6307 46.4666 61.6696C47.5394 61.599 47.8951 61.164 48.0803 60.2205C48.9032 56.0644 49.7645 51.9171 50.6198 47.7699C53.3964 34.2278 56.1828 20.6965 58.979 7.17591C59.0836 6.79586 59.081 6.39428 58.9716 6.01561C58.8621 5.63693 58.65 5.29591 58.3588 5.03026ZM49.7292 17.8395C49.0502 20.8522 48.4006 23.8708 47.7393 26.8865C45.4114 37.4796 43.0845 48.0746 40.7586 58.6715C40.6822 59.0184 40.594 59.3652 40.5235 59.715C40.3412 60.635 39.9591 60.7055 39.2655 60.0941C37.0375 58.1307 34.7831 56.1938 32.5375 54.2539C22.6499 45.7026 12.7632 37.1533 2.87757 28.606C2.41317 28.2062 1.79005 27.8947 1.82826 26.9688C2.12218 25.3287 2.38084 23.527 2.75412 21.7458C2.93342 20.8816 3.42721 21.3548 3.77698 21.6635C5.85601 23.4976 7.92916 25.3375 9.99643 27.1834L35.6855 50.1477C35.7736 50.2271 35.8677 50.3035 35.9559 50.3799C37.1139 51.3675 37.1081 51.3646 37.496 49.8832C40.1414 39.8486 42.2988 29.7023 44.6796 19.6089C44.9382 18.5067 45.3762 17.8454 46.5048 17.6073C47.2735 17.416 48.0318 17.1854 48.7769 16.9166C49.6792 16.6256 49.932 16.9489 49.7292 17.8395ZM37.2609 40.2983C32.1995 36.105 27.1411 31.9058 22.0856 27.7007C21.7358 27.4068 21.1332 27.1716 21.2596 26.6455C21.3625 26.2193 21.9621 26.1928 22.3677 26.0576C28.9869 23.8767 35.609 21.7056 42.2341 19.5443C42.6838 19.3973 43.4304 18.8271 43.4421 19.8999C42.9601 21.9574 42.5016 23.9355 42.046 25.9048C40.9741 30.5312 39.8964 35.1585 38.8128 39.7869C38.5042 41.1566 38.3513 41.2006 37.2609 40.2983ZM56.7775 6.88199C51.0754 8.81013 45.3703 10.7295 39.6623 12.64C31.2932 15.4577 22.9252 18.2794 14.5581 21.105C14.4431 21.1347 14.3302 21.172 14.2201 21.2167C13.841 21.4019 13.2237 21.3578 13.1267 21.8045C13.0297 22.2513 13.6058 22.4688 13.9291 22.7245C15.5134 23.9796 17.1476 25.17 18.7054 26.4544C24.9102 31.5658 31.0885 36.7124 37.2962 41.8238C37.5884 42.024 37.805 42.3163 37.9116 42.6541C38.0182 42.9919 38.0084 43.3556 37.884 43.6873C37.4872 45.0981 37.1668 46.5266 36.7906 47.9433C36.4967 49.0925 36.2968 49.1542 35.4268 48.3783C32.3759 45.6683 29.3318 42.9515 26.2946 40.2278C19.1208 33.8124 11.9442 27.3999 4.76457 20.9904C3.64471 19.991 3.64471 19.9176 5.09964 19.4032C21.0754 13.7461 37.0532 8.09296 53.0329 2.44372C53.2945 2.34967 53.559 2.27618 53.7207 2.22328C54.2468 2.16743 54.4819 2.45548 54.72 2.71414C55.5489 3.61942 56.3807 4.52471 57.1919 5.44469C57.9503 6.29413 57.9032 6.49401 56.7775 6.88199Z" fill="black"/>
<path fill-rule="evenodd" clip-rule="evenodd" d="M77.2328 34.323C77.2308 33.5846 77.2288 32.8459 77.2288 32.107C77.2288 31.4894 77.2315 30.8715 77.2343 30.2536C77.2409 28.7366 77.2476 27.2195 77.2141 25.7053C77.1936 24.7236 77.5904 24.3356 78.5486 24.3885C78.9935 24.4101 79.4423 24.4029 79.8907 24.3957C80.1147 24.3921 80.3387 24.3885 80.5619 24.3885C84.383 24.3944 86.2347 25.8758 86.9342 29.6615C87.3222 31.691 87.2215 33.7836 86.6403 35.7663C85.8614 38.3323 84.0273 39.8019 81.3497 39.9577C80.8195 39.9878 80.2868 39.9821 79.7538 39.9763C79.2969 39.9714 78.8398 39.9665 78.384 39.9842C77.4904 40.0165 77.2288 39.5786 77.2288 38.7497C77.2406 37.2744 77.2367 35.7991 77.2328 34.323ZM79.963 30.7226C79.9597 31.184 79.9564 31.6455 79.9564 32.1069L79.9711 32.1011C79.9711 32.5097 79.9666 32.9184 79.962 33.3269C79.9528 34.1437 79.9437 34.9601 79.9711 35.7751C79.977 35.9229 79.9597 36.0825 79.9423 36.2439C79.8895 36.731 79.835 37.2348 80.4091 37.4799C81.1733 37.8062 81.9728 37.5563 82.6605 37.1095C83.2292 36.7297 83.6455 36.1614 83.8362 35.5047C84.5544 33.3085 84.5544 30.9407 83.8362 28.7444C83.4571 27.5629 82.6576 26.8104 81.3438 26.7046C80.415 26.6282 79.927 26.9397 79.9564 27.9538C79.976 28.8767 79.9695 29.7996 79.963 30.7226Z" fill="black"/>
<path fill-rule="evenodd" clip-rule="evenodd" d="M77.2354 11.5342C77.2321 10.7948 77.2289 10.0553 77.2289 9.31551C77.2289 8.60182 77.2325 7.88845 77.2361 7.17552C77.2432 5.75097 77.2504 4.32815 77.2289 2.90795C77.2083 1.94094 77.5639 1.51475 78.5398 1.56471C79.0943 1.58823 79.6488 1.58039 80.2034 1.57255C80.4806 1.56863 80.7579 1.56471 81.0352 1.56471C82.7782 1.57353 84.4447 1.86745 85.1854 3.69273C85.9937 5.70905 86.0466 7.79004 84.5241 9.50363C83.8216 10.2943 83.8392 10.8674 84.2302 11.6963C84.6174 12.5117 84.9774 13.3416 85.337 14.1704C85.6241 14.8324 85.911 15.4937 86.2112 16.1463C86.5433 16.8811 86.3552 17.1016 85.5616 17.1751C84.2801 17.2897 83.4659 16.887 83.0574 15.6084C82.7666 14.6984 82.3849 13.8166 82.0036 12.9355C81.8492 12.5788 81.6949 12.2222 81.5466 11.8638C81.3585 11.4083 81.0969 10.9703 80.5208 11.0938C79.9688 11.212 79.97 11.6703 79.9711 12.0834C79.9711 12.1014 79.9712 12.1194 79.9712 12.1372C79.9685 12.3685 79.9652 12.5997 79.962 12.8308C79.9473 13.8685 79.9327 14.9045 79.9712 15.9406C80.0211 17.0046 79.4098 17.1751 78.5515 17.1692C77.6933 17.1633 77.2112 16.9487 77.2289 15.97C77.2485 14.4907 77.2419 13.0126 77.2354 11.5342ZM79.9535 5.2331V6.29416C79.9535 6.39334 79.9528 6.49185 79.9522 6.58975C79.9504 6.84875 79.9487 7.10354 79.9594 7.35523C79.9976 8.58677 80.556 8.93949 81.7082 8.46921C82.6723 8.07535 82.8486 7.22885 82.8839 6.34119C82.9192 5.45354 82.7869 4.5894 81.8787 4.11618C80.7089 3.50776 79.9888 3.93101 79.9535 5.2331Z" fill="black"/>
<path fill-rule="evenodd" clip-rule="evenodd" d="M86.8726 60.6143C87.19 61.9135 87.0342 62.084 85.6205 62.084C84.7651 62.2456 84.4154 61.7283 84.2008 60.8465C83.4758 57.8968 83.4459 57.8982 80.4474 58.0414C80.4192 58.0427 80.3908 58.0441 80.3622 58.0454C79.5333 58.0983 79.1424 58.4452 79.0013 59.2211C78.9198 59.6619 78.8126 60.098 78.7055 60.5339C78.6427 60.7898 78.5798 61.0455 78.5222 61.3021C78.4863 61.5171 78.376 61.7127 78.2105 61.8545C78.045 61.9964 77.8349 62.0755 77.6169 62.0781C75.9944 62.2897 75.6594 61.9634 76.0444 60.388C76.4982 58.5234 76.9601 56.6611 77.4218 54.7991C78.0068 52.4403 78.5917 50.0819 79.16 47.7199C79.3863 46.7822 79.8831 46.3737 80.8295 46.453C81.1452 46.4839 81.4632 46.4839 81.7789 46.453C82.9193 46.3237 83.4807 46.791 83.7511 47.9462C84.41 50.7633 85.113 53.5688 85.8162 56.3747C86.1701 57.7873 86.5242 59.2 86.8726 60.6143ZM82.8693 54.768L81.5731 49.0247L81.2762 49.0042C81.1815 49.4411 81.0866 49.8778 80.9917 50.3145C80.6628 51.8285 80.334 53.3414 80.0124 54.8562C79.9776 54.9509 79.9672 55.0528 79.9821 55.1525C79.997 55.2523 80.0367 55.3467 80.0975 55.4272C80.1584 55.5076 80.2384 55.5715 80.3303 55.6129C80.4223 55.6544 80.5232 55.6721 80.6237 55.6645C81.1322 55.6968 81.6464 55.6968 82.1578 55.6968H82.158C82.7664 55.6851 83.0075 55.3559 82.8693 54.768Z" fill="black"/>
</svg>
