<svg width="202" height="61" viewBox="0 0 202 61" fill="none" xmlns="http://www.w3.org/2000/svg">
<path d="M32.0322 60.3774C29.3356 60.4028 26.6408 60.2256 23.9707 59.8471C19.596 59.2595 15.3037 58.3244 11.3123 56.3932C9.96646 55.7661 8.73488 54.9184 7.66854 53.8852C5.4364 51.6674 5.50089 49.0017 7.81186 46.8591C9.48149 45.3113 11.4664 44.3045 13.5732 43.5199C14.7913 43.0684 16.0418 42.6958 17.285 42.316C17.4806 42.2516 17.6872 42.2276 17.8923 42.2454C18.0974 42.2633 18.2967 42.3226 18.4781 42.4199C20.9467 43.8101 23.6554 44.2973 26.4357 44.4657C29.9612 44.6835 33.4991 44.345 36.9193 43.4625C38.4134 43.0792 39.9325 42.728 41.3083 41.9935C42.4185 41.3783 43.7205 41.2067 44.9521 41.5134C48.7213 42.3447 52.4368 43.3049 55.7761 45.3256C57.2271 46.2034 58.5241 47.2676 59.2049 48.9085C59.857 50.4814 59.5202 51.8967 58.4883 53.1793C57.091 54.9206 55.21 55.9955 53.2 56.8518C50.7111 57.89 48.1211 58.6669 45.4717 59.1699C41.0443 60.0267 36.5414 60.4312 32.0322 60.3774ZM45.0417 50.1267C45.3535 50.1296 45.655 50.0146 45.8855 49.8046C46.1161 49.5946 46.2588 49.3053 46.285 48.9945C46.2859 48.839 46.2559 48.6849 46.1965 48.5411C46.1371 48.3974 46.0496 48.267 45.9391 48.1575C45.8287 48.0481 45.6975 47.9618 45.5532 47.9037C45.4089 47.8456 45.2545 47.8169 45.099 47.8193C44.7863 47.8154 44.4833 47.9275 44.2484 48.134C44.0135 48.3404 43.8634 48.6266 43.8271 48.9372C43.8546 49.2477 43.9921 49.5381 44.2148 49.7562C44.4374 49.9743 44.7307 50.1057 45.0417 50.1267ZM41.0683 44.8312C40.9423 44.8233 40.816 44.8414 40.6973 44.8842C40.5785 44.927 40.4698 44.9937 40.3778 45.0801C40.2858 45.1666 40.2125 45.2709 40.1623 45.3868C40.1122 45.5027 40.0864 45.6275 40.0864 45.7538C40.0864 45.88 40.1122 46.0049 40.1623 46.1208C40.2125 46.2367 40.2858 46.341 40.3778 46.4275C40.4698 46.5139 40.5785 46.5806 40.6973 46.6234C40.816 46.6662 40.9423 46.6842 41.0683 46.6764C41.1943 46.6842 41.3205 46.6662 41.4393 46.6234C41.558 46.5806 41.6668 46.5139 41.7588 46.4275C41.8508 46.341 41.9241 46.2367 41.9742 46.1208C42.0243 46.0049 42.0502 45.88 42.0502 45.7538C42.0502 45.6275 42.0243 45.5027 41.9742 45.3868C41.9241 45.2709 41.8508 45.1666 41.7588 45.0801C41.6668 44.9937 41.558 44.927 41.4393 44.8842C41.3205 44.8414 41.1943 44.8233 41.0683 44.8312ZM51.5626 48.8154C51.6778 48.814 51.7916 48.7896 51.8973 48.7436C52.003 48.6975 52.0984 48.6308 52.1778 48.5473C52.2573 48.4639 52.3193 48.3653 52.36 48.2575C52.4008 48.1497 52.4196 48.0348 52.4153 47.9197C52.4043 47.6874 52.3044 47.4682 52.1364 47.3075C51.9683 47.1468 51.7449 47.0568 51.5124 47.0562C51.2812 47.0769 51.0637 47.1747 50.8948 47.3339C50.7258 47.4931 50.6153 47.7044 50.5809 47.934C50.6103 48.1748 50.726 48.3967 50.9065 48.5588C51.0869 48.7208 51.32 48.812 51.5626 48.8154ZM38.5029 50.4348C38.6198 50.4335 38.7351 50.4078 38.8414 50.3593C38.9477 50.3108 39.0427 50.2406 39.1203 50.1532C39.1979 50.0658 39.2564 49.9632 39.292 49.8519C39.3276 49.7406 39.3395 49.6231 39.327 49.5069C39.327 48.9515 38.9974 48.7222 38.4743 48.7222C38.3524 48.708 38.2288 48.721 38.1126 48.7604C37.9964 48.7997 37.8904 48.8645 37.8022 48.9499C37.7141 49.0352 37.646 49.1392 37.603 49.2541C37.56 49.369 37.5431 49.4921 37.5535 49.6144C37.5779 49.8462 37.6896 50.06 37.8659 50.2124C38.0423 50.3648 38.27 50.4443 38.5029 50.4348ZM31.4625 49.2059C31.6883 49.2032 31.9042 49.1133 32.0651 48.9551C32.2261 48.7968 32.3196 48.5824 32.326 48.3568C32.3039 48.1251 32.1969 47.9099 32.0256 47.7524C31.8542 47.595 31.6307 47.5065 31.398 47.504C31.1654 47.5113 30.9443 47.6075 30.7804 47.7728C30.6164 47.938 30.522 48.1599 30.5167 48.3926C30.5382 48.8978 30.7961 49.2274 31.4625 49.2059ZM23.8776 49.6968C23.7987 49.446 23.6482 49.2274 23.3867 49.2382C23.3248 49.2326 23.2623 49.24 23.2034 49.2599C23.1445 49.2798 23.0904 49.3117 23.0445 49.3537C22.9986 49.3957 22.9619 49.4467 22.9368 49.5036C22.9118 49.5605 22.8988 49.622 22.8988 49.6842C22.8988 49.7464 22.9118 49.8079 22.9368 49.8648C22.9619 49.9217 22.9986 49.9728 23.0445 50.0148C23.0904 50.0567 23.1445 50.0887 23.2034 50.1086C23.2623 50.1284 23.3248 50.1358 23.3867 50.1303C23.6482 50.1554 23.7987 49.944 23.8776 49.6968ZM42.1754 47.4933C42.1194 47.4936 42.064 47.5055 42.0128 47.5282C41.9617 47.551 41.9157 47.5841 41.878 47.6256C41.8403 47.667 41.8116 47.7158 41.7937 47.7689C41.7758 47.822 41.7692 47.8782 41.7741 47.934C41.7691 47.9888 41.7756 48.0441 41.7932 48.0963C41.8107 48.1486 41.8389 48.1966 41.8759 48.2373C41.913 48.2781 41.9581 48.3107 42.0084 48.3331C42.0587 48.3555 42.1131 48.3672 42.1682 48.3675C42.2795 48.3705 42.3876 48.3297 42.4692 48.2541C42.5509 48.1784 42.5998 48.0738 42.6053 47.9626C42.6034 47.8454 42.5585 47.7329 42.4793 47.6465C42.4001 47.56 42.292 47.5055 42.1754 47.4933ZM39.7784 52.7207C39.7784 52.4448 39.5921 52.3875 39.3449 52.3947C39.0977 52.4018 38.9185 52.5308 38.9544 52.8031C38.9542 52.8587 38.9661 52.9137 38.9893 52.9643C39.0125 53.0148 39.0464 53.0597 39.0886 53.0958C39.1309 53.132 39.1805 53.1585 39.2341 53.1735C39.2876 53.1885 39.3438 53.1918 39.3987 53.1829C39.4565 53.185 39.514 53.1737 39.5668 53.1499C39.6196 53.1262 39.6662 53.0905 39.7029 53.0458C39.7397 53.0011 39.7656 52.9485 39.7787 52.8921C39.7918 52.8357 39.7917 52.7771 39.7784 52.7207ZM25.5938 46.3288C25.5938 46.5653 25.6833 46.7265 25.9771 46.7337C26.2709 46.7409 26.4357 46.5904 26.4357 46.3145C26.4373 46.2591 26.4267 46.2039 26.4049 46.1529C26.383 46.102 26.3503 46.0563 26.3091 46.0192C26.2679 45.9821 26.2191 45.9543 26.1661 45.9379C26.1131 45.9214 26.0572 45.9167 26.0022 45.924C25.7801 45.9311 25.5687 46.0207 25.5938 46.3288ZM18.6501 45.5728C18.8866 45.5406 19.098 45.4224 19.0801 45.168C19.0702 45.0584 19.0196 44.9565 18.9384 44.8823C18.8572 44.8081 18.7512 44.767 18.6412 44.767C18.5311 44.767 18.4251 44.8081 18.3439 44.8823C18.2627 44.9565 18.2122 45.0584 18.2023 45.168C18.1772 45.4761 18.428 45.5084 18.6501 45.5728ZM47.5497 45.4761C47.281 45.4546 47.1699 45.6302 47.1628 45.8774C47.1556 46.1246 47.3419 46.2679 47.5891 46.2608C47.6447 46.2693 47.7016 46.2646 47.755 46.2471C47.8085 46.2296 47.857 46.1997 47.8968 46.16C47.9366 46.1202 47.9664 46.0716 47.9839 46.0182C48.0014 45.9647 48.0061 45.9079 47.9976 45.8523C47.9904 45.5693 47.822 45.4725 47.5497 45.4761ZM35.8695 46.551C35.8695 46.3396 35.7548 46.2285 35.4754 46.2357C35.1959 46.2429 35.0598 46.3396 35.0562 46.594C35.0526 46.8484 35.178 46.9845 35.4539 46.9809C35.7298 46.9774 35.8695 46.8985 35.8695 46.5546V46.551Z" fill="black"/>
<path d="M27.7938 42.8171C25.2858 42.8616 22.7925 42.425 20.4489 41.5309C19.5186 41.1727 18.6669 40.6373 17.9408 39.9544C16.6402 38.7004 16.5865 36.9053 17.7796 35.3325C19.073 33.627 20.8501 32.5557 22.7204 31.617C23.9633 31.0433 25.2414 30.549 26.5469 30.1373C27.4606 29.8148 28.2846 30.2447 29.1266 30.4705C31.1367 31.0013 33.1816 31.3904 35.2462 31.6349C37.2701 31.8334 39.3042 31.9076 41.3371 31.857C42.6246 31.8635 43.9077 31.7082 45.1565 31.3949C46.0379 31.1655 46.7294 31.7281 47.2274 33.0251C47.8329 34.6159 47.0232 35.8914 46.0056 36.9662C44.1139 38.9798 41.6703 40.1228 39.1121 41.0436C36.2758 42.0536 33.3083 42.6486 30.3018 42.8099C29.467 42.8601 28.6214 42.8171 27.7938 42.8171ZM24.6158 33.8599C24.6114 33.6841 24.555 33.5135 24.4537 33.3698C24.3524 33.226 24.2107 33.1156 24.0465 33.0524C23.8824 32.9893 23.7032 32.9763 23.5317 33.015C23.3601 33.0538 23.2039 33.1426 23.0829 33.2701C22.9618 33.3977 22.8814 33.5583 22.8517 33.7317C22.822 33.905 22.8444 34.0833 22.9161 34.2439C22.9877 34.4045 23.1055 34.5402 23.2543 34.6338C23.4032 34.7275 23.5765 34.7748 23.7523 34.7699C23.9832 34.757 24.2003 34.6557 24.3585 34.4868C24.5166 34.318 24.6036 34.0948 24.6014 33.8635L24.6158 33.8599ZM23.6663 37.5682C23.6663 37.1526 23.308 36.9053 22.7921 36.8516C22.6781 36.8506 22.5651 36.8724 22.4597 36.9157C22.3542 36.959 22.2585 37.0229 22.1781 37.1036C22.0977 37.1844 22.0342 37.2804 21.9913 37.386C21.9485 37.4916 21.9272 37.6047 21.9286 37.7187C21.9201 37.8295 21.9361 37.9408 21.9754 38.0448C22.0147 38.1488 22.0763 38.2429 22.1559 38.3204C22.2355 38.398 22.3312 38.4571 22.4362 38.4937C22.5411 38.5302 22.6528 38.5433 22.7634 38.532C23.3044 38.5642 23.6376 38.2633 23.652 37.5718L23.6663 37.5682ZM27.4857 34.3149C28.1091 34.297 28.4065 33.9925 28.4029 33.4765C28.4046 33.3613 28.3825 33.247 28.3378 33.1408C28.2932 33.0345 28.2271 32.9387 28.1436 32.8593C28.0602 32.7798 27.9612 32.7186 27.8529 32.6793C27.7446 32.64 27.6293 32.6235 27.5143 32.6309C27.3991 32.635 27.286 32.6622 27.1815 32.7108C27.077 32.7595 26.9834 32.8287 26.9062 32.9142C26.829 32.9998 26.7698 33.1 26.7321 33.2089C26.6944 33.3178 26.6789 33.4332 26.6867 33.5482C26.6989 33.7509 26.7859 33.9419 26.9309 34.0842C27.0758 34.2265 27.2684 34.31 27.4713 34.3185L27.4857 34.3149ZM33.7199 35.852C33.4225 35.8341 33.3616 36.0168 33.3258 36.2604C33.2899 36.5041 33.4727 36.6187 33.6841 36.6474C33.737 36.6588 33.7918 36.658 33.8444 36.6452C33.8969 36.6323 33.9459 36.6077 33.9876 36.5733C34.0294 36.5388 34.0627 36.4953 34.0852 36.4461C34.1077 36.3969 34.1188 36.3432 34.1176 36.2891C34.0889 36.0311 33.9886 35.852 33.7056 35.8556L33.7199 35.852ZM38.7718 34.4869C38.7592 34.3795 38.7063 34.281 38.6238 34.2112C38.5414 34.1413 38.4354 34.1054 38.3275 34.1107C38.272 34.1052 38.216 34.1113 38.163 34.1285C38.1099 34.1458 38.061 34.1738 38.0193 34.2108C37.9776 34.2478 37.944 34.293 37.9206 34.3436C37.8971 34.3942 37.8844 34.4491 37.8832 34.5048C37.8832 34.7126 38.0624 34.8416 38.2917 34.8631C38.347 34.8711 38.4034 34.8677 38.4574 34.853C38.5113 34.8383 38.5617 34.8127 38.6054 34.7778C38.649 34.7429 38.6851 34.6993 38.7112 34.6499C38.7374 34.6005 38.7531 34.5462 38.7574 34.4905L38.7718 34.4869ZM20.4632 36.0562C20.7785 36.0383 20.8895 35.8806 20.886 35.6657C20.886 35.3862 20.6817 35.3074 20.4345 35.3074C20.1873 35.3074 20.0762 35.4901 20.1264 35.7086C20.1766 35.9272 20.2697 36.0777 20.4489 36.0598L20.4632 36.0562ZM26.615 35.5438C26.615 35.3396 26.615 35.139 26.357 35.1856C26.3012 35.186 26.246 35.1975 26.1947 35.2194C26.1433 35.2413 26.0968 35.2732 26.0579 35.3132C26.0189 35.3531 25.9882 35.4004 25.9676 35.4523C25.947 35.5042 25.9369 35.5597 25.9378 35.6155C25.9378 35.8806 26.0883 35.9738 26.3176 35.9559C26.5469 35.938 26.615 35.7517 26.6007 35.5474L26.615 35.5438ZM31.434 33.8205C31.4555 33.498 31.2943 33.4049 31.0291 33.4263C30.764 33.4478 30.549 33.5697 30.5956 33.7846C30.6422 33.9996 30.8213 34.2504 31.09 34.2325C31.1408 34.231 31.1906 34.2188 31.2363 34.1967C31.2819 34.1745 31.3223 34.1429 31.3548 34.104C31.3874 34.065 31.4112 34.0196 31.4249 33.9707C31.4385 33.9219 31.4416 33.8706 31.434 33.8205Z" fill="black"/>
<path d="M39.9933 30.1915C36.4853 30.2298 32.9889 29.7837 29.6029 28.8658C27.8114 28.3678 26.02 27.8232 24.5295 26.6695C23.2361 25.677 23.3328 25.0464 24.8197 24.3657C25.5969 24.0203 26.4735 23.9706 27.2848 24.226C29.8118 24.9262 32.4557 25.0993 35.0525 24.7347C36.1524 24.5878 37.2309 24.3585 38.3237 24.1722C39.7568 23.9214 41.1291 24.4051 42.4906 24.7813C43.698 25.1343 44.8718 25.5935 45.9982 26.1536C46.6449 26.4483 47.2241 26.8727 47.7001 27.4004C48.1874 27.9593 48.1085 28.4323 47.4815 28.8336C46.5789 29.3582 45.5818 29.7003 44.5471 29.8404C43.0424 30.0907 41.5186 30.2082 39.9933 30.1915ZM40.305 28.6401C40.5381 28.6479 40.765 28.5642 40.9371 28.4068C41.1092 28.2495 41.2128 28.031 41.2258 27.7981C41.2187 27.5659 41.1238 27.3451 40.9602 27.1801C40.7966 27.0152 40.5765 26.9185 40.3444 26.9095C40.1013 26.8936 39.8616 26.9736 39.6767 27.1324C39.4919 27.2911 39.3766 27.5159 39.3555 27.7587C39.3567 27.8799 39.3826 27.9996 39.4317 28.1105C39.4807 28.2214 39.5518 28.3211 39.6407 28.4036C39.7295 28.4861 39.8343 28.5496 39.9485 28.5903C40.0627 28.6309 40.184 28.6479 40.305 28.6401ZM42.4547 27.773C42.6554 27.619 42.899 27.5294 42.8596 27.2284C42.8579 27.1682 42.8439 27.1089 42.8185 27.0542C42.7931 26.9995 42.7568 26.9506 42.7119 26.9103C42.667 26.8701 42.6143 26.8394 42.5572 26.8202C42.5001 26.801 42.4396 26.7936 42.3795 26.7985C42.3306 26.7904 42.2805 26.7941 42.2334 26.8093C42.1862 26.8244 42.1434 26.8506 42.1083 26.8856C42.0733 26.9206 42.0472 26.9635 42.032 27.0107C42.0168 27.0578 42.0131 27.1079 42.0212 27.1568C42.0427 27.4685 42.2398 27.6154 42.4583 27.773H42.4547ZM41.19 25.1826C40.9069 25.1826 40.803 25.3689 40.803 25.6197C40.803 25.8705 41.0287 25.9959 41.258 25.978C41.3142 25.9817 41.3705 25.9729 41.4228 25.9521C41.4752 25.9314 41.5222 25.8993 41.5606 25.8582C41.599 25.817 41.6278 25.7678 41.6449 25.7142C41.662 25.6606 41.6669 25.6038 41.6593 25.548C41.6531 25.4933 41.6361 25.4403 41.6093 25.3922C41.5824 25.3441 41.5463 25.3019 41.5029 25.2679C41.4596 25.2339 41.4099 25.2088 41.3568 25.1942C41.3037 25.1795 41.2482 25.1756 41.1936 25.1826H41.19Z" fill="black"/>
<path d="M34.8341 16.716C37.1845 16.6695 39.4919 16.9382 41.6416 17.9414C42.2758 18.2352 42.9959 18.5541 43.0747 19.3745C43.1536 20.195 42.437 20.6106 41.8745 20.994C40.4986 21.9291 38.915 22.3698 37.3027 22.6959C34.7613 23.2344 32.1473 23.3398 29.5708 23.0076C27.9191 22.7855 26.2961 22.4522 24.8844 21.4813C24.0138 20.8829 23.9457 20.2631 24.6909 19.525C25.8124 18.4107 27.2563 17.8948 28.7324 17.4864C30.7172 16.9301 32.7733 16.6705 34.8341 16.716ZM40.2873 19.9406C40.7351 19.9406 41.2081 19.5035 41.1472 19.1094C41.0719 18.64 40.8283 18.2746 40.2837 18.271C40.0609 18.2762 39.8484 18.3655 39.6888 18.5211C39.5293 18.6766 39.4346 18.8868 39.4238 19.1094C39.4365 19.3303 39.5329 19.538 39.6933 19.6904C39.8536 19.8428 40.066 19.9284 40.2873 19.9299V19.9406ZM35.4969 17.8769C35.4611 17.5795 35.2748 17.5186 35.0276 17.5186C34.7804 17.5186 34.6084 17.6225 34.6191 17.9091C34.6299 18.1958 34.8305 18.2674 35.0706 18.2674C35.3106 18.2674 35.4933 18.1349 35.4969 17.8661V17.8769ZM31.0111 19.31C31.0149 19.262 31.0082 19.2138 30.9916 19.1686C30.9749 19.1234 30.9486 19.0824 30.9146 19.0483C30.8805 19.0143 30.8395 18.988 30.7943 18.9713C30.7491 18.9547 30.7009 18.948 30.6529 18.9518C30.4522 18.9518 30.2301 19.0055 30.2014 19.2456C30.1728 19.4856 30.3555 19.6361 30.6027 19.654C30.6528 19.6622 30.7041 19.6596 30.7532 19.6464C30.8023 19.6332 30.848 19.6098 30.8873 19.5776C30.9266 19.5454 30.9586 19.5052 30.9812 19.4597C31.0038 19.4142 31.0164 19.3644 31.0183 19.3136L31.0111 19.31ZM38.3417 17.6977C38.1483 17.6977 37.9405 17.7587 37.9333 17.9987C37.9289 18.0538 37.9366 18.1091 37.9558 18.1609C37.975 18.2127 38.0053 18.2597 38.0445 18.2986C38.0837 18.3375 38.131 18.3673 38.1829 18.3861C38.2349 18.4048 38.2903 18.412 38.3453 18.4072C38.395 18.4117 38.4451 18.4057 38.4924 18.3897C38.5396 18.3738 38.583 18.3481 38.6198 18.3143C38.6566 18.2806 38.6859 18.2396 38.7059 18.1939C38.7258 18.1481 38.7361 18.0988 38.7359 18.0489C38.7502 17.8267 38.5818 17.7372 38.3417 17.6977ZM38.0229 20.3993C38.2593 20.3778 38.3489 20.2237 38.3561 20.0015C38.3629 19.9579 38.3589 19.9133 38.3447 19.8715C38.3304 19.8298 38.3061 19.7921 38.274 19.7618C38.242 19.7315 38.203 19.7094 38.1605 19.6975C38.118 19.6856 38.0732 19.6842 38.03 19.6934C37.8258 19.6934 37.6108 19.7328 37.6359 20.0123C37.6376 20.1158 37.6785 20.2147 37.7503 20.2892C37.8221 20.3637 37.9195 20.4081 38.0229 20.4136V20.3993Z" fill="black"/>
<path d="M59.5812 22.6028V43.6845C59.5812 43.9568 59.3877 44.007 59.1763 44.0142C58.9649 44.0213 58.861 43.8995 58.8646 43.6845C58.8682 43.4696 58.8646 43.1973 58.8646 42.9679V2.7858C58.8646 1.76109 58.8646 1.76108 57.8292 1.76108H34.3863C34.187 1.7737 33.9872 1.7737 33.788 1.76108C33.573 1.72884 33.5121 1.56045 33.5264 1.36339C33.5229 1.32464 33.5275 1.28558 33.54 1.24872C33.5525 1.21187 33.5725 1.17802 33.5988 1.14935C33.6251 1.12068 33.6571 1.09783 33.6928 1.08224C33.7284 1.06665 33.767 1.05868 33.8059 1.05884C33.9384 1.05884 34.0746 1.05884 34.2071 1.05884C42.4239 1.05884 50.6383 1.05884 58.8503 1.05884C59.4415 1.05884 59.592 1.23441 59.592 1.81484C59.5705 8.75132 59.592 15.6914 59.592 22.6279L59.5812 22.6028Z" fill="black"/>
<path d="M158.028 54.2931H160.823C161.539 54.2931 161.629 54.4293 161.478 55.1172C161.303 56.0213 160.912 56.8697 160.339 57.5907C159.765 58.3117 159.027 58.8839 158.186 59.259C156.965 59.8358 155.587 59.9904 154.268 59.6985C152.95 59.4067 151.765 58.6849 150.902 57.6467C148.333 54.4221 149.809 49.4634 153.897 48.3993C156.434 47.7364 158.963 48.7576 160.242 50.3699C160.439 50.6242 160.823 50.85 160.644 51.2656C160.572 51.4304 159.468 51.3229 159.264 51.1438C158.967 50.8786 158.702 50.5741 158.39 50.3304C157.737 49.7898 156.943 49.4464 156.102 49.3404C155.26 49.2344 154.406 49.3703 153.639 49.7321C152.07 50.3842 151.203 51.6418 150.999 53.3437C150.705 55.7979 151.952 57.8545 154.288 58.4959C156.624 59.1372 159.01 58.0122 159.852 55.9018C160.045 55.4182 159.873 55.3823 159.494 55.3823C158.032 55.3823 156.566 55.3823 155.101 55.3823C154.66 55.3823 154.442 55.2748 154.452 54.7947C154.463 54.3146 154.743 54.2716 155.115 54.2788C156.09 54.2788 157.068 54.2788 158.042 54.2788L158.028 54.2931Z" fill="black"/>
<path d="M0.796558 38.1202V17.3788C0.796558 17.2678 0.796558 17.1567 0.796558 17.0492C0.796558 16.7877 0.932708 16.6909 1.15485 16.6909C1.37699 16.6909 1.5418 16.7733 1.53822 17.0492V17.515C1.53822 30.8911 1.53822 44.2673 1.53822 57.6434C1.55076 57.8426 1.55076 58.0425 1.53822 58.2417C1.47372 58.7648 1.69228 58.9297 2.2118 58.9117C3.31892 58.8795 4.42961 58.9117 5.54031 58.9117C5.84844 58.9117 6.067 58.9583 6.05625 59.3345C6.0455 59.7107 5.76961 59.6606 5.53314 59.6606C4.17881 59.6606 2.82448 59.6355 1.47373 59.6606C0.893296 59.6785 0.782227 59.4563 0.782227 58.944C0.796558 52.0171 0.796558 45.083 0.782227 38.1417L0.796558 38.1202Z" fill="black"/>
<path d="M177.333 48.1919C180.669 48.1919 183.205 50.6569 183.216 53.9066C183.248 55.0748 182.931 56.226 182.306 57.2131C181.68 58.2002 180.774 58.9784 179.704 59.4481C178.634 59.9179 177.448 60.0579 176.298 59.8503C175.148 59.6427 174.086 59.0969 173.248 58.2826C172.41 57.4684 171.833 56.4227 171.593 55.2792C171.352 54.1356 171.457 52.9463 171.896 51.863C172.334 50.7798 173.086 49.8519 174.054 49.198C175.023 48.544 176.164 48.1938 177.333 48.1919ZM181.915 53.9819C181.933 53.3729 181.828 52.7666 181.606 52.1993C181.384 51.632 181.049 51.1154 180.623 50.6805C180.196 50.2455 179.686 49.9012 179.123 49.6681C178.561 49.4351 177.956 49.318 177.347 49.3241C176.112 49.335 174.932 49.8362 174.066 50.7175C173.2 51.5987 172.72 52.7877 172.731 54.0231C172.742 55.2584 173.243 56.4388 174.124 57.3045C175.005 58.1703 176.194 58.6505 177.43 58.6396C179.981 58.6396 181.923 56.6189 181.915 53.9819Z" fill="black"/>
<path d="M90.5482 10.1021C91.0283 9.49658 91.039 8.85525 91.1967 8.2784C91.8058 6.02118 92.379 3.75321 92.9523 1.4709C93.0419 1.11261 93.2748 1.11262 93.5506 1.0947C93.6214 1.0825 93.6939 1.08469 93.7637 1.10114C93.8336 1.11759 93.8994 1.14796 93.9573 1.19044C94.0152 1.23292 94.0639 1.28663 94.1005 1.34836C94.1371 1.4101 94.1609 1.47858 94.1705 1.54973C94.5037 2.87898 94.8548 4.20107 95.1988 5.52674C95.5427 6.85241 95.8903 8.22108 96.2486 9.56825C96.3279 9.76764 96.4251 9.9595 96.5388 10.1415C97.0153 8.83017 97.2733 7.52599 97.6136 6.25048C98.0508 4.67879 98.4747 3.10232 98.8856 1.52107C99.0468 0.883314 99.5484 1.0732 99.9103 1.12336C100.39 1.18785 100.115 1.57481 100.05 1.8077C99.1734 4.99647 98.2896 8.18644 97.3987 11.3776C97.3055 11.7108 97.2876 12.1408 96.7967 12.2375C96.2127 12.3486 95.8974 12.1443 95.747 11.5532C95.3242 9.86205 94.8727 8.17808 94.4177 6.4977C94.198 5.48477 93.9107 4.4877 93.5578 3.51316C93.2167 4.39504 92.9483 5.30334 92.7552 6.22899C92.2787 8.02043 91.7914 9.81188 91.3221 11.6033C91.3145 11.7024 91.2863 11.7988 91.2395 11.8864C91.1926 11.974 91.1281 12.0509 91.0499 12.1122C90.9717 12.1735 90.8817 12.2179 90.7854 12.2426C90.6892 12.2672 90.5889 12.2716 90.4909 12.2554C90 12.2554 89.8388 11.9795 89.7313 11.5854C88.8356 8.36081 87.9398 5.16845 87.0477 1.95101C86.9689 1.67154 86.7216 1.23444 87.1767 1.09829C87.2704 1.05385 87.3729 1.03094 87.4766 1.03125C87.5803 1.03157 87.6827 1.05509 87.7761 1.10009C87.8696 1.1451 87.9517 1.21045 88.0167 1.29135C88.0816 1.37226 88.1275 1.46666 88.1512 1.56765C88.6779 2.80016 88.8678 4.10792 89.2261 5.37268C89.7026 6.90616 90.0967 8.45754 90.5482 10.1021Z" fill="black"/>
<path d="M28.5855 3.89273C28.0589 4.05038 27.8116 3.72074 27.5931 3.20481C27.5033 3.01959 27.3772 2.85427 27.2224 2.71858C27.0676 2.58289 26.8872 2.4796 26.6918 2.41481C26.4964 2.35001 26.2901 2.32502 26.0849 2.34133C25.8797 2.35763 25.6798 2.41489 25.4971 2.50973C25.3088 2.57776 25.1363 2.68332 24.9899 2.81998C24.8436 2.95664 24.7265 3.12157 24.6458 3.3048C24.5651 3.48803 24.5224 3.68573 24.5203 3.88594C24.5182 4.08615 24.5567 4.2847 24.6336 4.46957C24.7086 4.64232 24.8182 4.79788 24.9556 4.92667C25.093 5.05546 25.2554 5.15474 25.4326 5.2184C26.2173 5.57669 27.0306 5.87048 27.8009 6.25385C29.406 7.04926 30.0581 8.15996 29.7966 9.55012C29.4777 11.2556 28.4028 12.2122 26.6006 12.3878C24.4724 12.5956 22.792 11.3738 22.5914 9.50354C22.5412 9.01985 22.6881 8.88011 23.1539 8.8622C23.8418 8.83712 24.3147 8.8622 24.5405 9.73284C24.802 10.7325 25.9736 11.1302 26.9338 10.7325C27.3467 10.5604 27.6771 10.2355 27.8561 9.82551C28.035 9.41556 28.0486 8.95233 27.8941 8.53258C27.7966 8.30896 27.6521 8.10901 27.4703 7.94638C27.2885 7.78375 27.0737 7.66228 26.8407 7.59028C26.0453 7.25349 25.214 6.9991 24.4509 6.61214C23.0966 5.92781 22.5125 4.8207 22.7526 3.61685C22.8589 2.90791 23.1984 2.2546 23.7175 1.76018C24.2366 1.26576 24.9056 0.958399 25.6189 0.886675C27.4569 0.671701 28.8901 1.42053 29.4096 2.8716C29.7536 3.87123 29.7357 3.89631 28.5855 3.89273Z" fill="black"/>
<path d="M10.8858 0.85791C12.5124 0.85791 13.7198 1.67481 14.1498 3.07214C14.3612 3.76005 14.2644 3.87471 13.555 3.90337C12.9567 3.93203 12.4801 3.92487 12.2329 3.18679C11.9857 2.44871 11.2369 2.24449 10.4415 2.41288C10.1358 2.46633 9.85416 2.61319 9.63537 2.83327C9.41658 3.05335 9.27136 3.33581 9.21971 3.64181C9.15567 3.99641 9.22386 4.36219 9.41138 4.66988C9.59891 4.97758 9.89274 5.20584 10.2373 5.31144C11.2835 5.77364 12.387 6.06385 13.3508 6.7661C14.4257 7.5615 14.6729 8.64354 14.4257 9.83664C14.3227 10.4378 14.0375 10.9928 13.6088 11.4266C13.1801 11.8604 12.6286 12.1521 12.0287 12.2623C10.6206 12.5632 9.23762 12.4844 8.13051 11.363C7.62075 10.8318 7.30624 10.1434 7.23837 9.41028C7.19538 9.05199 7.32436 8.85493 7.71131 8.87284C7.91036 8.89079 8.11061 8.89079 8.30965 8.87284C8.7611 8.81193 8.96174 8.97317 9.08356 9.43894C9.15702 9.83617 9.36548 10.1958 9.67366 10.457C9.98183 10.7181 10.3708 10.8648 10.7747 10.8721C11.1431 10.8918 11.5089 10.7997 11.8241 10.6079C12.1393 10.4161 12.3892 10.1335 12.5411 9.79723C12.7196 9.44739 12.7535 9.04141 12.6355 8.66679C12.5176 8.29216 12.2572 7.97886 11.9105 7.79439C11.1688 7.34653 10.3232 7.1423 9.52426 6.82343C7.31719 5.94203 6.93741 4.00727 7.85463 2.42363C8.49596 1.30935 9.5995 0.85791 10.8858 0.85791Z" fill="black"/>
<path d="M97.4203 22.3735C97.4203 20.7576 97.4203 19.1489 97.4203 17.5187C97.4203 17.0421 97.5099 16.8021 98.0724 16.777C98.6349 16.7519 98.789 17.0206 98.789 17.533C98.789 18.7082 98.789 19.8834 98.789 21.055C98.789 21.5351 98.9538 21.7393 99.4482 21.7321C100.799 21.7321 102.153 21.7321 103.508 21.7321C103.934 21.7321 104.102 21.5673 104.099 21.141C104.099 19.8977 104.099 18.658 104.099 17.4183C104.099 16.9132 104.296 16.777 104.776 16.7806C105.256 16.7842 105.46 16.9096 105.46 17.4148C105.46 20.6394 105.46 23.864 105.439 27.1172C105.439 27.5508 105.589 28.1455 104.758 28.1204C104.264 28.1204 104.092 27.9556 104.099 27.4719C104.099 26.2538 104.081 25.032 104.099 23.8138C104.099 23.1725 103.909 22.9145 103.214 22.9467C101.974 23.0041 100.731 22.979 99.4877 22.9467C98.9646 22.9467 98.7711 23.1402 98.7711 23.6633C98.7711 24.8851 98.7711 26.1033 98.7711 27.3215C98.7711 27.7371 98.7711 28.1133 98.1584 28.1204C97.5457 28.1276 97.4096 27.8338 97.4132 27.2964C97.4347 25.659 97.4132 24.018 97.4132 22.3771L97.4203 22.3735Z" fill="black"/>
<path d="M76.9116 35.1034C76.9725 36.146 76.2702 36.7874 75.4067 37.2531C74.8084 37.5828 74.898 37.8228 75.3207 38.2062C75.7438 38.5964 76.1468 39.0078 76.5282 39.4387C76.8363 39.7791 77.0549 39.7683 77.2663 39.3527C77.5887 38.7221 77.9219 38.1023 78.2551 37.4789C78.3192 37.3379 78.4024 37.2065 78.5024 37.0883C78.6258 36.9743 78.7836 36.9047 78.951 36.8905C79.1184 36.8762 79.2858 36.9181 79.4267 37.0095C79.7205 37.1671 79.4626 37.4395 79.3587 37.6401C78.9538 38.4247 78.5561 39.2166 78.1118 39.9833C77.8252 40.4777 77.8359 40.836 78.2981 41.2302C78.8392 41.6888 79.2978 42.2369 79.8065 42.7314C80.1003 43.018 80.2436 43.2832 79.8746 43.6199C79.5056 43.9567 79.2369 43.7955 78.9646 43.5017C78.6063 43.1112 78.248 42.7206 77.8897 42.3408C77.2376 41.7031 77.2376 41.7031 76.7109 42.4197C75.7077 43.8528 74.3319 44.3329 72.7124 43.8313C72.1279 43.6828 71.6017 43.3618 71.2023 42.9099C70.8029 42.4581 70.5488 41.8965 70.4731 41.2982C70.276 40.0478 70.7848 39.0553 71.7594 38.2886C72.0176 38.0904 72.2921 37.9142 72.5798 37.7619C72.9381 37.5613 72.956 37.375 72.6802 37.0632C72.1612 36.5728 71.8304 35.9162 71.745 35.2073C71.7129 34.864 71.752 34.5177 71.8597 34.1902C71.9675 33.8626 72.1416 33.5608 72.3713 33.3036C72.6009 33.0464 72.8812 32.8393 73.1945 32.6952C73.5078 32.5512 73.8474 32.4733 74.1921 32.4664C75.6217 32.4377 77.0011 33.4839 76.9116 35.1034ZM71.6662 40.922C71.6883 41.2197 71.7747 41.509 71.9194 41.77C72.0642 42.0311 72.2638 42.2576 72.5046 42.434C73.7156 43.3082 75.3243 42.8317 76.0875 41.395C76.1892 41.2646 76.2364 41.0999 76.219 40.9354C76.2017 40.771 76.1211 40.6197 75.9943 40.5136C75.3781 39.9081 74.7905 39.2739 74.2029 38.6433C74.1292 38.5458 74.0282 38.4726 73.9126 38.433C73.7971 38.3935 73.6723 38.3893 73.5544 38.4212C73.0286 38.6062 72.5691 38.9421 72.2332 39.3869C71.8974 39.8317 71.7001 40.3657 71.6662 40.922ZM75.8044 35.0174C75.8155 34.8228 75.788 34.628 75.7234 34.4441C75.6588 34.2603 75.5584 34.091 75.428 33.9462C75.2977 33.8013 75.1399 33.6836 74.9639 33.6C74.7878 33.5164 74.597 33.4685 74.4023 33.4591C74.2077 33.4496 74.0131 33.4788 73.8298 33.5449C73.6464 33.6111 73.478 33.7128 73.3342 33.8444C73.1905 33.9759 73.0741 34.1347 72.992 34.3114C72.9099 34.4881 72.8636 34.6794 72.8557 34.8741C72.8342 35.5728 73.6332 36.7694 74.1384 36.7945C74.8335 36.8268 75.8044 35.7949 75.8044 35.0174Z" fill="black"/>
<path d="M124.173 28.1888C123.414 28.2132 122.657 28.085 121.947 27.8118C121.238 27.5386 120.59 27.1259 120.043 26.5981C119.496 26.0703 119.06 25.4382 118.762 24.7391C118.463 24.0399 118.308 23.288 118.305 22.5278C118.305 19.1205 120.831 16.6304 124.242 16.6555C127.534 16.677 129.974 19.1921 130.003 22.4992C130.001 23.2577 129.848 24.0082 129.553 24.7069C129.257 25.4056 128.826 26.0383 128.283 26.5682C127.74 27.098 127.097 27.5142 126.391 27.7925C125.686 28.0707 124.932 28.2055 124.173 28.1888ZM128.699 22.3988C128.696 21.8003 128.576 21.2082 128.344 20.6563C128.113 20.1043 127.775 19.6034 127.35 19.182C126.925 18.7607 126.421 18.4271 125.867 18.2005C125.313 17.9738 124.72 17.8585 124.122 17.8611C123.523 17.8637 122.931 17.9841 122.379 18.2156C121.827 18.447 121.326 18.7849 120.905 19.2099C120.483 19.6349 120.15 20.1388 119.923 20.6927C119.697 21.2466 119.581 21.8398 119.584 22.4383C119.648 25.1362 121.497 27.0208 124.141 27.096C126.728 27.1569 128.691 25.0788 128.699 22.3988Z" fill="black"/>
<path d="M158.179 22.7138C159.114 22.7138 160.045 22.7389 160.977 22.7138C161.582 22.6924 161.676 22.9467 161.597 23.4806C161.185 26.3182 158.773 27.952 156.455 28.1813C153.528 28.468 151.342 27.1853 150.25 24.4551C149.96 23.7227 149.828 22.9378 149.86 22.151C149.893 21.3642 150.09 20.5929 150.438 19.8868C150.787 19.1807 151.28 18.5555 151.885 18.0513C152.49 17.5472 153.193 17.1753 153.951 16.9597C154.885 16.673 155.874 16.6121 156.836 16.7822C157.799 16.9522 158.707 17.3483 159.486 17.9379C159.955 18.3108 160.362 18.7544 160.694 19.2528C160.88 19.5036 160.859 19.7186 160.482 19.7401C159.995 19.7651 159.554 19.783 159.157 19.3423C158.478 18.5696 157.56 18.0472 156.549 17.8588C155.538 17.6704 154.493 17.8269 153.582 18.3033C152.689 18.7868 151.979 19.5486 151.559 20.4728C151.14 21.397 151.033 22.433 151.256 23.4233C151.683 25.4261 153.159 26.87 155.133 27.0921C156.063 27.2176 157.009 27.0618 157.849 26.6448C158.69 26.2278 159.386 25.5688 159.848 24.7525C160.293 23.9571 160.178 23.7529 159.271 23.7493C157.985 23.7493 156.695 23.7493 155.409 23.7493C155.076 23.7493 154.649 23.8568 154.664 23.2764C154.678 22.6959 155.047 22.721 155.452 22.7246C156.362 22.7138 157.272 22.7138 158.179 22.7138Z" fill="black"/>
<path d="M143.009 16.673C144.516 16.6904 145.957 17.2972 147.023 18.3636C148.088 19.4299 148.694 20.871 148.71 22.3784C148.727 23.8858 148.153 25.3397 147.11 26.4289C146.068 27.5181 144.641 28.1561 143.134 28.2063C141.628 28.2717 140.156 27.7466 139.031 26.7428C137.906 25.739 137.217 24.3359 137.112 22.832C136.936 19.5142 139.34 16.6228 143.009 16.673ZM138.43 22.4522C138.409 23.0578 138.51 23.6615 138.728 24.227C138.946 24.7925 139.275 25.3082 139.697 25.7431C140.119 26.1781 140.625 26.5234 141.183 26.7582C141.742 26.9931 142.342 27.1128 142.948 27.11C144.169 27.0959 145.335 26.6034 146.196 25.7384C147.057 24.8733 147.544 23.7049 147.552 22.4844C147.552 19.9478 145.481 17.7765 143.03 17.7694C142.416 17.7578 141.806 17.8716 141.237 18.1038C140.668 18.3361 140.153 18.682 139.722 19.1203C139.291 19.5587 138.955 20.0802 138.733 20.6531C138.511 21.226 138.408 21.8382 138.43 22.4522Z" fill="black"/>
<path d="M162.984 54.0034C162.984 52.3409 162.984 50.6784 162.984 49.016C162.984 48.5394 163.087 48.3424 163.611 48.3639C164.918 48.4212 166.23 48.3926 167.552 48.457C168.244 48.4841 168.909 48.7389 169.442 49.182C169.975 49.625 170.347 50.2317 170.5 50.9077C170.913 52.6813 170.379 54.2255 169.103 54.9887C168.77 55.1744 168.406 55.296 168.028 55.3469C167.505 55.4365 167.605 55.5942 167.838 55.9274C168.555 56.9413 169.225 57.9768 169.899 59.0158C169.999 59.1699 170.221 59.3383 170.103 59.5282C169.985 59.7181 169.744 59.5927 169.54 59.6213C169.337 59.6647 169.124 59.6381 168.938 59.5458C168.751 59.4534 168.601 59.3008 168.512 59.1126C167.709 57.812 166.857 56.5472 166.033 55.261C165.943 55.1212 165.753 54.9779 165.85 54.7952C165.947 54.6125 166.208 54.6626 166.394 54.6662C167.38 54.6662 168.315 54.5551 168.92 53.6487C169.859 52.2549 169.461 49.6107 166.771 49.5104C166.151 49.4889 165.527 49.5319 164.908 49.4853C164.395 49.4495 164.266 49.6466 164.273 50.1302C164.291 52.7888 164.273 55.4509 164.273 58.1094C164.273 58.3745 164.273 58.6396 164.273 58.9083C164.273 59.5748 163.851 59.8435 163.199 59.6249C162.89 59.5138 162.998 59.2666 162.994 59.0624C162.98 57.3713 162.984 55.6766 162.984 54.0034Z" fill="black"/>
<path d="M93.6184 38.1955C93.5432 34.8706 96.2125 32.4629 99.3869 32.4629C100.919 32.479 102.381 33.103 103.453 34.1976C104.525 35.2922 105.118 36.7676 105.102 38.2994C105.085 39.8312 104.461 41.2938 103.367 42.3656C102.272 43.4373 100.797 44.0303 99.2651 44.0141C96.105 43.9461 93.45 41.3879 93.6184 38.1955ZM99.4514 33.5951C96.861 33.57 94.9441 35.5299 94.8904 38.1884C94.8602 38.7952 94.954 39.4018 95.166 39.9712C95.3781 40.5406 95.704 41.0607 96.1237 41.5C96.5435 41.9392 97.0484 42.2883 97.6076 42.5259C98.1668 42.7635 98.7686 42.8847 99.3761 42.882C102.013 42.882 103.851 41.0654 103.966 38.4356C104.07 35.6803 102.106 33.6237 99.4514 33.5951Z" fill="black"/>
<path d="M108.85 19.0267V20.8181C108.85 22.9678 108.85 25.1176 108.85 27.2673C108.85 27.7188 108.825 28.0162 108.223 28.0126C107.621 28.009 107.581 27.7653 107.585 27.296C107.585 24.1287 107.585 20.9614 107.585 17.7941C107.585 17.4932 107.402 17.0417 107.828 16.9307C108.316 16.8017 108.835 16.7909 109.197 17.314C110.036 18.5358 110.899 19.7397 111.752 20.9543C112.798 22.434 113.837 23.9209 114.89 25.397C114.983 25.5296 115.03 25.7876 115.249 25.7338C115.467 25.6801 115.424 25.4042 115.424 25.2215C115.424 22.6967 115.424 20.1708 115.424 17.6437C115.424 17.246 115.424 16.8769 115.99 16.8841C116.402 16.8841 116.603 17.0346 116.603 17.4645C116.603 20.7895 116.603 24.1132 116.603 27.4357C116.603 27.6507 116.635 27.9409 116.345 27.9732C115.922 28.0161 115.467 28.138 115.141 27.6686C114.364 26.54 113.558 25.4293 112.762 24.3114L109.014 19.0088L108.85 19.0267Z" fill="black"/>
<path d="M141.895 3.21938V9.52528C141.895 10.2132 141.895 10.8975 141.895 11.5854C141.895 12.0154 141.758 12.2662 141.285 12.2447C140.813 12.2232 140.626 12.0655 140.626 11.5568C140.648 8.33217 140.626 5.13265 140.626 1.91879C140.626 1.64649 140.458 1.20222 140.888 1.14847C141.318 1.09473 141.819 0.912003 142.199 1.46377C143.804 3.79623 145.445 6.12152 147.09 8.41099C147.491 8.97709 147.806 9.61843 148.469 10.138C148.469 8.51132 148.469 6.99217 148.469 5.48019C148.469 4.26201 148.469 3.04383 148.469 1.82564C148.469 1.40645 148.469 1.10907 149.05 1.10907C149.63 1.10907 149.648 1.3742 149.648 1.82564C149.648 5.05025 149.648 8.25335 149.648 11.4636C149.648 11.7503 149.781 12.1551 149.354 12.2447C149.166 12.318 148.958 12.3272 148.764 12.2709C148.57 12.2145 148.399 12.0958 148.279 11.933C147.473 10.7721 146.646 9.62201 145.821 8.46832C144.567 6.71031 143.31 4.95231 142.049 3.1943L141.895 3.21938Z" fill="black"/>
<path d="M135.639 54.0571C135.639 52.3767 135.639 50.6927 135.639 49.0088C135.639 48.5573 135.76 48.3782 136.237 48.3889C136.714 48.3997 136.954 48.457 136.932 49.0016C136.9 50.1302 136.932 51.2588 136.932 52.3875C136.932 53.5913 136.932 53.3512 137.874 53.3656C139.096 53.3656 140.314 53.3369 141.536 53.3656C142.131 53.3871 142.364 53.2402 142.335 52.5988C142.289 51.4057 142.335 50.2091 142.314 49.0159C142.314 48.5072 142.493 48.371 142.973 48.3782C143.453 48.3854 143.636 48.5251 143.632 49.0303C143.611 52.3289 143.611 55.6288 143.632 58.9298C143.632 59.4565 143.46 59.6142 142.948 59.6213C142.435 59.6285 142.303 59.4422 142.314 58.9585C142.342 57.6973 142.314 56.4325 142.335 55.1714C142.335 54.6733 142.217 54.4548 141.669 54.4548C140.296 54.487 138.921 54.4834 137.545 54.4548C137.079 54.4548 136.921 54.6017 136.929 55.0675C136.954 56.3286 136.929 57.5755 136.929 58.851C136.929 59.3562 136.864 59.6106 136.266 59.6177C135.667 59.6249 135.635 59.3454 135.642 58.9012C135.639 57.2924 135.639 55.6766 135.639 54.0571Z" fill="black"/>
<path d="M86.5533 12.2982C86.1449 12.3842 85.9156 12.1334 85.7615 11.7393C85.4856 11.0407 85.1846 10.3492 84.9016 9.65407C84.8551 9.48446 84.7501 9.33676 84.6052 9.2371C84.4603 9.13743 84.2848 9.09222 84.1098 9.10947C82.7769 9.13455 81.4477 9.12739 80.1184 9.10947C79.9427 9.08257 79.7633 9.12194 79.615 9.21993C79.4666 9.31793 79.36 9.46756 79.3159 9.63975C79.0436 10.3814 78.7211 11.1051 78.3951 11.8253C78.2698 12.0251 78.0797 12.1757 77.8567 12.252C77.6336 12.3284 77.3911 12.3257 77.1697 12.2445C76.7648 12.0367 77.0156 11.7214 77.1088 11.4957C77.5602 10.3707 78.0547 9.25996 78.542 8.13851C79.4186 6.03894 80.2928 3.93817 81.1646 1.8362C81.3581 1.36326 81.5229 1.00855 82.1858 1.02288C82.8486 1.03721 82.9525 1.38118 83.1352 1.8362C84.4609 5.0417 85.7925 8.24361 87.1302 11.4419C87.3917 12.1621 87.3021 12.3018 86.5533 12.2982ZM82.1858 2.73909C82.0962 2.8 82.0389 2.81791 82.0245 2.85016C81.3832 4.41588 80.7383 5.98161 80.1113 7.5545C80.0181 7.78739 80.0862 7.99519 80.4087 7.99878C81.5373 7.99878 82.6659 8.03461 83.7945 8.03819C84.0704 8.03819 84.271 7.93786 84.1277 7.58316C83.4613 5.97444 82.8199 4.36214 82.1714 2.73909H82.1858Z" fill="black"/>
<path d="M79.7456 53.9785C79.7456 52.3411 79.7671 50.7001 79.7456 49.0628C79.7456 48.5361 79.8961 48.3784 80.4228 48.3892C82.1282 48.4178 83.8372 48.3892 85.5427 48.3892C85.9404 48.3892 86.03 48.5432 86.0228 48.9051C86.0156 49.267 86.0228 49.4963 85.5427 49.4891C84.2349 49.4641 82.9272 49.4891 81.6194 49.4712C81.1823 49.4712 81.0283 49.6074 81.039 50.0409C81.0641 50.9689 81.0677 51.9004 81.039 52.8284C81.039 53.2798 81.211 53.3909 81.6266 53.3837C82.8914 53.3658 84.1561 53.3837 85.4173 53.3837C85.8114 53.3837 86.03 53.4303 86.0192 53.9176C86.0085 54.4049 85.8544 54.5267 85.3994 54.5159C84.1776 54.4909 82.9594 54.5159 81.7377 54.5159C81.2361 54.5159 81.0211 54.6413 81.0211 55.1859C81.0569 56.0709 81.0569 56.9595 81.0211 57.8409C81.0032 58.3496 81.2038 58.4894 81.6803 58.4822C82.92 58.4607 84.1633 58.4822 85.4066 58.4643C85.8867 58.4643 85.9977 58.647 86.0121 59.0877C86.03 59.5857 85.8222 59.6681 85.3815 59.6645C83.719 59.6395 82.0566 59.6287 80.3941 59.6645C79.8423 59.6645 79.7241 59.4818 79.7313 58.9802C79.7563 57.3213 79.7313 55.6625 79.7313 54L79.7456 53.9785Z" fill="black"/>
<path d="M90.5339 48.1919C92.053 48.1919 93.0598 48.8655 93.5937 50.2521C93.7119 50.553 93.909 50.9686 93.4826 51.0869C93.1458 51.1693 92.6406 51.3735 92.4077 50.7286C91.9348 49.4782 91.057 49.0518 89.9176 49.3886C89.5487 49.4707 89.2152 49.6675 88.9649 49.9506C88.7146 50.2338 88.5602 50.5889 88.5239 50.9651C88.4664 51.3654 88.5516 51.7732 88.7644 52.1171C88.9773 52.461 89.3043 52.719 89.6883 52.8461C90.3583 53.1291 91.0462 53.3728 91.7306 53.6271C93.7692 54.3831 94.493 55.888 93.7477 57.812C93.0562 59.6034 90.8026 60.3415 88.9717 59.5318C88.5105 59.3408 88.1011 59.0431 87.7772 58.6631C87.4533 58.2832 87.2242 57.8319 87.1086 57.3462C87.0298 57.0452 86.7503 56.5866 87.2985 56.472C87.7105 56.3788 88.1835 56.2785 88.3734 56.9592C88.7818 58.3028 89.5987 58.8188 90.8277 58.6683C91.2586 58.6186 91.6644 58.4398 91.9918 58.1552C92.3192 57.8707 92.5529 57.4937 92.6621 57.0739C92.7863 56.6295 92.7402 56.1547 92.5328 55.7425C92.3254 55.3303 91.9716 55.0104 91.5407 54.8453C90.937 54.5732 90.3129 54.3492 89.674 54.1753C87.5923 53.5698 86.6787 51.8715 87.449 49.9977C87.8933 48.9156 89.133 48.1955 90.5339 48.1919Z" fill="black"/>
<path d="M192.32 52.724C192.32 53.8777 192.32 55.0313 192.32 56.1815C192.295 57.8762 191.245 59.2914 189.762 59.6533C187.777 60.137 186.136 59.5028 185.269 57.8833C185.002 57.3979 184.86 56.8536 184.857 56.2997C184.857 53.8633 184.878 51.4234 184.828 48.987C184.828 48.2704 185.254 48.4352 185.638 48.3851C186.179 48.3134 186.122 48.6789 186.122 49.0193C186.122 51.3446 186.122 53.677 186.143 55.9987C186.143 56.9625 186.444 57.8475 187.376 58.3384C189.131 59.2699 191.023 58.1305 191.052 56.099C191.084 53.7737 191.052 51.4413 191.052 49.1196C191.052 48.403 191.41 48.1594 192.091 48.3851C192.395 48.4818 192.316 48.7434 192.32 48.9368C192.32 50.2016 192.32 51.4628 192.32 52.724Z" fill="black"/>
<path d="M194.481 54.0214C194.481 52.3159 194.481 50.6104 194.481 48.905C194.481 48.475 194.656 48.364 195.033 48.3747C196.297 48.4034 197.562 48.3747 198.823 48.4571C201.081 48.5861 202.005 50.8899 201.639 52.3983C201.163 54.3725 200.206 55.1213 198.16 55.1643C197.562 55.1643 196.96 55.2037 196.369 55.1643C195.921 55.1392 195.785 55.2969 195.792 55.7268C195.814 56.8339 195.767 57.941 195.792 59.0482C195.817 59.6358 195.495 59.6071 195.094 59.6214C194.692 59.6358 194.449 59.5713 194.459 59.0553C194.492 57.3714 194.459 55.6874 194.459 54.007L194.481 54.0214ZM195.789 51.7713V53.6308C195.789 53.8924 195.821 54.1109 196.179 54.1073C197.064 54.1518 197.952 54.0916 198.823 53.9282C199.973 53.6344 200.411 52.9787 200.436 51.8036C200.457 50.7287 199.981 49.9763 198.916 49.6753C197.996 49.4138 197.071 49.5141 196.143 49.4818C195.824 49.4818 195.785 49.6717 195.785 49.9154L195.789 51.7713Z" fill="black"/>
<path d="M119.057 55.4617C119.824 56.6082 120.548 57.6652 121.239 58.7436C121.393 58.9873 121.791 59.2273 121.522 59.5713C121.34 59.8042 120.412 59.5713 120.222 59.2739C119.577 58.2922 118.943 57.3069 118.305 56.3216C118.054 55.9346 117.793 55.5513 117.545 55.1571C117.341 54.8347 117.345 54.6591 117.821 54.6627C118.396 54.7175 118.976 54.6453 119.52 54.4513C119.993 54.2304 120.385 53.8672 120.642 53.4124C120.899 52.9577 121.008 52.434 120.953 51.9146C120.93 51.4038 120.749 50.9126 120.435 50.5089C120.122 50.1052 119.69 49.8089 119.201 49.661C118.197 49.3744 117.173 49.5177 116.159 49.489C115.686 49.489 115.8 49.8724 115.8 50.1268C115.8 52.9178 115.8 55.7089 115.8 58.5C115.79 58.6766 115.79 58.8537 115.8 59.0303C115.876 59.582 115.568 59.6179 115.123 59.6286C114.679 59.6394 114.521 59.4745 114.525 59.0195C114.539 55.6755 114.539 52.3314 114.525 48.9874C114.525 48.5861 114.6 48.3747 115.073 48.3927C116.334 48.4321 117.603 48.3926 118.864 48.4536C120.329 48.5145 121.418 49.2167 121.916 50.6033C122.186 51.2535 122.261 51.9678 122.134 52.66C122.007 53.3522 121.683 53.993 121.2 54.5051C120.684 55.1177 119.899 55.2539 119.057 55.4617Z" fill="black"/>
<path d="M70.6055 54.057C70.6055 52.416 70.6055 50.7786 70.6055 49.1377C70.6055 48.6038 70.7345 48.3673 71.322 48.3924C72.5832 48.4462 73.848 48.3924 75.1163 48.4641C77.7462 48.6361 78.581 51.1548 78.2155 52.7635C77.9002 54.1465 77.1407 55.0781 75.686 55.3253C75.1665 55.4149 75.2131 55.5618 75.4746 55.9344C76.1375 56.8731 76.7465 57.8477 77.3771 58.8007C77.524 59.03 77.7999 59.2343 77.6602 59.5424C77.5849 59.7144 76.5853 59.589 76.4133 59.3955C76.2841 59.2181 76.1645 59.0339 76.055 58.8437C75.3385 57.7294 74.604 56.6187 73.9053 55.5009C73.7727 55.2895 73.4789 55.0853 73.6473 54.8022C73.8157 54.5192 74.0916 54.6517 74.3245 54.6517C75.2238 54.6517 76.0443 54.5048 76.5996 53.6879C77.6351 52.158 77.0439 49.6321 74.5932 49.4924C73.9268 49.453 73.2604 49.4924 72.594 49.4565C72.0709 49.4279 71.9061 49.6106 71.9132 50.1409C71.9347 53.0645 71.9132 55.9917 71.9311 58.919C71.9311 59.4134 71.8344 59.6355 71.2755 59.6355C70.7774 59.6355 70.6341 59.4743 70.6413 58.9835C70.6234 57.3389 70.6055 55.6979 70.6055 54.057Z" fill="black"/>
<path d="M112.626 59.6178C112.196 59.7325 112.01 59.4423 111.859 59.0517C111.59 58.3351 111.293 57.6651 111.017 56.97C110.963 56.7905 110.847 56.6362 110.689 56.535C110.532 56.4338 110.343 56.3924 110.157 56.4183C108.872 56.4493 107.586 56.4493 106.299 56.4183C105.79 56.4183 105.489 56.5258 105.317 57.0632C105.057 57.7943 104.761 58.5118 104.428 59.2129C104.274 59.5712 103.443 59.8185 103.135 59.5712C102.88 59.3742 103.11 59.1198 103.185 58.9335C103.816 57.3821 104.475 55.8414 105.123 54.2972C105.84 52.5882 106.557 50.8863 107.273 49.1701C107.474 48.6864 107.66 48.3604 108.305 48.3819C108.95 48.4034 108.996 48.7652 109.168 49.1844C110.501 52.4305 111.845 55.6718 113.199 58.9084C113.479 59.6178 113.461 59.6178 112.626 59.6178ZM108.255 50.0264C108.165 50.0909 108.112 50.1088 108.097 50.1411C107.434 51.7713 106.768 53.4015 106.116 55.0389C105.98 55.3757 106.238 55.3972 106.474 55.3972C107.628 55.3972 108.782 55.3972 109.935 55.3972C110.261 55.3972 110.39 55.304 110.254 54.9636C109.588 53.337 108.932 51.6996 108.255 50.0228V50.0264Z" fill="black"/>
<path d="M128.864 58.6466C129.547 58.6795 130.228 58.5449 130.847 58.2545C131.467 57.9641 132.006 57.5268 132.418 56.9806C132.837 56.4539 133.324 56.5972 133.797 56.6402C134.113 56.6725 133.93 56.934 133.833 57.0988C133.473 57.712 132.994 58.2475 132.425 58.6743C131.856 59.1011 131.208 59.4108 130.519 59.5854C129.09 60.0122 127.551 59.8712 126.224 59.1917C124.896 58.5123 123.882 57.3467 123.393 55.938C122.078 52.4948 124.543 48.5429 128.222 48.2204C130.422 48.0269 132.228 48.765 133.543 50.5672C133.715 50.8001 134.174 51.1512 133.826 51.3698C133.631 51.502 133.395 51.5572 133.162 51.5248C132.929 51.4923 132.716 51.3745 132.565 51.1942C132.077 50.5596 131.444 50.051 130.72 49.7109C130.132 49.4514 129.495 49.3195 128.853 49.3238C128.21 49.3282 127.576 49.4687 126.991 49.7362C126.407 50.0037 125.886 50.392 125.463 50.8755C125.039 51.359 124.723 51.9268 124.536 52.5414C123.79 55.225 125.034 57.5969 127.649 58.5069C128.047 58.6028 128.455 58.6498 128.864 58.6466Z" fill="black"/>
<path d="M132.69 6.66608C132.69 5.05019 132.708 3.44148 132.69 1.81485C132.69 1.25592 132.826 1.03019 133.435 1.0481C135.051 1.08751 136.66 1.06602 138.29 1.0481C138.688 1.0481 138.964 1.07676 138.967 1.60345C138.971 2.13013 138.698 2.15522 138.301 2.14805C137.079 2.14805 135.861 2.14805 134.639 2.14805C134.202 2.14805 133.991 2.25196 134.008 2.73923C134.037 3.6457 134.026 4.55576 134.008 5.46223C134.008 5.85993 134.145 6.01041 134.553 6.00324C135.723 5.98891 136.895 5.98891 138.068 6.00324C138.462 6.00324 138.96 5.91367 138.949 6.59084C138.949 6.97779 138.827 7.14977 138.412 7.14261C137.147 7.12469 135.882 7.14261 134.618 7.14261C134.155 7.14261 133.991 7.29309 134.001 7.75528C134.03 8.66175 134.03 9.57181 134.001 10.4783C134.001 10.919 134.166 11.0587 134.589 11.0551C135.829 11.0551 137.072 11.0551 138.315 11.0551C138.752 11.0551 138.964 11.159 138.96 11.6427C138.956 12.1264 138.806 12.2661 138.337 12.259C136.696 12.2423 135.055 12.2423 133.414 12.259C132.869 12.259 132.697 12.0655 132.697 11.5209C132.726 9.90502 132.697 8.2963 132.697 6.66966L132.69 6.66608Z" fill="black"/>
<path d="M107.617 38.2173C107.617 40.84 109.537 42.8751 112.139 42.893C112.808 42.9041 113.47 42.7608 114.075 42.4744C114.679 42.1879 115.21 41.7659 115.625 41.2413C115.736 41.1051 115.833 40.9116 115.983 40.8615C116.366 40.7289 116.882 40.6357 117.13 40.8615C117.377 41.0872 117.004 41.4777 116.789 41.75C113.923 45.3329 108.219 44.516 106.675 40.1628C106.372 39.345 106.261 38.4687 106.35 37.6012C106.438 36.7337 106.725 35.8981 107.187 35.1586C107.649 34.4192 108.275 33.7956 109.016 33.3358C109.757 32.8759 110.594 32.5921 111.461 32.5062C113.787 32.2983 115.614 33.1152 116.954 35.0142C117.076 35.1862 117.291 35.3725 117.183 35.6018C117.076 35.8311 116.746 35.7487 116.524 35.7415C116.358 35.7382 116.195 35.6971 116.047 35.6214C115.899 35.5457 115.771 35.4373 115.671 35.3044C115.167 34.6186 114.471 34.0979 113.67 33.8083C112.87 33.5187 112.001 33.4733 111.175 33.6778C109.319 34.0683 108.205 35.3402 107.703 37.1424C107.639 37.497 107.61 37.857 107.617 38.2173Z" fill="black"/>
<path d="M116.771 6.59071C116.737 5.39446 117.09 4.21912 117.778 3.24016C118.467 2.26121 119.453 1.53117 120.591 1.15904C123.077 0.342139 125.804 1.20204 127.169 3.20129C127.334 3.43776 127.717 3.68856 127.434 4.06118C127.28 4.26541 126.359 4.11493 126.155 3.86413C125.824 3.42011 125.422 3.03391 124.965 2.72119C124.313 2.29905 123.563 2.05287 122.788 2.0066C122.012 1.96032 121.238 2.11553 120.541 2.45712C119.843 2.7987 119.246 3.31504 118.807 3.95589C118.368 4.59674 118.102 5.34029 118.036 6.11419C117.753 9.03783 120.025 11.5208 122.952 11.27C124.022 11.1799 125.021 10.6946 125.754 9.90847C125.911 9.74724 126.044 9.56809 126.212 9.42478C126.372 9.28516 126.573 9.20071 126.784 9.18393C126.996 9.16715 127.208 9.21894 127.387 9.33162C127.771 9.59675 127.323 9.9443 127.155 10.1557C125.85 11.811 124.116 12.5096 122.02 12.3663C118.9 12.1549 116.571 9.43552 116.771 6.59071Z" fill="black"/>
<path d="M95.6751 54.0574C95.6751 52.377 95.6751 50.693 95.6751 49.0091C95.6751 48.5504 95.8112 48.3856 96.2806 48.3928C97.9896 48.4143 99.6987 48.4107 101.404 48.3928C101.827 48.3928 101.924 48.5648 101.934 48.9481C101.945 49.3315 101.813 49.4963 101.404 49.4892C100.118 49.4713 98.8316 49.4892 97.5454 49.4712C97.0652 49.4712 96.9363 49.6289 96.947 50.0803C96.9757 51.0119 96.9721 51.9434 96.947 52.8714C96.947 53.2763 97.0724 53.4124 97.4809 53.4053C98.7671 53.3838 100.053 53.4053 101.34 53.4053C101.762 53.4053 101.934 53.5092 101.924 53.9606C101.913 54.4121 101.741 54.5303 101.318 54.5231C100.078 54.5016 98.8352 54.5231 97.5919 54.5052C97.0975 54.5052 96.9291 54.67 96.9434 55.1609C96.9745 56.0471 96.9745 56.932 96.9434 57.8158C96.9255 58.3282 97.0796 58.5324 97.617 58.5073C98.8352 58.4751 100.057 58.5073 101.279 58.5073C101.694 58.5073 101.934 58.5718 101.938 59.0806C101.942 59.5893 101.705 59.6467 101.289 59.6431C99.6485 59.6431 98.0076 59.6108 96.3666 59.6431C95.7897 59.6431 95.65 59.4532 95.6715 58.9265C95.7038 57.3106 95.6715 55.7019 95.6715 54.0753L95.6751 54.0574Z" fill="black"/>
<path d="M157.222 0.858131C158.116 0.84743 158.999 1.05413 159.796 1.46044C160.592 1.86675 161.278 2.46051 161.794 3.1906C161.976 3.43782 162.302 3.68862 162.105 4.05408C161.991 4.26905 161.066 4.11498 160.83 3.84626C160.3 3.19037 159.627 2.66456 158.863 2.3092C156.376 1.28091 153.517 2.80364 152.801 5.39408C152.22 7.49365 153.428 10.0518 155.266 10.858C156.154 11.2696 157.152 11.3828 158.111 11.1807C159.069 10.9786 159.936 10.472 160.583 9.73654C160.671 9.61012 160.776 9.49571 160.894 9.39616C161.063 9.26861 161.267 9.19607 161.479 9.18838C161.69 9.18069 161.899 9.23822 162.077 9.35317C162.356 9.58964 161.984 9.93718 161.787 10.1844C160.282 12.0762 158.29 12.6924 155.982 12.2661C154.979 12.1032 154.043 11.6593 153.282 10.9858C152.521 10.3123 151.966 9.43687 151.683 8.46103C151.386 7.58791 151.304 6.65634 151.443 5.74481C151.582 4.83328 151.938 3.96847 152.481 3.22323C153.024 2.47798 153.738 1.87413 154.563 1.46254C155.388 1.05094 156.3 0.843653 157.222 0.858131Z" fill="black"/>
<path d="M90.6627 16.6945C91.6045 16.6543 92.5409 16.855 93.3835 17.2776C94.2261 17.7001 94.9471 18.3306 95.4781 19.1094C95.6394 19.3279 95.9582 19.6468 95.7039 19.851C95.5437 19.9565 95.3554 20.0113 95.1637 20.0081C94.9719 20.0049 94.7855 19.9439 94.629 19.8331C94.473 19.7105 94.3333 19.5684 94.2134 19.4103C92.8089 17.8518 90.9458 17.3645 89.1113 18.0811C88.2885 18.4183 87.5804 18.9857 87.072 19.7152C86.5636 20.4448 86.2765 21.3055 86.245 22.1942C86.2235 24.3798 87.2375 25.9849 89.1113 26.7552C90.9028 27.4897 92.7659 27.0347 94.1847 25.5227C94.2871 25.3789 94.4075 25.2489 94.543 25.1358C94.7026 25.012 94.8977 24.9427 95.0996 24.9382C95.3015 24.9337 95.4995 24.9942 95.6644 25.1107C95.9439 25.3472 95.5928 25.6231 95.4495 25.8488C94.0163 28.1311 90.4943 28.8835 87.9254 27.4647C86.9095 26.9066 86.0854 26.0553 85.5607 25.0218C85.0359 23.9883 84.8349 22.8206 84.9838 21.6711C85.1479 20.4868 85.6716 19.3814 86.4841 18.5042C87.2965 17.627 88.3586 17.0204 89.5269 16.7661C89.903 16.7117 90.2828 16.6877 90.6627 16.6945Z" fill="black"/>
<path d="M77.5493 22.373C77.5493 20.775 77.5493 19.1806 77.5493 17.5862C77.5493 17.0381 77.7213 16.8338 78.2659 16.841C79.9069 16.8661 81.5514 16.8625 83.1924 16.841C83.6116 16.841 83.7979 16.9736 83.7979 17.4143C83.7979 17.855 83.6187 17.9875 83.1995 17.9804C81.9993 17.9625 80.799 18.009 79.6166 17.9589C79.0183 17.9338 78.832 18.1523 78.8427 18.7077C78.8427 19.5031 78.8427 20.3021 78.8427 21.1011C78.8212 21.6098 79.004 21.8176 79.5342 21.8176C80.7309 21.789 81.9312 21.8176 83.1171 21.8176C83.5578 21.8176 83.8158 21.8786 83.8337 22.4267C83.8516 22.9749 83.5184 22.9606 83.1458 22.9606C81.9706 22.9606 80.7918 22.9785 79.6166 22.9606C79.0864 22.9606 78.8356 23.1182 78.8463 23.6772C78.8463 24.5621 78.8463 25.4507 78.8463 26.3357C78.8463 26.737 79.004 26.9233 79.4483 26.9125C80.713 26.891 81.9778 26.9125 83.2425 26.9125C83.6008 26.9125 83.8301 26.977 83.823 27.4177C83.8158 27.8584 83.7155 28.0304 83.2604 28.0268C81.5729 28.0268 79.8854 28.0268 78.1978 28.0268C77.6998 28.0268 77.5565 27.8082 77.5637 27.3353C77.5637 25.6943 77.5637 24.057 77.5637 22.416L77.5493 22.373Z" fill="black"/>
<path d="M163.851 6.63739C163.851 5.02151 163.869 3.41278 163.851 1.78615C163.851 1.22722 164.058 1.04807 164.592 1.06957C166.19 1.06957 167.788 1.06957 169.386 1.06957C169.791 1.06957 170.056 1.13765 170.056 1.65C170.056 2.16235 169.723 2.16952 169.34 2.16594C168.139 2.16594 166.943 2.18385 165.757 2.16594C165.305 2.16594 165.108 2.28776 165.123 2.76428C165.144 3.64926 165.144 4.55573 165.123 5.42279C165.105 5.93514 165.337 6.07487 165.803 6.07129C167 6.07129 168.197 6.07129 169.386 6.07129C169.805 6.07129 170.049 6.15011 170.038 6.6553C170.028 7.16049 169.777 7.14975 169.393 7.14258C168.218 7.1175 167.043 7.14258 165.868 7.12466C165.363 7.12466 165.087 7.25364 165.115 7.84124C165.158 8.72263 165.148 9.61119 165.115 10.4962C165.097 10.9512 165.287 11.073 165.696 11.0694C166.918 11.0694 168.136 11.0694 169.357 11.0694C169.813 11.0694 170.074 11.1733 170.074 11.6964C170.074 12.2195 169.805 12.2697 169.39 12.2661C167.792 12.2661 166.194 12.2661 164.596 12.2661C164.019 12.2661 163.879 12.0082 163.879 11.4994C163.858 9.87275 163.851 8.25328 163.851 6.63739Z" fill="black"/>
<path d="M17.6111 7.41134C17.6111 6.03909 17.586 4.66326 17.6111 3.29101C17.6111 2.74999 17.4391 2.57443 16.9268 2.62459C16.4144 2.67475 15.9486 2.62459 15.4614 2.62459C14.9741 2.62459 14.9204 2.38095 14.9884 2.02983C15.0565 1.6787 14.7018 1.07678 15.4291 1.06961C17.4714 1.04812 19.51 1.06961 21.5523 1.06961C21.8389 1.06961 21.9106 1.22368 21.9464 1.48523C22.0682 2.5601 22.0109 2.63892 20.9074 2.63892C19.4097 2.63892 19.4097 2.63892 19.4097 4.11507C19.4097 6.57294 19.4097 9.032 19.4097 11.4922C19.4097 12.2411 19.4097 12.2088 18.3349 12.2518C17.7222 12.2769 17.586 12.0297 17.6183 11.4708C17.6326 10.1128 17.6111 8.76209 17.6111 7.41134Z" fill="black"/>
<path d="M89.1185 44.0212C87.4596 44.0212 86.073 43.0037 85.7362 41.5777C85.6646 41.2731 85.4066 40.8324 85.9691 40.7142C86.4134 40.621 86.8433 40.639 86.9902 41.2516C87.0667 41.6457 87.2595 42.0078 87.5437 42.2913C87.8278 42.5748 88.1904 42.7668 88.5846 42.8424C89.0933 42.9591 89.6267 42.8962 90.0943 42.6644C90.5619 42.4325 90.9349 42.046 91.15 41.5705C91.5656 40.5673 91.15 39.582 90.1038 39.0267C89.4812 38.74 88.8351 38.5074 88.1726 38.3316C86.5065 37.8049 85.6072 36.4685 85.8401 35.0317C86.116 33.3478 87.9146 32.3123 89.5018 32.4986C90.8096 32.6563 91.6874 33.2761 92.1532 34.4764C92.2571 34.7523 92.4613 35.193 91.9919 35.3184C91.6014 35.4223 91.1356 35.5083 90.9171 34.8741C90.5874 33.8601 89.9891 33.5054 88.9501 33.5627C88.5118 33.5496 88.0836 33.6955 87.7445 33.9734C87.4054 34.2513 87.1782 34.6425 87.1049 35.0747C87.029 35.3879 87.0486 35.7166 87.1609 36.0185C87.2733 36.3205 87.4734 36.582 87.7355 36.7694C88.2994 37.1205 88.908 37.394 89.5448 37.5827C90.6197 37.9804 91.734 38.3316 92.2857 39.5032C93.0238 41.0761 92.1245 43.2401 90.4692 43.7561C90.0441 43.9432 89.5828 44.0338 89.1185 44.0212Z" fill="black"/>
<path d="M112.013 0.85791C113.615 0.922402 114.65 1.44192 115.202 2.69235C115.342 3.01123 115.632 3.51283 115.101 3.71348C114.998 3.76459 114.884 3.79134 114.769 3.79169C114.653 3.79203 114.54 3.76596 114.436 3.71547C114.332 3.66497 114.241 3.5914 114.17 3.50038C114.099 3.40937 114.05 3.30332 114.027 3.19038C113.607 2.00802 112.533 1.63899 111.304 2.16209C110.869 2.3667 110.53 2.73145 110.357 3.18013C110.185 3.62882 110.193 4.12671 110.379 4.56978C110.705 5.31502 111.433 5.5515 112.117 5.79514C112.787 6.01379 113.441 6.2759 114.077 6.57979C115.245 7.1853 115.868 8.23867 115.696 9.44611C115.513 10.8614 114.525 12.0294 113.281 12.3124C111.214 12.7531 109.491 11.9076 108.903 10.1627C108.631 9.35653 108.903 8.9875 109.62 9.08782C109.942 9.13081 110.046 9.30996 110.107 9.60734C110.166 9.99367 110.336 10.3544 110.597 10.6453C110.858 10.9362 111.198 11.1445 111.576 11.2447C111.959 11.3714 112.37 11.3889 112.762 11.2952C113.154 11.2016 113.513 11.0005 113.797 10.7145C114.044 10.4908 114.23 10.2079 114.337 9.8925C114.444 9.5771 114.469 9.23958 114.41 8.91183C114.35 8.58408 114.208 8.27691 113.997 8.01932C113.786 7.76174 113.512 7.56225 113.203 7.43968C112.658 7.20321 112.081 7.03123 111.519 6.83417C110.802 6.57262 110.053 6.28958 109.559 5.65182C109.294 5.3102 109.11 4.91309 109.02 4.4902C108.93 4.06732 108.937 3.62962 109.041 3.20987C109.144 2.79012 109.341 2.39919 109.617 2.06635C109.893 1.73351 110.24 1.46737 110.634 1.28786C111.053 1.03749 111.526 0.890142 112.013 0.85791Z" fill="black"/>
<path d="M122.361 38.2098C122.361 36.6154 122.379 35.021 122.361 33.423C122.361 32.8677 122.497 32.6241 123.106 32.6384C124.636 32.6671 126.169 32.6384 127.699 32.6384C128.083 32.6384 128.523 32.5345 128.52 33.1866C128.516 33.8387 128.083 33.7849 127.656 33.7849C126.502 33.7849 125.349 33.7849 124.195 33.7849C123.747 33.7849 123.554 33.9282 123.564 34.3976C123.59 35.2611 123.593 36.1281 123.564 36.9916C123.564 37.4789 123.769 37.5971 124.202 37.5935C125.399 37.5935 126.599 37.5935 127.785 37.5935C128.211 37.5935 128.502 37.6186 128.502 38.1811C128.502 38.7436 128.143 38.7472 127.753 38.7472C126.578 38.7472 125.403 38.7651 124.224 38.7472C123.747 38.7472 123.539 38.8762 123.557 39.3886C123.586 40.295 123.582 41.2051 123.557 42.1116C123.557 42.5702 123.704 42.7529 124.17 42.7421C125.302 42.7171 126.434 42.6956 127.563 42.7171C127.968 42.7171 128.577 42.5379 128.509 43.3477C128.48 43.7059 128.312 43.7955 127.997 43.7955C126.309 43.7955 124.621 43.7955 122.934 43.7955C122.429 43.7955 122.353 43.5447 122.357 43.1327C122.382 41.4917 122.361 39.8508 122.361 38.2098Z" fill="black"/>
<path d="M0.814453 6.64457C0.814453 5.00719 0.83595 3.36622 0.814453 1.72884C0.814453 1.18424 0.993597 1.0445 1.50595 1.05525C2.83879 1.09108 2.6059 0.994346 2.60948 2.1552C2.60948 4.74564 2.6274 7.33607 2.60948 9.9265C2.60948 10.4496 2.75996 10.6431 3.29023 10.6108C4.1967 10.5786 5.11034 10.6108 6.01681 10.5929C6.62591 10.5678 6.59008 10.9512 6.56141 11.3274C6.53275 11.7036 6.77997 12.2375 6.04906 12.2303C4.51917 12.2303 2.98927 12.2303 1.45937 12.2303C0.957769 12.2303 0.814453 12.0261 0.821618 11.5496C0.821618 9.91217 0.821618 8.27479 0.821618 6.63741L0.814453 6.64457Z" fill="black"/>
<path d="M70.6773 6.59086C70.6773 4.97497 70.7131 3.36625 70.6773 1.7432C70.6522 1.00871 71.0822 1.05171 71.5587 1.02662C72.1355 0.980047 72.0711 1.38491 72.0711 1.7432C72.0711 4.55219 72.0711 7.36237 72.0711 10.1738C72.0711 10.9907 72.1212 11.0444 72.9345 11.0551C73.89 11.0551 74.8454 11.0551 75.8009 11.0551C76.1591 11.0551 76.3562 11.1304 76.3275 11.5352C76.2989 11.9401 76.3777 12.2912 75.8367 12.2948C74.2841 12.2948 72.7315 12.2948 71.1789 12.2948C70.7024 12.2948 70.6952 11.9365 70.6952 11.5783V6.59086H70.6773Z" fill="black"/>
<path d="M165.09 25.9778C165.527 24.1433 164.345 22.6851 163.607 21.1014C163.076 19.9549 162.492 18.8371 161.948 17.7013C161.83 17.4541 161.475 17.1782 161.876 16.9023C162.086 16.8122 162.322 16.7986 162.541 16.8641C162.76 16.9296 162.95 17.0699 163.076 17.2606C163.567 18.2495 164.037 19.2491 164.51 20.2451C164.828 20.9044 165.151 21.5565 165.466 22.2121C165.534 22.3519 165.556 22.531 165.746 22.5454C165.936 22.5597 165.953 22.3483 166.011 22.2229C166.76 20.6464 167.498 19.0664 168.254 17.4971C168.386 17.2212 168.44 16.8127 168.899 16.8521C169.174 16.8736 169.518 16.716 169.705 16.999C169.891 17.2821 169.637 17.4971 169.522 17.7156C168.565 19.6611 167.616 21.6102 166.656 23.545C166.486 23.8553 166.403 24.2055 166.416 24.5589C166.459 25.5335 166.269 26.5009 166.383 27.479C166.437 27.9304 166.1 27.9627 165.764 27.9555C165.427 27.9484 165.076 27.9555 165.097 27.4467C165.119 26.938 165.09 26.5439 165.09 25.9778Z" fill="black"/>
<path d="M141.26 38.4785C142.066 36.7623 142.847 35.1105 143.618 33.4624C143.836 32.993 144.023 32.5559 144.693 32.624C145.212 32.6742 145.313 32.8354 145.087 33.2833C144.546 34.3581 144.012 35.433 143.485 36.4864C143.243 37.0571 142.959 37.6092 142.636 38.1381C141.561 39.6644 141.794 41.3914 141.801 43.0825C141.801 43.6522 141.593 43.817 141.06 43.7991C140.651 43.7776 140.511 43.5984 140.522 43.2222C140.533 42.846 140.479 42.4196 140.522 42.0255C140.726 40.4562 140.207 39.0911 139.465 37.744C138.724 36.3968 138.032 34.8991 137.341 33.4624C137.222 33.2259 136.857 32.8641 137.29 32.71C137.724 32.5559 138.215 32.4664 138.487 33.0683C139.035 34.2542 139.594 35.433 140.175 36.601C140.501 37.2173 140.705 37.9052 141.26 38.4785Z" fill="black"/>
<path d="M131.665 22.4702C131.665 20.8292 131.665 19.1918 131.665 17.5509C131.665 17.0672 131.726 16.7591 132.346 16.7698C132.966 16.7806 132.977 17.0887 132.977 17.5365C132.977 20.4029 132.994 23.2943 132.977 26.1749C132.977 26.7482 133.166 26.8915 133.693 26.8915C134.689 26.8592 135.689 26.8915 136.685 26.8915C137.097 26.8915 137.233 27.0348 137.222 27.4361C137.212 27.8374 137.158 28.0738 136.685 28.0703C135.175 28.0559 133.667 28.0559 132.16 28.0703C131.64 28.0703 131.665 27.7442 131.665 27.4038V22.4702Z" fill="black"/>
<path d="M133.517 38.8373C133.517 40.2991 133.517 41.7574 133.517 43.2192C133.517 43.7029 133.324 43.8175 132.883 43.8103C132.443 43.8032 132.235 43.7064 132.235 43.2192C132.253 40.3529 132.235 37.508 132.26 34.6525C132.26 33.9825 132.077 33.7281 131.4 33.8033C130.934 33.8284 130.468 33.8284 130.003 33.8033C129.931 33.8158 129.857 33.8109 129.788 33.789C129.719 33.7672 129.656 33.7291 129.604 33.6779C129.553 33.6266 129.514 33.5638 129.492 33.4946C129.469 33.4254 129.464 33.3519 129.476 33.2802C129.476 32.9219 129.562 32.6675 129.985 32.6675H135.782C135.853 32.6564 135.927 32.6624 135.995 32.685C136.064 32.7076 136.127 32.7462 136.178 32.7975C136.229 32.8489 136.267 32.9117 136.289 32.9806C136.311 33.0496 136.317 33.1228 136.305 33.1942C136.305 33.5525 136.137 33.789 135.753 33.7962C135.201 33.7962 134.646 33.8177 134.091 33.7962C133.668 33.7962 133.51 33.9395 133.514 34.3766C133.535 35.8599 133.514 37.3432 133.514 38.8265L133.517 38.8373Z" fill="black"/>
<path d="M72.4544 22.8679C72.4544 21.4347 72.4544 20.0016 72.4544 18.5469C72.4544 18.1062 72.3147 17.9593 71.8848 17.9772C71.333 18.0023 70.7741 17.9772 70.2223 17.9772C69.8389 17.9772 69.7314 17.7802 69.7386 17.4291C69.7458 17.0779 69.8389 16.8594 70.2187 16.8594C72.1511 16.8594 74.0823 16.8594 76.0123 16.8594C76.4386 16.8594 76.4959 17.1388 76.5031 17.4864C76.5103 17.8339 76.3132 17.9844 75.9693 17.9772C75.4354 17.9772 74.8944 18.0095 74.3713 17.9772C73.8482 17.945 73.712 18.1206 73.7156 18.615C73.7156 21.4813 73.7156 24.3476 73.7156 27.1924C73.7156 27.5722 73.7586 27.952 73.1746 27.9807C72.6694 28.0022 72.4329 27.866 72.458 27.3214C72.458 25.8381 72.458 24.3548 72.458 22.8679H72.4544Z" fill="black"/>
<path d="M118.831 38.1669C118.831 36.5511 118.831 34.9423 118.831 33.3157C118.831 32.8213 118.964 32.5991 119.501 32.5991C120.039 32.5991 120.154 32.8929 120.154 33.3444C120.154 36.6012 120.154 39.8581 120.154 43.1149C120.154 43.6201 119.989 43.8494 119.473 43.8566C118.957 43.8637 118.821 43.5735 118.828 43.1006C118.846 41.4596 118.828 39.8222 118.828 38.1813L118.831 38.1669Z" fill="black"/>
<path d="M129.218 6.591C129.218 4.95362 129.218 3.31265 129.218 1.67527C129.218 1.20233 129.376 1.05901 129.831 1.06617C130.286 1.07334 130.548 1.09125 130.548 1.65018C130.528 4.97033 130.528 8.29049 130.548 11.6106C130.548 12.1409 130.318 12.2663 129.831 12.277C129.254 12.295 129.243 11.9833 129.247 11.5605C129.222 9.89084 129.218 8.23196 129.218 6.591Z" fill="black"/>
<path d="M101.601 10.5318C102.103 10.5067 102.318 10.625 102.052 11.1445C101.787 11.664 101.597 12.2839 101.365 12.8535C101.253 13.1223 101.121 13.348 100.748 13.3408C100.275 13.3408 100.082 13.2262 100.297 12.721C100.538 12.2034 100.723 11.6618 100.849 11.1051C100.85 11.014 100.872 10.9245 100.913 10.8432C100.954 10.7619 101.013 10.691 101.086 10.6358C101.158 10.5806 101.242 10.5426 101.331 10.5246C101.421 10.5066 101.513 10.5091 101.601 10.5318Z" fill="black"/>
<path d="M172.65 10.5319C173.162 10.4638 173.306 10.668 173.112 11.1374C172.876 11.7035 172.654 12.2768 172.414 12.8393C172.32 13.0614 172.234 13.3086 171.926 13.3122C171.711 13.3122 171.46 13.4018 171.292 13.2334C171.124 13.065 171.331 12.8751 171.389 12.6995C171.564 12.1549 171.747 11.6247 171.901 11.0657C172.012 10.6501 172.224 10.4495 172.65 10.5319Z" fill="black"/>
</svg>
