<svg width="153" height="38" viewBox="0 0 153 38" fill="none" xmlns="http://www.w3.org/2000/svg">
<path d="M17.1563 19.2466C18.3051 12.9552 19.9628 6.80882 21.366 0.594037C21.4672 0.14817 21.6669 0.0332841 22.0964 0.046961C25.9259 0.0606379 29.7363 0.046961 33.5549 0.046961C34.1594 0.046961 34.1621 0.046962 34.1621 0.637804V28.6973C34.1621 29.2991 34.1621 29.3019 33.5658 29.3019H25.9806C25.4609 29.3019 25.4335 29.2854 25.4335 28.7548C25.4335 23.7709 25.4335 18.7898 25.4335 13.8059C25.4727 12.2932 25.6107 10.7846 25.8466 9.28981C25.863 9.16946 25.9669 8.98345 25.7891 8.94789C25.6113 8.91233 25.6195 9.11475 25.5922 9.23784C24.3576 14.3439 23.1258 19.4581 21.8967 24.5806C21.5575 25.9893 21.2074 27.3926 20.8873 28.804C20.8837 28.8787 20.8643 28.9517 20.8305 29.0183C20.7967 29.085 20.7491 29.1437 20.691 29.1907C20.6329 29.2377 20.5656 29.2719 20.4933 29.2911C20.4211 29.3102 20.3456 29.3139 20.2719 29.3019C18.182 29.2854 16.0949 29.2882 14.0051 29.3019C13.9406 29.3127 13.8745 29.3099 13.811 29.2938C13.7476 29.2776 13.6882 29.2484 13.6367 29.2079C13.5853 29.1675 13.5428 29.1168 13.512 29.059C13.4812 29.0013 13.4628 28.9377 13.458 28.8724C12.7715 25.9756 12.0685 23.0843 11.3682 20.193C10.4929 16.5915 9.61665 12.9899 8.73951 9.38828C8.70121 9.23237 8.71216 8.93694 8.54256 8.96703C8.31826 9.00533 8.47418 9.25972 8.49606 9.40743C8.81782 11.6034 8.96508 13.8215 8.93646 16.0407C8.92005 20.2669 8.93646 24.4931 8.93646 28.7165C8.93646 29.2937 8.93646 29.2991 8.36203 29.2991H0.763141C0.235212 29.2991 0.216064 29.2827 0.216064 28.7685C0.216064 19.3898 0.216064 10.0092 0.216064 0.62686C0.216064 0.137227 0.240683 0.112607 0.738522 0.112607C4.62276 0.112607 8.50974 0.112607 12.3967 0.112607C12.4703 0.102304 12.5452 0.107107 12.6169 0.126715C12.6886 0.146323 12.7555 0.180324 12.8136 0.226654C12.8717 0.272984 12.9198 0.330665 12.9549 0.396179C12.9899 0.461694 13.0113 0.533668 13.0176 0.607711C14.0188 4.91685 15.0309 9.22234 16.0539 13.5242C16.4997 15.3155 16.8467 17.13 17.0934 18.9594C17.107 19.0496 17.1426 19.1481 17.1563 19.2466Z" fill="black"/>
<path d="M78.4807 29.3042C75.9395 29.3042 73.3984 29.3042 70.8572 29.3042C69.3952 29.3286 67.9639 28.8838 66.7733 28.035C65.7482 27.2544 65.0113 26.1557 64.678 24.9112C64.3854 23.9568 64.2397 22.9634 64.2458 21.9652C64.2458 16.9977 64.2458 12.0276 64.2595 7.05737C64.2473 5.64161 64.5865 4.24494 65.2469 2.99259C65.939 1.69875 67.0468 0.935584 68.4145 0.492452C69.4882 0.174605 70.605 0.0269259 71.7243 0.0547897C78.4442 0.0383774 85.1651 0.0383774 91.8868 0.0547897C92.5023 0.0547897 92.5159 0.0684636 92.5159 0.675718V7.49229C92.5159 8.07493 92.4941 8.10227 91.906 8.09407C85.9729 8.01748 80.0371 8.03936 74.1041 8.03389C73.4367 8.03389 73.4367 8.0339 73.4367 8.68218V20.6796C73.4367 21.254 73.4367 21.2567 74.0138 21.2567C77.0756 21.2567 80.1365 21.2567 83.1965 21.2567C83.7244 21.2567 83.7436 21.2567 83.7436 20.7233V12.271C83.7436 11.6938 83.7436 11.6911 84.318 11.6911H92.2233C92.8196 11.6911 92.8415 11.713 92.8415 12.2847C92.8415 15.4331 92.8661 18.576 92.8415 21.7299C92.865 23.2071 92.5486 24.6699 91.9169 26.0053C91.5486 26.7678 91.013 27.4374 90.3499 27.964C89.6868 28.4907 88.9134 28.8609 88.0874 29.0471C87.312 29.2406 86.5148 29.3326 85.7158 29.3206C83.3059 29.3069 80.8988 29.3206 78.4889 29.3206L78.4807 29.3042Z" fill="black"/>
<path d="M37.748 14.6726V0.722131C37.748 0.0410213 37.748 0.0410156 38.4374 0.0410156H46.8596C47.4751 0.0410156 47.4887 0.0546952 47.4887 0.659214V20.6275C47.4887 21.3141 47.4887 21.3141 48.1945 21.3141H60.9249C61.5377 21.3141 61.5404 21.3141 61.5404 21.935V28.7406C61.5404 29.2877 61.5267 29.2877 60.9769 29.2877H38.3061C37.759 29.2877 37.759 29.2877 37.759 28.727C37.7517 24.0476 37.748 19.3628 37.748 14.6726Z" fill="black"/>
<path d="M114.905 23.2425C114.415 24.6293 113.991 25.9149 113.51 27.1759C112.722 29.2384 111.899 31.279 110.441 33.0023C109.689 33.8858 108.69 34.4138 107.643 34.8542C105.438 35.7732 103.113 36.2219 100.766 36.5474C99.3051 36.7525 97.8362 36.9084 96.37 37.0671C95.5631 37.1546 94.7534 37.1656 93.941 37.1929C92.081 37.2558 90.2236 37.1327 88.3636 37.13C59.2901 37.1172 30.2158 37.1172 1.14049 37.13H0.620769C0.418351 37.13 0.289788 37.0616 0.292523 36.8291C0.295259 36.5966 0.421087 36.5556 0.604357 36.5556H93.6976C95.4321 36.5841 97.1528 36.2419 98.7443 35.5517C99.6953 35.1237 100.494 34.4168 101.034 33.5248C102.265 31.5608 103.296 29.4928 104.366 27.444C105.58 25.1135 106.751 22.7528 108.217 20.5618C108.649 19.8742 109.163 19.2421 109.749 18.6799C110.17 18.2914 110.619 17.9741 111.223 17.9905C111.439 17.9905 111.524 17.862 111.584 17.6842C112.227 15.7995 112.905 13.9258 113.649 12.0766C114.426 10.1427 115.209 8.20334 116.398 6.47185C116.587 6.19717 116.8 5.94075 117.036 5.70595C117.744 5.00022 118.472 5.01116 119.243 5.71962C119.61 6.05334 119.604 6.05334 119.81 5.59653C120.229 4.5611 120.791 3.58895 121.478 2.70796C122.425 1.57552 123.546 1.5044 124.602 2.52743C125.614 3.5067 126.243 4.73488 126.853 5.98221C128.626 9.66677 129.892 13.5455 131.23 17.3942C132.288 20.4031 133.3 23.4531 134.477 26.421C135.188 28.2263 135.926 30.0207 136.974 31.6674C138.104 33.4427 139.764 34.5642 141.654 35.3711C143.728 36.225 145.959 36.6296 148.2 36.5583C149.346 36.5391 150.49 36.5583 151.633 36.5583H151.953C152.169 36.5583 152.311 36.6431 152.303 36.8893C152.295 37.1355 152.166 37.182 151.967 37.1874C150.744 37.2312 149.529 37.3762 148.304 37.3734C146.269 37.3734 144.236 37.3297 142.207 37.1327C141.981 37.1149 141.755 37.1094 141.528 37.1163C139.094 37.1601 136.662 37.0425 134.228 37.0151C132.078 36.9905 129.922 36.903 127.775 36.7744C126.475 36.7016 125.18 36.5481 123.899 36.3149C121.984 35.9593 120.75 34.8432 119.881 33.1774C118.442 30.4201 117.175 27.5808 115.739 24.8235C115.488 24.3147 115.214 23.8169 114.905 23.2425ZM137.942 36.5638V36.4598C137.715 36.3996 137.486 36.334 137.256 36.2793C135.687 35.9134 134.175 35.3335 132.764 34.556C131.525 33.8997 130.463 32.9526 129.671 31.796C128.932 30.6718 128.544 29.3943 128.084 28.1525C126.99 25.1764 125.934 22.1811 124.854 19.1968C123.828 16.3767 122.791 13.562 121.571 10.8184C121.106 9.74208 120.579 8.69359 119.993 7.67815C119.935 7.57968 119.894 7.42376 119.755 7.44018C119.615 7.45659 119.621 7.62071 119.582 7.73013C119.268 8.64648 118.926 9.55462 118.647 10.4819C117.487 14.3607 116.347 18.2477 115.195 22.1292C115.16 22.2283 115.146 22.3337 115.155 22.4384C115.164 22.5431 115.196 22.6447 115.247 22.7364C116.182 24.4214 117.022 26.1529 117.876 27.8789C118.759 29.6651 119.58 31.4814 120.554 33.2211C121.164 34.3153 121.973 35.1605 123.215 35.5435C123.889 35.7494 124.58 35.8941 125.28 35.9757C128.199 36.3285 131.137 36.3614 134.072 36.4516C135.368 36.5009 136.657 36.4626 137.942 36.5638ZM142.975 36.4762L142.297 36.2437C139.512 35.2426 137.239 33.6342 135.853 30.9261C134.545 28.3768 133.544 25.7043 132.57 23.0182C131.033 18.7455 129.651 14.4154 128.01 10.1783C127.239 8.1842 126.429 6.20378 125.305 4.37108C124.976 3.79228 124.56 3.26737 124.071 2.81465C123.379 2.21013 122.802 2.22654 122.143 2.86115C121.892 3.09947 121.669 3.36664 121.481 3.65714C120.953 4.51673 120.495 5.41782 120.113 6.35149C120.077 6.436 120.064 6.52878 120.077 6.61986C120.089 6.71095 120.127 6.7969 120.184 6.86848C121.026 8.23905 121.758 9.67414 122.373 11.1603C123.546 13.882 124.561 16.6611 125.57 19.4485C126.58 22.2358 127.564 24.9986 128.579 27.7668C128.932 28.7269 129.279 29.6816 129.701 30.6225C130.505 32.3923 131.963 33.5056 133.651 34.3536C135.634 35.3465 137.754 35.8608 139.942 36.2246C140.939 36.4178 141.954 36.5022 142.97 36.4762H142.975ZM102.64 35.6283C104.497 35.2727 106.33 34.8542 108.042 34.0281C109.095 33.5351 109.992 32.762 110.635 31.7933C111.341 30.684 111.942 29.5119 112.432 28.292C113.187 26.503 113.8 24.6649 114.385 22.8212C114.421 22.715 114.433 22.602 114.419 22.4907C114.405 22.3794 114.367 22.2726 114.306 22.1784C113.741 21.1846 113.09 20.2419 112.361 19.361C112.219 19.1941 112.088 18.9233 111.858 18.9616C111.628 18.9999 111.642 19.298 111.584 19.4923C110.405 22.8896 109.289 26.3116 108.045 29.687C107.353 31.5608 106.384 33.2129 104.718 34.3891C104.048 34.8395 103.354 35.2532 102.64 35.6283ZM99.1163 36.0112C99.6245 35.995 100.126 35.8914 100.599 35.7049C101.985 35.3159 103.291 34.6843 104.456 33.8393C105.979 32.7096 106.896 31.1723 107.506 29.4135C108.116 27.6546 108.759 25.8848 109.377 24.1151C109.995 22.3453 110.564 20.6466 111.158 18.9178C111.193 18.8084 111.272 18.6799 111.158 18.5841C111.043 18.4884 110.925 18.5622 110.816 18.6005C110.434 18.7629 110.1 19.0188 109.845 19.3445C108.789 20.5016 108.006 21.8502 107.24 23.2014C105.64 26.0216 104.275 28.9676 102.683 31.7905C101.77 33.4071 100.985 35.1605 99.1163 36.0112ZM114.659 21.6559C114.798 21.4945 114.892 21.2992 114.932 21.0897C115.299 19.8561 115.654 18.6279 116.013 17.3833C117.006 13.9394 117.963 10.4847 119.2 7.1174C119.268 6.99072 119.292 6.84434 119.266 6.70254C119.24 6.56074 119.166 6.43205 119.057 6.33782C118.929 6.22293 118.811 6.09437 118.674 5.99316C118.242 5.67585 117.928 5.695 117.531 6.0506C117.163 6.39772 116.847 6.79565 116.593 7.23228C115.864 8.46804 115.23 9.75738 114.697 11.0892C113.748 13.3404 112.925 15.6381 112.115 17.9276C112.07 18.0234 112.06 18.1317 112.086 18.2341C112.113 18.3365 112.174 18.4264 112.26 18.4884C112.795 18.9676 113.265 19.5137 113.66 20.1132C113.975 20.622 114.309 21.1225 114.659 21.6559Z" fill="black"/>
<path d="M6.9997 33.1363C6.84652 33.7818 6.67146 34.4219 6.54016 35.0702C6.4663 35.4395 6.26662 35.5352 5.9247 35.5188C5.58278 35.5024 5.30103 35.5407 5.21077 35.0893C5.07144 34.3932 4.87192 33.7104 4.61445 33.0488V34.6763C4.61445 35.5352 4.61445 35.5243 3.7364 35.5188C3.40541 35.5188 3.2495 35.4121 3.25223 35.0593C3.26591 33.8639 3.25223 32.6713 3.25223 31.4759C3.25223 31.1778 3.34797 31.0328 3.66527 31.0437C4.06464 31.0601 4.46401 31.0601 4.86064 31.0437C4.91639 31.0357 4.97322 31.0393 5.02748 31.0545C5.08175 31.0696 5.13225 31.0959 5.17576 31.1317C5.21927 31.1675 5.25483 31.212 5.28017 31.2623C5.30551 31.3126 5.32007 31.3677 5.32292 31.4239C5.4843 32.157 5.65937 32.8901 5.89735 33.6259C6.05053 32.9749 6.21191 32.3239 6.35689 31.6701C6.50186 31.0164 6.48545 31.0465 7.13374 31.0465C7.4401 31.0465 7.74646 31.0465 8.05283 31.0465C8.31269 31.0465 8.44672 31.134 8.44672 31.4157C8.44672 32.6631 8.44672 33.9104 8.44672 35.1577C8.44672 35.4121 8.3291 35.5133 8.08291 35.5133C6.91217 35.5133 7.10091 35.6009 7.08724 34.597C7.08724 34.1073 7.08724 33.6177 7.08724 33.1281L6.9997 33.1363Z" fill="black"/>
<path d="M57.079 32.9996C57.079 32.4306 57.079 31.9519 57.079 31.476C57.079 31.1805 57.1857 31.0383 57.5003 31.041C58.6601 31.041 58.496 30.9316 58.5042 31.993C58.5124 33.0543 58.5042 34.039 58.5042 35.062C58.5042 35.4094 58.3729 35.4915 58.0391 35.5298C57.7478 35.5889 57.445 35.5427 57.1845 35.3994C56.924 35.2562 56.7228 35.0252 56.6167 34.7475C56.301 34.15 55.9174 33.591 55.4734 33.0816V34.7584C55.4734 35.5107 55.4734 35.5106 54.7047 35.5079C54.1111 35.5079 54.1084 35.5079 54.1084 34.9089C54.1084 33.7819 54.1084 32.6522 54.1084 31.5225C54.1084 31.1696 54.2069 31.0301 54.5844 31.0274C55.87 31.0274 55.87 31.0109 56.5347 32.1215C56.6961 32.4005 56.8684 32.6659 57.079 32.9996Z" fill="black"/>
<path d="M63.9175 32.8957C63.9175 32.4197 63.9175 31.9465 63.9175 31.4706C63.9175 31.1724 64.0132 31.0356 64.3305 31.0384C65.4411 31.052 65.2824 30.9508 65.2879 31.9547C65.2934 32.9586 65.2879 34.0254 65.2879 35.0621C65.2879 35.4122 65.1648 35.5545 64.8201 35.5189C64.7293 35.5082 64.6375 35.5082 64.5466 35.5189C64.0734 35.59 63.7889 35.3903 63.5564 34.9718C63.1926 34.3153 62.7604 33.6944 62.3583 33.0571L62.2544 33.0762V34.7585C62.2544 35.5107 62.2544 35.5107 61.4885 35.5107C60.8921 35.5107 60.8894 35.5107 60.8894 34.9117C60.8894 33.7956 60.8894 32.6823 60.8894 31.5663C60.8894 31.0602 60.9113 31.0411 61.3955 31.0356C62.6565 31.0192 62.6565 31.0192 63.3102 32.1024L63.8053 32.923L63.9175 32.8957Z" fill="black"/>
<path d="M28.084 32.9694C28.084 32.4716 28.084 31.971 28.084 31.4704C28.084 31.1668 28.188 31.0382 28.5026 31.0437C29.5967 31.0437 29.4435 30.9507 29.449 31.971C29.4545 32.9913 29.449 34.0171 29.449 35.0374C29.449 35.4039 29.3177 35.4887 28.9648 35.5297C28.2865 35.6063 27.8707 35.3574 27.578 34.7584C27.2451 34.1457 26.855 33.5659 26.4127 33.0269C26.4127 33.6806 26.4127 34.3371 26.4127 34.9936C26.4127 35.4914 26.3908 35.5133 25.8985 35.5133C24.9684 35.5133 25.0587 35.5844 25.056 34.6927C25.056 33.6587 25.056 32.622 25.056 31.5881C25.056 31.082 25.0779 31.0629 25.562 31.0574C26.8039 31.0437 26.8012 31.0437 27.4522 32.1078C27.63 32.4032 27.816 32.6931 27.9992 32.9858L28.084 32.9694Z" fill="black"/>
<path d="M44.6165 33.5552C44.6466 33.0492 44.5591 32.4364 44.6685 31.8319C44.6733 31.7212 44.7004 31.6125 44.7483 31.5125C44.7962 31.4126 44.8639 31.3233 44.9472 31.2502C45.0305 31.1771 45.1278 31.1216 45.2332 31.0871C45.3386 31.0527 45.4498 31.0399 45.5603 31.0496C46.3973 31.0368 47.2343 31.0368 48.0713 31.0496C48.1827 31.0437 48.2942 31.0605 48.3988 31.0991C48.5035 31.1376 48.5992 31.1971 48.6801 31.2739C48.761 31.3507 48.8254 31.4432 48.8693 31.5457C48.9133 31.6483 48.9359 31.7587 48.9357 31.8702C49.0287 32.9674 49.0424 34.0699 48.9767 35.1691C48.9603 35.7846 48.4105 35.4618 48.0987 35.5138C47.8416 35.5548 47.4996 35.604 47.4969 35.1582C47.4969 34.8135 47.4969 34.4688 47.4969 34.1242C47.4969 33.8725 47.3848 33.7658 47.1358 33.7658C45.8557 33.7658 46.08 33.6373 46.0636 34.7615C46.0636 35.5247 46.0636 35.5247 45.3086 35.5247C44.6193 35.5247 44.6193 35.5247 44.6193 34.819L44.6165 33.5552ZM46.7529 32.7838C46.9252 32.7838 47.1003 32.7838 47.2726 32.7838C47.2995 32.785 47.3263 32.7806 47.3514 32.7708C47.3765 32.761 47.3993 32.7462 47.4183 32.7271C47.4374 32.7081 47.4522 32.6853 47.462 32.6602C47.4717 32.6352 47.4762 32.6083 47.475 32.5814C47.4812 32.5516 47.4806 32.5208 47.4732 32.4913C47.4658 32.4618 47.4519 32.4343 47.4325 32.4109C47.413 32.3875 47.3885 32.3688 47.3609 32.3562C47.3332 32.3436 47.303 32.3373 47.2726 32.338C46.9389 32.338 46.6079 32.338 46.2742 32.338C46.1319 32.338 46.069 32.4447 46.0745 32.5842C46.073 32.611 46.0771 32.6379 46.0865 32.6632C46.0959 32.6884 46.1105 32.7114 46.1292 32.7307C46.148 32.7499 46.1706 32.7651 46.1955 32.7752C46.2205 32.7853 46.2473 32.7901 46.2742 32.7893C46.4356 32.792 46.5942 32.7866 46.7529 32.7838Z" fill="black"/>
<path d="M82.2909 33.2541C82.2909 32.8438 82.2772 32.4335 82.2909 32.0205C82.2836 31.8895 82.3043 31.7585 82.3515 31.6361C82.3987 31.5137 82.4714 31.4028 82.5648 31.3107C82.6582 31.2186 82.7702 31.1474 82.8932 31.1019C83.0162 31.0564 83.1475 31.0376 83.2784 31.0467C84.0242 31.0339 84.7692 31.0339 85.5132 31.0467C86.0603 31.0467 86.3885 31.3202 86.4624 31.8345C86.5923 32.782 86.5923 33.7427 86.4624 34.6902C86.3885 35.2619 86.0521 35.5108 85.4612 35.5108C84.7418 35.5245 84.0251 35.5245 83.3057 35.5108C83.1716 35.5243 83.0362 35.5083 82.9089 35.464C82.7815 35.4197 82.6654 35.3482 82.5685 35.2545C82.4717 35.1608 82.3964 35.047 82.348 34.9212C82.2996 34.7954 82.2792 34.6606 82.2882 34.5261C82.2745 34.1048 82.2937 33.6781 82.2909 33.2541ZM85.0892 33.3006C85.0892 33.0873 85.0892 32.8767 85.0892 32.6633C85.0892 32.4499 84.9935 32.2913 84.761 32.3268C84.4218 32.3815 84.0169 32.1299 83.7489 32.5293C83.7345 32.5667 83.7298 32.6071 83.7352 32.6469C83.7352 33.0709 83.7352 33.4948 83.7352 33.9188C83.7352 34.1295 83.8364 34.217 84.047 34.2389C85.0509 34.3456 85.0919 34.3155 85.0892 33.3006Z" fill="black"/>
<path d="M13.2391 33.5278C13.2391 34.0557 13.2391 34.5864 13.2391 35.117C13.2391 35.4097 13.1187 35.5191 12.8343 35.5164C11.7182 35.5164 11.8714 35.5957 11.8632 34.611C11.855 33.6262 11.9425 33.7603 11.0043 33.7575C10.3587 33.7575 10.3587 33.7575 10.3587 34.3839C10.3587 34.6219 10.3587 34.8599 10.3587 35.1006C10.3587 35.1772 10.3752 35.2839 10.3341 35.3331C10.0305 35.6887 9.62019 35.4562 9.25912 35.5027C9.02935 35.5328 8.93087 35.3769 8.93087 35.1553C8.93087 34.094 8.91173 33.0327 8.93087 31.9741C8.93087 31.3695 9.30015 31.0605 9.91014 31.0522C10.6788 31.0522 11.4502 31.0522 12.2188 31.0522C12.9054 31.0522 13.2199 31.3832 13.2254 32.0561C13.2418 32.5458 13.2391 33.0354 13.2391 33.5278ZM11.1055 32.7974H11.5404C11.721 32.7974 11.8523 32.7263 11.8495 32.5239C11.8468 32.3215 11.7237 32.2722 11.5596 32.2695C11.2559 32.2695 10.9523 32.2695 10.6487 32.2695C10.4818 32.2695 10.3752 32.3406 10.3752 32.5266C10.3752 32.7126 10.49 32.8001 10.676 32.8001L11.1055 32.7974Z" fill="black"/>
<path d="M77.6601 33.2621C77.6601 32.6658 77.6601 32.0667 77.6601 31.4704C77.6601 31.1723 77.7558 31.0328 78.0731 31.0382C79.0168 31.0382 79.9605 31.0382 80.907 31.0382C81.5498 31.0382 81.8397 31.3391 81.8288 31.971C81.8288 32.3923 81.9765 32.8627 81.5552 33.1937C81.5087 33.2293 81.5306 33.2977 81.5771 33.3305C81.919 33.5794 81.8342 33.9432 81.8507 34.2824C81.8507 34.3608 81.8507 34.4401 81.8507 34.5204C81.8315 35.6145 82.0421 35.5051 80.8057 35.5106C80.5322 35.5106 80.4119 35.3984 80.4146 35.1304C80.4173 34.8623 80.4146 34.5997 80.4146 34.3344C80.4276 34.2429 80.4211 34.1496 80.3954 34.0608C80.1575 33.6341 79.7526 33.9186 79.4298 33.8557C79.3845 33.8389 79.3356 33.8345 79.2879 33.8428C79.2403 33.8511 79.1958 33.8719 79.1588 33.903C79.1218 33.9342 79.0938 33.9745 79.0775 34.02C79.0612 34.0655 79.0572 34.1145 79.066 34.162C79.066 34.4821 79.066 34.8021 79.066 35.1194C79.066 35.393 78.9785 35.5161 78.6995 35.5133C77.5014 35.5133 77.7011 35.6063 77.6847 34.5724C77.6546 34.1402 77.6601 33.7025 77.6601 33.2621ZM79.7307 32.3321C79.5994 32.3321 79.4572 32.3321 79.3368 32.3321C79.2165 32.3321 79.0496 32.3923 79.0633 32.5837C79.077 32.7752 79.1837 32.8053 79.3368 32.8053C79.6104 32.8053 79.8839 32.8053 80.1575 32.8053C80.1873 32.8077 80.2173 32.8037 80.2454 32.7935C80.2736 32.7832 80.2992 32.767 80.3205 32.746C80.3418 32.725 80.3583 32.6996 80.3688 32.6716C80.3794 32.6436 80.3838 32.6136 80.3818 32.5837C80.3857 32.554 80.3832 32.5238 80.3744 32.4951C80.3655 32.4664 80.3506 32.44 80.3306 32.4177C80.3106 32.3953 80.2859 32.3776 80.2584 32.3656C80.2309 32.3537 80.2011 32.3478 80.1711 32.3485C80.0207 32.3239 79.8757 32.3321 79.7307 32.3321Z" fill="black"/>
<path d="M75.2667 31.0435C75.7591 31.0435 76.2514 31.0435 76.7411 31.0435C77.0146 31.0435 77.1103 31.1583 77.1213 31.4264C77.1596 32.3209 77.1678 32.3209 76.2596 32.3209C75.7126 32.3209 75.1655 32.3209 74.6184 32.3209C74.3449 32.3209 74.23 32.4276 74.2382 32.6984C74.2382 33.084 74.2382 33.4697 74.2382 33.8554C74.2382 34.1536 74.3668 34.2384 74.6458 34.2466C75.7153 34.2767 75.7262 34.2821 75.7399 33.2318C75.7399 32.9008 75.8657 32.7886 76.1885 32.7941C77.321 32.816 77.1705 32.671 77.1815 33.7597C77.2042 34.0911 77.1831 34.424 77.1186 34.7499C77.0884 34.9644 76.9802 35.1603 76.8146 35.3001C76.6491 35.4399 76.4379 35.5137 76.2214 35.5076C75.4007 35.5295 74.5801 35.5295 73.7595 35.5076C73.6512 35.5165 73.5423 35.5039 73.4389 35.4704C73.3356 35.437 73.2399 35.3833 73.1575 35.3126C73.075 35.2418 73.0075 35.1554 72.9587 35.0584C72.9099 34.9613 72.8808 34.8555 72.8732 34.7472C72.7356 33.7489 72.7356 32.7365 72.8732 31.7382C72.9123 31.5397 73.0213 31.3618 73.1804 31.2368C73.3396 31.1118 73.5382 31.0481 73.7404 31.0571C74.2464 31.0407 74.7524 31.0571 75.2585 31.0571L75.2667 31.0435Z" fill="black"/>
<path d="M68.1955 31.0439C68.6879 31.0439 69.1803 31.0439 69.6699 31.0439C69.9434 31.0439 70.072 31.1424 70.0829 31.4378C70.1185 32.3241 70.124 32.3241 69.2404 32.3241C68.6687 32.3241 68.0971 32.3241 67.5254 32.3241C67.2518 32.3241 67.1369 32.428 67.1424 32.6988C67.1424 33.0982 67.1424 33.4948 67.1424 33.8942C67.1424 34.1513 67.2573 34.2525 67.5062 34.2471C67.7551 34.2416 68.0533 34.2471 68.3432 34.2471C68.6332 34.2471 68.7317 34.1295 68.7125 33.8614C68.7125 33.8231 68.7125 33.7821 68.7125 33.7438C68.7125 32.7344 68.7891 32.6824 69.8067 32.8028C69.8866 32.8019 69.9639 32.8318 70.0224 32.8863C70.0809 32.9408 70.1163 33.0157 70.1212 33.0955C70.1997 33.6886 70.1635 34.2913 70.0146 34.8707C69.9717 35.0636 69.8606 35.2346 69.7019 35.3521C69.5431 35.4697 69.3472 35.5261 69.1502 35.5108C68.3296 35.53 67.5089 35.5327 66.6883 35.5108C66.4647 35.5172 66.2471 35.4377 66.0802 35.2886C65.9134 35.1396 65.8099 34.9323 65.7911 34.7094C65.658 33.789 65.6534 32.8546 65.7774 31.9329C65.8595 31.3257 66.1932 31.0604 66.8142 31.0494C67.2655 31.0357 67.7305 31.0439 68.1955 31.0439Z" fill="black"/>
<path d="M49.4773 33.2816C49.4773 32.6853 49.4773 32.089 49.4773 31.4927C49.4773 31.1754 49.573 31.0359 49.9095 31.0386C50.8395 31.055 51.7695 31.0386 52.6996 31.0386C53.367 31.0386 53.6515 31.3313 53.6433 31.9905C53.6433 32.4036 53.7636 32.8522 53.3697 33.1804C53.3041 33.2351 53.3369 33.3035 53.3971 33.3473C53.6706 33.5552 53.6488 33.8533 53.6488 34.146C53.6488 34.3457 53.6624 34.5454 53.6488 34.7423C53.6269 34.983 53.7746 35.3222 53.5229 35.4426C53.1695 35.5628 52.7878 35.5723 52.4288 35.4699C52.2646 35.4426 52.2811 35.2703 52.2783 35.139C52.2783 34.8217 52.2783 34.5016 52.2783 34.1843C52.2783 33.9545 52.1908 33.8396 51.9501 33.8424C50.6398 33.8424 50.8887 33.7056 50.8559 34.8162C50.8559 34.9092 50.8559 35.0022 50.8559 35.0897C50.8887 35.6368 50.4812 35.5055 50.194 35.4946C49.9067 35.4836 49.4718 35.6833 49.48 35.1007C49.4882 34.518 49.4773 33.8916 49.4773 33.2816ZM51.5671 32.7975H52.0048C52.158 32.7975 52.2564 32.7236 52.2537 32.5568C52.2566 32.5265 52.2528 32.4959 52.2426 32.4672C52.2324 32.4385 52.2161 32.4124 52.1947 32.3908C52.1733 32.3691 52.1474 32.3524 52.1188 32.3419C52.0903 32.3313 52.0597 32.3272 52.0294 32.3297C51.7121 32.3297 51.3921 32.3297 51.0748 32.3297C50.9353 32.3297 50.8641 32.4227 50.8669 32.5677C50.8639 32.5976 50.8677 32.6278 50.8777 32.6562C50.8878 32.6846 50.904 32.7103 50.9251 32.7317C50.9462 32.7532 50.9718 32.7696 51.0001 32.7801C51.0283 32.7905 51.0585 32.7945 51.0884 32.792C51.2471 32.8029 51.4057 32.7975 51.5671 32.7975Z" fill="black"/>
<path d="M40.4561 33.2677C40.4561 32.6686 40.4561 32.0696 40.4561 31.4732C40.4561 31.1724 40.5518 31.0383 40.8691 31.0411C41.8538 31.052 42.8386 31.052 43.8233 31.0411C44.1215 31.0411 44.2117 31.1724 44.2199 31.4514C44.2446 32.3185 44.25 32.3185 43.3993 32.3185C43.0136 32.3185 42.6279 32.3185 42.2423 32.3185C42.1082 32.3185 41.9496 32.3185 41.9414 32.5072C41.9332 32.696 42.1055 32.7206 42.2505 32.7206C42.7292 32.7206 43.2106 32.7206 43.6893 32.7206C44.168 32.7206 44.2063 32.7725 44.2364 33.2677C44.2555 33.6615 44.0859 33.7764 43.7166 33.76C43.2407 33.7354 42.7592 33.76 42.2806 33.76C42.1192 33.76 41.9386 33.76 41.9386 33.9898C41.9386 34.2196 42.1192 34.2223 42.2806 34.2223C42.7592 34.2223 43.2407 34.2223 43.7194 34.2223C44.0339 34.2223 44.1707 34.318 44.1734 34.6572C44.1734 35.4997 44.1926 35.4997 43.3337 35.4997C42.5131 35.4997 41.7089 35.4997 40.8992 35.4997C40.5928 35.4997 40.4643 35.393 40.4725 35.0812C40.467 34.4849 40.4561 33.8776 40.4561 33.2677Z" fill="black"/>
<path d="M29.9167 33.2618C29.9167 32.6519 29.9167 32.0419 29.9167 31.4291C29.9167 31.1556 30.0152 31.0435 30.2915 31.0435C31.2899 31.0435 32.2883 31.0435 33.2867 31.0435C33.5603 31.0435 33.6615 31.1447 33.6751 31.4182C33.7189 32.3045 33.7162 32.3181 32.8409 32.3181C32.5235 32.3181 32.2035 32.3045 31.8835 32.3181C31.7029 32.3181 31.4048 32.2251 31.402 32.5096C31.3993 32.7941 31.7166 32.712 31.9026 32.7202C32.3145 32.7421 32.7272 32.7421 33.139 32.7202C33.5192 32.6984 33.6259 32.868 33.6122 33.2181C33.5986 33.5682 33.6122 33.8007 33.1554 33.7652C32.6986 33.7296 32.198 33.7652 31.7193 33.7652C31.558 33.7652 31.3774 33.7652 31.3774 33.9977C31.3774 34.2302 31.558 34.2302 31.7193 34.2302C32.198 34.2302 32.6767 34.2302 33.1554 34.2302C33.4727 34.2302 33.6095 34.3259 33.6122 34.6624C33.6122 35.5076 33.6314 35.5076 32.7725 35.5076C31.9519 35.5076 31.1504 35.5076 30.338 35.5076C30.0289 35.5076 29.9085 35.3954 29.914 35.0863C29.9277 34.4846 29.9167 33.8746 29.9167 33.2618Z" fill="black"/>
<path d="M22.5805 33.2923C22.5805 33.8914 22.5805 34.4877 22.5805 35.0867C22.5805 35.3876 22.482 35.5216 22.1647 35.5189C21.0104 35.5189 21.1444 35.6119 21.139 34.5314C21.139 33.7546 21.1389 33.7546 20.3539 33.7573C19.6919 33.7573 19.6919 33.7573 19.6892 34.4111V34.5314C19.6892 35.5928 19.6318 35.6393 18.5595 35.5134C18.3407 35.4888 18.2559 35.3903 18.2559 35.1824C18.2559 33.9187 18.2559 32.6577 18.2559 31.3939C18.2559 31.1669 18.3489 31.0493 18.5868 31.0493C19.9135 31.0493 19.681 30.9153 19.681 32.0559C19.681 32.7151 19.681 32.7151 20.3375 32.7151C21.2046 32.7151 21.1253 32.7644 21.1307 31.9109C21.1307 30.9453 21.0459 31.052 22.0225 31.0465C22.5504 31.0465 22.5696 31.063 22.5696 31.5772C22.5805 32.1498 22.5841 32.7215 22.5805 33.2923Z" fill="black"/>
<path d="M91.2713 33.071C91.2713 33.5907 91.2713 34.1077 91.2713 34.6247C91.2831 34.7382 91.2704 34.853 91.2342 34.9613C91.198 35.0696 91.139 35.1689 91.0613 35.2525C90.9836 35.3362 90.889 35.4023 90.7837 35.4464C90.6784 35.4905 90.5648 35.5115 90.4507 35.5082C89.5736 35.5301 88.6955 35.5301 87.8165 35.5082C87.7019 35.509 87.5883 35.4866 87.4826 35.4423C87.3769 35.398 87.2812 35.3327 87.2014 35.2503C87.1217 35.168 87.0594 35.0704 87.0185 34.9633C86.9775 34.8562 86.9587 34.742 86.9631 34.6274C86.944 33.5524 86.9631 32.4774 86.9631 31.4024C86.9631 31.1507 87.0725 31.0413 87.3242 31.0441C88.6016 31.0441 88.391 30.9182 88.4183 32.0343C88.4183 32.6333 88.4183 33.2296 88.4183 33.8287C88.4183 34.1405 88.5359 34.2527 88.8423 34.2445C90.1088 34.2226 89.8954 34.3976 89.9146 33.205C89.9146 32.6233 89.9146 32.0388 89.9146 31.4516C89.9146 31.1781 90.0076 31.0386 90.3057 31.0413C91.4792 31.0413 91.2905 30.9456 91.3041 31.9987C91.3041 32.357 91.3041 32.7154 91.3041 33.0737L91.2713 33.071Z" fill="black"/>
<path d="M91.731 33.2815C91.731 32.6825 91.731 32.0834 91.731 31.4871C91.731 31.1698 91.8322 31.0303 92.1686 31.0358C93.1397 31.0495 94.1107 31.0358 95.0818 31.0358C95.6289 31.0358 95.927 31.3093 95.9516 31.8564C95.9735 32.3214 95.9735 32.7864 95.9516 33.2515C95.9574 33.3626 95.9394 33.4738 95.8988 33.5774C95.8583 33.6811 95.796 33.7749 95.7162 33.8526C95.6365 33.9302 95.5411 33.99 95.4364 34.0279C95.3317 34.0657 95.2201 34.0808 95.1092 34.0721C94.6195 34.0885 94.1244 34.0857 93.632 34.0721C93.3421 34.0721 93.2135 34.1897 93.2354 34.4769C93.2382 34.5033 93.2382 34.5299 93.2354 34.5562C93.1999 34.8517 93.3777 35.2455 93.1123 35.4233C92.7923 35.6367 92.3628 35.5081 91.9799 35.4917C91.7474 35.4917 91.7364 35.2784 91.7337 35.1033C91.7337 34.4906 91.7337 33.8806 91.7337 33.2706L91.731 33.2815ZM93.8235 33.0326C94.0177 32.967 94.346 33.1749 94.428 32.8001C94.4691 32.6168 94.4937 32.3953 94.2119 32.3296C93.7579 32.2229 93.23 32.3296 93.1807 32.5457C93.1793 32.5721 93.1793 32.5986 93.1807 32.6251C93.1424 33.1338 93.5199 33.0053 93.8235 33.0326Z" fill="black"/>
<path d="M16.1056 35.5137C15.7199 35.5137 15.3342 35.5137 14.9486 35.5137C14.1881 35.4945 13.7723 35.1307 13.734 34.3757C13.6957 33.6468 13.6957 32.9164 13.734 32.1874C13.7723 31.4379 14.2073 31.0577 14.9486 31.0522C15.7473 31.0522 16.546 31.0522 17.342 31.0522C17.6621 31.0522 17.7933 31.1535 17.7961 31.4872C17.7961 32.264 17.8125 32.264 17.0493 32.264C16.5706 32.264 16.0919 32.264 15.6133 32.264C15.2631 32.264 15.1346 32.4008 15.151 32.74C15.1674 33.0792 15.1674 33.4566 15.151 33.815C15.1346 34.1733 15.2577 34.2718 15.5886 34.2608C16.174 34.2444 16.7594 34.2608 17.3447 34.2608C17.6703 34.2608 17.7906 34.373 17.7906 34.704C17.7906 35.5246 17.8098 35.5246 16.97 35.5246L16.1056 35.5137Z" fill="black"/>
<path d="M36.3914 33.2619C36.3914 32.6492 36.3914 32.0392 36.3914 31.4292C36.3914 31.1556 36.4898 31.0408 36.7661 31.0435C38.1338 31.0599 37.8903 30.8821 37.9095 32.1376C37.9204 32.7066 37.9204 33.2774 37.9095 33.85C37.9095 34.1235 38.0216 34.2576 38.3116 34.2494C38.7629 34.2494 39.2143 34.2494 39.6793 34.2494C39.9528 34.2494 40.0568 34.3615 40.0759 34.6296C40.1306 35.5131 40.1279 35.524 39.2553 35.524C38.4566 35.524 37.6606 35.524 36.8618 35.524C36.5117 35.524 36.3941 35.3955 36.4023 35.0536C36.405 34.4545 36.3914 33.8582 36.3914 33.2619Z" fill="black"/>
<path d="M24.5664 33.2949C24.5664 33.8912 24.5664 34.4875 24.5664 35.0811C24.5664 35.3765 24.4816 35.5215 24.1588 35.5187C22.9498 35.4996 23.1385 35.6336 23.1276 34.5176C23.1276 33.5246 23.1276 32.5317 23.1276 31.5388C23.1276 31.1503 23.2643 31.0327 23.6391 31.0409C24.6949 31.0655 24.5636 30.937 24.5718 31.9819C24.5718 32.4196 24.5664 32.8572 24.5664 33.2949Z" fill="black"/>
<path d="M60.4244 33.3224C60.4244 33.9187 60.4244 34.515 60.4244 35.1113C60.4244 35.3849 60.3287 35.5244 60.0333 35.5189C58.7777 35.5189 58.9911 35.642 58.9774 34.5068C58.9774 33.5029 58.9774 32.4963 58.9774 31.4979C58.9774 31.1806 59.0731 31.0411 59.4096 31.0465C60.5885 31.0684 60.4135 30.9317 60.4272 32.0203C60.4299 32.4498 60.4244 32.8875 60.4244 33.3224Z" fill="black"/>
</svg>
