<svg width="69" height="54" viewBox="0 0 69 54" fill="none" xmlns="http://www.w3.org/2000/svg">
<path d="M31.0573 48.6971C26.5367 48.6971 23.0302 48.7853 19.5325 48.0681C14.2242 46.9835 10.1005 43.1243 9.40681 38.3127C8.40747 31.3673 12.6841 25.2184 19.5266 23.5842C23.0185 22.7523 26.525 22.867 30.0374 23.1021C31.1249 23.1756 31.4159 22.9199 31.4071 21.8882C31.3689 18.2671 31.4071 14.643 31.3865 11.013C31.3512 7.53292 29.9169 6.13972 26.4368 6.07799C25.8989 6.07799 25.3611 6.07799 24.8232 6.07799C24.347 6.06036 23.7915 6.15441 23.7474 5.41372C23.7063 4.73475 24.1001 4.41732 24.6909 4.3262C25.9959 4.12046 27.301 3.85886 28.6148 3.78244C35.4456 3.37682 42.2999 2.67728 49.1013 3.93528C54.5301 4.93756 59.2241 8.34415 59.8854 14.5166C60.4263 19.5809 57.5546 25.0214 52.9429 27.2376C48.5341 29.3598 43.8901 29.5361 39.1638 28.9453C38.0498 28.8072 37.6941 29.0423 37.7206 30.1886C37.7823 33.8098 37.7206 37.4339 37.7529 41.0639C37.7941 44.4293 39.2784 45.8636 42.6438 45.9195C42.8871 45.8945 43.1324 45.8945 43.3757 45.9195C43.9635 46.0518 45.0628 45.5462 45.007 46.4633C44.957 47.2804 44.2545 48.1034 43.1053 48.1651C38.7581 48.4061 34.4081 48.8411 31.0573 48.6971ZM37.7441 16.5711C37.7441 19.6015 37.7441 22.6318 37.7441 25.6622C37.7441 26.4 37.8558 26.9702 38.6905 27.2523C42.297 28.4721 48.1961 26.591 50.5504 23.593C53.0223 20.4421 53.5719 16.8827 53.0987 13.0734C52.6902 9.78732 51.1118 7.24193 47.9697 5.93691C45.3762 4.85591 42.5024 4.6435 39.7781 5.33142C38.3731 5.66943 37.7206 6.45422 37.7382 7.91796C37.7735 10.8014 37.747 13.6877 37.7441 16.5711ZM31.3894 35.253C31.3894 32.2667 31.3659 29.2775 31.3894 26.2912C31.4041 25.3301 31.025 24.7922 30.0932 24.6834C26.9659 24.3219 23.9208 24.5012 21.1667 26.2501C17.0518 28.8601 15.1001 34.2331 16.17 39.5795C16.9519 43.4682 19.2886 45.7755 23.039 46.7454C24.8024 47.1922 26.64 47.2633 28.4326 46.9541C30.9221 46.5485 31.3718 46.0488 31.3718 43.4799C31.4012 40.7376 31.3953 37.9953 31.3894 35.253Z" fill="black"/>
<path d="M19.1739 20.4336C17.2037 20.9607 15.2945 21.6937 13.4777 22.6204C3.23145 27.7964 1.72068 39.768 10.3915 47.3571C14.1625 50.6608 18.495 52.7859 23.5387 53.3238C23.768 53.3502 23.9943 53.4355 24.6204 53.5942C23.4447 54.0645 22.5805 53.9293 21.7634 53.8881C14.4741 53.5942 8.14 51.0782 3.54008 45.2791C-2.60295 37.5665 -0.44848 27.7317 8.18115 22.9261C11.5995 21.0214 15.3029 20.4865 19.1739 20.4336Z" fill="black"/>
<path d="M49.7069 0.578988C51.9907 0.193947 54.1628 0.611314 56.3114 1.25207C59.913 2.27657 63.1091 4.39059 65.4613 7.30398C69.8408 12.7122 69.2823 19.5959 65.2938 24.8219C61.2023 30.186 55.5708 33.0077 48.8487 33.6602C47.673 33.7749 46.5238 34.0394 45.3422 33.8748C45.0821 33.8422 44.8355 33.7408 44.6279 33.5809C46.4973 32.993 48.449 32.7579 50.2625 32.0378C54.5861 30.3271 58.2896 27.8493 61.0436 24.0048C62.2006 22.4035 63.0096 20.5778 63.4185 18.6451C63.8275 16.7123 63.8274 14.7154 63.4182 12.7827C63.009 10.8501 62.1998 9.02443 61.0427 7.42328C59.8855 5.82213 58.4061 4.48091 56.6994 3.4859C54.5009 2.18087 52.2435 1.0816 49.7069 0.578988Z" fill="black"/>
</svg>
