<svg width="152" height="38" viewBox="0 0 152 38" fill="none" xmlns="http://www.w3.org/2000/svg">
<path d="M0.437847 11.1974C0.437847 8.45765 0.437847 5.71788 0.437847 2.97492C0.437847 1.92953 0.792705 1.05677 1.74859 0.606003C2.70446 0.155237 3.7083 0.0561322 4.68976 0.685926C14.8879 7.22896 25.0957 13.7613 35.3131 20.2831C36.0931 20.7818 36.4128 21.2933 36.4 22.246C36.3393 26.5298 36.3745 30.8137 36.3745 35.0976C36.3745 36.8815 35.4633 37.7926 33.6762 37.799C31.9723 37.799 30.2683 37.799 28.5612 37.799C28.2219 37.8101 27.8874 37.7176 27.6021 37.5337C18.704 31.8985 9.80803 26.2698 0.914188 20.6475C0.744898 20.549 0.608469 20.4027 0.522019 20.227C0.435569 20.0512 0.402951 19.8539 0.428257 19.6597C0.447438 16.84 0.437847 14.0171 0.437847 11.1974Z" fill="black"/>
<path d="M96.3454 16.1011C95.4631 16.83 94.91 17.6356 94.2706 18.3581C92.474 20.3881 90.7061 22.4438 88.9286 24.4898C88.1709 25.3594 87.5028 25.3881 86.7611 24.5377C84.438 21.8779 82.1181 19.2138 79.8014 16.5454C79.6831 16.4112 79.6096 16.1682 79.389 16.2257C79.0693 16.2993 79.2387 16.5774 79.2387 16.7596C79.2387 22.2967 79.2195 27.8338 79.2387 33.3676C79.2387 34.0454 79.0469 34.2116 78.3915 34.1989C76.4734 34.1541 74.5552 34.1605 72.6371 34.1989C72.0265 34.1989 71.8826 34.0166 71.8858 33.4252C71.9007 24.2159 71.9007 15.0067 71.8858 5.79739C71.8858 5.18998 72.0456 5.03012 72.6403 5.04291C74.3155 5.08127 75.9938 5.07488 77.6722 5.04291C77.8803 5.03243 78.0879 5.07297 78.2768 5.161C78.4657 5.24904 78.6302 5.3819 78.756 5.54803C81.5693 8.77053 84.4113 11.9674 87.2054 15.2059C87.6882 15.7654 87.9184 15.7622 88.3947 15.2059C91.192 11.9706 94.0341 8.77692 96.841 5.54803C96.9788 5.37389 97.1573 5.23619 97.3607 5.14702C97.5642 5.05785 97.7864 5.01991 98.0078 5.03652C99.683 5.06423 101.36 5.06423 103.04 5.03652C103.532 5.03652 103.679 5.18358 103.679 5.67591C103.666 14.9662 103.666 24.2553 103.679 33.5435C103.679 34.1093 103.459 34.1829 102.973 34.1829C101.029 34.1605 99.0852 34.1509 97.1415 34.1829C96.5021 34.1829 96.3359 34.007 96.3391 33.3708C96.3614 27.8082 96.3391 22.2456 96.3391 16.6829L96.3454 16.1011Z" fill="black"/>
<path d="M45.1021 28.5914C45.1021 27.7922 45.1021 26.9929 45.1021 26.1969C45.1021 26.0211 44.9838 25.7973 45.1948 25.6854C45.4058 25.5735 45.5369 25.7813 45.684 25.874C47.3272 26.9098 48.996 27.9073 50.847 28.5275C53.0529 29.2691 55.3035 29.5377 57.5957 28.9367C58.6315 28.6681 59.354 28.0447 59.533 26.9482C59.7121 25.8516 59.1558 25.1036 58.3214 24.5281C57.0426 23.6426 55.5465 23.2078 54.1079 22.6579C51.9755 21.8427 49.7952 21.1266 47.9058 19.7807C43.4781 16.6285 43.7243 10.6439 46.5088 7.87215C48.2799 6.11064 50.4634 5.2187 52.8866 4.85745C57.2025 4.21807 61.2977 5.08123 65.2843 6.69568C65.4475 6.74334 65.5879 6.84878 65.679 6.99233C65.7702 7.13587 65.8061 7.30771 65.7798 7.47573C65.7606 8.93992 65.7415 10.4073 65.7798 11.8683C65.8022 12.5365 65.556 12.4885 65.0925 12.2871C62.7236 11.2545 60.2971 10.3689 57.7204 10.0492C56.1955 9.86063 54.6865 9.87662 53.2799 10.6119C51.8732 11.3472 51.6143 12.7379 52.7971 13.8472C53.98 14.9565 55.5241 15.3561 56.9819 15.9156C58.9001 16.6509 60.8182 17.3478 62.6149 18.3421C68.3342 21.5006 68.0305 28.1566 64.9486 31.2992C62.9537 33.3356 60.4154 34.218 57.6373 34.4641C53.5277 34.8288 49.3999 34.0055 45.7447 32.092C45.246 31.8363 45.035 31.5645 45.0798 30.9891C45.1437 30.1963 45.0957 29.3906 45.0957 28.5946L45.1021 28.5914Z" fill="black"/>
<path d="M137.017 5.0495C141.515 5.0495 146.016 5.06868 150.514 5.03352C151.262 5.03352 151.451 5.24132 151.412 5.96062C151.348 7.18185 151.361 8.40947 151.412 9.6339C151.438 10.2253 151.221 10.3436 150.687 10.3404C147.624 10.3212 144.561 10.3404 141.502 10.3148C140.837 10.3148 140.655 10.4843 140.658 11.1524C140.68 18.5501 140.658 25.9478 140.687 33.3487C140.687 34.0168 140.517 34.2086 139.849 34.1959C137.959 34.1511 136.068 34.1511 134.178 34.1959C133.503 34.2118 133.34 34.0104 133.343 33.3519C133.366 25.9798 133.343 18.6077 133.375 11.2355C133.375 10.4779 133.158 10.3052 132.442 10.3148C129.408 10.3532 126.368 10.3148 123.337 10.3436C122.781 10.3436 122.595 10.1965 122.611 9.6275C122.65 8.34873 122.656 7.06996 122.611 5.79119C122.589 5.19336 122.755 5.02712 123.363 5.03032C127.912 5.06229 132.464 5.0495 137.017 5.0495Z" fill="black"/>
<path d="M110.549 19.5284C110.549 14.9536 110.549 10.3788 110.549 5.80398C110.549 5.21894 110.677 5.02393 111.294 5.03672C113.238 5.07828 115.182 5.06869 117.122 5.03672C117.679 5.03672 117.909 5.13262 117.906 5.77201C117.886 15.026 117.886 24.2822 117.906 33.5405C117.906 34.1255 117.663 34.1799 117.193 34.1799C115.223 34.1639 113.254 34.1447 111.288 34.1799C110.649 34.1799 110.546 33.9593 110.549 33.3966C110.559 28.7835 110.549 24.1575 110.549 19.5284Z" fill="black"/>
<path d="M11.9147 0.308594H33.5962C35.492 0.308594 36.3679 1.18455 36.3679 3.08672C36.3679 7.20649 36.3679 11.3284 36.3679 15.4524C36.3679 15.6538 36.4734 15.916 36.2592 16.0438C36.045 16.1717 35.8788 15.9256 35.7126 15.8169C27.9057 10.8169 20.1009 5.80837 12.2983 0.791332C12.1481 0.692228 12.0074 0.573941 11.8635 0.47164L11.9147 0.308594Z" fill="black"/>
<path d="M20.2587 37.7988H3.35013C1.35845 37.7988 0.437735 36.8685 0.437735 34.8673C0.437735 31.8078 0.437735 28.7484 0.437735 25.6921C0.437735 25.4939 0.303465 25.2381 0.520855 25.1071C0.738246 24.976 0.910878 25.1902 1.08351 25.3021L19.728 37.2745C19.9262 37.3928 20.1755 37.4536 20.2587 37.7988Z" fill="black"/>
</svg>
