<svg width="197" height="39" viewBox="0 0 197 39" fill="none" xmlns="http://www.w3.org/2000/svg">
<path d="M0.996062 19.4695C0.996062 14.4319 0.996062 9.39436 0.996062 4.35681C0.996062 1.80937 2.55462 0.243652 5.11639 0.243652C15.1652 0.243652 25.2176 0.243652 35.2736 0.243652C37.9859 0.243652 39.5122 1.7843 39.5193 4.50013C39.5193 8.37682 39.4298 12.2571 39.548 16.1302C39.6662 20.0033 38.4086 23.3605 36.2159 26.4239C31.7158 32.7047 25.3741 36.0977 17.9718 37.8175C13.4466 38.8708 8.85335 38.534 4.28158 38.5054C2.4328 38.5054 1.00323 36.6745 0.999645 34.7039C0.99009 29.6234 0.988896 24.5452 0.996062 19.4695Z" fill="black"/>
<path d="M21.0137 38.5192C29.111 35.9897 35.7035 31.6293 39.3653 23.3779C39.3653 27.4338 39.4405 31.2603 39.333 35.0653C39.2828 36.9463 37.5989 38.4691 35.6175 38.4977C30.7341 38.5622 25.8398 38.5192 21.0137 38.5192Z" fill="black"/>
<path d="M98.8523 9.2225C100.447 10.2544 100.88 11.1214 100.508 12.5295C100.171 13.8086 99.121 14.5646 97.3833 14.6577C96.14 14.7258 94.8932 14.6577 93.6499 14.69C93.1412 14.69 92.9333 14.5538 92.9333 14.0164C92.9548 11.0259 92.9548 8.03178 92.9333 5.03409C92.9333 4.53607 93.134 4.44291 93.5747 4.45008C94.7785 4.47158 95.9824 4.45008 97.1862 4.45008C98.6875 4.46799 99.6692 5.08426 100.053 6.20212C100.436 7.31998 100.096 8.24078 98.8523 9.2225ZM94.9111 11.6195C95.0043 12.2142 94.388 13.2103 95.8785 13.1278C97.8527 13.0168 98.6839 12.6872 98.7197 11.6445C98.7555 10.6019 98.1178 10.283 96.3013 10.2114C95.2443 10.172 94.4991 10.2436 94.9004 11.6195H94.9111ZM94.8824 7.31998C94.818 8.0688 94.7212 8.69939 95.9036 8.61699C97.5839 8.50233 98.4116 8.17629 98.2611 7.26624C98.0318 5.75426 96.7133 6.23077 95.7746 6.05879C94.5815 5.82949 94.9111 6.71447 94.8717 7.30923L94.8824 7.31998Z" fill="black"/>
<path d="M48.5448 4.18868C49.0972 4.15516 49.6492 4.26112 50.1499 4.49681C50.5691 4.71895 51.4756 4.76195 51.0779 5.50719C50.8056 6.02313 50.4043 7.04425 49.376 6.18794C49.1398 6.02949 48.8715 5.92516 48.5903 5.88243C48.3091 5.83969 48.022 5.8596 47.7494 5.94072C47.4661 5.96736 47.1998 6.08741 46.9922 6.28199C46.7847 6.47657 46.6477 6.73464 46.6028 7.01558C46.5097 7.64259 46.9145 7.99371 47.4162 8.20868C48.0396 8.47382 48.7024 8.65297 49.3402 8.8966C50.8378 9.46987 51.5293 10.4731 51.4397 11.8919C51.4084 12.579 51.1496 13.2362 50.704 13.7603C50.2585 14.2843 49.6514 14.6454 48.9783 14.7869C48.3028 14.9911 47.5903 15.0424 46.8925 14.9371C46.1947 14.8317 45.5291 14.5724 44.944 14.1778C44.6143 13.9556 44.0232 13.6189 44.6215 13.1925C45.0228 12.9059 45.227 11.831 46.0976 12.63C46.415 12.9143 46.8038 13.1069 47.2222 13.1871C47.6407 13.2672 48.0731 13.232 48.4731 13.085C48.7303 13.0218 48.9618 12.8809 49.1361 12.6816C49.3105 12.4822 49.4193 12.234 49.4477 11.9707C49.4684 11.7269 49.4099 11.4829 49.2808 11.275C49.1517 11.0671 48.9589 10.9065 48.7311 10.817C48.305 10.5942 47.8617 10.4061 47.4054 10.2545C45.0729 9.4842 44.3528 8.57415 44.6537 6.72896C44.9081 5.19548 46.3807 4.19584 48.5448 4.18868Z" fill="black"/>
<path d="M155.182 4.18139C155.837 4.15095 156.491 4.24456 157.11 4.45727C158.457 4.95888 158.504 5.26342 157.497 6.24872C157.121 6.60701 156.906 6.5891 156.522 6.28814C156.127 6.00367 155.643 5.87021 155.157 5.91194C154.405 5.93702 153.782 6.18782 153.602 6.96172C153.423 7.73563 154.065 8.07958 154.677 8.32322C155.344 8.59193 156.05 8.77108 156.702 9.06488C157.819 9.56648 158.454 10.3977 158.439 11.684C158.425 12.9702 157.913 13.9555 156.759 14.5001C156.002 14.8833 155.156 15.0571 154.31 15.0035C153.463 14.95 152.646 14.671 151.944 14.1956C151.653 14.0093 150.922 13.7119 151.585 13.2569C152.004 12.9631 152.191 11.7664 153.119 12.6334C153.442 12.9392 153.856 13.1317 154.298 13.1816C155.208 13.2963 156.089 13.1494 156.394 12.2071C156.73 11.1752 155.842 10.8384 155.097 10.5159C154.695 10.344 154.262 10.2472 153.846 10.0968C152.137 9.47691 151.524 8.61343 151.625 6.99038C151.707 5.66113 152.7 4.62926 154.276 4.29605C154.576 4.2392 154.878 4.20091 155.182 4.18139Z" fill="black"/>
<path d="M123.037 24.819C123.037 26.8398 123.037 28.7602 123.037 30.7093C123.037 31.0676 123.309 31.691 122.567 31.709C121.826 31.7269 122.062 31.1214 122.062 30.7416C122.041 28.4234 122.037 26.1053 122.062 23.7908C122.062 23.4325 121.765 22.8449 122.485 22.7445C123.13 22.655 123.592 22.7732 123.871 23.5077C124.652 25.55 125.527 27.56 126.379 29.5986C126.906 29.527 126.867 29.0648 126.989 28.7853C127.752 27.0333 128.504 25.2705 129.181 23.4826C129.436 22.8126 129.841 22.6944 130.46 22.741C131.238 22.8019 130.919 23.3823 130.923 23.7334C130.951 26.134 130.923 28.5309 130.923 30.9279C130.923 31.2432 131.102 31.6982 130.5 31.7304C129.898 31.7627 129.944 31.3148 129.944 30.9207C129.944 28.8856 129.944 26.847 129.755 24.7438C129.083 26.3227 128.415 27.9027 127.748 29.484C127.547 29.9605 127.372 30.4513 127.143 30.9171C126.996 31.2181 126.999 31.691 126.53 31.7125C126.061 31.734 126.028 31.2503 125.896 30.9494C125.136 29.1938 124.402 27.4274 123.656 25.6682C123.527 25.378 123.506 25.0448 123.037 24.819Z" fill="black"/>
<path d="M168.898 8.34092C169.571 7.93964 170.03 7.58493 170.689 7.5491C172.337 7.45594 173.408 8.3051 173.487 9.94248C173.548 11.2574 173.459 12.5795 173.52 13.8837C173.555 14.6755 173.133 14.6791 172.552 14.6862C171.972 14.6934 171.664 14.5859 171.692 13.9016C171.735 12.7873 171.692 11.6694 171.66 10.5552C171.631 9.80991 171.338 9.20081 170.467 9.19364C169.596 9.18648 169.062 9.62718 169.002 10.462C168.908 11.5737 168.887 12.6903 168.937 13.8048C168.976 14.6325 168.579 14.6755 167.923 14.697C167.206 14.7185 167.063 14.4605 167.07 13.8013C167.104 10.7319 167.104 7.66017 167.07 4.58605C167.07 3.93754 167.196 3.66166 167.909 3.71182C168.511 3.75123 168.984 3.67599 168.937 4.55738C168.84 5.75048 168.898 6.95076 168.898 8.34092Z" fill="black"/>
<path d="M83.9546 12.4219C84.5135 10.9099 85.0294 9.70251 85.3877 8.4485C85.6958 7.37363 86.4626 7.68176 87.129 7.73192C87.5482 7.76058 87.4156 8.12961 87.3117 8.38758C86.2154 11.1715 85.162 13.9733 83.9904 16.7286C83.4565 17.9897 82.0771 18.4734 80.7335 18.1187C80.2498 17.9897 80.1638 17.7139 80.2928 17.3269C80.4218 16.94 80.2068 16.4706 80.97 16.4634C82.636 16.4455 83.2559 15.3886 82.6146 13.8551C81.941 12.232 81.2172 10.6305 80.5866 8.98952C80.4433 8.63123 79.7232 8.01855 80.5042 7.757C81.1241 7.54561 81.9983 7.39871 82.3494 8.47358C82.7686 9.71326 83.3383 10.9135 83.9546 12.4219Z" fill="black"/>
<path d="M178.908 14.8368C176.594 14.8368 175.017 13.3607 175.032 11.1823C175.05 9.07553 176.637 7.5528 178.833 7.54205C181.029 7.5313 182.749 9.11136 182.728 11.2288C182.706 13.3463 181.148 14.8261 178.908 14.8368ZM178.833 13.2066C179.092 13.2186 179.35 13.1785 179.593 13.0887C179.837 12.9989 180.059 12.8612 180.248 12.6838C180.437 12.5063 180.588 12.2928 180.693 12.0558C180.797 11.8188 180.853 11.5632 180.857 11.3041C180.873 11.0356 180.835 10.7666 180.745 10.5132C180.655 10.2597 180.515 10.027 180.333 9.82878C180.151 9.63057 179.931 9.47095 179.687 9.3594C179.442 9.24785 179.177 9.18664 178.908 9.17943C178.64 9.17847 178.373 9.23092 178.125 9.33375C177.877 9.43657 177.651 9.58773 177.462 9.77841C177.273 9.9691 177.123 10.1955 177.022 10.4445C176.921 10.6935 176.87 10.9601 176.873 11.2288C176.869 11.4879 176.916 11.7453 177.013 11.9858C177.109 12.2263 177.253 12.445 177.435 12.6293C177.617 12.8135 177.835 12.9595 178.074 13.0586C178.314 13.1577 178.57 13.2081 178.829 13.2066H178.833Z" fill="black"/>
<path d="M56.5061 14.8224C54.2776 14.8224 52.7262 13.2997 52.7513 11.1715C52.7764 9.04321 54.3672 7.56348 56.5814 7.56348C58.7956 7.56348 60.4151 9.1077 60.3793 11.3112C60.3434 13.4179 58.8028 14.8368 56.5061 14.8224ZM58.5412 11.2574C58.5703 10.9857 58.5428 10.711 58.4604 10.4504C58.378 10.1899 58.2425 9.94925 58.0625 9.7437C57.8825 9.53814 57.6618 9.37212 57.4144 9.25611C57.167 9.1401 56.8982 9.07662 56.6251 9.06966C56.3519 9.06271 56.0802 9.11244 55.8273 9.21571C55.5743 9.31898 55.3454 9.47356 55.1552 9.6697C54.9649 9.86583 54.8173 10.0992 54.7218 10.3553C54.6263 10.6113 54.5848 10.8843 54.6001 11.1571C54.581 11.4262 54.6192 11.6963 54.7121 11.9496C54.8051 12.2029 54.9506 12.4336 55.1391 12.6265C55.3277 12.8195 55.555 12.9703 55.806 13.069C56.0571 13.1678 56.3262 13.2122 56.5957 13.1994C56.8543 13.2122 57.1127 13.1707 57.3543 13.0777C57.5958 12.9847 57.8153 12.8421 57.9985 12.6592C58.1818 12.4764 58.3247 12.2572 58.4182 12.0158C58.5116 11.7743 58.5535 11.516 58.5412 11.2574Z" fill="black"/>
<path d="M135.419 13.4534C134.344 15.2019 131.406 15.1374 130.088 14.17C129.375 13.6137 128.887 12.819 128.713 11.9317C128.54 11.0445 128.692 10.1243 129.142 9.34026C129.579 8.63835 130.23 8.09524 130.999 7.79082C131.767 7.4864 132.614 7.43673 133.413 7.64914C134.846 8.03609 135.777 9.46567 135.756 11.1604C135.756 11.748 135.552 11.9092 134.989 11.877C133.703 11.8447 132.42 11.877 131.134 11.877C130.475 11.877 130.482 12.1636 130.74 12.5935C131.191 13.3674 132.531 13.758 133.28 13.113C134.212 12.332 134.76 12.787 135.419 13.4534ZM133.957 10.4581C133.757 9.51582 133.323 9.02497 132.496 8.94614C131.822 8.88165 131.213 9.01064 130.826 9.62331C130.686 9.80765 130.61 10.0331 130.611 10.2647C130.665 10.5764 130.994 10.4474 131.209 10.451C132.084 10.4653 132.969 10.4581 133.957 10.4581Z" fill="black"/>
<path d="M116.684 26.8681C116.675 26.9833 116.65 27.0967 116.609 27.2049C115.48 28.7491 114.656 30.2719 117.143 31.6011C116.451 31.7014 115.914 31.9092 115.556 31.4399C114.911 30.5943 114.427 30.6481 113.624 31.3575C112.417 32.4323 110.332 32.0955 109.436 30.8702C108.587 29.7058 108.895 28.1078 110.321 27.1512C111.038 26.6675 110.679 26.4095 110.389 25.9724C110.093 25.5878 109.936 25.1144 109.943 24.6291C109.95 24.1438 110.121 23.6752 110.429 23.2996C111.056 22.5113 111.958 22.3358 112.937 22.6152C114.481 23.0631 114.99 24.7291 113.907 25.9115C113.524 26.2704 113.112 26.5976 112.675 26.8896C112.786 27.3231 113.209 27.5309 113.47 27.8642C113.732 28.1974 113.993 28.5807 114.223 28.8709C115.316 28.2762 115.079 26.5528 116.684 26.8681ZM111.769 31.0601C112.161 31.0801 112.551 30.99 112.895 30.8001C113.238 30.6102 113.522 30.3279 113.714 29.9852C114.011 29.4263 113.255 29.2042 112.997 28.828C112.739 28.4517 112.331 28.1472 112.016 27.7889C111.812 27.556 111.614 27.4055 111.299 27.5883C110.482 28.0648 109.913 28.6954 110.117 29.7093C110.289 30.6122 110.97 30.9669 111.769 31.0601ZM111.912 26.2124C112.628 25.7753 113.435 25.4636 113.449 24.5715C113.449 23.8155 112.94 23.4106 112.188 23.4464C112.025 23.4382 111.863 23.4648 111.712 23.5244C111.561 23.5839 111.424 23.6752 111.311 23.7919C111.198 23.9086 111.112 24.0482 111.057 24.2012C111.002 24.3542 110.981 24.5171 110.995 24.679C110.998 25.3454 111.403 25.8362 111.912 26.2124Z" fill="black"/>
<path d="M187.644 14.837C185.336 14.8191 183.889 13.3608 183.921 11.0821C183.95 8.97539 185.53 7.52073 187.765 7.54223C190.001 7.56372 191.509 9.07929 191.502 11.2075C191.499 13.4218 189.976 14.8513 187.644 14.837ZM189.711 11.1789C189.71 10.9092 189.654 10.6426 189.547 10.395C189.44 10.1474 189.284 9.924 189.089 9.73823C188.893 9.55246 188.662 9.40816 188.41 9.314C188.157 9.21985 187.888 9.17779 187.618 9.19036C187.094 9.20904 186.599 9.43503 186.242 9.81867C185.884 10.2023 185.694 10.7122 185.712 11.2362C185.705 11.5067 185.755 11.7758 185.858 12.0259C185.962 12.2759 186.116 12.5014 186.313 12.6876C186.509 12.8739 186.743 13.0167 186.998 13.1067C187.253 13.1968 187.524 13.2321 187.794 13.2104C188.054 13.2044 188.31 13.1469 188.547 13.0412C188.784 12.9356 188.998 12.7839 189.177 12.5949C189.355 12.406 189.494 12.1835 189.586 11.9404C189.677 11.6974 189.72 11.4385 189.711 11.1789Z" fill="black"/>
<path d="M114.216 11.1892C114.216 12.0276 114.244 12.8696 114.216 13.6973C114.198 14.0305 114.495 14.6252 113.857 14.6324C113.427 14.6324 112.765 15.0659 112.542 14.2956C112.399 13.8119 112.256 14.1308 112.084 14.2383C109.88 15.6069 107.963 14.6682 107.827 12.1172C107.763 10.8811 107.852 9.63784 107.802 8.40174C107.763 7.53827 108.329 7.71741 108.834 7.68516C109.45 7.62784 109.69 7.82132 109.662 8.47341C109.612 9.54827 109.612 10.6231 109.662 11.698C109.701 12.4361 109.884 13.1742 110.862 13.1957C111.776 13.2136 112.317 12.7335 112.381 11.8449C112.466 10.7723 112.493 9.69581 112.46 8.62031C112.435 7.90373 112.607 7.66725 113.377 7.65292C114.237 7.63501 114.262 8.03629 114.237 8.67046C114.187 9.50886 114.216 10.3508 114.216 11.1892Z" fill="black"/>
<path d="M79.2251 11.9705C79.2251 12.5294 79.2466 13.0884 79.2251 13.6473C79.2072 13.9805 79.4186 14.4714 79.003 14.6111C78.5874 14.7508 77.9281 14.9192 77.6737 14.4749C77.4193 14.0307 77.2402 14.2635 76.9822 14.4033C76.708 14.5636 76.4125 14.6842 76.1044 14.7616C74.4276 15.1199 73.0052 14.346 72.7831 13.0131C72.5609 11.6803 73.5821 10.6878 75.3305 10.4442C75.807 10.3797 76.2871 10.3618 76.7637 10.308C77.0503 10.2722 77.4802 10.4513 77.5268 9.96765C77.5422 9.80579 77.5053 9.64326 77.4215 9.50395C77.3376 9.36464 77.2113 9.25591 77.0611 9.19375C76.7118 8.98814 76.3116 8.88544 75.9065 8.89749C75.5014 8.90953 75.108 9.03583 74.7716 9.26182C74.1482 9.66669 73.7684 9.40514 73.4925 8.92503C73.1342 8.32669 73.7684 8.20846 74.1016 8.02573C75.0747 7.52222 76.197 7.38734 77.2617 7.64595C78.4727 7.89675 79.114 8.72081 79.2 9.92825C79.2466 10.6018 79.2 11.2826 79.2 11.9597L79.2251 11.9705ZM76.563 11.6122C75.8178 11.7734 74.7393 11.5262 74.6569 12.705C74.6104 13.3929 75.3233 13.5219 75.8894 13.5255C76.7565 13.5255 77.534 12.7802 77.4874 12.0923C77.4408 11.4044 76.8998 11.7161 76.5451 11.6122H76.563Z" fill="black"/>
<path d="M158.231 30.9918C155.781 32.3676 153.513 31.6044 152.99 29.3795C152.832 28.8155 152.848 28.217 153.037 27.6626C153.226 27.1082 153.578 26.6238 154.047 26.2731C155.075 25.4454 156.243 25.3953 157.436 25.99C157.723 26.1334 158.092 26.7998 158.335 25.9148C158.36 25.8288 158.694 25.7787 158.88 25.793C159.238 25.8217 159.156 26.1226 159.156 26.3483C159.156 28.2258 159.156 30.1068 159.124 31.9842C159.106 33.2848 158.482 34.2379 157.217 34.5926C155.845 34.9724 154.505 34.8434 153.352 33.876C153.162 33.7183 152.993 33.5177 153.248 33.2884C153.434 33.1128 153.584 32.7796 153.928 33.0627C154.05 33.163 154.154 33.292 154.287 33.3816C155.225 34.005 156.229 34.1662 157.243 33.618C158.257 33.0698 158.242 32.0953 158.231 30.9918ZM156.042 30.8914C156.331 30.9064 156.62 30.8614 156.89 30.7594C157.161 30.6573 157.407 30.5004 157.614 30.2985C157.821 30.0966 157.984 29.8541 158.093 29.5862C158.202 29.3182 158.254 29.0307 158.246 28.7417C158.246 28.3188 158.121 27.9054 157.887 27.5532C157.653 27.2009 157.32 26.9254 156.931 26.7613C156.541 26.5971 156.112 26.5515 155.696 26.6302C155.281 26.7089 154.898 26.9083 154.595 27.2036C154.292 27.4989 154.083 27.8769 153.994 28.2903C153.905 28.7037 153.94 29.1342 154.095 29.5278C154.249 29.9214 154.517 30.2608 154.863 30.5033C155.209 30.7459 155.62 30.8809 156.042 30.8914Z" fill="black"/>
<path d="M143.52 14.8335C142.632 14.8335 141.997 14.8872 141.481 14.5469C141.123 14.314 140.267 14.2459 140.704 13.5508C141.001 13.0851 141.489 12.3255 142.28 13.1531C142.526 13.3638 142.832 13.4894 143.155 13.5114C143.649 13.5616 144.187 13.4505 144.348 12.931C144.552 12.2682 143.936 12.1571 143.502 12.0102C143.069 11.8633 142.56 11.8095 142.105 11.6519C141.342 11.4011 140.754 10.9926 140.704 10.0754C140.654 9.15821 140.887 8.40938 141.747 7.96868C142.298 7.67218 142.915 7.51877 143.541 7.52253C144.167 7.52628 144.782 7.68708 145.329 7.99018C145.616 8.13708 146.236 8.37355 145.788 8.83574C145.491 9.14028 145.251 9.95719 144.498 9.38035C144.275 9.21317 144.016 9.1003 143.742 9.05071C143.248 8.96831 142.689 9.01489 142.556 9.58099C142.424 10.1471 143.022 10.2116 143.413 10.3441C143.803 10.4767 144.183 10.5448 144.573 10.6415C145.63 10.9031 146.29 11.5444 146.265 12.6551C146.24 13.7658 145.516 14.4466 144.441 14.7332C144.138 14.7962 143.83 14.8298 143.52 14.8335Z" fill="black"/>
<path d="M124.688 14.8514C124.085 14.9083 123.478 14.798 122.933 14.5325C122.574 14.3211 121.829 14.1563 122.148 13.6189C122.406 13.1782 122.865 12.2968 123.721 13.1209C124.001 13.3501 124.348 13.4832 124.71 13.5006C125.194 13.5293 125.731 13.3967 125.842 12.8271C125.953 12.2574 125.412 12.1105 125.007 11.9958C124.513 11.8346 123.979 11.7952 123.492 11.616C122.775 11.3581 122.234 10.9174 122.17 10.079C122.105 9.68119 122.161 9.27308 122.331 8.90762C122.501 8.54216 122.777 8.23623 123.123 8.02955C123.625 7.72947 124.192 7.55546 124.776 7.5224C125.36 7.48933 125.943 7.59818 126.476 7.83966C126.87 7.99731 127.648 8.15496 127.275 8.81063C127.024 9.25133 126.559 9.98582 125.781 9.26566C125.606 9.12677 125.397 9.03724 125.176 9.00636C124.955 8.97549 124.73 9.00441 124.524 9.0901C124.244 9.17967 124.011 9.34807 124.025 9.68486C124.027 9.80608 124.07 9.92321 124.146 10.017C124.223 10.1108 124.33 10.1756 124.448 10.2008C124.946 10.3477 125.455 10.4695 125.953 10.6164C127.282 11.0069 127.813 11.6626 127.727 12.802C127.651 13.8338 126.863 14.5934 125.649 14.7869C125.333 14.8371 125.011 14.8299 124.688 14.8514Z" fill="black"/>
<path d="M118.551 14.8368C117.734 14.8368 117.153 14.8798 116.652 14.5896C116.233 14.3495 115.369 14.2886 115.788 13.5398C116.054 13.0633 116.569 12.3288 117.351 13.1815C117.595 13.3916 117.906 13.5083 118.228 13.5111C118.708 13.5362 119.26 13.4502 119.411 12.9128C119.593 12.2535 118.984 12.1461 118.551 12.0027C118.056 11.8415 117.53 11.7842 117.039 11.6229C116.704 11.5408 116.401 11.3605 116.169 11.1052C115.938 10.8498 115.788 10.5311 115.738 10.1898C115.667 9.81515 115.701 9.42824 115.835 9.07126C115.969 8.71428 116.198 8.40095 116.498 8.16545C117.462 7.36646 119.583 7.3378 120.575 8.10812C120.804 8.28368 121.249 8.52015 120.855 8.8247C120.461 9.12924 120.335 9.81358 119.647 9.48037C119.507 9.4123 119.404 9.26898 119.264 9.19732C119.054 9.07916 118.819 9.01559 118.578 9.01246C118.338 9.00933 118.1 9.06674 117.888 9.17941C117.775 9.22579 117.683 9.31179 117.629 9.42129C117.575 9.53079 117.562 9.65626 117.594 9.77417C117.745 10.3116 118.282 10.2471 118.669 10.4012C118.974 10.498 119.284 10.5781 119.597 10.6412C120.625 10.9171 121.288 11.4581 121.274 12.6369C121.259 13.8157 120.514 14.4283 119.482 14.7293C119.177 14.8026 118.865 14.8387 118.551 14.8368Z" fill="black"/>
<path d="M68.5087 12.3077C69.2611 11.0107 69.5835 9.73874 70.0887 8.54922C70.2571 8.16585 70.3144 7.64992 70.9235 7.68933C71.3176 7.71083 71.8085 7.51377 72.0772 7.81473C72.3459 8.1157 71.9805 8.48474 71.8622 8.80003C71.203 10.5127 70.4685 12.2002 69.8487 13.9271C69.605 14.6115 69.2037 14.7118 68.5803 14.7046C67.9569 14.6975 67.5377 14.6401 67.2797 13.9558C66.6384 12.236 65.886 10.5592 65.216 8.85018C65.0834 8.4919 64.5603 7.91863 65.0942 7.77532C65.628 7.632 66.556 7.28088 66.9358 8.28409C67.4266 9.56677 67.939 10.8494 68.5087 12.3077Z" fill="black"/>
<path d="M167.988 28.6521C167.988 27.8926 168.013 27.133 167.988 26.377C167.966 25.9041 168.346 25.5314 168.554 25.8181C169.141 26.6063 169.532 25.9148 169.987 25.7715C170.858 25.4956 171.696 25.4992 172.316 26.2086C172.721 26.6744 172.864 26.4594 173.197 26.1764C173.562 25.8552 174.017 25.6534 174.5 25.5983C174.983 25.5432 175.471 25.6374 175.899 25.8682C176.773 26.2803 176.949 27.1187 176.974 27.9929C176.974 28.9531 176.974 29.9097 176.974 30.8592C176.974 31.2175 177.12 31.7191 176.458 31.7048C175.795 31.6904 176.053 31.2175 176.046 30.913C176.021 29.9563 176.046 28.9961 176.046 28.0466C176.028 27.2727 175.82 26.6135 174.892 26.4917C173.964 26.3698 173.362 26.7926 173.1 27.6955C172.803 28.7704 173.036 29.8452 172.957 30.9201C172.932 31.2354 173.136 31.7048 172.534 31.7191C171.932 31.7334 172.051 31.3071 172.051 30.9559C172.051 29.9993 172.069 29.0391 172.022 28.0896C171.986 27.2978 171.821 26.5454 170.786 26.4988C170.575 26.4729 170.361 26.491 170.157 26.5521C169.954 26.6131 169.765 26.7157 169.603 26.8534C169.441 26.9912 169.309 27.161 169.216 27.3522C169.123 27.5434 169.071 27.7518 169.063 27.9642C168.93 28.9495 168.977 29.9563 168.941 30.9524C168.941 31.3106 169.037 31.7263 168.471 31.7263C167.905 31.7263 168.045 31.2605 168.038 30.938C167.977 30.1713 167.988 29.4189 167.988 28.6521Z" fill="black"/>
<path d="M80.404 28.6415C80.404 27.882 80.4541 27.1152 80.404 26.3628C80.3502 25.7179 80.9163 25.5818 81.0811 25.829C81.5935 26.6029 81.9267 25.8899 82.3316 25.8111C82.6791 25.7244 83.0323 25.6622 83.3885 25.6248C84.1588 25.5853 84.75 26.5384 85.18 26.4452C85.7855 26.3127 86.2978 25.6248 87.0825 25.614C88.3544 25.5889 89.2143 26.2159 89.3146 27.4628C89.415 28.7096 89.354 29.9386 89.3684 31.1782C89.3684 31.4828 89.3433 31.7264 88.9313 31.7228C88.5192 31.7193 88.4189 31.4541 88.4225 31.0923C88.4225 30.0926 88.4404 29.093 88.4225 28.0934C88.401 27.2836 88.2183 26.5671 87.2007 26.4846C86.1832 26.4022 85.6601 26.9504 85.4487 27.8963C85.2373 28.8422 85.3663 29.8884 85.3054 30.8809C85.2875 31.1926 85.5168 31.687 84.922 31.7085C84.3272 31.73 84.5064 31.2391 84.4956 30.9203C84.4598 29.9636 84.4706 29.0034 84.424 28.054C84.381 27.1761 84.0908 26.4416 83.0195 26.4918C82.0127 26.5384 81.5039 27.2084 81.4215 28.122C81.3391 29.0357 81.3785 30.0389 81.3714 30.9883C81.3714 31.3466 81.4 31.7264 80.8483 31.7049C80.2965 31.6834 80.4362 31.318 80.4326 31.0242C80.4004 30.2395 80.4076 29.4405 80.404 28.6415Z" fill="black"/>
<path d="M163.548 14.837C161.739 14.837 160.474 13.9592 159.965 12.4364C159.71 11.7149 159.685 10.9317 159.894 10.1954C160.104 9.45914 160.537 8.80614 161.133 8.32687C162.287 7.41323 164.218 7.252 165.433 8.0474C165.694 8.2158 166.4 8.38061 165.902 8.85355C165.562 9.17601 165.39 10.1362 164.544 9.57013C163.62 8.94671 162.789 9.11152 162.076 9.88184C161.751 10.2456 161.571 10.7162 161.571 11.2039C161.571 11.6916 161.751 12.1623 162.076 12.526C162.792 13.3107 163.649 13.4862 164.559 12.9022C165.469 12.3182 165.54 13.2928 165.881 13.6188C166.429 14.1168 165.716 14.2422 165.454 14.4035C164.882 14.7491 164.214 14.9011 163.548 14.837Z" fill="black"/>
<path d="M45.0334 27.2298C45.0334 26.0295 45.0585 24.8293 45.0334 23.6469C45.0334 23.0163 45.1445 22.7046 45.8861 22.7333C47.2476 22.7906 48.6163 22.7512 49.9814 22.7512C50.3397 22.7512 50.7195 22.7189 50.698 23.2743C50.6765 23.8296 50.3003 23.6791 50.0136 23.6827C48.971 23.6827 47.9248 23.7293 46.8822 23.6827C46.1907 23.6469 46.0187 23.869 46.0151 24.5462C46.0151 26.6028 45.9829 26.6028 48.0896 26.6028C48.6127 26.6028 49.1358 26.6028 49.6554 26.6028C50.0423 26.6028 50.3934 26.6028 50.3719 27.1366C50.3504 27.6705 49.9671 27.5343 49.6768 27.5379C48.6736 27.5379 47.6668 27.5737 46.6636 27.5379C46.094 27.5128 46.0008 27.7708 46.0223 28.2545C46.0599 28.8929 46.0599 29.533 46.0223 30.1713C45.9793 30.7446 46.162 30.9417 46.7389 30.9166C47.8603 30.87 48.9889 30.8987 50.114 30.9166C50.4149 30.9166 50.784 30.8127 50.7553 31.3501C50.7266 31.8876 50.397 31.7801 50.0745 31.7801C48.6414 31.7801 47.1832 31.7586 45.7392 31.7801C45.1266 31.7801 44.994 31.5293 45.0227 30.9882C45.0513 29.7056 45.0334 28.4659 45.0334 27.2298Z" fill="black"/>
<path d="M63.7576 9.26543C63.7576 10.824 63.7253 12.3826 63.7576 13.9232C63.7791 14.6398 63.4244 14.7043 62.8726 14.6828C62.3208 14.6613 61.8981 14.7186 61.9016 13.9662C61.9207 10.7702 61.9207 7.5755 61.9016 4.38195C61.9016 3.60088 62.3997 3.74062 62.869 3.71553C63.41 3.68329 63.7791 3.71553 63.7576 4.45002C63.7217 6.06949 63.7576 7.66746 63.7576 9.26543Z" fill="black"/>
<path d="M181.882 28.9965C181.363 28.9965 180.84 29.0251 180.32 28.9965C179.349 28.932 179.449 29.3977 179.793 29.9961C180.463 31.1605 181.839 31.4292 182.993 30.5514C183.319 30.3078 183.588 29.9208 183.95 30.4117C184.311 30.9026 183.756 31.1068 183.491 31.3074C182.897 31.7497 182.168 31.9699 181.429 31.9297C180.689 31.8895 179.988 31.5914 179.446 31.0873C178.904 30.5832 178.556 29.9051 178.462 29.1709C178.369 28.4366 178.535 27.6928 178.933 27.0689C179.303 26.4672 179.871 26.0127 180.539 25.7833C181.207 25.5539 181.934 25.5638 182.595 25.8113C183.051 25.9697 183.452 26.2542 183.752 26.6318C184.236 27.2588 184.62 28.0434 184.354 28.7349C184.122 29.3512 183.28 28.8997 182.724 28.9965C182.444 29.0198 182.162 29.0198 181.882 28.9965ZM181.413 28.2584C181.811 28.2584 182.212 28.2261 182.606 28.2584C183.584 28.348 183.459 27.8428 183.133 27.2803C182.556 26.295 181.029 26.1767 180.112 27.0402C179.826 27.3125 179.471 27.6385 179.621 28.047C179.772 28.4554 180.248 28.2011 180.578 28.2441C180.856 28.2686 181.135 28.2734 181.413 28.2584Z" fill="black"/>
<path d="M164.115 28.9964C163.634 28.9964 163.151 28.9964 162.681 28.9964C162.373 28.9964 161.965 28.8352 161.789 29.1505C161.592 29.541 161.882 29.9172 162.126 30.2253C162.294 30.4515 162.505 30.6411 162.749 30.7825C162.992 30.9239 163.262 31.0142 163.541 31.0477C163.821 31.0813 164.104 31.0574 164.374 30.9776C164.644 30.8978 164.894 30.7637 165.111 30.5836C165.469 30.3185 165.788 29.867 166.157 30.4475C166.479 30.9455 165.902 31.1211 165.627 31.3253C165.027 31.7269 164.313 31.9224 163.592 31.8824C162.871 31.8423 162.183 31.5688 161.632 31.1031C161.115 30.5713 160.786 29.8858 160.693 29.1502C160.601 28.4146 160.75 27.6689 161.119 27.0258C161.486 26.4473 162.037 26.0092 162.683 25.7823C163.329 25.5554 164.033 25.553 164.681 25.7754C165.141 25.9183 165.55 26.1907 165.859 26.56C166.393 27.2014 166.805 27.9932 166.497 28.7492C166.25 29.3368 165.422 28.8961 164.849 28.9892C164.605 29.0121 164.359 29.0146 164.115 28.9964ZM163.577 28.2583C163.975 28.2583 164.376 28.2332 164.77 28.2583C165.766 28.3336 165.609 27.8284 165.272 27.273C164.659 26.2698 163.187 26.1731 162.262 27.0652C161.983 27.3375 161.596 27.6456 161.775 28.0648C161.954 28.484 162.409 28.2046 162.739 28.2476C163.018 28.2673 163.298 28.2709 163.577 28.2583Z" fill="black"/>
<path d="M102.156 11.1461C102.156 10.3507 102.127 9.55176 102.156 8.75635C102.174 8.39806 101.894 7.86063 102.45 7.73881C102.897 7.63491 103.736 7.60266 103.815 7.78539C104.173 8.61304 104.463 8.0362 104.786 7.85347C105.034 7.68035 105.322 7.57033 105.623 7.53288C105.923 7.49543 106.229 7.53167 106.513 7.63849C106.942 7.8463 106.645 8.44106 106.706 8.85667C106.774 9.34036 106.495 9.29021 106.129 9.29021C104.52 9.29021 104.026 9.82048 104.015 11.4579C104.015 12.1744 103.987 12.891 104.015 13.6076C104.044 14.3242 104.015 14.7183 103.094 14.704C102.27 14.704 102.07 14.4102 102.124 13.6542C102.217 12.8337 102.156 11.9917 102.156 11.1461Z" fill="black"/>
<path d="M139.12 9.13631C139.12 10.7307 139.091 12.3251 139.12 13.9195C139.142 14.5931 138.851 14.7113 138.267 14.6934C137.683 14.6755 137.289 14.6934 137.3 13.9087C137.343 10.7629 137.35 7.61357 137.3 4.46779C137.3 3.60432 137.769 3.75121 138.282 3.72972C138.794 3.70822 139.152 3.77988 139.127 4.47497C139.084 6.02636 139.12 7.58492 139.12 9.13631Z" fill="black"/>
<path d="M193.093 9.01821C193.093 7.50623 193.143 5.98709 193.093 4.47869C193.053 3.63671 193.53 3.76211 194.06 3.72628C194.591 3.69045 194.927 3.75853 194.917 4.46436C194.876 7.61253 194.876 10.7607 194.917 13.9089C194.917 14.7078 194.519 14.6792 193.953 14.6935C193.387 14.7078 193.079 14.5968 193.096 13.9196C193.122 12.2858 193.093 10.652 193.093 9.01821Z" fill="black"/>
<path d="M137.78 29.5697C137.78 30.1286 137.748 30.6911 137.78 31.2465C137.813 31.8018 137.3 31.8341 137.2 31.68C136.673 30.8846 136.29 31.5761 135.831 31.7122C134.918 31.9845 134.011 32.0204 133.212 31.354C132.632 30.8667 132.635 30.2039 132.786 29.5876C133.015 28.6381 133.818 28.3372 134.692 28.1938C135.086 28.1258 135.491 28.1114 135.881 28.0183C136.186 27.9466 136.709 28.2512 136.748 27.7137C136.772 27.4702 136.711 27.226 136.577 27.0215C136.443 26.8169 136.243 26.6643 136.01 26.5887C135.687 26.4741 135.341 26.4342 135 26.472C134.659 26.5099 134.33 26.6245 134.04 26.8073C133.699 27.0115 133.381 27.2014 133.141 26.7464C132.9 26.2913 133.37 26.1552 133.649 26.0083C135.864 24.8403 137.702 25.9008 137.748 28.3694C137.748 28.7671 137.748 29.1684 137.748 29.5697H137.78ZM135.835 28.8137C135.011 29.0358 133.825 28.7707 133.757 30.0928C133.717 30.9348 134.473 31.0602 135.143 31.0458C135.591 31.0365 136.017 30.8524 136.33 30.533C136.643 30.2136 136.819 29.7842 136.82 29.3368C136.824 28.5342 136.193 28.9785 135.835 28.8137Z" fill="black"/>
<path d="M151.392 29.3938C151.392 29.9958 151.37 30.5941 151.392 31.1853C151.413 31.6188 151.033 31.9019 150.869 31.669C150.306 30.8807 149.919 31.5328 149.471 31.712C148.443 32.1204 147.128 31.8338 146.605 31.0885C146.462 30.8713 146.368 30.6254 146.329 30.3682C146.291 30.1109 146.309 29.8483 146.382 29.5987C146.456 29.3492 146.583 29.1185 146.754 28.9229C146.925 28.7273 147.137 28.5713 147.375 28.4659C148.115 28.1438 148.919 27.9943 149.726 28.0288C150.664 28.0288 150.521 27.5236 150.184 27.0578C149.536 26.1549 148.647 26.4165 147.802 26.721C147.422 26.8571 147.01 27.3695 146.745 26.6708C146.533 26.1012 147.153 26.051 147.461 25.9148C149.722 24.9009 151.352 25.965 151.352 28.4229V29.3795L151.392 29.3938ZM149.45 28.8242C148.611 29.014 147.433 28.8242 147.382 30.0997C147.354 30.8628 148.099 31.0778 148.783 31.0527C149.226 31.0387 149.645 30.852 149.952 30.5326C150.259 30.2132 150.428 29.7865 150.424 29.3437C150.392 28.559 149.808 28.9496 149.45 28.8242Z" fill="black"/>
<path d="M61.2603 31.8771C59.3793 31.8771 58.0178 30.6016 57.9963 28.7922C57.9914 28.3688 58.0699 27.9485 58.2274 27.5554C58.3849 27.1622 58.6182 26.804 58.9142 26.5011C59.2101 26.1981 59.5628 25.9565 59.9522 25.7899C60.3415 25.6232 60.7598 25.5349 61.1833 25.53C61.6068 25.5251 62.027 25.6036 62.4202 25.7611C62.8133 25.9186 63.1715 26.1519 63.4745 26.4479C63.7774 26.7438 64.0191 27.0965 64.1857 27.4859C64.3523 27.8752 64.4406 28.2935 64.4455 28.717C64.4778 30.5228 63.1234 31.8628 61.2603 31.8771ZM61.2603 26.4562C60.9611 26.4585 60.6654 26.5202 60.3903 26.6379C60.1152 26.7555 59.8662 26.9266 59.6579 27.1413C59.4495 27.356 59.2859 27.61 59.1766 27.8885C59.0672 28.167 59.0144 28.4645 59.021 28.7636C59.0057 29.061 59.0505 29.3585 59.1528 29.6382C59.2551 29.9179 59.4127 30.1741 59.6163 30.3914C59.8199 30.6088 60.0653 30.7828 60.3377 30.9032C60.6101 31.0235 60.904 31.0876 61.2018 31.0917C61.4996 31.0958 61.7952 31.0398 62.0708 30.927C62.3465 30.8142 62.5965 30.647 62.806 30.4353C63.0155 30.2237 63.1802 29.9719 63.2901 29.6951C63.4001 29.4183 63.4531 29.1222 63.4459 28.8245C63.4584 28.5248 63.4114 28.2256 63.3078 27.9441C63.2042 27.6625 63.046 27.4043 62.8422 27.1842C62.6384 26.9641 62.3931 26.7865 62.1204 26.6615C61.8477 26.5366 61.5529 26.4668 61.2532 26.4562H61.2603Z" fill="black"/>
<path d="M72.6397 28.7028C72.6397 26.8254 73.9618 25.5821 75.8643 25.6179C76.276 25.6096 76.6852 25.6848 77.0671 25.8391C77.4489 25.9933 77.7955 26.2235 78.0859 26.5155C78.3763 26.8076 78.6044 27.1555 78.7565 27.5382C78.9085 27.9209 78.9814 28.3305 78.9707 28.7422C78.9707 30.5982 77.6522 31.888 75.7461 31.8772C73.84 31.8665 72.6182 30.6161 72.6397 28.7028ZM73.625 28.7924C73.625 30.1503 74.5637 31.0926 75.85 31.0568C76.4381 31.0164 76.9884 30.752 77.3876 30.3181C77.7867 29.8842 78.0044 29.3138 77.9956 28.7243C77.9869 28.1348 77.7525 27.5711 77.3407 27.1492C76.9289 26.7273 76.371 26.4793 75.7819 26.4563C74.4992 26.4563 73.6142 27.413 73.625 28.7924Z" fill="black"/>
<path d="M185.834 28.5876C185.834 27.828 185.888 27.0648 185.834 26.3124C185.777 25.7105 186.293 25.6173 186.447 25.818C186.995 26.5346 187.393 25.9935 187.88 25.8001C189.564 25.1121 190.979 26.0509 191.008 27.8674C191.008 28.9423 191.008 30.0171 191.008 31.092C191.008 31.3464 191.108 31.6903 190.649 31.7047C190.191 31.719 190.137 31.4503 190.133 31.0848C190.133 30.0888 190.09 29.0927 190.069 28.0967C190.069 27.1938 189.739 26.5059 188.711 26.4737C188.49 26.4479 188.265 26.4678 188.051 26.5323C187.838 26.5968 187.64 26.7044 187.47 26.8485C187.299 26.9925 187.16 27.17 187.062 27.3699C186.963 27.5699 186.906 27.7879 186.895 28.0107C186.769 28.9924 186.819 29.9992 186.791 30.9953C186.791 31.307 186.859 31.6688 186.375 31.7118C185.784 31.7548 185.884 31.3249 185.881 30.9953C185.881 30.1963 185.881 29.3973 185.881 28.5983L185.834 28.5876Z" fill="black"/>
<path d="M65.8395 28.6769C65.879 27.919 65.879 27.1596 65.8395 26.4018C65.7715 25.7676 66.2981 25.5634 66.488 25.8321C67.0362 26.6132 67.4124 25.9754 67.828 25.807C69.5478 25.1227 70.9667 26.0005 71.0204 27.8206C71.0491 28.8955 71.0204 29.9703 71.0204 31.0452C71.0204 31.3533 71.0992 31.7152 70.5797 31.708C70.1247 31.708 70.0709 31.4322 70.0745 31.0739C70.0745 30.1136 70.0924 29.1534 70.0745 28.2075C70.0745 27.3477 69.8667 26.5953 68.8097 26.4878C68.5802 26.4525 68.3459 26.4653 68.1216 26.5253C67.8973 26.5853 67.688 26.6913 67.5068 26.8365C67.3255 26.9816 67.1765 27.1629 67.0689 27.3686C66.9614 27.5744 66.8978 27.8003 66.8822 28.032C66.7747 28.9815 66.832 29.9488 66.8033 30.8983C66.8033 31.2315 66.9359 31.6758 66.3626 31.7045C65.7894 31.7331 65.904 31.2781 65.8969 30.9449C65.8969 30.1853 65.8969 29.4257 65.8969 28.6662L65.8395 28.6769Z" fill="black"/>
<path d="M139.547 28.6167C139.547 27.8607 139.583 27.1012 139.547 26.3488C139.511 25.7146 140.095 25.5784 140.245 25.84C140.74 26.6999 141.091 25.9941 141.467 25.84C143.083 25.1234 144.617 25.9833 144.746 27.7282C144.828 28.8389 144.763 29.9567 144.774 31.0746C144.774 31.415 144.774 31.7267 144.298 31.7267C143.821 31.7267 143.861 31.3684 143.861 31.0567C143.861 30.1395 143.893 29.2222 143.861 28.305C143.8 27.0152 143.28 26.4419 142.288 26.4778C141.295 26.5136 140.6 27.2875 140.557 28.4053C140.521 29.3226 140.557 30.2398 140.557 31.157C140.557 31.4329 140.586 31.7267 140.156 31.7303C139.726 31.7339 139.608 31.526 139.615 31.1355C139.615 30.3007 139.615 29.4623 139.615 28.6275L139.547 28.6167Z" fill="black"/>
<path d="M102.087 31.8773C101.472 31.9186 100.864 31.7167 100.396 31.3148C100.192 31.1356 99.755 30.9565 100.095 30.5695C100.357 30.2614 100.626 30.1503 100.97 30.5337C101.184 30.7766 101.468 30.9493 101.782 31.0292C102.096 31.109 102.428 31.0924 102.732 30.9815C102.932 30.9507 103.117 30.8558 103.258 30.7111C103.4 30.5664 103.491 30.3796 103.517 30.179C103.549 29.6953 103.202 29.4624 102.8 29.3442C102.342 29.1973 101.876 29.0934 101.414 28.9572C100.608 28.7207 100.052 28.2406 100.088 27.3485C100.124 26.4563 100.622 25.9798 101.453 25.7433C101.853 25.6079 102.279 25.5698 102.697 25.6321C103.114 25.6944 103.511 25.8554 103.854 26.1016C104.062 26.2557 104.488 26.4599 104.137 26.8433C103.911 27.0798 103.614 27.3987 103.263 26.9042C103.164 26.776 103.037 26.6725 102.891 26.6022C102.746 26.5319 102.586 26.4967 102.424 26.4993C101.894 26.4993 101.317 26.4993 101.149 27.1192C100.955 27.8358 101.554 27.9755 102.041 28.1511C102.231 28.2155 102.435 28.2227 102.628 28.2729C104.08 28.6312 104.674 29.2761 104.531 30.3044C104.388 31.3327 103.535 31.8808 102.087 31.8773Z" fill="black"/>
<path d="M97.0392 31.8772C95.5451 31.8485 94.5312 31.1606 94.1299 29.8887C93.6641 28.4555 94.0546 27.0224 95.1188 26.2198C95.6217 25.8524 96.2212 25.6404 96.8433 25.6098C97.4653 25.5792 98.0827 25.7315 98.6193 26.0478C98.8772 26.2234 99.3752 26.3595 99.1209 26.8182C98.8665 27.2768 98.5368 27.0761 98.1535 26.8182C97.7454 26.521 97.2385 26.3924 96.7381 26.4591C96.2377 26.5258 95.7823 26.7827 95.4663 27.1764C95.1332 27.6271 94.9534 28.1728 94.9534 28.7332C94.9534 29.2936 95.1332 29.8393 95.4663 30.29C95.7776 30.6875 96.2298 30.9502 96.7293 31.0236C97.2289 31.0969 97.7375 30.9754 98.1499 30.6841C98.5082 30.462 98.8414 30.1574 99.1316 30.6519C99.4218 31.1463 98.8593 31.3075 98.5727 31.4902C98.1191 31.7869 97.5792 31.9232 97.0392 31.8772Z" fill="black"/>
<path d="M55.0726 31.8769C53.5713 31.8769 52.5646 31.189 52.1131 29.9243C51.8806 29.3039 51.8389 28.6282 51.9935 27.984C52.148 27.3398 52.4916 26.7565 52.9802 26.3091C53.4688 25.9208 54.0596 25.6825 54.681 25.6234C55.3024 25.5643 55.9275 25.6867 56.4807 25.9759C56.7852 26.1515 57.3621 26.2948 57.122 26.7856C56.8819 27.2765 56.4842 27.0615 56.0722 26.7856C55.6712 26.5129 55.1832 26.3986 54.7027 26.4648C54.2223 26.531 53.7834 26.7729 53.471 27.1439C53.1052 27.5975 52.9056 28.1627 52.9056 28.7455C52.9056 29.3282 53.1052 29.8934 53.471 30.347C53.7806 30.7222 54.2199 30.9673 54.7017 31.0337C55.1836 31.1001 55.6728 30.9829 56.0722 30.7053C56.4305 30.4689 56.735 30.1643 57.0683 30.6265C57.4624 31.1819 56.8354 31.275 56.5702 31.4649C56.1319 31.7675 55.604 31.9127 55.0726 31.8769Z" fill="black"/>
<path d="M193.415 28.8707C193.415 28.3942 193.39 27.9141 193.415 27.4376C193.451 26.875 193.351 26.4881 192.652 26.5956C192.294 26.6493 192.14 26.4953 192.161 26.1262C192.183 25.7572 192.409 25.75 192.656 25.7858C193.372 25.8897 193.444 25.4992 193.419 24.9367C193.419 24.6322 193.222 24.1735 193.831 24.1413C194.44 24.1091 194.351 24.5569 194.3 24.8794C194.153 25.8002 194.705 25.8253 195.375 25.7858C195.665 25.7858 196.052 25.6604 196.049 26.1943C196.045 26.7281 195.644 26.635 195.368 26.5884C194.361 26.4129 194.239 26.9467 194.293 27.7493C194.347 28.3834 194.293 29.0248 194.293 29.6661C194.293 30.569 194.411 31.3357 195.64 30.9595C195.888 30.8843 195.999 30.9345 195.999 31.2032C195.999 31.4719 195.999 31.712 195.64 31.8338C194.433 32.2422 193.444 31.5973 193.39 30.311C193.397 29.8309 193.415 29.3508 193.415 28.8707Z" fill="black"/>
<path d="M92.292 28.8028C92.292 29.5982 92.292 30.3936 92.292 31.1854C92.292 31.5079 92.2203 31.73 91.837 31.7193C91.4536 31.7085 91.3748 31.4971 91.3748 31.1711C91.3748 29.5444 91.3748 27.9166 91.3748 26.2876C91.3748 25.9293 91.4858 25.7788 91.8477 25.7717C92.2096 25.7645 92.2956 25.9866 92.292 26.3019C92.2848 27.1367 92.292 27.9859 92.292 28.8028Z" fill="black"/>
<path d="M92.4818 23.4505C92.4818 23.8912 92.2883 24.117 91.9049 24.1456C91.8258 24.1638 91.7435 24.164 91.6643 24.1463C91.585 24.1286 91.5107 24.0934 91.4468 24.0432C91.3829 23.9931 91.331 23.9293 91.295 23.8565C91.259 23.7837 91.2397 23.7037 91.2385 23.6225C91.217 23.5322 91.2174 23.438 91.2396 23.3478C91.2617 23.2577 91.3051 23.1741 91.3661 23.104C91.427 23.0339 91.5038 22.9794 91.59 22.945C91.6763 22.9105 91.7695 22.8972 91.8619 22.9059C92.0154 22.8998 92.1654 22.9529 92.2808 23.0543C92.3961 23.1557 92.4681 23.2976 92.4818 23.4505Z" fill="black"/>
</svg>
